<svg width="149" height="146" viewBox="0 0 149 146" fill="none" xmlns="http://www.w3.org/2000/svg">
<path d="M122.918 21.4334C122.918 21.4334 111.366 1.49108 92.1891 0.0827893C73.0126 -1.3255 62.3168 15.5278 54.467 28.1701C46.6172 40.8124 22.8527 33.5031 8.46132 52.8867C-5.93001 72.2703 1.0488 83.4997 7.386 94.7337C13.7232 105.968 19.7844 107.667 19.7844 116.929C19.7844 126.192 23.2756 138.557 37.011 141.364C50.7464 144.172 64.9191 127.05 74.7295 133.515C84.54 139.979 101.003 145.03 111.09 141.364C121.176 137.698 118.119 124.229 129.012 119.737C139.905 115.244 150.378 101.198 148.851 86.03C147.324 70.862 138.603 68.0547 134.897 53.45C131.191 38.8454 125.972 27.6114 122.918 21.4334Z" fill="#90CAF9"/>
<path opacity="0.7" d="M122.918 21.4334C122.918 21.4334 111.366 1.49108 92.1891 0.0827893C73.0126 -1.3255 62.3168 15.5278 54.467 28.1701C46.6172 40.8124 22.8527 33.5031 8.46132 52.8867C-5.93001 72.2703 1.0488 83.4997 7.386 94.7337C13.7232 105.968 19.7844 107.667 19.7844 116.929C19.7844 126.192 23.2756 138.557 37.011 141.364C50.7464 144.172 64.9191 127.05 74.7295 133.515C84.54 139.979 101.003 145.03 111.09 141.364C121.176 137.698 118.119 124.229 129.012 119.737C139.905 115.244 150.378 101.198 148.851 86.03C147.324 70.862 138.603 68.0547 134.897 53.45C131.191 38.8454 125.972 27.6114 122.918 21.4334Z" fill="white"/>
<path d="M136.055 144.522C136.055 145.34 115.982 146 91.25 146C66.5177 146 46.4451 145.34 46.4451 144.522C46.4451 143.705 66.5177 143.05 91.25 143.05C115.982 143.05 136.055 143.71 136.055 144.522Z" fill="#2E353A"/>
<path d="M100.607 7.586H58.5081C57.1976 7.586 56.1352 8.95452 56.1352 10.6427V31.8409C56.1352 33.5291 57.1976 34.8976 58.5081 34.8976H100.607C101.917 34.8976 102.98 33.5291 102.98 31.8409V10.6427C102.98 8.95452 101.917 7.586 100.607 7.586Z" fill="#90CAF9"/>
<path d="M56.1342 30.0955V39.9535L60.4032 33.6232" fill="#90CAF9"/>
<path d="M100.609 7.586H58.4959C58.1845 7.586 57.8761 7.6651 57.5884 7.81876C57.3007 7.97243 57.0394 8.19766 56.8193 8.48156C56.5993 8.76546 56.4248 9.10246 56.306 9.47329C56.1871 9.84411 56.1262 10.2415 56.1267 10.6427V39.9536L59.539 34.8976H100.609C100.92 34.8976 101.229 34.8185 101.516 34.6648C101.804 34.5111 102.065 34.2859 102.286 34.002C102.506 33.7181 102.68 33.3811 102.799 33.0103C102.918 32.6395 102.979 32.2421 102.978 31.8409V10.6427C102.979 10.2415 102.918 9.84411 102.799 9.47329C102.68 9.10246 102.506 8.76546 102.286 8.48156C102.065 8.19766 101.804 7.97243 101.516 7.81876C101.229 7.6651 100.92 7.586 100.609 7.586Z" fill="#90CAF9"/>
<path opacity="0.1" d="M100.609 7.586H58.4959C58.1845 7.586 57.8761 7.6651 57.5884 7.81876C57.3007 7.97243 57.0394 8.19766 56.8193 8.48156C56.5993 8.76546 56.4248 9.10246 56.306 9.47329C56.1871 9.84411 56.1262 10.2415 56.1267 10.6427V39.9536L59.539 34.8976H100.609C100.92 34.8976 101.229 34.8185 101.516 34.6648C101.804 34.5111 102.065 34.2859 102.286 34.002C102.506 33.7181 102.68 33.3811 102.799 33.0103C102.918 32.6395 102.979 32.2421 102.978 31.8409V10.6427C102.979 10.2415 102.918 9.84411 102.799 9.47329C102.68 9.10246 102.506 8.76546 102.286 8.48156C102.065 8.19766 101.804 7.97243 101.516 7.81876C101.229 7.6651 100.92 7.586 100.609 7.586Z" fill="#90CAF9"/>
<path d="M92.1891 22.5692H61.9404C61.716 22.5692 61.5009 22.4544 61.3422 22.2501C61.1836 22.0457 61.0945 21.7685 61.0945 21.4795C61.0954 21.1913 61.185 20.9154 61.3435 20.712C61.502 20.5086 61.7167 20.3945 61.9404 20.3945H92.1891C92.4128 20.3945 92.6274 20.5086 92.786 20.712C92.9445 20.9154 93.034 21.1913 93.035 21.4795C93.035 21.6226 93.0131 21.7643 92.9706 21.8966C92.9281 22.0288 92.8658 22.1489 92.7872 22.2501C92.7087 22.3513 92.6154 22.4315 92.5128 22.4863C92.4102 22.541 92.3002 22.5692 92.1891 22.5692Z" fill="white"/>
<path d="M92.1891 27.5744H61.9404C61.8293 27.5744 61.7193 27.5462 61.6167 27.4915C61.514 27.4367 61.4208 27.3564 61.3422 27.2553C61.2637 27.1541 61.2014 27.0339 61.1589 26.9017C61.1164 26.7695 61.0945 26.6278 61.0945 26.4847C61.0954 26.1965 61.185 25.9205 61.3435 25.7172C61.502 25.5138 61.7167 25.3997 61.9404 25.3997H92.1891C92.4128 25.3997 92.6274 25.5138 92.786 25.7172C92.9445 25.9205 93.034 26.1965 93.035 26.4847C93.035 26.6278 93.0131 26.7695 92.9706 26.9017C92.9281 27.0339 92.8658 27.1541 92.7872 27.2553C92.7087 27.3564 92.6154 27.4367 92.5128 27.4915C92.4102 27.5462 92.3002 27.5744 92.1891 27.5744Z" fill="white"/>
<path d="M63.6285 17.564C65.3072 17.564 66.6681 15.811 66.6681 13.6485C66.6681 11.4861 65.3072 9.73303 63.6285 9.73303C61.9498 9.73303 60.5889 11.4861 60.5889 13.6485C60.5889 15.811 61.9498 17.564 63.6285 17.564Z" fill="white"/>
<path d="M100.606 44.5478H58.507C57.1965 44.5478 56.1342 45.9163 56.1342 47.6045V68.8027C56.1342 70.4908 57.1965 71.8594 58.507 71.8594H100.606C101.916 71.8594 102.979 70.4908 102.979 68.8027V47.6045C102.979 45.9163 101.916 44.5478 100.606 44.5478Z" fill="#90CAF9"/>
<path d="M56.1342 67.0527V76.9154L60.4032 70.5804" fill="#90CAF9"/>
<path d="M100.609 44.5478H58.4959C57.8675 44.5478 57.2649 44.8693 56.8205 45.4417C56.3762 46.0141 56.1266 46.7904 56.1266 47.5999V76.9153L59.5389 71.8363H100.609C101.237 71.8363 101.84 71.5147 102.284 70.9423C102.729 70.37 102.978 69.5937 102.978 68.7842V47.5999C102.978 46.7904 102.729 46.0141 102.284 45.4417C101.84 44.8693 101.237 44.5478 100.609 44.5478Z" fill="#90CAF9"/>
<path opacity="0.1" d="M100.609 44.5478H58.4959C57.8675 44.5478 57.2649 44.8693 56.8205 45.4417C56.3762 46.0141 56.1266 46.7904 56.1266 47.5999V76.9153L59.5389 71.8363H100.609C101.237 71.8363 101.84 71.5147 102.284 70.9423C102.729 70.37 102.978 69.5937 102.978 68.7842V47.5999C102.978 46.7904 102.729 46.0141 102.284 45.4417C101.84 44.8693 101.237 44.5478 100.609 44.5478Z" fill="#90CAF9"/>
<path d="M92.1891 59.5265H61.9404C61.7167 59.5265 61.502 59.4123 61.3435 59.2089C61.185 59.0056 61.0954 58.7296 61.0945 58.4414C61.0945 58.1524 61.1836 57.8752 61.3422 57.6708C61.5009 57.4665 61.716 57.3517 61.9404 57.3517H92.1891C92.3002 57.3517 92.4102 57.3799 92.5128 57.4346C92.6154 57.4894 92.7087 57.5697 92.7872 57.6708C92.8658 57.772 92.9281 57.8922 92.9706 58.0244C93.0131 58.1566 93.035 58.2983 93.035 58.4414C93.034 58.7296 92.9445 59.0056 92.786 59.2089C92.6274 59.4123 92.4128 59.5265 92.1891 59.5265Z" fill="white"/>
<path d="M92.1891 64.5316H61.9404C61.7167 64.5316 61.502 64.4175 61.3435 64.2141C61.185 64.0108 61.0954 63.7348 61.0945 63.4466C61.0945 63.1576 61.1836 62.8804 61.3422 62.676C61.5009 62.4717 61.716 62.3569 61.9404 62.3569H92.1891C92.3002 62.3569 92.4102 62.3851 92.5128 62.4398C92.6154 62.4946 92.7087 62.5749 92.7872 62.676C92.8658 62.7772 92.9281 62.8974 92.9706 63.0296C93.0131 63.1618 93.035 63.3035 93.035 63.4466C93.034 63.7348 92.9445 64.0108 92.786 64.2141C92.6274 64.4175 92.4128 64.5316 92.1891 64.5316Z" fill="white"/>
<path d="M63.6285 54.5213C65.3072 54.5213 66.6681 52.7682 66.6681 50.6057C66.6681 48.4433 65.3072 46.6902 63.6285 46.6902C61.9498 46.6902 60.5889 48.4433 60.5889 50.6057C60.5889 52.7682 61.9498 54.5213 63.6285 54.5213Z" fill="white"/>
<path d="M23.6018 98.663C23.5696 98.663 23.4262 95.7679 23.4334 95.5832C23.5158 93.4454 24.6556 89.3729 26.4586 88.7542C26.7596 88.6615 27.0723 88.6516 27.3764 88.7252C27.6806 88.7988 27.9692 88.9542 28.2236 89.1812C28.478 89.4082 28.6923 89.7017 28.8526 90.0427C29.0129 90.3836 29.1157 90.7643 29.1541 91.1598C29.3619 92.8313 28.516 94.6136 27.6594 95.7772C26.6486 97.1254 23.6018 98.663 23.6018 98.663Z" fill="#FFC727"/>
<path d="M21.2506 87.5075C21.2184 87.5075 21.4155 84.6171 21.4442 84.4324C21.7811 82.3361 23.3869 78.5314 25.2365 78.2728C25.5449 78.2403 25.8553 78.2918 26.1473 78.424C26.4393 78.5562 26.7064 78.766 26.9312 79.04C27.1561 79.314 27.3336 79.6459 27.4523 80.0141C27.571 80.3823 27.6282 80.7786 27.6201 81.1772C27.6201 82.8717 26.5842 84.4693 25.6021 85.4436C24.4443 86.5887 21.2506 87.5075 21.2506 87.5075Z" fill="#FFC727"/>
<path d="M20.6556 74.3435C20.6233 74.3435 20.8241 71.453 20.8527 71.2683C21.1861 69.1721 22.7919 65.3674 24.645 65.1088C24.9533 65.0762 25.2635 65.1277 25.5553 65.2599C25.8471 65.3921 26.114 65.6021 26.3386 65.8762C26.5632 66.1502 26.7404 66.4822 26.8587 66.8504C26.977 67.2186 27.0337 67.6148 27.0251 68.0131C27.0251 69.7077 25.9928 71.3007 25.007 72.2795C23.8493 73.4246 20.6592 74.3435 20.6556 74.3435Z" fill="#FFC727"/>
<path d="M19.6269 61.9551C19.5946 61.9551 19.7953 59.0601 19.824 58.88C20.1573 56.7791 21.7631 52.979 23.6163 52.7158C23.9248 52.6839 24.235 52.736 24.5268 52.8688C24.8187 53.0016 25.0855 53.212 25.31 53.4864C25.5345 53.7608 25.7117 54.093 25.8299 54.4614C25.9482 54.8299 26.0049 55.2262 25.9963 55.6248C25.9963 57.3147 24.964 58.9123 23.9783 59.8866C22.8205 61.0317 19.6304 61.9551 19.6269 61.9551Z" fill="#FFC727"/>
<path d="M16.5586 52.014C16.5299 52.014 16.1285 49.1651 16.1177 48.9804C16.0102 46.8426 16.7808 42.627 18.5121 41.7497C18.8028 41.613 19.1126 41.5568 19.4213 41.5848C19.73 41.6127 20.0306 41.7243 20.3036 41.9121C20.5766 42.0999 20.8157 42.3597 21.0054 42.6746C21.1952 42.9896 21.3312 43.3525 21.4047 43.7397C21.7631 45.3697 21.0821 47.2628 20.3294 48.5372C19.4548 50.0378 16.5586 52.014 16.5586 52.014Z" fill="#FFC727"/>
<path d="M22.6521 98.6953C22.6879 98.6953 21.7094 96.0588 21.6305 95.9018C20.7452 94.0918 18.2039 91.2568 16.4009 91.8524C16.1037 91.9618 15.8276 92.1506 15.5908 92.4066C15.354 92.6625 15.1617 92.9799 15.0264 93.3379C14.8912 93.696 14.816 94.0868 14.8058 94.4848C14.7956 94.8828 14.8505 95.2791 14.9672 95.6479C15.4188 97.2409 16.831 98.2613 18.0211 98.7277C19.4261 99.2771 22.6521 98.6953 22.6521 98.6953Z" fill="#FFC727"/>
<path d="M20.7703 86.0161C20.8062 86.0161 19.5266 83.5967 19.4334 83.4581C18.358 81.8374 15.4905 79.5334 13.7879 80.4707C13.5062 80.6363 13.2547 80.8766 13.05 81.1759C12.8453 81.4752 12.6919 81.8267 12.5999 82.2076C12.5079 82.5885 12.4793 82.9901 12.516 83.3862C12.5527 83.7823 12.6539 84.164 12.813 84.5063C13.4438 85.9884 14.9636 86.7226 16.1931 86.9535C17.634 87.2213 20.7703 86.0161 20.7703 86.0161Z" fill="#FFC727"/>
<path d="M20.2291 73.5954C20.2614 73.5954 18.9853 71.1759 18.8921 71.0374C17.8168 69.4167 14.9493 67.1127 13.2431 68.0546C12.9583 68.219 12.7039 68.4595 12.4967 68.76C12.2894 69.0606 12.134 69.4144 12.0409 69.798C11.9477 70.1817 11.9188 70.5865 11.9561 70.9856C11.9935 71.3847 12.0962 71.7691 12.2574 72.1133C12.8919 73.5954 14.4081 74.3296 15.6411 74.5558C17.0928 74.8052 20.2291 73.6001 20.2291 73.5954Z" fill="#FFC727"/>
<path d="M19.3007 62.1999C19.3366 62.1999 18.0569 59.7804 17.9638 59.6419C16.8884 58.0212 14.0209 55.7171 12.3183 56.6544C12.0366 56.82 11.7851 57.0603 11.5804 57.3596C11.3757 57.6589 11.2223 58.0105 11.1303 58.3914C11.0383 58.7722 11.0097 59.1739 11.0464 59.57C11.0831 59.9661 11.1843 60.3477 11.3434 60.69C11.9742 62.1768 13.494 62.9063 14.7235 63.1372C16.1644 63.405 19.3007 62.1999 19.3007 62.1999Z" fill="#FFC727"/>
<path d="M16.5803 52.388C16.6125 52.388 15.1465 50.1624 15.0318 50.0331C13.8131 48.5787 10.7879 46.6902 9.16418 47.8676C8.89759 48.0721 8.66758 48.3469 8.48924 48.6739C8.3109 49.001 8.18826 49.3729 8.12937 49.7654C8.07047 50.1578 8.07666 50.5618 8.14751 50.9509C8.21836 51.34 8.35228 51.7055 8.54049 52.0232C9.2968 53.4084 10.8668 53.9256 12.1249 53.9764C13.5658 54.0318 16.5803 52.3926 16.5803 52.388Z" fill="#FFC727"/>
<path d="M12.6695 44.28C12.7018 44.28 12.1856 41.4449 12.139 41.2695C11.5763 39.2517 9.56902 35.7841 7.70514 35.8626C7.39621 35.8868 7.09469 35.9945 6.82022 36.1787C6.54574 36.3629 6.30445 36.6195 6.11206 36.9318C5.91967 37.2441 5.78048 37.6051 5.70356 37.9913C5.62665 38.3774 5.61371 38.7802 5.66562 39.1732C5.84484 40.8539 7.05277 42.2391 8.13526 43.0241C9.40772 43.9475 12.6659 44.28 12.6695 44.28Z" fill="#FFC727"/>
<path d="M26.7346 113.623C26.7346 113.623 26.3511 112.492 25.7489 110.511C25.1468 108.53 24.3152 105.672 23.4334 102.2C22.9925 100.464 22.5445 98.5707 22.1072 96.5529C21.885 95.5371 21.6842 94.5166 21.4656 93.4223C21.3724 92.8867 21.2828 92.3465 21.1896 91.8017C21.0964 91.2568 21.0319 90.6796 20.953 90.1117C20.6701 87.7824 20.487 85.4348 20.4046 83.0795C20.315 80.6831 20.2792 78.259 20.2326 75.8349C20.186 73.4108 20.1394 70.9959 19.9888 68.6318C19.8575 66.3166 19.6 64.0161 19.2182 61.7474C18.8336 59.6345 18.3034 57.5701 17.6339 55.5786C17.036 53.7869 16.3574 52.0416 15.6015 50.3518C14.9097 48.768 14.2 47.3782 13.5656 46.15C12.9312 44.9218 12.3361 43.8875 11.8379 43.0425C10.8415 41.3526 10.2178 40.4476 10.2178 40.4476C10.2178 40.4476 10.8558 41.3387 11.8845 42.9963C12.3935 43.8321 13.0028 44.8433 13.6767 46.0623C14.3506 47.2812 15.0675 48.648 15.7879 50.2179C16.5824 51.8974 17.3004 53.6349 17.9386 55.4216C18.6535 57.4178 19.2304 59.4913 19.6626 61.6181C20.0881 63.8968 20.3887 66.2111 20.5623 68.5441C20.7523 70.9313 20.8491 73.36 20.9208 75.7841C20.9925 78.2082 21.0821 80.6231 21.2111 82.9918C21.3319 85.3016 21.5497 87.6013 21.8635 89.8808C21.9531 90.4303 22.0068 90.9659 22.118 91.5108C22.2291 92.0556 22.3223 92.5912 22.4226 93.1222C22.6449 94.1334 22.8707 95.1862 23.1072 96.1697C23.5696 98.1505 24.0464 100.011 24.5123 101.71C25.4371 105.127 26.3045 107.925 26.939 109.874C27.5734 111.822 27.9641 112.903 27.9641 112.903C28.0232 113.103 28.0213 113.324 27.959 113.522C27.8966 113.72 27.7783 113.88 27.6279 113.97C27.4775 114.06 27.3061 114.074 27.1484 114.007C26.9906 113.941 26.8582 113.801 26.7777 113.614L26.7346 113.623Z" fill="#FFC727"/>
<path d="M35.1759 95.7264C35.1436 95.7264 35.649 92.8867 35.6956 92.7112C36.2476 90.6935 38.2405 87.2074 40.1008 87.272C40.4097 87.2933 40.7117 87.3983 40.9871 87.5801C41.2624 87.7619 41.5048 88.0164 41.6987 88.3271C41.8925 88.6377 42.0332 88.9975 42.1118 89.383C42.1904 89.7685 42.205 90.1709 42.1547 90.5642C41.9862 92.2449 40.7854 93.6439 39.7065 94.4381C38.4233 95.3708 35.1974 95.7264 35.1759 95.7264Z" fill="#FFC727"/>
<path d="M35.3838 84.1738C35.3516 84.1738 36.1832 81.4588 36.2513 81.2972C37.0363 79.4041 39.4127 76.3474 41.2443 76.7769C41.5473 76.8585 41.8335 77.0214 42.0844 77.2549C42.3352 77.4885 42.5451 77.7875 42.7003 78.1325C42.8555 78.4775 42.9526 78.8607 42.9852 79.2572C43.0178 79.6537 42.9852 80.0546 42.8896 80.4338C42.5311 82.0637 41.1726 83.2042 40.0221 83.7814C38.6492 84.4555 35.3874 84.1738 35.3838 84.1738Z" fill="#FFC727"/>
<path d="M37.7064 71.333C37.6706 71.333 38.5022 68.618 38.5703 68.4564C39.3553 66.5679 41.7353 63.5112 43.5669 63.936C43.87 64.0181 44.1562 64.1815 44.407 64.4156C44.6577 64.6497 44.8674 64.9492 45.0223 65.2947C45.1772 65.6402 45.2738 66.0238 45.3059 66.4206C45.338 66.8173 45.3048 67.2184 45.2086 67.5976C44.8501 69.2229 43.4917 70.368 42.3411 70.9451C40.9862 71.6193 37.7064 71.333 37.7064 71.333Z" fill="#FFC727"/>
<path d="M39.4664 59.0832C39.4306 59.0832 40.2621 56.3728 40.3302 56.2066C41.1152 54.3181 43.4952 51.2614 45.3269 51.6908C45.6298 51.7723 45.916 51.9352 46.1667 52.1688C46.4175 52.4025 46.6271 52.7016 46.7821 53.0467C46.937 53.3918 47.0337 53.7751 47.0658 54.1716C47.0979 54.5681 47.0648 54.9689 46.9685 55.3477C46.6101 56.9777 45.2516 58.1181 44.101 58.6953C42.7246 59.3694 39.4664 59.0832 39.4664 59.0832Z" fill="#FFC727"/>
<path d="M38.7245 48.4217C38.6886 48.4217 38.936 45.5359 38.9682 45.3558C39.3267 43.2641 41.0042 39.5056 42.8609 39.2978C43.1697 39.2741 43.4789 39.3343 43.7684 39.4746C44.058 39.6149 44.3214 39.8321 44.5415 40.1121C44.7616 40.3922 44.9334 40.7287 45.0459 41.1C45.1584 41.4712 45.209 41.8687 45.1943 42.2668C45.1943 43.9614 44.119 45.5266 43.1082 46.4732C41.9325 47.586 38.7245 48.4217 38.7245 48.4217Z" fill="#FFC727"/>
<path d="M34.2728 95.4124C34.305 95.4124 33.9466 92.5404 33.9143 92.365C33.4663 90.301 31.6562 86.6533 29.7959 86.561C29.4861 86.5565 29.1792 86.6361 28.895 86.7946C28.6107 86.9532 28.3556 87.1871 28.1463 87.4812C27.937 87.7753 27.7781 88.1228 27.68 88.5013C27.5819 88.8798 27.5469 89.2806 27.5771 89.6777C27.6596 91.3676 28.7886 92.8636 29.8245 93.7456C31.0361 94.7845 34.2692 95.4124 34.2728 95.4124Z" fill="#FFC727"/>
<path d="M35.2546 82.567C35.2905 82.567 34.5951 79.7966 34.5377 79.6211C33.8495 77.668 31.6308 74.4174 29.7812 74.6898C29.4748 74.7461 29.1809 74.885 28.9189 75.0973C28.6568 75.3097 28.4324 75.5908 28.2603 75.9223C28.0882 76.2537 27.9722 76.6282 27.9199 77.0213C27.8676 77.4143 27.8802 77.8172 27.9568 78.2036C28.2364 79.8566 29.5303 81.1171 30.6558 81.7867C31.9713 82.5762 35.251 82.567 35.2546 82.567Z" fill="#FFC727"/>
<path d="M37.4772 70.4603C37.5095 70.4603 36.8177 67.6898 36.7603 67.5144C36.0757 65.5659 33.857 62.3153 32.0074 62.5877C31.6998 62.6433 31.4049 62.7819 31.1418 62.9946C30.8787 63.2073 30.6535 63.4892 30.4809 63.8218C30.3083 64.1544 30.1922 64.5303 30.1403 64.9248C30.0883 65.3192 30.1016 65.7234 30.1794 66.1107C30.4626 67.7683 31.7529 69.0243 32.882 69.6938C34.2047 70.4695 37.4736 70.4603 37.4772 70.4603Z" fill="#FFC727"/>
<path d="M39.1009 59.1848C39.1367 59.1848 38.4413 56.4144 38.384 56.2389C37.6958 54.2904 35.4806 51.0352 33.6275 51.3122C33.3212 51.3679 33.0274 51.5063 32.7653 51.7181C32.5033 51.93 32.2789 52.2106 32.1067 52.5418C31.9346 52.8729 31.8185 53.2471 31.7662 53.6399C31.7139 54.0327 31.7264 54.4353 31.803 54.8214C32.0826 56.479 33.3766 57.7349 34.5057 58.4044C35.8283 59.1848 39.1009 59.1848 39.1009 59.1848Z" fill="#FFC727"/>
<path d="M38.6564 48.7911C38.6923 48.7911 37.7675 46.1269 37.6922 45.9653C36.8427 44.1183 34.3623 41.2048 32.545 41.7404C32.2452 41.8393 31.9648 42.0186 31.7224 42.2666C31.48 42.5146 31.2809 42.8256 31.1381 43.1795C30.9954 43.5333 30.9122 43.922 30.8939 44.32C30.8757 44.7181 30.9229 45.1167 31.0324 45.4897C31.4518 47.0919 32.8425 48.1585 34.0218 48.6664C35.4054 49.262 38.6564 48.7911 38.6564 48.7911Z" fill="#FFC727"/>
<path d="M36.6993 39.5841C36.7279 39.5841 36.8606 36.6891 36.8498 36.5044C36.7566 34.3619 35.5988 30.2987 33.7959 29.6938C33.4944 29.6041 33.1816 29.5972 32.8778 29.6735C32.5741 29.7498 32.2863 29.9077 32.033 30.1368C31.7798 30.3659 31.5668 30.6611 31.408 31.0032C31.2492 31.3453 31.148 31.7267 31.1112 32.1225C30.9105 33.7986 31.7635 35.5717 32.6274 36.7398C33.6418 38.0696 36.6957 39.5795 36.6993 39.5841Z" fill="#FFC727"/>
<path d="M34.882 111.218C34.882 111.218 34.7601 109.994 34.6204 107.87C34.4806 105.746 34.3121 102.708 34.2368 99.0555C34.1974 97.2085 34.1831 95.2508 34.2117 93.1545C34.2117 92.1017 34.2548 91.049 34.287 89.9224C34.3157 89.3775 34.3479 88.8234 34.3766 88.2693C34.4053 87.7153 34.477 87.1335 34.5236 86.5609C34.7693 84.2301 35.1127 81.918 35.5523 79.6349C35.9932 77.3032 36.495 74.9622 36.9861 72.6258C37.4771 70.2894 37.961 67.953 38.341 65.6259C38.7257 63.3591 38.9856 61.0601 39.1188 58.7461C39.211 56.5782 39.1534 54.4041 38.9467 52.2495C38.7697 50.3117 38.5039 48.3891 38.151 46.4916C37.8356 44.7186 37.4664 43.1256 37.1294 41.7173C36.7925 40.309 36.4448 39.0947 36.1581 38.1065C35.5738 36.1211 35.1759 35.0222 35.1759 35.0222C35.1759 35.0222 35.5917 36.1118 36.2082 38.0788C36.5165 39.0623 36.8714 40.2675 37.2441 41.6665C37.6169 43.0656 38.004 44.6585 38.3481 46.427C38.7351 48.3266 39.0355 50.2538 39.2478 52.1987C39.4945 54.3751 39.5904 56.5755 39.5346 58.7738C39.4388 61.1214 39.2148 63.4574 38.8643 65.7644C38.5058 68.1193 38.0757 70.4833 37.6205 72.8382C37.1653 75.193 36.7065 77.5386 36.3086 79.8565C35.9135 82.1148 35.6143 84.3992 35.4125 86.6995C35.3767 87.2581 35.3121 87.7892 35.2978 88.3525C35.2835 88.9158 35.2548 89.4652 35.2333 90.0101C35.2333 91.0628 35.2082 92.1525 35.2333 93.1822C35.2333 95.2554 35.2871 97.2131 35.3587 99.0185C35.4914 102.634 35.7172 105.64 35.8856 107.731C36.0541 109.823 36.1975 111.014 36.1975 111.014C36.21 111.124 36.2056 111.235 36.1846 111.343C36.1636 111.45 36.1264 111.551 36.0752 111.64C36.0239 111.728 35.9596 111.803 35.8859 111.86C35.8121 111.917 35.7305 111.954 35.6455 111.97C35.5605 111.986 35.4739 111.981 35.3907 111.954C35.3074 111.927 35.2291 111.879 35.1602 111.813C35.0913 111.747 35.0332 111.664 34.9891 111.569C34.9451 111.474 34.916 111.369 34.9035 111.259V111.236L34.882 111.218Z" fill="#FFC727"/>
<path d="M39.04 141.747H23.8637L19.5947 109.731H43.309L39.04 141.747Z" fill="#2E353A"/>
<path d="M70.6508 143.433C88.8771 143.433 103.652 124.4 103.652 100.921C103.652 77.4424 88.8771 58.4092 70.6508 58.4092C52.4246 58.4092 37.6494 77.4424 37.6494 100.921C37.6494 124.4 52.4246 143.433 70.6508 143.433Z" fill="#90CAF9"/>
<path d="M70.6506 143.645C64.0909 143.645 57.6786 141.14 52.2244 136.445C46.7702 131.75 42.5192 125.078 40.0089 117.271C37.4986 109.464 36.8418 100.874 38.1216 92.586C39.4013 84.2983 42.5601 76.6855 47.1985 70.7104C51.8369 64.7353 57.7465 60.6663 64.1802 59.0177C70.6138 57.3692 77.2825 58.2153 83.3428 61.449C89.4032 64.6827 94.5831 70.1588 98.2275 77.1847C101.872 84.2107 103.817 92.471 103.817 100.921C103.807 112.248 100.309 123.107 94.0913 131.117C87.8736 139.126 79.4437 143.632 70.6506 143.645ZM70.6506 58.617C64.1555 58.617 57.8061 61.0981 52.4056 65.7465C47.0051 70.3949 42.7959 77.0019 40.3103 84.732C37.8247 92.462 37.1743 100.968 38.4415 109.174C39.7086 117.38 42.8363 124.918 47.4291 130.835C52.0219 136.751 57.8735 140.78 64.2438 142.412C70.6142 144.045 77.2173 143.207 83.218 140.005C89.2188 136.803 94.3477 131.381 97.9563 124.424C101.565 117.467 103.491 109.288 103.491 100.921C103.482 89.7047 100.02 78.9509 93.8627 71.0197C87.7058 63.0885 79.3578 58.628 70.6506 58.617Z" fill="#2E353A"/>
<path d="M61.9086 128.879C59.1168 127.552 56.558 125.523 54.3814 122.909C52.1856 120.19 50.4841 116.879 49.3991 113.212C48.1687 109.102 47.5592 104.726 47.6033 100.321C47.5798 96.5593 48.095 92.8245 49.1231 89.3038C50.0526 86.0742 51.4448 83.0983 53.2272 80.5309C56.7496 75.5556 61.3046 71.984 66.3533 70.2388C68.8304 69.3828 71.3839 68.9482 73.9486 68.946C76.0766 68.9359 78.1977 69.2616 80.2643 69.9156C82.2613 70.5523 84.1728 71.5718 85.9348 72.94C87.6761 74.2902 89.2363 75.9945 90.5551 77.9867C91.9349 80.1273 92.9871 82.5856 93.6556 85.2313C94.4296 88.2433 94.8111 91.3996 94.7847 94.5722C94.7579 100.676 93.0609 106.572 89.9923 111.222C88.6659 113.174 87.0899 114.818 85.3326 116.084C83.8203 117.214 82.109 117.828 80.3611 117.867C79.1613 117.885 77.9896 117.399 77.024 116.481C76.5365 116.02 76.1396 115.418 75.8651 114.724C75.5907 114.03 75.4462 113.262 75.4433 112.483C73.3978 116.195 70.6306 118.051 67.1418 118.051C64.3006 118.051 62.0305 116.8 60.3315 114.297C58.6325 111.795 57.7866 108.717 57.7937 105.063C57.8014 102.283 58.1772 99.5255 58.9049 96.9086C59.6169 94.2627 60.6369 91.7717 61.9301 89.5208C63.2136 87.3012 64.853 85.4635 66.7368 84.1324C68.6154 82.7654 70.7372 82.0495 72.8948 82.0546C74.3938 82.035 75.8727 82.5001 77.196 83.4075C78.4855 84.2886 79.5312 85.663 80.189 87.3415L80.4686 86.1686C80.5964 85.676 80.8128 85.2292 81.1001 84.8647C81.3874 84.5003 81.7375 84.2284 82.1219 84.0713C82.5062 83.9142 82.914 83.8764 83.3119 83.9608C83.7097 84.0452 84.0865 84.2496 84.4114 84.5572C84.6188 84.7752 84.7833 85.0531 84.8917 85.3684C85.0001 85.6837 85.0492 86.0275 85.0351 86.3718C85.0354 86.7018 84.993 87.0295 84.9096 87.3415L80.4614 106.388C79.9596 108.567 79.7087 110.062 79.7087 110.871C79.7087 112.244 80.2523 112.929 81.3396 112.926C82.759 112.926 84.1534 112.086 85.5226 110.405C86.9979 108.509 88.1364 106.223 88.8597 103.705C89.7113 100.951 90.1468 98.0125 90.1429 95.0478C90.1637 92.4357 89.8674 89.8356 89.2647 87.3415C88.7649 85.1908 87.967 83.1744 86.9097 81.3897C85.9059 79.7637 84.6937 78.3707 83.3254 77.271C81.9592 76.1628 80.4685 75.3327 78.9058 74.81C77.3048 74.2724 75.6569 74.0008 74.0023 74.002C71.8987 74.0054 69.8056 74.3861 67.7834 75.1332C65.7073 75.8985 63.7284 77.0479 61.9086 78.5454C60.0734 80.0383 58.4116 81.8587 56.9729 83.9523C55.4891 86.1568 54.3324 88.6939 53.5606 91.437C52.7023 94.4277 52.2723 97.5941 52.2917 100.783C52.2451 104.559 52.7774 108.311 53.8581 111.823C54.7804 114.868 56.2452 117.591 58.1343 119.774C59.9554 121.815 62.0592 123.396 64.3352 124.433C66.7346 125.527 69.2636 126.074 71.8087 126.049C74.5294 126.055 77.2348 125.524 79.8306 124.474C80.0925 124.36 80.3678 124.305 80.6442 124.312C80.907 124.299 81.169 124.358 81.4122 124.488C81.6554 124.617 81.874 124.812 82.0529 125.061C82.3967 125.521 82.5882 126.135 82.587 126.774C82.621 127.287 82.5094 127.8 82.2728 128.216C82.0362 128.631 81.6907 128.923 81.3002 129.036C78.0606 130.313 74.6946 130.978 71.3069 131.012C68.0995 131.043 64.9146 130.32 61.9086 128.879ZM73.2353 110.557C74.5868 109.301 75.5915 107.522 76.1028 105.478L78.9703 92.4852L78.7803 91.9588C78.598 91.5305 78.3779 91.1308 78.1244 90.7675C77.7816 90.2603 77.4089 89.7879 77.0097 89.3546C76.4967 88.8225 75.914 88.4129 75.2892 88.1449C73.6663 87.4049 71.8862 87.4841 70.3068 88.3665C69.4482 88.8432 68.659 89.5053 67.9734 90.3243C67.2578 91.1829 66.6216 92.145 66.0773 93.1916C65.509 94.2751 65.0286 95.4309 64.6435 96.6408C64.2577 97.8464 63.959 99.0953 63.751 100.372C63.5457 101.585 63.44 102.823 63.4356 104.065C63.4318 104.862 63.4689 105.658 63.5467 106.448C63.6133 107.148 63.7334 107.838 63.9051 108.507C64.0568 109.114 64.2727 109.69 64.5467 110.22C64.7996 110.711 65.1175 111.141 65.4858 111.49C65.8778 111.859 66.3187 112.133 66.787 112.298C67.3376 112.496 67.9073 112.59 68.4788 112.58C70.1945 112.604 71.8677 111.892 73.2353 110.557Z" fill="#2E353A"/>
<path d="M115.531 65.1689C115.531 65.1689 114.456 67.7454 114.298 68.1056C114.14 68.4657 113.563 70.4142 113.735 70.876C113.907 71.3377 114.072 71.6009 114.413 71.6748C114.753 71.7487 115.033 72.5475 115.596 72.6906C115.95 72.781 116.31 72.8305 116.671 72.8384C116.759 72.9222 116.862 72.9787 116.97 73.0035C117.078 73.0283 117.189 73.0208 117.295 72.9815C117.632 72.8384 117.915 72.6213 118.141 71.3839C118.278 70.771 118.316 70.128 118.252 69.4954L118.151 66.9974L115.531 65.1689Z" fill="white"/>
<path d="M117.094 73.2494C116.924 73.2464 116.757 73.1825 116.614 73.0647C116.26 73.0523 115.907 73.0013 115.56 72.9123C115.238 72.7992 114.949 72.5644 114.732 72.2382C114.635 72.0892 114.512 71.9721 114.373 71.8965C114.189 71.8435 114.018 71.7309 113.877 71.5693C113.736 71.4077 113.629 71.2025 113.567 70.973C113.334 70.3774 114.011 68.258 114.137 67.9902C114.302 67.6347 115.355 65.0859 115.366 65.0582C115.39 65.0049 115.428 64.9653 115.474 64.9474C115.517 64.9248 115.566 64.9248 115.61 64.9474L118.227 66.7712C118.253 66.7911 118.276 66.8192 118.292 66.853C118.308 66.8869 118.318 66.9254 118.32 66.9651L118.42 69.4585C118.486 70.1131 118.445 70.7781 118.302 71.4117C118.08 72.6445 117.789 72.9862 117.338 73.1801C117.26 73.2196 117.177 73.2429 117.094 73.2494ZM115.606 65.483C115.348 66.1017 114.596 67.9163 114.452 68.2257C114.255 68.6459 113.782 70.479 113.893 70.7652C114.072 71.227 114.208 71.3932 114.441 71.444C114.654 71.5248 114.842 71.6856 114.983 71.9057C115.152 72.1686 115.378 72.3613 115.631 72.4598C115.973 72.545 116.32 72.5928 116.667 72.6029C116.709 72.6029 116.749 72.6208 116.782 72.6537C116.846 72.7139 116.92 72.7546 116.998 72.773C117.077 72.7914 117.157 72.7869 117.234 72.7599C117.481 72.6537 117.739 72.5429 117.951 71.3285C118.081 70.747 118.118 70.1377 118.062 69.537L117.965 67.136L115.606 65.483Z" fill="#2E353A"/>
<path d="M121.746 134.545C121.746 134.545 120.216 137.754 120.216 138.529C120.216 139.305 122.323 140.732 123.227 141.249C124.13 141.766 125.736 142.172 127.04 142.413C128.345 142.653 131.055 143.336 130.266 142.025C129.478 140.713 124.632 137.26 124.431 136.849C124.182 136.465 123.904 136.115 123.599 135.805L121.746 134.545Z" fill="white"/>
<path d="M129.614 143.031C128.849 142.991 128.087 142.882 127.334 142.703L127.012 142.639C125.191 142.279 123.893 141.881 123.155 141.457C123.026 141.383 120.036 139.661 120.036 138.529C120.036 137.712 121.434 134.757 121.592 134.42C121.617 134.371 121.654 134.335 121.698 134.32C121.742 134.304 121.788 134.31 121.829 134.337L123.682 135.602C124.014 135.93 124.316 136.306 124.582 136.724C124.668 136.853 125.456 137.49 126.22 138.109C127.847 139.416 129.868 141.046 130.392 141.886C130.582 142.191 130.628 142.454 130.528 142.671C130.428 142.888 130.112 143.031 129.614 143.031ZM121.8 134.849C121.219 136.087 120.384 138.04 120.384 138.543C120.384 139.046 121.918 140.265 123.288 141.05C124.004 141.457 125.266 141.84 127.058 142.195L127.377 142.26C128.037 142.394 130.044 142.805 130.209 142.445C130.209 142.445 130.209 142.352 130.101 142.182C129.618 141.401 127.539 139.725 126.019 138.488C124.797 137.504 124.359 137.144 124.27 136.973C124.032 136.608 123.765 136.275 123.474 135.981L121.8 134.849Z" fill="#2E353A"/>
<path d="M124.144 139.601L124.682 140.635C125.26 141.765 126.046 142.694 126.969 143.341C128.403 144.338 130.611 145.478 132.539 144.795C135.7 143.673 127.743 137.49 127.743 137.49C127.743 137.49 124.908 140.03 124.144 139.601Z" fill="white"/>
<path d="M131.284 145.234C129.693 145.234 128.058 144.375 126.883 143.544C125.935 142.881 125.128 141.93 124.531 140.773L123.994 139.734C123.971 139.695 123.959 139.647 123.959 139.598C123.959 139.549 123.971 139.502 123.994 139.462C124.019 139.424 124.053 139.396 124.091 139.385C124.129 139.373 124.169 139.378 124.205 139.397C124.668 139.656 126.485 138.331 127.628 137.31C127.657 137.285 127.691 137.272 127.725 137.272C127.76 137.272 127.793 137.285 127.822 137.31C128.421 137.772 133.668 141.928 133.442 144.033C133.392 144.495 133.084 144.846 132.575 145.031C132.154 145.172 131.72 145.241 131.284 145.234ZM124.496 139.859L124.829 140.51C125.393 141.606 126.155 142.508 127.051 143.137C128.514 144.153 130.636 145.229 132.492 144.573C133.052 144.37 133.087 144.056 133.098 143.955C133.259 142.445 129.381 139.051 127.747 137.767C127.177 138.257 125.463 139.711 124.496 139.859Z" fill="#2E353A"/>
<path d="M125.055 140.09C125.926 141.787 127.245 143.019 128.768 143.558C131.367 144.513 132.112 144.273 132.668 143.317" fill="white"/>
<path d="M131.248 144.398C130.389 144.335 129.539 144.127 128.721 143.779C127.15 143.233 125.79 141.961 124.9 140.205C124.888 140.179 124.88 140.151 124.877 140.121C124.874 140.091 124.875 140.06 124.881 140.031C124.887 140.002 124.898 139.974 124.912 139.95C124.926 139.926 124.944 139.906 124.965 139.891C125.006 139.861 125.056 139.853 125.102 139.868C125.148 139.884 125.188 139.922 125.212 139.975C126.064 141.613 127.343 142.806 128.818 143.336C131.352 144.259 132.044 144.029 132.524 143.179C132.554 143.131 132.596 143.099 132.643 143.091C132.689 143.082 132.737 143.097 132.775 143.133C132.813 143.17 132.839 143.224 132.845 143.285C132.852 143.345 132.84 143.407 132.811 143.456C132.636 143.773 132.4 144.026 132.126 144.191C131.852 144.356 131.55 144.427 131.248 144.398Z" fill="#2E353A"/>
<path d="M120.413 137.938C120.413 137.938 123.28 140.584 124.682 140.635L120.413 137.938Z" fill="white"/>
<path d="M124.668 140.866C123.234 140.815 120.42 138.234 120.302 138.128C120.264 138.091 120.239 138.037 120.231 137.976C120.224 137.916 120.235 137.854 120.262 137.804C120.276 137.78 120.293 137.758 120.312 137.742C120.332 137.726 120.354 137.715 120.377 137.71C120.4 137.705 120.424 137.705 120.446 137.712C120.469 137.719 120.491 137.731 120.51 137.749C120.538 137.777 123.352 140.358 124.678 140.404C124.726 140.406 124.771 140.433 124.804 140.478C124.837 140.523 124.855 140.582 124.854 140.644C124.853 140.674 124.847 140.704 124.838 140.732C124.828 140.759 124.814 140.784 124.796 140.805C124.779 140.825 124.759 140.841 124.737 140.852C124.715 140.862 124.691 140.867 124.668 140.866Z" fill="#2E353A"/>
<path d="M114.187 66.0555C114.187 66.0555 116.732 71.4901 117.277 72.7506C117.821 74.0112 124.689 84.1278 127.413 92.8361C130.137 101.544 132.758 109.403 132.647 111.933C132.535 114.464 123.592 135.805 123.592 135.805L121.739 134.544C121.739 134.544 124.571 114.459 124.248 112.354C123.926 110.248 113.914 89.3223 113.914 89.3223C113.914 89.3223 109.226 85.1112 107.265 80.1938" fill="#2E353A"/>
<path d="M114.549 79.6351C114.549 79.6351 113.133 83.5644 113.133 84.1278C113.133 84.6911 121.091 114.884 123.381 121.764C124.831 126.171 126.104 130.671 127.195 135.246C127.195 135.246 128.069 136.632 127.413 138.054C126.758 139.476 124.144 140.441 123.6 139.176C123.055 137.911 117.711 131.326 115.424 124.714C113.137 118.102 109.864 106.877 108.008 102.666C105.562 97.2745 103.378 91.6922 101.47 85.9516C99.0681 78.6516 96.5984 70.7375 96.5984 70.7375C99.8353 71.0859 103.094 70.6153 106.19 69.3523C111.208 67.2468 113.359 63.2158 113.359 63.2158C113.359 63.2158 114.635 67.4176 114.961 68.2303" fill="#2E353A"/>
<path d="M115.298 91.4924C115.273 91.492 115.249 91.4821 115.229 91.464C115.208 91.4459 115.192 91.4205 115.183 91.3908L112.674 82.9873C112.665 82.9561 112.664 82.9223 112.671 82.8902C112.677 82.8581 112.691 82.8292 112.71 82.8072L115.52 79.7043C115.544 79.6758 115.575 79.6599 115.608 79.6599C115.641 79.6599 115.672 79.6758 115.696 79.7043C115.718 79.7343 115.73 79.774 115.73 79.8152C115.73 79.8563 115.718 79.896 115.696 79.926L112.95 82.9596L115.427 91.2708C115.439 91.31 115.438 91.3537 115.426 91.3925C115.413 91.4313 115.389 91.4622 115.359 91.4786L115.298 91.4924Z" fill="white"/>
<path d="M112.785 83.0843C112.755 83.0847 112.725 83.0698 112.703 83.0427C112.691 83.028 112.681 83.0102 112.674 82.9903C112.667 82.9705 112.664 82.949 112.664 82.9273C112.664 82.9042 112.664 80.3693 111.782 78.7717C111.563 78.3607 111.387 78.0375 111.241 77.7744C110.782 76.934 110.642 76.68 110.559 76.2599C110.503 75.7685 110.503 75.269 110.559 74.7777C110.566 74.7369 110.583 74.7006 110.609 74.6758C110.635 74.651 110.667 74.6396 110.699 74.6438C110.715 74.6466 110.731 74.6535 110.745 74.6642C110.759 74.6748 110.771 74.6889 110.781 74.7057C110.79 74.7224 110.797 74.7415 110.801 74.7618C110.805 74.7821 110.806 74.8032 110.803 74.8239C110.753 75.2756 110.753 75.7343 110.803 76.186C110.875 76.5461 110.997 76.7678 111.448 77.5943C111.592 77.8575 111.771 78.1807 111.99 78.5916C112.785 80.0646 112.896 82.1793 112.914 82.7842L118.008 82.5302C118.04 82.5301 118.072 82.5457 118.095 82.5739C118.119 82.6021 118.134 82.6409 118.137 82.6826C118.138 82.7034 118.136 82.7242 118.13 82.7437C118.125 82.7633 118.116 82.7812 118.105 82.7964C118.094 82.8115 118.08 82.8235 118.066 82.8318C118.051 82.84 118.035 82.8442 118.019 82.8442L112.8 83.1028L112.785 83.0843Z" fill="white"/>
<path d="M129.854 112.977C127.585 112.977 124.703 111.084 124.574 111.001C124.546 110.981 124.525 110.948 124.515 110.908C124.506 110.868 124.509 110.825 124.524 110.788C124.531 110.77 124.541 110.753 124.554 110.74C124.566 110.726 124.58 110.716 124.595 110.709C124.611 110.703 124.627 110.7 124.643 110.702C124.659 110.704 124.675 110.71 124.689 110.719C124.721 110.742 127.997 112.894 130.241 112.64C130.258 112.638 130.274 112.64 130.29 112.647C130.305 112.653 130.32 112.664 130.332 112.678C130.344 112.691 130.354 112.708 130.362 112.727C130.369 112.746 130.373 112.767 130.374 112.788C130.375 112.808 130.374 112.829 130.369 112.849C130.364 112.869 130.356 112.887 130.346 112.903C130.336 112.919 130.323 112.932 130.309 112.941C130.294 112.951 130.279 112.957 130.263 112.958C130.13 112.972 129.994 112.977 129.854 112.977Z" fill="white"/>
<path d="M129.549 115.415H129.521C127.51 114.764 125.252 112.381 125.155 112.28C125.133 112.25 125.121 112.21 125.121 112.169C125.121 112.128 125.133 112.088 125.155 112.058C125.165 112.042 125.177 112.029 125.192 112.019C125.206 112.009 125.221 112.003 125.237 112C125.253 111.998 125.269 112 125.285 112.006C125.3 112.012 125.314 112.022 125.327 112.035C125.348 112.058 127.639 114.478 129.596 115.106C129.612 115.111 129.626 115.12 129.639 115.133C129.652 115.146 129.662 115.161 129.67 115.179C129.678 115.197 129.684 115.217 129.686 115.238C129.688 115.259 129.686 115.279 129.682 115.299C129.675 115.337 129.658 115.369 129.633 115.39C129.609 115.412 129.579 115.421 129.549 115.415Z" fill="white"/>
<path d="M112.685 80.6278C112.666 80.6278 112.646 80.622 112.629 80.6108C112.612 80.5995 112.596 80.5832 112.585 80.5632C112.575 80.546 112.569 80.5266 112.565 80.506C112.562 80.4855 112.561 80.4642 112.564 80.4436C112.567 80.4229 112.574 80.4032 112.583 80.3857C112.592 80.3682 112.603 80.3532 112.617 80.3416C113.101 79.9075 113.868 79.0718 113.868 78.6608C113.868 78.3884 113.606 78.0652 113.327 77.7374C113.017 77.4045 112.762 76.9966 112.574 76.5369C112.391 75.9874 111.735 73.8311 111.857 73.3047C111.862 73.285 111.87 73.2666 111.88 73.2508C111.891 73.235 111.903 73.222 111.918 73.2125C111.932 73.2031 111.948 73.1974 111.964 73.1958C111.98 73.1942 111.996 73.1967 112.011 73.2031C112.042 73.2168 112.068 73.2458 112.083 73.2839C112.098 73.3219 112.1 73.3659 112.09 73.4063C112.015 73.688 112.405 75.2532 112.789 76.3983C112.964 76.8157 113.2 77.1857 113.484 77.488C113.818 77.899 114.104 78.2499 114.104 78.6562C114.104 79.3673 112.886 80.4708 112.746 80.5955C112.728 80.6129 112.707 80.624 112.685 80.6278Z" fill="white"/>
<path d="M100.742 81.5328C100.716 81.5342 100.69 81.5249 100.669 81.5062C100.647 81.4876 100.631 81.4606 100.622 81.4292C100.613 81.3978 100.613 81.3637 100.62 81.3316C100.627 81.2996 100.642 81.2714 100.663 81.2512L101.667 80.2169C102.631 79.2288 103.226 76.7031 103.233 76.6754C103.243 76.6354 103.264 76.6019 103.293 76.582C103.322 76.5622 103.356 76.5576 103.387 76.5692C103.418 76.582 103.444 76.6099 103.46 76.6469C103.475 76.684 103.478 76.7273 103.469 76.7677C103.444 76.8739 102.842 79.4135 101.821 80.4616L100.817 81.4959C100.796 81.5192 100.769 81.5323 100.742 81.5328Z" fill="white"/>
<path d="M124.571 139.804C124.553 139.803 124.535 139.797 124.519 139.787C124.503 139.776 124.489 139.762 124.478 139.744C123.195 137.717 122.036 135.565 121.012 133.307C119.624 130.112 115.635 121.371 115.592 121.302C115.223 120.25 114.948 119.147 114.775 118.014C114.75 117.839 114.732 117.677 114.714 117.553C114.581 116.389 114.524 115.909 113.323 114.912C112.122 113.914 112.047 112.178 111.947 110.317C111.925 109.879 111.9 109.426 111.861 108.978C111.699 107.131 107.893 98.8202 105.115 92.7807C104.484 91.3955 103.911 90.158 103.445 89.1284C100.957 83.6153 99.2365 76.366 99.2186 76.2921C99.2095 76.2517 99.2131 76.2084 99.2285 76.1713C99.2439 76.1343 99.2699 76.1064 99.301 76.0936C99.3163 76.0873 99.3324 76.085 99.3484 76.087C99.3644 76.089 99.3799 76.0951 99.394 76.105C99.4081 76.115 99.4204 76.1285 99.4303 76.1448C99.4402 76.1611 99.4474 76.1798 99.4515 76.1998C99.4695 76.2737 101.183 83.4906 103.656 88.9668C104.122 89.9964 104.696 91.2477 105.326 92.6191C108.119 98.6909 111.94 107.011 112.104 108.941C112.144 109.403 112.169 109.865 112.194 110.299C112.291 112.146 112.373 113.753 113.456 114.648C114.75 115.72 114.814 116.278 114.958 117.502C114.958 117.654 114.993 117.811 115.015 117.987C115.185 119.086 115.452 120.156 115.811 121.177C115.843 121.256 119.836 129.996 121.227 133.182C122.244 135.422 123.395 137.557 124.668 139.568C124.678 139.584 124.686 139.603 124.69 139.623C124.695 139.642 124.696 139.663 124.695 139.684C124.693 139.704 124.688 139.724 124.68 139.743C124.673 139.761 124.662 139.777 124.65 139.79C124.625 139.805 124.598 139.81 124.571 139.804Z" fill="white"/>
<path d="M96.5984 70.7375C96.5984 70.7375 96.8279 74.0066 97.8315 75.0409C98.8351 76.0751 101.846 76.9801 105.961 75.9643C110.076 74.9485 114.592 70.4235 114.994 68.8536C115.395 67.2837 113.352 63.2205 113.352 63.2205C113.352 63.2205 110.979 67.5608 104.355 68.9829C97.7311 70.405 96.5984 70.7375 96.5984 70.7375Z" fill="white"/>
<path d="M102.473 76.6338C100.046 76.6338 98.3833 75.9089 97.7166 75.2209C96.6664 74.1359 96.4298 70.8991 96.4191 70.7606C96.4153 70.7055 96.427 70.6506 96.452 70.6057C96.477 70.5608 96.5136 70.5289 96.5553 70.5159C96.6019 70.5159 97.7704 70.1419 104.326 68.7336C110.778 67.3484 113.18 63.1097 113.205 63.0681C113.222 63.0382 113.244 63.0139 113.269 62.997C113.295 62.9802 113.323 62.9713 113.352 62.9711C113.381 62.972 113.41 62.9821 113.436 63.0006C113.461 63.0191 113.483 63.0455 113.499 63.0773C113.714 63.5021 115.578 67.2976 115.162 68.909C114.721 70.6082 110.101 75.1378 105.993 76.1721C104.834 76.4712 103.655 76.6258 102.473 76.6338ZM96.7955 70.9222C96.8636 71.6333 97.1539 74.0435 97.9425 74.8608C98.8386 75.7842 101.71 76.7816 105.925 75.7196C110.068 74.6761 114.467 70.1465 114.825 68.7613C115.108 67.6623 113.95 64.8873 113.334 63.6037C112.696 64.5872 110.137 67.9579 104.373 69.1907C99.0608 70.3358 97.2758 70.7698 96.7955 70.9222Z" fill="#2E353A"/>
<path d="M123.055 39.0487C121.416 37.6635 108.663 24.8642 107.462 24.3009C106.262 23.7376 103.878 24.3009 103.878 24.3009C103.878 24.3009 96.487 25.4645 94.9385 26.2679C94.7916 26.3418 91.4617 28.8074 91.3542 28.9367C90.1534 30.2019 84.9022 33.3139 83.49 37.2479C81.8878 41.699 95.9673 68.4981 96.6232 70.7421C97.2792 72.9862 100.717 73.5402 103.878 72.9769C107.039 72.4136 109.814 71.5917 112.104 68.2164C112.519 67.5441 112.867 66.8073 113.14 66.0232C113.467 65.1471 113.551 64.1526 113.377 63.2066C112.559 58.8201 110.473 46.1732 109.097 37.8112C111.391 39.7182 116.162 43.5922 118.936 44.9589C122.642 46.8058 125.478 45.5222 125.478 43.9754C125.478 42.4286 124.689 40.4524 123.055 39.0487Z" fill="white"/>
<path d="M118.628 41.7775C116.442 41.4997 114.326 40.6396 112.412 39.2518C112.412 39.2518 115.248 37.5665 115.355 36.7215C115.463 35.8765 111.43 36.583 111.975 36.3013C112.52 36.0197 113.283 35.3178 111.975 35.3178C110.932 35.2295 109.905 34.9464 108.925 34.4775L109.072 37.7973C110.319 38.8362 112.298 40.4477 114.283 41.9253C116.151 43.1902 118.075 44.3141 120.044 45.2913C120.044 45.2913 122.442 42.3408 118.628 41.7775Z" fill="#90CAF9"/>
<g style="mix-blend-mode:multiply">
<path d="M103.853 72.9723L104.258 72.8984C105.133 72.3536 106.613 72.0119 108.054 71.5502C110.233 70.8483 107.835 70.8483 104.237 68.4612C100.638 66.074 99.2185 62.5648 95.9496 57.5088C92.6806 52.4528 91.3723 49.9225 92.0282 49.3638C92.6842 48.8051 90.7199 48.8005 89.9565 48.2372C89.193 47.6739 91.0318 47.6785 92.5731 45.7115C94.1144 43.7445 89.6267 46.1317 89.193 45.9932C88.7593 45.8546 89.6267 44.0262 89.6267 44.0262L86.4653 48.2372L94.0964 65.0905L94.5337 65.5107L95.0355 66.4341L96.4693 70.4051C96.5266 70.5436 96.5661 70.659 96.5912 70.7375C97.2507 72.9861 100.692 73.5402 103.853 72.9723Z" fill="#90CAF9"/>
</g>
<path d="M89.4008 33.7064C91.8131 33.2447 98.5375 38.1852 98.5375 38.1852C94.842 34.9531 91.6088 31.9241 89.3973 30.5574L85.3218 34.2512L85.0422 34.5883C85.5154 34.4683 87.3291 34.085 89.4008 33.7064Z" fill="#90CAF9"/>
<path opacity="0.5" d="M118.628 41.7775C116.442 41.4997 114.326 40.6396 112.412 39.2518C112.412 39.2518 115.248 37.5665 115.355 36.7215C115.463 35.8765 111.43 36.583 111.975 36.3013C112.52 36.0197 113.283 35.3178 111.975 35.3178C110.932 35.2295 109.905 34.9464 108.925 34.4775L109.072 37.7973C110.319 38.8362 112.298 40.4477 114.283 41.9253C116.151 43.1902 118.075 44.3141 120.044 45.2913C120.044 45.2913 122.442 42.3408 118.628 41.7775Z" fill="white"/>
<path opacity="0.5" d="M103.853 72.9723L104.258 72.8984C105.133 72.3536 106.613 72.0119 108.054 71.5502C110.233 70.8483 107.835 70.8483 104.237 68.4612C100.638 66.074 99.2185 62.5648 95.9496 57.5088C92.6806 52.4528 91.3723 49.9225 92.0282 49.3638C92.6842 48.8051 90.7199 48.8005 89.9565 48.2372C89.193 47.6739 91.0318 47.6785 92.5731 45.7115C94.1144 43.7445 89.6267 46.1317 89.193 45.9932C88.7593 45.8546 89.6267 44.0262 89.6267 44.0262L86.4653 48.2372L94.0964 65.0905L94.5337 65.5107L95.0355 66.4341L96.4693 70.4051C96.5266 70.5436 96.5661 70.659 96.5912 70.7375C97.2507 72.9861 100.692 73.5402 103.853 72.9723Z" fill="white"/>
<path opacity="0.5" d="M89.4008 33.7064C91.8131 33.2447 98.5375 38.1852 98.5375 38.1852C94.842 34.9531 91.6088 31.9241 89.3973 30.5574L85.3218 34.2512L85.0422 34.5883C85.5154 34.4683 87.3291 34.085 89.4008 33.7064Z" fill="white"/>
<path d="M101.559 73.4109C99.1432 73.4109 96.9675 72.6675 96.4299 70.8206C96.2721 70.2758 95.2112 68.0502 93.867 65.2521C88.1571 53.3209 82.1604 40.3184 83.3038 37.1463C84.3791 34.1543 87.5585 31.684 89.6625 30.0495C90.1986 29.6571 90.7168 29.2254 91.2146 28.7566C91.3436 28.6227 94.6807 26.1478 94.8599 26.0555C96.4155 25.2474 103.541 24.1208 103.846 24.0746C103.936 24.0516 106.294 23.5067 107.524 24.0746C108.319 24.4486 113.771 29.7632 118.151 34.0342C120.524 36.3429 122.571 38.3468 123.151 38.8455C124.98 40.4154 125.632 42.5117 125.632 43.9523C125.619 44.2197 125.554 44.4787 125.444 44.706C125.334 44.9333 125.182 45.1217 125.001 45.2544C123.944 46.1779 121.632 46.5242 118.847 45.1528C116.9 44.1924 113.617 41.8237 109.337 38.2822C110.771 47.0782 112.739 58.9263 113.524 63.1374C113.709 64.1357 113.621 65.1856 113.276 66.1109C112.996 66.9167 112.635 67.6713 112.201 68.3549C109.807 71.878 106.893 72.6537 103.867 73.1893C103.103 73.3313 102.332 73.4053 101.559 73.4109ZM106.004 24.2824C105.299 24.2961 104.595 24.3779 103.9 24.5271C103.814 24.5271 96.5051 25.6953 94.9925 26.4803C94.7954 26.5957 91.6017 28.9644 91.4404 29.1168C90.9301 29.5999 90.3974 30.0424 89.8453 30.442C87.7807 32.0488 84.6623 34.4775 83.63 37.368C82.4687 40.6001 90.0819 56.4884 94.1717 65.0351C95.6305 68.0825 96.5947 70.1142 96.7668 70.6821C97.4012 72.8615 100.871 73.2909 103.828 72.7645C106.785 72.2381 109.631 71.4855 111.943 68.0825C112.349 67.4267 112.689 66.7068 112.954 65.9401C113.262 65.1124 113.34 64.1737 113.176 63.2805C112.373 58.9771 110.352 46.7181 108.896 37.8851C108.889 37.84 108.893 37.7932 108.906 37.7505C108.919 37.7079 108.942 37.6712 108.972 37.645C109.001 37.6202 109.035 37.607 109.07 37.607C109.105 37.607 109.14 37.6202 109.169 37.645C113.606 41.3389 116.997 43.7999 118.976 44.7696C121.621 46.0763 123.85 45.7669 124.797 44.9266C124.927 44.8319 125.038 44.6989 125.121 44.5384C125.204 44.3779 125.256 44.1945 125.273 44.0031C125.273 42.6825 124.664 40.7479 122.954 39.2795C122.363 38.7716 120.313 36.7723 117.936 34.4544C113.803 30.4281 108.147 24.9104 107.402 24.5595C106.951 24.3695 106.478 24.276 106.004 24.2824Z" fill="#2E353A"/>
<path d="M85.2179 34.3713C85.2179 34.3713 83.9096 36.2182 83.4006 37.0724C80.6693 41.5928 71.9772 56.0774 71.8804 57.2456C71.7836 58.4138 72.1958 59.1987 74.3214 60.2515C76.4469 61.3042 90.6662 42.9503 90.6662 42.9503" fill="white"/>
<g style="mix-blend-mode:multiply" opacity="0.8">
<path d="M85.2395 34.4267L85.0567 34.5791C84.7914 34.9577 84.2179 35.7842 83.7735 36.4629L77.171 47.6184C77.171 47.6184 76.9667 47.914 76.6441 48.4034C74.1673 52.656 72.0095 56.493 71.8769 57.1763C71.8769 57.1994 71.8769 57.2225 71.8769 57.241C71.7908 58.3445 72.2066 59.1849 74.3214 60.233C74.6978 60.4177 75.4433 60.0022 76.4219 59.1941C75.9247 59.0653 75.4498 58.8213 75.0204 58.4738C73.8196 57.4903 74.8017 56.5068 74.8017 56.5068C74.8017 56.5068 76.3609 57.3102 77.8986 57.8505C78.2176 57.5411 78.551 57.2087 78.8915 56.8577C78.564 56.5814 78.2536 56.2726 77.9632 55.9343C76.6548 54.3921 75.5652 52.8453 75.5652 52.8453L85.5585 34.8792L85.2395 34.4267Z" fill="#90CAF9"/>
</g>
<path opacity="0.5" d="M85.2395 34.4267L85.0567 34.5791C84.7914 34.9577 84.2179 35.7842 83.7735 36.4629L77.171 47.6184C77.171 47.6184 76.9667 47.914 76.6441 48.4034C74.1673 52.656 72.0095 56.493 71.8769 57.1763C71.8769 57.1994 71.8769 57.2225 71.8769 57.241C71.7908 58.3445 72.2066 59.1849 74.3214 60.233C74.6978 60.4177 75.4433 60.0022 76.4219 59.1941C75.9247 59.0653 75.4498 58.8213 75.0204 58.4738C73.8196 57.4903 74.8017 56.5068 74.8017 56.5068C74.8017 56.5068 76.3609 57.3102 77.8986 57.8505C78.2176 57.5411 78.551 57.2087 78.8915 56.8577C78.564 56.5814 78.2536 56.2726 77.9632 55.9343C76.6548 54.3921 75.5652 52.8453 75.5652 52.8453L85.5585 34.8792L85.2395 34.4267Z" fill="white"/>
<path d="M74.4861 60.5193C74.4055 60.5206 74.3254 60.5034 74.2495 60.4686C72.271 59.4851 71.5756 58.6216 71.6939 57.2364C71.7907 56.0867 78.9774 44.0308 83.25 36.9478C83.7589 36.1075 85.0242 34.3113 85.078 34.2374C85.0933 34.2129 85.1123 34.1926 85.1339 34.1779C85.1555 34.1632 85.1792 34.1543 85.2035 34.1518C85.2279 34.1494 85.2524 34.1533 85.2755 34.1635C85.2986 34.1736 85.3199 34.1897 85.338 34.2108C85.3561 34.232 85.3707 34.2576 85.3808 34.2863C85.3909 34.3149 85.3964 34.3459 85.3969 34.3774C85.3974 34.4088 85.3929 34.4401 85.3837 34.4692C85.3744 34.4984 85.3607 34.5248 85.3432 34.5468C85.3432 34.5468 84.0313 36.3937 83.5331 37.2341C76.6296 48.6759 72.1204 56.5484 72.0631 57.2872C71.9806 58.2707 72.3355 59.0372 74.3929 60.0576C75.8733 60.7918 84.8629 50.1396 90.5442 42.8026C90.5779 42.7591 90.6237 42.7347 90.6714 42.7347C90.7192 42.7347 90.7649 42.7591 90.7987 42.8026C90.8324 42.8461 90.8514 42.905 90.8514 42.9665C90.8514 43.028 90.8324 43.087 90.7987 43.1304C89.3757 44.9404 77.2318 60.5193 74.4861 60.5193Z" fill="#2E353A"/>
<path d="M113.99 33.5309L109.072 37.7974C109.789 37.6681 113.187 36.1167 113.187 36.1167" fill="white"/>
<path d="M109.072 38.0282C109.036 38.0289 109.001 38.015 108.971 37.9885C108.941 37.962 108.919 37.9242 108.907 37.8805C108.892 37.8324 108.89 37.7791 108.902 37.7295C108.914 37.6799 108.938 37.637 108.972 37.608L113.893 33.3416C113.912 33.3242 113.934 33.312 113.957 33.3056C113.98 33.2992 114.003 33.2988 114.026 33.3044C114.049 33.31 114.071 33.3215 114.091 33.3382C114.11 33.3549 114.127 33.3765 114.14 33.4016C114.166 33.4533 114.176 33.516 114.166 33.5764C114.157 33.6369 114.13 33.6901 114.09 33.7248L110.058 37.2248C111.294 36.7354 113.104 35.9135 113.129 35.8996C113.177 35.8794 113.229 35.8844 113.273 35.9134C113.318 35.9424 113.352 35.9931 113.368 36.0543C113.383 36.1155 113.38 36.1823 113.357 36.2399C113.335 36.2974 113.295 36.3411 113.248 36.3613C113.108 36.4214 109.81 37.922 109.097 38.0513L109.072 38.0282Z" fill="#2E353A"/>
<path d="M113.789 36.2183C113.747 36.2172 113.707 36.1978 113.675 36.1634C113.643 36.129 113.621 36.0815 113.613 36.0289C113.605 35.969 113.615 35.9071 113.642 35.857C113.669 35.8068 113.71 35.7724 113.757 35.7611L114.861 35.5026C114.908 35.4917 114.956 35.5049 114.996 35.5394C115.035 35.5739 115.063 35.627 115.072 35.6873C115.077 35.7176 115.077 35.7489 115.072 35.7792C115.067 35.8095 115.057 35.8382 115.043 35.8636C115.03 35.889 115.012 35.9106 114.992 35.9271C114.972 35.9436 114.949 35.9547 114.925 35.9597L113.821 36.2183H113.789Z" fill="#2E353A"/>
<path d="M77.3535 52.7621C76.5946 52.733 75.8399 52.9173 75.142 53.3024L77.3535 52.7621Z" fill="white"/>
<path d="M75.142 53.5472C75.0945 53.5588 75.0453 53.5456 75.0053 53.5106C74.9653 53.4755 74.9378 53.4214 74.9287 53.3602C74.9197 53.2989 74.9299 53.2356 74.9572 53.1841C74.9844 53.1325 75.0264 53.0971 75.0739 53.0854C75.7976 52.685 76.5807 52.4943 77.3679 52.5267C77.3915 52.5291 77.4145 52.5374 77.4355 52.5512C77.4566 52.565 77.4753 52.584 77.4906 52.6072C77.506 52.6304 77.5176 52.6572 77.5248 52.6862C77.532 52.7152 77.5348 52.7457 77.5328 52.7761C77.5282 52.8369 77.5055 52.8931 77.4694 52.9327C77.4333 52.9724 77.3866 52.9924 77.3392 52.9885C76.6097 52.9612 75.8843 53.1393 75.2137 53.5102C75.1923 53.5294 75.1678 53.542 75.142 53.5472Z" fill="#2E353A"/>
<path d="M88.071 46.4318C88.071 46.4318 90.8345 45.3421 91.5658 44.6172L88.071 46.4318Z" fill="white"/>
<path d="M88.0708 46.6627C88.0233 46.6712 87.975 46.6551 87.9367 46.6179C87.8984 46.5807 87.8731 46.5253 87.8665 46.4641C87.8598 46.4029 87.8723 46.3408 87.9012 46.2914C87.9302 46.242 87.9731 46.2095 88.0206 46.2009C88.0457 46.2009 90.7591 45.1205 91.4581 44.4279C91.4956 44.3906 91.5432 44.3741 91.5902 44.3819C91.6372 44.3897 91.6799 44.4212 91.709 44.4694C91.737 44.5183 91.7493 44.5792 91.7432 44.6394C91.7372 44.6996 91.7134 44.7545 91.6767 44.7926C90.924 45.536 88.2393 46.598 88.1246 46.6396C88.1081 46.6519 88.0898 46.6598 88.0708 46.6627Z" fill="#2E353A"/>
<path d="M92.2433 44.257C92.2433 44.257 92.6949 43.7491 92.8634 43.7491L92.2433 44.257Z" fill="white"/>
<path d="M92.2434 44.4879C92.2178 44.4876 92.1924 44.4805 92.169 44.467C92.1455 44.4535 92.1245 44.4339 92.1072 44.4094C92.0742 44.3655 92.0557 44.3067 92.0557 44.2455C92.0557 44.1843 92.0742 44.1255 92.1072 44.0816C92.3099 43.8122 92.5648 43.6177 92.8456 43.5182C92.8931 43.5182 92.9387 43.5426 92.9723 43.5859C93.0059 43.6292 93.0248 43.6879 93.0248 43.7491C93.0239 43.81 93.0047 43.868 92.9713 43.9111C92.9379 43.9541 92.8928 43.9788 92.8456 43.98C92.661 44.0999 92.4917 44.2556 92.3438 44.4417C92.315 44.4704 92.2798 44.4866 92.2434 44.4879Z" fill="#2E353A"/>
<path d="M109.072 38.0282C109.028 38.0275 108.985 38.006 108.952 37.9678C108.919 37.9296 108.898 37.8772 108.893 37.8205L108.445 31.8872C108.442 31.8569 108.445 31.8262 108.452 31.7971C108.458 31.7679 108.47 31.7408 108.485 31.7172C108.5 31.6936 108.518 31.674 108.539 31.6596C108.56 31.6452 108.583 31.6363 108.606 31.6332C108.63 31.6302 108.653 31.6332 108.676 31.642C108.699 31.6508 108.72 31.6652 108.738 31.6845C108.756 31.7038 108.772 31.7276 108.783 31.7544C108.794 31.7813 108.801 31.8107 108.803 31.841L109.255 37.7789C109.257 37.809 109.255 37.8394 109.248 37.8684C109.241 37.8973 109.23 37.9242 109.215 37.9475C109.2 37.9707 109.182 37.9899 109.161 38.0037C109.14 38.0176 109.117 38.0259 109.094 38.0282H109.072Z" fill="#2E353A"/>
<path d="M71.8696 57.3057C71.8696 57.3057 71.2352 60.4316 75.3034 61.7291C77.2354 62.3432 90.021 66.3464 90.021 66.3464C90.021 66.3464 91.1644 63.1881 90.512 63.1881C89.8597 63.1881 78.0706 53.09 78.0706 53.09" fill="white"/>
<path d="M73.7692 61.0411L88.5942 65.917L88.9885 64.7072C88.9885 64.7072 83.404 63.2666 79.9164 61.0133C76.4288 58.7601 76.2066 59.4665 75.0094 58.4877C73.8122 57.5088 74.7907 56.5207 74.7907 56.5207C74.7907 56.5207 78.0633 58.206 79.8089 58.3445C81.5545 58.483 79.264 57.5042 77.9557 55.9574C77.4145 55.3202 76.9127 54.6784 76.522 54.152L71.8623 57.301C71.8623 57.301 71.4106 59.5681 73.7692 61.0411Z" fill="#90CAF9"/>
<path opacity="0.5" d="M73.7692 61.0411L88.5942 65.917L88.9885 64.7072C88.9885 64.7072 83.404 63.2666 79.9164 61.0133C76.4288 58.7601 76.2066 59.4665 75.0094 58.4877C73.8122 57.5088 74.7907 56.5207 74.7907 56.5207C74.7907 56.5207 78.0633 58.206 79.8089 58.3445C81.5545 58.483 79.264 57.5042 77.9557 55.9574C77.4145 55.3202 76.9127 54.6784 76.522 54.152L71.8623 57.301C71.8623 57.301 71.4106 59.5681 73.7692 61.0411Z" fill="white"/>
<path d="M90.0209 66.6142H89.9779C89.9779 66.6142 77.1924 62.5925 75.2604 61.9969C73.6474 61.4843 72.5542 60.6117 72.0129 59.4527C71.6977 58.8106 71.5848 58.0376 71.6975 57.2918C71.7101 57.233 71.74 57.1828 71.7808 57.1518C71.8216 57.1208 71.8701 57.1114 71.9161 57.1256C71.9616 57.1418 72.0003 57.1805 72.0238 57.2332C72.0473 57.2859 72.0537 57.3485 72.0416 57.4072C71.9605 58.0384 72.0625 58.686 72.3283 59.2265C72.8194 60.2885 73.8374 61.0734 75.3464 61.5351C77.1386 62.1123 88.5083 65.6907 89.9205 66.1248C90.3614 64.8689 90.6374 63.6499 90.512 63.4606C89.8309 63.4606 79.9559 55.0108 77.9845 53.3024C77.945 53.2677 77.9176 53.2144 77.9082 53.154C77.8988 53.0936 77.9082 53.0308 77.9343 52.9792C77.9473 52.954 77.9641 52.9324 77.9836 52.9157C78.0032 52.899 78.0251 52.8876 78.0482 52.882C78.0712 52.8764 78.0949 52.8768 78.1178 52.8832C78.1408 52.8896 78.1625 52.9018 78.1817 52.9192C82.8234 56.9039 89.9421 62.8742 90.5191 62.9896C90.5776 62.9907 90.6349 63.0103 90.6861 63.0465C90.7373 63.0827 90.7809 63.1345 90.8131 63.1974C91.1106 63.8023 90.4044 65.8616 90.1786 66.4803C90.1646 66.5193 90.1424 66.5525 90.1146 66.5762C90.0867 66.5999 90.0543 66.613 90.0209 66.6142Z" fill="#2E353A"/>
<path d="M90.512 63.202C90.512 63.202 94.7093 65.7323 95.0355 66.4341C95.3617 67.1359 96.1108 70.7836 96.1108 71.9103C96.1108 73.0369 96.0033 73.0323 95.4585 73.0323C94.9136 73.0323 93.4942 70.3635 93.168 69.8001C92.8419 69.2368 92.0927 69.2368 91.0963 68.4149C90.8186 68.188 90.58 67.8903 90.395 67.5401C90.2101 67.1899 90.0828 66.7947 90.0209 66.3787L90.512 63.202Z" fill="white"/>
<path d="M95.4727 73.2631C95.0032 73.2631 94.229 72.058 93.211 70.248C93.1393 70.1187 93.082 70.0125 93.0389 69.9433C92.8341 69.681 92.5776 69.4958 92.297 69.4077C91.8448 69.2006 91.413 68.9264 91.0102 68.5904C90.7086 68.3461 90.4493 68.0245 90.2482 67.6456C90.0472 67.2667 89.9088 66.8386 89.8417 66.3879C89.8399 66.3649 89.8399 66.3417 89.8417 66.3187L90.3327 63.1558C90.3382 63.1218 90.3494 63.0897 90.3655 63.0618C90.3816 63.0339 90.4022 63.0108 90.4259 62.9942C90.4504 62.9783 90.4774 62.9701 90.5048 62.9701C90.5322 62.9701 90.5592 62.9783 90.5836 62.9942C91.3005 63.419 94.8491 65.5891 95.186 66.3141C95.5229 67.039 96.3007 70.7513 96.3007 71.9103C96.3007 73.0692 96.1358 73.2631 95.4727 73.2631ZM90.2037 66.3695C90.2676 66.7482 90.3896 67.1067 90.5626 67.4239C90.7355 67.7411 90.956 68.0105 91.2109 68.2164C91.5914 68.5319 91.9992 68.7891 92.426 68.9829C92.7711 69.0984 93.0833 69.3387 93.3257 69.6755C93.3687 69.7447 93.4296 69.8509 93.5013 69.9848C94.8132 72.3212 95.2935 72.8107 95.4727 72.8107C95.9459 72.8107 95.9459 72.8106 95.9459 71.9195C95.9459 70.8298 95.2003 67.2421 94.8706 66.5588C94.6627 66.097 92.2432 64.5271 90.6302 63.5436L90.2037 66.3695Z" fill="#2E353A"/>
<path d="M88.7198 66.0508C88.702 66.0552 88.6838 66.0552 88.666 66.0508C88.6434 66.042 88.6224 66.0273 88.6042 66.0077C88.5861 65.9881 88.5713 65.964 88.5606 65.9369C88.5498 65.9097 88.5435 65.88 88.5419 65.8496C88.5403 65.8192 88.5435 65.7887 88.5513 65.76L89.2036 63.1512C89.2103 63.1213 89.2215 63.0935 89.2366 63.0693C89.2518 63.0452 89.2706 63.0252 89.2918 63.0107C89.3131 62.9961 89.3365 62.9872 89.3605 62.9845C89.3845 62.9818 89.4087 62.9854 89.4316 62.995C89.4545 63.0047 89.4757 63.0202 89.4938 63.0406C89.512 63.061 89.5268 63.0859 89.5373 63.1138C89.5478 63.1418 89.5538 63.1722 89.555 63.2032C89.5562 63.2342 89.5525 63.2652 89.5442 63.2943L88.8918 65.9031C88.8781 65.9472 88.8543 65.9849 88.8236 66.0113C88.7929 66.0377 88.7567 66.0515 88.7198 66.0508Z" fill="#2E353A"/>
<path d="M120.545 43.5275C120.545 43.5275 119.47 48.3018 119.018 51.1092C118.567 53.9165 115.531 65.1551 115.531 65.1551L118.147 67.2606C118.147 67.2606 123.926 51.8387 125.026 48.4588C126.126 45.0789 125.789 42.5578 124.7 41.1542" fill="white"/>
<path d="M118.148 67.5054C118.115 67.5044 118.082 67.4916 118.054 67.4684L115.438 65.3629C115.403 65.3353 115.377 65.2933 115.363 65.2438C115.349 65.1942 115.349 65.1402 115.363 65.0905C115.391 64.9797 118.416 53.838 118.843 51.0815C119.27 48.3249 120.366 43.5275 120.366 43.4767C120.38 43.4155 120.411 43.3636 120.454 43.3324C120.497 43.3012 120.548 43.2934 120.596 43.3105C120.643 43.3277 120.684 43.3684 120.708 43.4238C120.732 43.4793 120.738 43.5448 120.725 43.606C120.725 43.6522 119.632 48.4034 119.201 51.1692C118.793 53.8057 116.158 63.5853 115.753 65.072L118.08 66.9421C118.796 64.9982 123.854 51.4693 124.858 48.3665C125.825 45.3698 125.721 42.8257 124.571 41.3158C124.538 41.273 124.519 41.2148 124.519 41.1542C124.519 41.0936 124.538 41.0355 124.571 40.9926C124.604 40.9497 124.649 40.9257 124.696 40.9257C124.743 40.9257 124.788 40.9497 124.822 40.9926C126.083 42.6133 126.216 45.3698 125.18 48.5466C124.105 51.8849 118.37 67.2191 118.309 67.3761C118.298 67.4053 118.283 67.4312 118.264 67.4519C118.244 67.4727 118.222 67.4878 118.198 67.4961L118.148 67.5054Z" fill="#2E353A"/>
<path d="M116.026 63.5483C116.223 63.5483 118.707 65.3121 118.707 65.3121L116.026 63.5483Z" fill="#2E353A"/>
<path d="M98.835 38.1852C98.2328 38.0559 95.0176 35.3409 92.8096 33.1431C90.6017 30.9452 89.3973 30.5574 89.3973 30.5574L87.8919 31.8502C87.6641 30.9053 87.7362 29.8825 88.0926 29.0059C88.6948 27.5838 90.8024 26.1617 92.91 25.1274C95.0176 24.0931 97.4263 23.2112 98.9354 23.2112C100.444 23.2112 100.842 23.9869 100.842 25.0212C100.842 26.0555 100.842 29.2876 100.34 31.744C99.8386 34.2005 98.835 38.1852 98.835 38.1852Z" fill="white"/>
<g style="mix-blend-mode:multiply">
<path d="M97.8886 24.7026C97.8886 24.7026 96.9602 28.2856 96.0319 29.3615C95.315 30.1359 94.5392 30.815 93.7164 31.3885C93.7164 31.3885 93.1608 28.8813 91.77 28.8813C90.3793 28.8813 88.2466 30.0772 88.2466 30.0772C88.2466 30.0772 88.2466 29.1214 90.0065 27.9255L91.77 26.7342L95.8491 24.7026H97.8886Z" fill="#90CAF9"/>
</g>
<path opacity="0.5" d="M97.8886 24.7026C97.8886 24.7026 96.9602 28.2856 96.0319 29.3615C95.315 30.1359 94.5392 30.815 93.7164 31.3885C93.7164 31.3885 93.1608 28.8813 91.77 28.8813C90.3793 28.8813 88.2466 30.0772 88.2466 30.0772C88.2466 30.0772 88.2466 29.1214 90.0065 27.9255L91.77 26.7342L95.8491 24.7026H97.8886Z" fill="white"/>
<path d="M98.8348 38.4161H98.8026C98.1359 38.273 94.8347 35.4518 92.7091 33.337C90.8632 31.4901 89.7233 30.9406 89.433 30.8206L87.9992 32.0534C87.9758 32.0716 87.9497 32.0835 87.9226 32.0883C87.8955 32.093 87.8679 32.0906 87.8415 32.0811C87.8158 32.0697 87.7924 32.0509 87.7731 32.0261C87.7539 32.0013 87.7393 31.9711 87.7304 31.938C87.6076 31.4396 87.563 30.9146 87.5993 30.3938C87.6356 29.873 87.7521 29.3666 87.9419 28.9044C88.6588 27.1775 91.3327 25.6723 92.8561 24.9196C94.0533 24.3332 97.0427 22.9665 98.9496 22.9665C100.351 22.9665 101.036 23.6314 101.036 25.0074C101.036 26.0693 101.036 29.3061 100.527 31.7902C100.018 34.2744 99.0284 38.2268 99.0177 38.2545C99.0063 38.3044 98.9818 38.3477 98.9485 38.3772C98.9152 38.4066 98.8751 38.4204 98.8348 38.4161ZM89.3972 30.3265H89.4402C89.4903 30.3265 90.709 30.7513 92.9206 32.9538C94.996 35.0178 97.8886 37.4742 98.7166 37.8944C98.9316 37.0263 99.7381 33.7388 100.15 31.6517C100.649 29.2276 100.649 26.037 100.649 24.9889C100.649 24.2086 100.444 23.4098 98.9209 23.4098C97.6233 23.4098 95.4512 24.1116 92.96 25.3352C90.4689 26.5588 88.7304 27.9394 88.2358 29.1076C87.9392 29.8332 87.8504 30.6701 87.9849 31.4716L89.2824 30.3589C89.3167 30.3314 89.3572 30.32 89.3972 30.3265Z" fill="#2E353A"/>
<path d="M89.899 21.7752C91.0749 23.4457 91.9002 25.4752 92.2969 27.6716C92.9493 31.3239 97.0498 35.618 98.032 35.618C99.0141 35.618 98.946 29.3569 98.6198 27.533C98.2936 25.7092 96.9853 20.7917 96.9853 20.7917C96.9853 20.7917 91.7665 17.5596 89.899 21.7752Z" fill="white"/>
<path d="M98.0464 35.8488C96.9926 35.8488 92.7989 31.4347 92.1358 27.7223C91.7427 25.5695 90.9339 23.5795 89.7844 21.9368C89.7568 21.901 89.739 21.8545 89.7338 21.8045C89.7286 21.7545 89.7363 21.7036 89.7557 21.6598C91.6698 17.3102 97.0213 20.547 97.075 20.5839C97.0967 20.5971 97.1162 20.6157 97.1322 20.6387C97.1482 20.6617 97.1604 20.6886 97.1682 20.7178C97.222 20.9164 98.4837 25.663 98.8099 27.4822C99.0931 29.0798 99.2257 34.3297 98.473 35.5533C98.4246 35.6419 98.3608 35.7147 98.2868 35.766C98.2127 35.8173 98.1304 35.8456 98.0464 35.8488ZM90.1357 21.7429C91.2855 23.4202 92.0925 25.4404 92.4834 27.6208C93.1358 31.2454 97.2113 35.3871 98.0464 35.3871C98.0464 35.3871 98.1145 35.3871 98.1898 35.2624C98.7991 34.279 98.7597 29.2599 98.4586 27.5838C98.1575 25.9077 97.0249 21.6505 96.8528 20.9579C96.2542 20.6162 91.8275 18.2291 90.1357 21.7429Z" fill="#2E353A"/>
<g style="mix-blend-mode:multiply">
<path d="M97.8886 24.7025C97.8886 24.7025 96.9602 28.2856 96.0319 29.3614C95.315 30.1358 94.5392 30.8149 93.7164 31.3884C93.7164 31.3884 93.1608 28.8812 91.77 28.8812C90.3793 28.8812 88.2466 30.0771 88.2466 30.0771C88.2466 30.0771 88.2466 29.1213 90.0065 27.9254L91.77 26.7341L95.8491 24.7025H97.8886Z" fill="#90CAF9"/>
</g>
<path opacity="0.5" d="M97.8886 24.7025C97.8886 24.7025 96.9602 28.2856 96.0319 29.3614C95.315 30.1358 94.5392 30.8149 93.7164 31.3884C93.7164 31.3884 93.1608 28.8812 91.77 28.8812C90.3793 28.8812 88.2466 30.0771 88.2466 30.0771C88.2466 30.0771 88.2466 29.1213 90.0065 27.9254L91.77 26.7341L95.8491 24.7025H97.8886Z" fill="white"/>
<path d="M89.899 21.7752C91.0749 23.4457 91.9002 25.4752 92.2969 27.6715C92.9493 31.3238 97.0498 35.6179 98.032 35.6179C99.0141 35.6179 98.946 29.3568 98.6198 27.533C98.2936 25.7091 96.9853 20.7917 96.9853 20.7917C96.9853 20.7917 91.7665 17.5595 89.899 21.7752Z" fill="white"/>
<path d="M98.0464 35.8488C96.9926 35.8488 92.7989 31.4346 92.1358 27.7223C91.7427 25.5695 90.9339 23.5794 89.7844 21.9367C89.7568 21.901 89.739 21.8545 89.7338 21.8044C89.7286 21.7544 89.7363 21.7036 89.7557 21.6597C91.6698 17.3102 97.0213 20.5469 97.075 20.5839C97.0967 20.597 97.1162 20.6156 97.1322 20.6386C97.1482 20.6616 97.1604 20.6885 97.1682 20.7178C97.222 20.9163 98.4837 25.6629 98.8099 27.4822C99.0931 29.0798 99.2257 34.3297 98.473 35.5533C98.4246 35.6418 98.3608 35.7146 98.2868 35.7659C98.2127 35.8172 98.1304 35.8456 98.0464 35.8488ZM90.1357 21.7428C91.2855 23.4201 92.0925 25.4404 92.4834 27.6207C93.1358 31.2453 97.2113 35.3871 98.0464 35.3871C98.0464 35.3871 98.1145 35.3871 98.1898 35.2624C98.7991 34.2789 98.7597 29.2598 98.4586 27.5837C98.1575 25.9077 97.0249 21.6505 96.8528 20.9579C96.2542 20.6162 91.8275 18.229 90.1357 21.7428Z" fill="#2E353A"/>
<path d="M86.4543 15.0062C87.2234 17.7002 88.1745 20.302 89.2968 22.7818C90.9528 26.2863 94.15 28.2718 95.9243 27.3576C97.6986 26.4433 98.9065 23.4928 98.4334 18.9217C98.3294 17.9151 97.6484 17.5042 97.4297 16.613C96.6448 13.3809 95.8454 10.2642 95.5694 9.0775C95.211 7.54916 92.3722 6.02544 89.415 7.09204C86.4579 8.15865 85.9812 11.3446 86.4543 15.0062Z" fill="white"/>
<path d="M96.2792 12.2081C96.2792 12.2081 95.2039 13.2378 92.788 12.6421C90.3721 12.0465 88.7089 12.1804 88.8021 13.0023C88.8953 13.8242 89.0817 14.9093 89.0817 14.9093C89.0817 14.9093 86.1819 11.6771 88.8093 10.8183C90.7019 10.1857 91.7951 11.1461 92.2575 11.28C92.7199 11.4139 96.2792 12.2081 96.2792 12.2081Z" fill="#90CAF9"/>
<path opacity="0.5" d="M96.2792 12.2081C96.2792 12.2081 95.2039 13.2378 92.788 12.6421C90.3721 12.0465 88.7089 12.1804 88.8021 13.0023C88.8953 13.8242 89.0817 14.9093 89.0817 14.9093C89.0817 14.9093 86.1819 11.6771 88.8093 10.8183C90.7019 10.1857 91.7951 11.1461 92.2575 11.28C92.7199 11.4139 96.2792 12.2081 96.2792 12.2081Z" fill="white"/>
<path d="M94.9351 27.8285C93.0103 27.8285 90.5048 25.8015 89.1427 22.9156C88.0109 20.4216 87.0513 17.8043 86.2752 15.0939C86.2732 15.0817 86.2732 15.0691 86.2752 15.0569C85.6838 10.5088 86.6946 7.82617 89.3614 6.86577C92.4547 5.74837 95.3616 7.39214 95.738 9.0036C95.867 9.5623 96.0964 10.5412 96.4154 11.774C96.7739 13.1592 97.1789 14.8353 97.5947 16.5529C97.6988 16.8947 97.852 17.208 98.0464 17.4764C98.3363 17.8684 98.5307 18.3612 98.6055 18.8939C99.136 24.0238 97.6019 26.7434 95.9889 27.5745C95.6534 27.745 95.2957 27.8312 94.9351 27.8285ZM86.6301 14.9461C87.3938 17.6183 88.3364 20.1999 89.4474 22.6617C91.1141 26.1847 94.2648 27.9624 95.8599 27.1405C97.3474 26.374 98.7596 23.8206 98.2542 18.9494C98.1885 18.5043 98.0256 18.0927 97.7847 17.7627C97.5582 17.4428 97.3839 17.0675 97.2721 16.6591C96.8563 14.9461 96.437 13.2654 96.0929 11.8848C95.7882 10.6658 95.5444 9.68234 95.4118 9.11441C95.1107 7.83079 92.4619 6.2101 89.4761 7.26748C87.01 8.18171 86.0817 10.6843 86.6301 14.9461Z" fill="#2E353A"/>
<path d="M88.5871 20.0345C88.5871 20.0345 86.691 18.9679 86.5727 20.0345C86.4544 21.1011 87.2896 21.8814 88.1104 22.3431C88.3151 22.4874 88.5484 22.5499 88.7808 22.5228C89.0131 22.4956 89.2339 22.3801 89.4151 22.1908" fill="white"/>
<path d="M88.7089 22.7495C88.479 22.7458 88.2521 22.6813 88.0422 22.5602C86.8701 21.9137 86.2859 21.0134 86.397 20.0252C86.4064 19.9123 86.4372 19.804 86.4865 19.7099C86.5359 19.6157 86.6023 19.5385 86.6801 19.485C87.2501 19.0741 88.5154 19.7667 88.6587 19.8498C88.6991 19.8772 88.7298 19.9234 88.7447 19.9789C88.7595 20.0345 88.7573 20.0953 88.7386 20.1489C88.7198 20.2024 88.6859 20.2448 88.6438 20.2673C88.6017 20.2898 88.5544 20.2908 88.5118 20.27C88.0386 20.0022 87.1676 19.6651 86.8522 19.8867C86.8235 19.9069 86.7993 19.9361 86.7817 19.9717C86.7642 20.0072 86.7539 20.0479 86.7518 20.0899C86.6371 21.1196 87.5977 21.8122 88.1856 22.1354C88.3581 22.2589 88.5549 22.3147 88.7517 22.2958C88.9485 22.2769 89.1368 22.1842 89.2932 22.0292C89.3277 21.9916 89.3719 21.9723 89.417 21.9749C89.4621 21.9776 89.5047 22.002 89.5364 22.0435C89.5681 22.0849 89.5865 22.1402 89.5879 22.1983C89.5894 22.2564 89.5737 22.3131 89.5441 22.357C89.3142 22.619 89.0158 22.7592 88.7089 22.7495Z" fill="#2E353A"/>
<path d="M96.326 14.0042C96.326 14.0042 94.2148 13.3578 95.1181 16.9824C95.2973 17.6981 96.5267 18.5338 96.5267 18.5338C96.5267 18.5338 96.4264 19.6974 95.9245 19.8267" fill="white"/>
<path d="M95.9209 20.0576C95.8798 20.0567 95.8401 20.0381 95.8082 20.0045C95.7763 19.971 95.7541 19.9246 95.7453 19.8729C95.7406 19.8428 95.7406 19.8119 95.7453 19.7819C95.75 19.7518 95.7593 19.7233 95.7727 19.698C95.786 19.6726 95.8031 19.6509 95.823 19.6342C95.843 19.6175 95.8653 19.606 95.8886 19.6004C96.1467 19.5312 96.2794 18.9817 96.3295 18.677C95.9998 18.4369 95.118 17.7535 94.9495 17.0701C94.6126 15.7219 94.6413 14.7615 95.032 14.2166C95.5123 13.5471 96.3295 13.7918 96.3654 13.8011C96.4114 13.8153 96.4512 13.8525 96.476 13.9044C96.5009 13.9563 96.5088 14.0187 96.498 14.0781C96.493 14.1078 96.4833 14.1358 96.4697 14.1606C96.4561 14.1854 96.4387 14.2064 96.4186 14.2223C96.3985 14.2383 96.3762 14.2488 96.3529 14.2534C96.3296 14.258 96.3058 14.2565 96.2829 14.2489C96.2829 14.2489 95.6306 14.0596 95.2936 14.5306C94.9567 15.0016 94.9997 15.7681 95.2936 16.927C95.4083 17.3887 96.1647 18.0398 96.6127 18.3445C96.6438 18.3674 96.6691 18.4013 96.6857 18.4423C96.7022 18.4832 96.7092 18.5295 96.7059 18.5754C96.7059 18.7139 96.5733 19.9144 95.9603 20.0714L95.9209 20.0576Z" fill="#2E353A"/>
<path d="M94.8168 22.4124C94.8168 22.4124 93.3113 22.8003 92.7092 21.8953L94.8168 22.4124Z" fill="white"/>
<path d="M94.0962 22.7495C93.8193 22.7778 93.541 22.7316 93.2787 22.614C93.0165 22.4964 92.7761 22.3098 92.5728 22.0661C92.5575 22.0431 92.5459 22.0164 92.5386 21.9876C92.5313 21.9587 92.5285 21.9283 92.5303 21.8981C92.5322 21.8679 92.5386 21.8384 92.5493 21.8114C92.5599 21.7844 92.5746 21.7603 92.5925 21.7406C92.6104 21.7209 92.6311 21.7059 92.6535 21.6965C92.6759 21.6871 92.6995 21.6835 92.7229 21.6859C92.7464 21.6882 92.7693 21.6965 92.7903 21.7103C92.8113 21.724 92.8299 21.743 92.8452 21.766C93.3721 22.5602 94.77 22.2277 94.7844 22.2277C94.8073 22.221 94.831 22.2204 94.854 22.226C94.8771 22.2315 94.899 22.2431 94.9185 22.2599C94.938 22.2768 94.9546 22.2986 94.9673 22.324C94.9799 22.3495 94.9885 22.378 94.9923 22.4078C94.997 22.4375 94.9971 22.4681 94.9926 22.4979C94.9882 22.5277 94.9792 22.556 94.9662 22.5813C94.9532 22.6066 94.9365 22.6284 94.917 22.6454C94.8975 22.6623 94.8755 22.6742 94.8525 22.6802C94.6024 22.7313 94.3493 22.7545 94.0962 22.7495Z" fill="#2E353A"/>
<path d="M92.6087 16.336C92.6087 16.336 91.5047 15.8188 90.9025 16.4653C90.5802 16.7542 90.331 17.1589 90.1857 17.6288" fill="white"/>
<path d="M90.2001 17.8551H90.1571C90.1343 17.8475 90.1128 17.8343 90.0939 17.816C90.0751 17.7978 90.0592 17.7749 90.0472 17.7487C90.0352 17.7226 90.0274 17.6936 90.0241 17.6635C90.0208 17.6334 90.0222 17.6028 90.0281 17.5734C90.178 17.0587 90.4423 16.6122 90.788 16.2898C91.4619 15.5695 92.6232 16.1005 92.6698 16.1236C92.6922 16.1333 92.7128 16.1489 92.7305 16.1692C92.7481 16.1895 92.7624 16.2142 92.7724 16.2418C92.7825 16.2694 92.7881 16.2993 92.7889 16.3298C92.7898 16.3603 92.7858 16.3906 92.7773 16.4191C92.7611 16.4766 92.7279 16.5235 92.6849 16.5495C92.6419 16.5755 92.5926 16.5784 92.5479 16.5576C92.5479 16.5576 91.5335 16.0959 91.0174 16.6453C90.7333 16.9108 90.5113 17.2718 90.3758 17.6888C90.3642 17.7372 90.3409 17.7794 90.3093 17.8094C90.2777 17.8393 90.2394 17.8553 90.2001 17.8551Z" fill="#2E353A"/>
<path d="M92.5801 18.5477C92.7234 18.9771 92.6948 19.4019 92.5155 19.4988C92.3363 19.5958 92.0782 19.3326 91.9349 18.9032C91.7915 18.4738 91.8238 18.0536 92.003 17.952C92.1822 17.8504 92.4403 18.1321 92.5801 18.5477Z" fill="#2E353A"/>
<path d="M96.1897 16.2852C96.3331 16.71 96.3009 17.1348 96.1252 17.2363C95.9496 17.3379 95.6844 17.0655 95.5446 16.6407C95.4048 16.2159 95.4299 15.7865 95.6091 15.6895C95.7883 15.5926 96.0464 15.8604 96.1897 16.2852Z" fill="#2E353A"/>
<path d="M88.0603 20.6485C88.0603 20.6485 89.2575 19.5265 89.0389 18.543C88.8202 17.5595 88.3865 17.5595 88.8238 17.0008C89.2611 16.4421 89.5837 16.1559 89.4762 15.3155C89.3686 14.4752 87.623 13.0669 88.1679 12.2265C88.7127 11.3862 88.494 10.3796 92.9638 11.8017C97.4335 13.2239 100.269 10.9614 98.9605 8.85586C97.6521 6.75035 96.5625 6.46869 96.5625 6.46869C96.5625 6.46869 99.0716 5.08349 96.9998 3.65673C94.928 2.22997 90.2396 2.27153 87.623 4.92188C85.0064 7.57224 85.5512 9.82088 85.5512 9.82088C85.5512 9.82088 84.1354 10.1025 84.0243 12.9145C83.9132 15.7265 88.0603 20.6485 88.0603 20.6485Z" fill="#2E353A"/>
<path d="M95.1931 11.243C94.2403 11.1915 93.3022 10.9226 92.4223 10.4488C91.7328 10.0701 90.9983 9.84522 90.2502 9.78394C88.5189 9.78394 88.1605 11.0491 88.1462 11.1045C88.1413 11.1242 88.1334 11.1425 88.123 11.1581C88.1125 11.1738 88.0997 11.1865 88.0853 11.1956C88.0708 11.2047 88.0551 11.2099 88.0391 11.2109C88.0231 11.2119 88.0071 11.2087 87.992 11.2015C87.9767 11.1952 87.9625 11.185 87.9502 11.1716C87.9379 11.1582 87.9278 11.1418 87.9205 11.1234C87.9131 11.1049 87.9087 11.0848 87.9075 11.0641C87.9062 11.0434 87.9082 11.0226 87.9132 11.0029C87.9311 10.9429 88.3326 9.46535 90.2502 9.46535C91.027 9.52453 91.7899 9.75733 92.5048 10.1533C93.6195 10.6659 94.7773 11.1969 96.2326 10.7813C97.0211 10.555 97.4835 10.1903 97.5982 9.70545C97.7488 9.08211 97.2828 8.43106 97.2792 8.42183C97.2564 8.3924 97.2437 8.35256 97.2437 8.31101C97.2437 8.26947 97.2564 8.22962 97.2792 8.20019C97.3031 8.17163 97.3344 8.15576 97.367 8.15576C97.3996 8.15576 97.431 8.17163 97.4548 8.20019C97.4763 8.23252 98.0212 8.99438 97.8312 9.79318C97.6842 10.3981 97.1645 10.8321 96.2827 11.086C95.9249 11.188 95.5596 11.2406 95.1931 11.243Z" fill="white"/>
<path d="M87.1964 10.8551C87.1638 10.8516 87.1335 10.8317 87.112 10.7998C87.0906 10.7679 87.0797 10.7264 87.0817 10.6843C87.0817 10.652 87.2932 7.60454 89.3901 6.92117C90.6267 6.51946 92.0568 6.81958 93.2074 7.05969C93.9243 7.21206 94.5659 7.34596 94.8347 7.21206C94.8643 7.20391 94.8951 7.20975 94.9215 7.22849C94.948 7.24723 94.9683 7.27763 94.9787 7.3141C94.9892 7.35058 94.9891 7.39068 94.9784 7.42707C94.9678 7.46345 94.9473 7.49367 94.9208 7.51219C94.591 7.66918 93.9637 7.53989 93.168 7.37367C92.0389 7.13356 90.6338 6.84267 89.451 7.22591C87.5226 7.85849 87.329 10.6797 87.3254 10.7074C87.3245 10.728 87.3205 10.7482 87.3135 10.7668C87.3065 10.7854 87.2967 10.802 87.2847 10.8158C87.2728 10.8295 87.2588 10.84 87.2436 10.8468C87.2285 10.8536 87.2124 10.8564 87.1964 10.8551Z" fill="white"/>
<path d="M85.8093 15.6203C85.785 15.6198 85.7613 15.6102 85.7412 15.5926C85.4193 15.245 85.1699 14.7995 85.0153 14.2964C84.8607 13.7934 84.8059 13.2486 84.8558 12.7114C84.9562 10.6798 86.1677 10.6567 86.182 10.6567C86.2112 10.6631 86.2377 10.6826 86.2568 10.7118C86.2759 10.7409 86.2864 10.7778 86.2864 10.816C86.2864 10.8541 86.2759 10.891 86.2568 10.9202C86.2377 10.9493 86.2112 10.9689 86.182 10.9753C86.139 10.9753 85.1856 11.003 85.1067 12.7299C85.0582 13.213 85.1039 13.7041 85.2397 14.1588C85.3755 14.6135 85.5971 15.0174 85.8845 15.334C85.8977 15.3456 85.909 15.3604 85.9177 15.3777C85.9263 15.395 85.9322 15.4144 85.9348 15.4347C85.9375 15.4549 85.937 15.4757 85.9333 15.4957C85.9296 15.5157 85.9227 15.5345 85.9132 15.5511C85.9023 15.5736 85.8869 15.5919 85.8686 15.6041C85.8503 15.6162 85.8298 15.6219 85.8093 15.6203Z" fill="white"/>
<path d="M86.5512 14.309C86.5277 14.309 86.5048 14.3003 86.4851 14.2839C86.4654 14.2675 86.4497 14.2441 86.4401 14.2166C86.3517 14.006 86.2992 13.7734 86.2862 13.5345C86.2732 13.2956 86.3 13.0559 86.3648 12.8314C86.523 12.3913 86.8047 12.0448 87.1534 11.8618C87.1682 11.8536 87.1841 11.8494 87.2001 11.8494C87.2162 11.8495 87.2321 11.8537 87.2469 11.8619C87.2617 11.8701 87.275 11.8821 87.286 11.8972C87.297 11.9122 87.3056 11.93 87.3111 11.9495C87.3229 11.9881 87.3223 12.0311 87.3096 12.0692C87.2968 12.1072 87.2729 12.1372 87.243 12.1527C86.9576 12.3084 86.7258 12.5922 86.5906 12.9515C86.5399 13.1358 86.52 13.332 86.5324 13.527C86.5448 13.722 86.589 13.9114 86.6623 14.0827C86.6758 14.1213 86.677 14.1652 86.6656 14.2049C86.6542 14.2447 86.6311 14.277 86.6014 14.2951C86.5856 14.3041 86.5685 14.3088 86.5512 14.309Z" fill="white"/>
<path d="M86.8271 16.8116C86.8073 16.8111 86.7879 16.8045 86.7705 16.7925C86.753 16.7804 86.7381 16.7632 86.7267 16.7423L86.2644 15.9112C86.2453 15.8769 86.2377 15.8343 86.2431 15.7927C86.2485 15.7512 86.2664 15.7141 86.293 15.6896C86.3197 15.6651 86.3527 15.6552 86.385 15.6621C86.4173 15.6691 86.4461 15.6922 86.4651 15.7265L86.9275 16.5622C86.9457 16.596 86.953 16.6377 86.9476 16.6783C86.9422 16.7189 86.9247 16.7552 86.8988 16.7793C86.8786 16.8005 86.8532 16.812 86.8271 16.8116Z" fill="white"/>
</svg>
