<svg width="3769" height="4198" viewBox="0 0 3769 4198" fill="none" xmlns="http://www.w3.org/2000/svg">
<path d="M3172.28 1072.15C3216.93 1099.75 3268.38 1114.37 3320.87 1114.37C3373.36 1114.37 3424.81 1099.75 3469.45 1072.15C3521.74 1039.82 3562.06 991.328 3584.3 934.016C3606.54 876.703 3609.48 813.703 3592.68 754.568C3575.87 695.434 3540.25 643.392 3491.19 606.337C3442.14 569.281 3382.34 549.233 3320.87 549.233C3259.39 549.233 3199.6 569.281 3150.54 606.337C3101.49 643.392 3065.86 695.434 3049.06 754.568C3032.26 813.703 3035.2 876.703 3057.44 934.016C3079.67 991.328 3119.99 1039.82 3172.28 1072.15V1072.15Z" fill="#EBEBEB"/>
<path d="M3234.86 799.466C3234.86 816.487 3239.9 833.125 3249.36 847.278C3258.82 861.43 3272.26 872.46 3287.98 878.974C3303.71 885.487 3321.01 887.192 3337.7 883.871C3354.4 880.55 3369.73 872.354 3381.77 860.319C3393.8 848.283 3402 832.949 3405.32 816.255C3408.64 799.562 3406.93 782.258 3400.42 766.533C3393.91 750.808 3382.88 737.368 3368.73 727.912C3354.57 718.455 3337.93 713.408 3320.91 713.408C3309.61 713.396 3298.41 715.614 3287.97 719.935C3277.52 724.255 3268.03 730.594 3260.03 738.587C3252.04 746.581 3245.7 756.073 3241.38 766.519C3237.06 776.966 3234.84 788.162 3234.86 799.466Z" fill="white"/>
<path d="M3172.28 1036.69V1072.15C3216.93 1099.75 3268.38 1114.37 3320.87 1114.37C3373.36 1114.37 3424.81 1099.75 3469.45 1072.15V1036.78C3469.94 1016.96 3466.46 997.244 3459.21 978.788C3451.97 960.333 3441.1 943.514 3427.26 929.322C3413.41 915.13 3396.86 903.851 3378.59 896.151C3360.32 888.45 3340.7 884.483 3320.87 884.483C3301.04 884.483 3281.41 888.45 3263.14 896.151C3244.87 903.851 3228.33 915.13 3214.48 929.322C3200.64 943.514 3189.77 960.333 3182.52 978.788C3175.28 997.244 3171.79 1016.96 3172.28 1036.78V1036.69Z" fill="white"/>
<path d="M794.806 1084.23C831.159 992.832 786.536 889.269 695.138 852.915C603.74 816.562 500.176 861.185 463.823 952.583C427.47 1043.98 472.093 1147.54 563.491 1183.9C654.889 1220.25 758.453 1175.63 794.806 1084.23Z" fill="#EBEBEB"/>
<path d="M720.125 1040.5C692.92 1094.91 629.442 1127.01 629.442 1127.01C629.442 1127.01 565.42 1094.82 538.759 1040.5C516.36 995.16 530.507 946.373 565.964 935.672C616.656 920.347 629.442 1008.67 629.442 1008.67C629.442 1008.67 642.41 920.347 692.92 935.672C728.377 946.373 742.524 995.704 720.125 1040.5Z" fill="white"/>
<path d="M3464.11 2629.28C3541.62 2502.74 3501.88 2337.32 3375.33 2259.8C3248.79 2182.29 3083.37 2222.03 3005.86 2348.58C2928.34 2475.12 2968.09 2640.54 3094.63 2718.05C3221.17 2795.57 3386.59 2755.82 3464.11 2629.28Z" fill="#EBEBEB"/>
<path d="M3356.55 2560.35C3293.98 2627 3187.52 2645.68 3187.52 2645.68C3187.52 2645.68 3109.08 2571.32 3093.84 2481.27C3081.24 2406.1 3123.04 2341.62 3178.72 2341.53C3258.71 2341.53 3239.03 2474.65 3239.03 2474.65C3239.03 2474.65 3296.25 2352.78 3362.9 2397.03C3409.33 2427.86 3408.6 2504.67 3356.55 2560.35Z" fill="white"/>
<path fill-rule="evenodd" clip-rule="evenodd" d="M303.164 2044.91C291.92 2037.92 282.217 2027.77 266.891 2029.31C261.178 2029.85 262.448 2025.14 262.357 2021.96C262.357 1965.74 262.145 1909.58 261.722 1853.48C261.722 1849.3 261.722 1845.95 266.347 1843.77C309.24 1821.92 327.649 1779.3 353.856 1742.84C367.274 1724.72 376.91 1704.09 382.191 1682.17C387.472 1660.25 388.291 1637.49 384.598 1615.25C382.693 1602.56 388.588 1597.11 400.014 1594.3C413.707 1591.13 427.219 1594.85 432.116 1604.28C444.533 1627.19 452.908 1652.07 456.872 1677.82C459.411 1699.13 451.794 1719.9 449.255 1741.3C447.35 1756.81 443.814 1772.04 440.912 1787.64C444.721 1790.36 449.073 1789 453.063 1789L595.526 1788.55C615.477 1788.55 625.361 1794.26 628.172 1807.5C629.614 1815.51 628.456 1823.78 624.867 1831.09C621.277 1838.4 615.445 1844.37 608.222 1848.12C604.685 1849.85 598.247 1848.12 597.884 1853.84C597.521 1859.55 604.051 1858.92 606.952 1861.18C624.182 1872.88 621.099 1897.46 601.239 1911.33C596.524 1914.78 587.184 1913.24 587.002 1920.4C586.821 1927.56 596.071 1925.93 599.516 1929.47C613.482 1943.16 606.68 1968.73 585.914 1979.16C583.087 1980.05 580.328 1981.14 577.662 1982.43C575.304 1983.97 572.946 1985.78 577.662 1989.05C598.247 2003.65 597.884 2024.05 577.662 2039.01L571.495 2043.55C564.001 2048.04 555.25 2049.98 546.558 2049.08L323.205 2049.89C319.701 2050.46 316.119 2050.31 312.675 2049.45C309.23 2048.59 305.995 2047.05 303.164 2044.91V2044.91Z" fill="#EBEBEB"/>
<path fill-rule="evenodd" clip-rule="evenodd" d="M91.3289 1946.52C91.3289 1910.88 91.3289 1875.15 91.3289 1839.42C91.3289 1832.16 91.9637 1828.63 100.397 1828.63C144.016 1829.08 187.453 1828.63 230.981 1828.63C240.049 1828.63 240.865 1831.44 240.865 1839.06C240.865 1910.88 241.137 1982.73 241.681 2054.61C241.681 2063.68 239.233 2066.31 230.074 2066.22C187.816 2066.22 145.557 2066.22 103.118 2066.67C92.5984 2066.67 91.1475 2063.22 91.2382 2053.98C91.3289 2017.97 91.3289 1982.25 91.3289 1946.52Z" fill="#EBEBEB"/>
<path fill-rule="evenodd" clip-rule="evenodd" d="M3528.22 3210.27C3521.69 3206.19 3515.97 3200.21 3507.18 3201.21C3503.82 3201.21 3504.55 3198.76 3504.46 3196.94C3504.46 3163.94 3504.46 3130.93 3504.46 3097.92C3504.26 3096.8 3504.41 3095.65 3504.9 3094.63C3505.39 3093.6 3506.18 3092.75 3507.18 3092.21C3532.39 3079.42 3543.45 3054.39 3558.59 3032.99C3566.49 3022.34 3572.16 3010.22 3575.27 2997.33C3578.39 2984.45 3578.89 2971.07 3576.73 2957.99C3575.64 2950.56 3579.09 2947.29 3585.8 2945.75C3589.15 2944.56 3592.79 2944.48 3596.19 2945.52C3599.59 2946.57 3602.56 2948.69 3604.66 2951.56C3611.95 2965.03 3616.86 2979.67 3619.17 2994.81C3619.13 3007.31 3617.64 3019.75 3614.73 3031.9C3613.55 3040.97 3611.46 3050.04 3609.83 3059.11C3612.01 3060.65 3614.64 3059.83 3616.99 3059.83H3700.6C3712.39 3059.83 3718.11 3063.1 3719.74 3070.89C3720.67 3075.7 3720 3080.67 3717.82 3085.05C3715.64 3089.43 3712.07 3092.96 3707.68 3095.11C3705.59 3096.2 3701.87 3095.11 3701.6 3098.46C3701.33 3101.82 3705.23 3101.45 3707.22 3102.82C3717.29 3109.71 3715.48 3123.94 3703.87 3132.29C3701.06 3134.28 3695.62 3133.38 3695.43 3137.46C3695.25 3141.54 3700.51 3140.72 3702.78 3142.99C3704.59 3145.3 3705.84 3148.01 3706.42 3150.89C3707 3153.78 3706.9 3156.76 3706.13 3159.59C3705.35 3162.43 3703.92 3165.05 3701.96 3167.23C3699.99 3169.42 3697.54 3171.12 3694.8 3172.19C3693.13 3172.73 3691.5 3173.36 3689.9 3174.09C3688.54 3175.09 3687.18 3176.09 3689.9 3177.99C3701.96 3186.61 3701.78 3198.58 3689.9 3207.37L3686.28 3210C3681.91 3212.68 3676.77 3213.83 3671.68 3213.27C3627.91 3213.27 3584.17 3213.42 3540.46 3213.72C3538.29 3214.04 3536.08 3213.9 3533.97 3213.31C3531.86 3212.72 3529.9 3211.68 3528.22 3210.27V3210.27Z" fill="#EBEBEB"/>
<path fill-rule="evenodd" clip-rule="evenodd" d="M3403.25 3152.51C3403.25 3131.56 3403.25 3110.52 3403.25 3089.58C3403.25 3085.31 3403.25 3083.23 3408.88 3083.32C3434.45 3083.32 3460.02 3083.32 3485.59 3083.32C3490.58 3083.32 3491.4 3084.95 3491.4 3089.39C3491.4 3131.71 3491.4 3174.03 3491.4 3216.35C3491.4 3221.79 3489.95 3223.24 3484.6 3223.24C3459.75 3223.24 3434.99 3223.24 3410.15 3223.24C3403.98 3223.24 3403.16 3221.16 3403.16 3215.81C3403.62 3194.5 3403.34 3173.46 3403.25 3152.51Z" fill="#EBEBEB"/>
<path d="M511.917 3042.78H479.18C474.287 3042.88 469.424 3041.99 464.884 3040.16C460.344 3038.33 456.222 3035.6 452.765 3032.14C449.308 3028.67 446.589 3024.54 444.77 3020C442.951 3015.45 442.071 3010.59 442.182 3005.69C442.229 2995.9 446.143 2986.51 453.071 2979.58C459.999 2972.66 469.382 2968.74 479.18 2968.7H524.522L545.832 2844.91H504.753C494.94 2844.91 485.53 2841.01 478.591 2834.08C471.652 2827.14 467.754 2817.73 467.754 2807.91C467.754 2798.1 471.652 2788.69 478.591 2781.75C485.53 2774.81 494.94 2770.92 504.753 2770.92H559.163L573.309 2686.22C574.696 2677.49 579.221 2669.57 586.033 2663.94C592.845 2658.32 601.477 2655.37 610.308 2655.66C615.706 2655.74 621.024 2656.98 625.908 2659.28C630.791 2661.58 635.127 2664.9 638.628 2669.01C642.129 2673.12 644.714 2677.93 646.21 2683.12C647.707 2688.3 648.08 2693.75 647.307 2699.09L634.611 2770.92H746.06L760.298 2686.22C761.697 2677.36 766.327 2669.34 773.293 2663.7C780.26 2658.05 789.069 2655.19 798.022 2655.66C803.382 2655.77 808.656 2657.03 813.488 2659.36C818.321 2661.68 822.599 2665.01 826.036 2669.13C829.473 2673.24 831.988 2678.05 833.412 2683.22C834.837 2688.39 835.138 2693.8 834.295 2699.09L822.144 2770.92H855.061C864.835 2770.99 874.186 2774.91 881.08 2781.84C887.974 2788.77 891.855 2798.14 891.879 2807.91C891.739 2817.65 887.821 2826.96 880.952 2833.86C874.082 2840.76 864.799 2844.73 855.061 2844.91H809.72L788.409 2968.7H828.854C833.731 2968.65 838.568 2969.57 843.084 2971.41C847.599 2973.25 851.703 2975.97 855.156 2979.42C858.608 2982.86 861.34 2986.96 863.192 2991.47C865.045 2995.98 865.98 3000.82 865.943 3005.69C865.896 3015.52 861.973 3024.92 855.028 3031.87C848.082 3038.81 838.676 3042.74 828.854 3042.78H775.532L760.57 3130.2C759.183 3138.93 754.659 3146.85 747.846 3152.47C741.034 3158.1 732.402 3161.05 723.571 3160.76C718.159 3160.78 712.806 3159.63 707.879 3157.39C702.951 3155.15 698.565 3151.88 695.018 3147.79C691.472 3143.7 688.849 3138.89 687.329 3133.7C685.809 3128.5 685.427 3123.04 686.21 3117.69L699.812 3042.96H588L573.128 3130.38C571.514 3139.07 566.858 3146.9 559.995 3152.47C553.132 3158.03 544.51 3160.98 535.676 3160.76C530.282 3160.86 524.935 3159.75 520.023 3157.52C515.112 3155.29 510.761 3151.99 507.286 3147.86C503.811 3143.73 501.3 3138.88 499.936 3133.66C498.573 3128.44 498.39 3122.99 499.403 3117.69L511.917 3042.78ZM711.964 2968.7L733.365 2844.91H622.278L600.877 2968.7H711.964Z" fill="#EBEBEB"/>
<path d="M2837.59 2128.62H2811.47C2807.59 2128.65 2803.74 2127.9 2800.15 2126.42C2796.55 2124.94 2793.29 2122.76 2790.55 2120.01C2787.8 2117.26 2785.64 2113.99 2784.17 2110.4C2782.7 2106.8 2781.97 2102.94 2782 2099.06C2782.05 2091.26 2785.17 2083.79 2790.69 2078.27C2796.2 2072.76 2803.67 2069.64 2811.47 2069.59H2847.75L2864.79 1970.93H2831.79C2824.24 1970.51 2817.14 1967.21 2811.95 1961.72C2806.75 1956.24 2803.86 1948.96 2803.86 1941.41C2803.86 1933.85 2806.75 1926.58 2811.95 1921.09C2817.14 1915.6 2824.24 1912.31 2831.79 1911.89H2875.04L2886.2 1844.42C2887.32 1837.46 2890.94 1831.14 2896.38 1826.65C2901.82 1822.16 2908.71 1819.81 2915.76 1820.03C2920.06 1820.1 2924.3 1821.09 2928.19 1822.92C2932.08 1824.76 2935.54 1827.41 2938.33 1830.69C2941.11 1833.96 2943.17 1837.8 2944.36 1841.93C2945.55 1846.07 2945.85 1850.41 2945.23 1854.67L2935.16 1911.89H3024.12L3035.46 1844.42C3036.61 1837.39 3040.3 1831.02 3045.83 1826.52C3051.36 1822.02 3058.35 1819.71 3065.48 1820.03C3069.75 1820.13 3073.95 1821.15 3077.8 1823C3081.65 1824.86 3085.07 1827.52 3087.81 1830.79C3090.56 1834.07 3092.57 1837.89 3093.73 1842.01C3094.88 1846.13 3095.14 1850.44 3094.49 1854.67L3084.79 1911.89H3111.45C3119.26 1911.94 3126.73 1915.07 3132.24 1920.61C3137.74 1926.15 3140.83 1933.64 3140.83 1941.45C3140.72 1949.22 3137.59 1956.63 3132.1 1962.13C3126.62 1967.63 3119.22 1970.78 3111.45 1970.93H3075.18L3057.68 2070.04H3089.96C3093.85 2070.01 3097.7 2070.74 3101.3 2072.21C3104.89 2073.68 3108.16 2075.84 3110.91 2078.59C3113.66 2081.33 3115.84 2084.59 3117.32 2088.19C3118.8 2091.78 3119.55 2095.63 3119.52 2099.51C3119.5 2107.35 3116.38 2114.85 3110.84 2120.39C3105.3 2125.93 3097.79 2129.05 3089.96 2129.08H3047.43L3035.55 2198.72C3034.38 2205.66 3030.74 2211.94 3025.31 2216.42C3019.88 2220.9 3013.02 2223.28 3005.99 2223.11C3001.68 2223.1 2997.43 2222.16 2993.53 2220.35C2989.62 2218.54 2986.15 2215.91 2983.35 2212.64C2980.56 2209.37 2978.5 2205.53 2977.32 2201.39C2976.14 2197.25 2975.86 2192.91 2976.52 2188.66L2987.31 2129.08H2898.26L2886.29 2198.72C2885.07 2205.71 2881.37 2212.02 2875.87 2216.5C2870.38 2220.98 2863.45 2223.33 2856.36 2223.11C2852.05 2223.18 2847.79 2222.28 2843.87 2220.49C2839.95 2218.7 2836.48 2216.06 2833.71 2212.76C2830.94 2209.46 2828.94 2205.58 2827.86 2201.41C2826.77 2197.24 2826.63 2192.89 2827.43 2188.66L2837.59 2128.62ZM2997.01 2070.04L3014.06 1971.38H2925.55L2908.5 2070.04H2997.01Z" fill="#EBEBEB"/>
<path d="M1904.99 4197.09C2934.04 4197.09 3768.25 4089.62 3768.25 3957.05C3768.25 3824.48 2934.04 3717.01 1904.99 3717.01C875.937 3717.01 41.7256 3824.48 41.7256 3957.05C41.7256 4089.62 875.937 4197.09 1904.99 4197.09Z" fill="#EBEBEB"/>
<path d="M470.411 2706.31C460.499 2742.41 453.972 2779.36 450.915 2816.67C451.912 2818.48 451.64 2825.74 450.915 2823.47C450.915 2829.55 441.846 2828.46 441.846 2822.47C441.846 2818.58 441.846 2814.68 441.846 2810.87C420.264 2784.12 388.978 2767.16 363.677 2743.85C343.263 2725.61 328.424 2701.97 320.875 2675.66C299.837 2603.11 319.515 2526.67 294.305 2454.48C272.541 2392.27 233.457 2338.14 200.448 2282.18C165.535 2222.52 139.781 2159.85 136.97 2090.03C134.884 2036.62 141.323 1965.34 182.311 1925.26C225.477 1882.73 278.98 1914.65 311.988 1952.46C407.84 2062.46 452.184 2201.39 470.139 2343.58C480.024 2422.2 490.271 2501.37 488.276 2580.71C486.502 2623.07 480.517 2665.14 470.411 2706.31V2706.31Z" fill="#FFC727"/>
<path d="M451.278 2845.51C456.524 2771.29 455.644 2696.77 448.648 2622.7C448.731 2622.43 448.731 2622.15 448.648 2621.88C449.917 2561.67 454.633 2501.64 452.275 2441.33C449.535 2376.14 440.854 2311.34 426.34 2247.73C426.34 2247 424.98 2247.18 425.161 2247.73C436.891 2310.22 443.894 2373.52 446.109 2437.07C447.378 2471.17 447.106 2505.2 445.293 2539.18C444.748 2550.24 443.66 2561.4 442.935 2572.55C417.88 2403.45 356.77 2241.7 263.745 2098.28C262.476 2096.38 259.03 2098.28 260.208 2100.46C326.685 2209.46 375.903 2328.08 406.117 2452.13C359.869 2366.79 290.315 2296.6 238.626 2214.54C238.626 2214.08 237.538 2214.54 237.81 2214.54C284.149 2305.94 360.867 2377.76 410.108 2467.9C418.632 2504.66 425.493 2541.66 430.693 2578.9C437.626 2630 441.351 2681.49 441.847 2733.06C413.735 2680.65 384.626 2630.41 361.683 2574.91C361.048 2573.46 358.962 2574.91 359.416 2575.91C379.003 2633.58 405.211 2695.7 442.028 2744.85C442.028 2781.12 441 2817.61 438.945 2854.3C433.232 2951.52 416.637 3047.55 408.929 3144.49C408.949 3145.03 409.16 3145.54 409.525 3145.94C409.89 3146.34 410.384 3146.59 410.919 3146.65C411.453 3146.72 411.994 3146.59 412.444 3146.3C412.893 3146 413.223 3145.55 413.372 3145.03C432.781 3046.17 445.445 2946.09 451.278 2845.51V2845.51Z" fill="#263238"/>
<path d="M347.989 2095.29C347.989 2094.56 346.629 2095.29 346.901 2095.74C365.038 2144.89 374.741 2194.68 387.527 2245.1C387.667 2245.53 387.959 2245.91 388.352 2246.14C388.744 2246.38 389.21 2246.47 389.662 2246.39C390.115 2246.32 390.524 2246.08 390.815 2245.72C391.106 2245.37 391.259 2244.92 391.245 2244.46C385.986 2193.41 367.758 2142.35 347.989 2095.29Z" fill="#263238"/>
<path d="M799.228 2301.23C787.36 2330.04 773.7 2358.09 758.33 2385.2C726.319 2443.33 692.948 2496.56 686.963 2564.21C684.242 2594.41 683.245 2624.79 674.086 2653.89C665.655 2678.9 653.618 2702.55 638.357 2724.08C603.625 2774.59 560.279 2818.12 528.177 2870.54C494.747 2925.19 470.056 2984.73 454.996 3047.01C454.18 3050.45 448.829 3049.54 449.645 3046.1C449.645 3046.1 449.645 3045.65 449.645 3045.37C449.645 3045.1 449.645 3045.37 449.645 3044.65C444.567 2899.56 456.175 2753.37 500.428 2614.36C519.942 2553.22 543.418 2493.43 570.707 2435.35C594.466 2385.02 623.938 2336.5 665.562 2298.87C692.767 2274.57 751.166 2228.5 789.616 2252.89C807.843 2264.59 806.483 2283.09 799.228 2301.23Z" fill="#FFC727"/>
<path d="M653.047 2630.14C627.481 2672.23 599.315 2712.7 568.712 2751.29C554.656 2769.42 540.419 2787.56 526.454 2806.15C519.834 2815.22 512.398 2823.47 506.322 2832.81C510.131 2817.58 513.849 2802.25 517.748 2787.02C536.429 2713.75 554.021 2639.84 582.314 2569.38C610.919 2501.15 644.597 2435.16 683.063 2371.96C684.061 2370.24 681.34 2369.06 680.343 2370.69C649.692 2421.11 618.588 2471.44 592.834 2524.85C578.581 2554.5 566.164 2585 555.654 2616.17C567.458 2550.02 584.005 2484.8 605.167 2421.02C605.167 2420.9 605.119 2420.78 605.034 2420.7C604.949 2420.61 604.833 2420.57 604.713 2420.57C604.593 2420.57 604.478 2420.61 604.393 2420.7C604.308 2420.78 604.26 2420.9 604.26 2421.02C576.773 2485.34 559.575 2553.58 553.296 2623.24C553.296 2623.24 553.296 2623.24 553.296 2623.24C547.25 2642.05 541.416 2661.06 535.794 2680.28C512.942 2761.9 492.901 2843.51 474.311 2925.76C473.971 2871.67 478.646 2817.67 488.276 2764.44C488.276 2763.17 486.735 2762.9 486.372 2764.44C472.232 2819.93 467.511 2877.41 472.407 2934.47C465.333 2965.84 458.472 2997.19 451.822 3028.51C437.584 3095.34 420.083 3163.44 411.74 3231.36C411.748 3231.68 411.864 3231.98 412.07 3232.22C412.276 3232.46 412.558 3232.62 412.868 3232.67C413.179 3232.72 413.498 3232.67 413.772 3232.51C414.045 3232.36 414.257 3232.11 414.37 3231.82C424.345 3195.54 430.33 3157.28 438.491 3120.19C446.653 3083.1 455.086 3045.92 463.701 3008.83C476.306 2954.87 489.546 2901.01 502.967 2847.23C512.035 2827.55 529.356 2810.05 542.323 2793.46C556.651 2775.32 570.888 2757.18 584.763 2739.05C610.895 2704.94 634.246 2668.79 654.589 2630.95C655.133 2629.86 653.863 2629.32 653.047 2630.14Z" fill="#263238"/>
<path d="M659.576 2568.11C627.66 2608.85 600.008 2652.76 577.055 2699.15C577.055 2699.78 577.689 2700.41 578.052 2699.78C605.892 2656.25 633.187 2612.45 660.846 2568.92C661.39 2568.11 660.12 2567.38 659.576 2568.11Z" fill="#263238"/>
<path d="M42.025 2438.79C60.7964 2471.17 82.2882 2510.07 74.2174 2548.88C69.0485 2573.55 51.0933 2593.5 47.8287 2618.62C40.574 2674.03 95.8 2710.66 135.701 2736.51C235.452 2801.8 371.93 2860.11 390.066 2993.59C390.792 2998.31 399.135 2997.13 398.319 2992.51C398.361 2992.2 398.361 2991.9 398.319 2991.6C398.319 2991.6 398.863 2991.6 398.863 2990.78C411.855 2923.41 411.145 2854.11 396.777 2787.02C381.905 2718.28 351.889 2656.43 316.432 2596.04C256.49 2493.75 193.012 2389.01 102.329 2310.66C77.3007 2288.99 25.8834 2249.99 5.93313 2298.96C-13.473 2346.75 18.9915 2399.35 42.025 2438.79Z" fill="#FFC727"/>
<path d="M133.162 2655.62C199.269 2727.17 304.28 2767.25 361.139 2847.32C329.378 2725.42 269.358 2612.71 185.939 2518.32C183.763 2515.78 187.209 2512.34 189.566 2514.61C250.375 2573.69 299.02 2644.12 332.755 2721.91C317.004 2667.62 296.364 2614.86 271.09 2564.3C270.184 2562.4 272.904 2560.67 273.992 2562.58C305.323 2617.78 327.755 2677.58 340.463 2739.77C415.367 2921.14 422.078 3133.88 406.571 3324.95C406.571 3327.67 402.218 3327.76 402.309 3324.95C406.571 3174.32 404.122 3021.07 368.031 2873.98C367.305 2870.9 366.489 2867.91 365.673 2864.91C303.827 2778.67 199.269 2738.68 132.073 2656.89C131.439 2655.98 132.436 2654.8 133.162 2655.62Z" fill="#263238"/>
<path d="M118.017 2594.23C152.658 2626.05 186.755 2658.52 221.487 2690.35C221.487 2690.35 221.487 2691.26 221.033 2690.98C181.734 2664.58 146.326 2632.81 115.841 2596.58C115.528 2596.29 115.343 2595.89 115.326 2595.47C115.309 2595.04 115.462 2594.63 115.75 2594.32C116.039 2594 116.44 2593.82 116.865 2593.8C117.29 2593.78 117.705 2593.94 118.017 2594.23V2594.23Z" fill="#263238"/>
<path d="M112.395 2456.39C143.06 2506.69 177.754 2554.43 216.136 2599.12C216.68 2599.67 216.136 2600.48 215.229 2599.94C172.201 2559.01 136.77 2510.77 110.581 2457.48C110.508 2457.24 110.516 2456.99 110.603 2456.76C110.69 2456.54 110.851 2456.34 111.06 2456.22C111.269 2456.09 111.515 2456.04 111.757 2456.07C111.999 2456.1 112.223 2456.21 112.395 2456.39V2456.39Z" fill="#263238"/>
<path d="M268.46 3459.79H572.158L531.26 3051.18H315.253L268.46 3459.79Z" fill="#455A64"/>
<path d="M307.636 3117.65H537.971L531.26 3051.18H315.253L307.636 3117.65Z" fill="#263238"/>
<path d="M278.073 3071.13H562.727V3005.93H278.073V3071.13Z" fill="#455A64"/>
<path d="M41 3400.53L507.02 3398.35L973.04 3397.54L1904.99 3395.99L2836.94 3397.54L3302.96 3398.26L3768.98 3400.53L3302.96 3402.79L2836.94 3403.52L1904.99 3405.06L973.04 3403.52L507.02 3402.7L41 3400.53Z" fill="#263238"/>
<path d="M2696.47 480.262H1113.33C1092.09 480.464 1071.11 484.846 1051.57 493.158C1032.03 501.47 1014.32 513.55 999.445 528.707C984.574 543.865 972.834 561.803 964.896 581.498C956.958 601.193 952.977 622.258 953.18 643.492V3902.64C952.794 3945.52 969.444 3986.79 999.472 4017.4C1029.5 4048 1070.45 4065.44 1113.33 4065.87H2696.47C2739.37 4065.46 2780.35 4048.04 2810.42 4017.44C2840.48 3986.83 2857.16 3945.54 2856.8 3902.64V643.401C2857.16 600.51 2840.48 559.23 2810.41 528.638C2780.35 498.046 2739.36 480.645 2696.47 480.262V480.262ZM2756.68 3801.89C2756.68 3887.68 2692.48 3957.05 2613.22 3957.05H1196.85C1117.41 3957.05 1053.2 3887.68 1053.2 3801.89V766.911C1053.2 592.165 1117.41 583.641 1196.85 583.641H1480.5C1497.01 583.641 1510.52 602.412 1510.52 625.627V635.693C1510.52 690.103 1540.26 690.103 1576.9 690.103H2232.99C2269.9 690.103 2299.37 690.103 2299.37 635.693V625.627C2299.37 602.412 2312.7 583.641 2329.48 583.641H2613.22C2692.48 583.641 2756.68 606.946 2756.68 766.911V3801.89Z" fill="#263238"/>
<path d="M1994.4 622.272H1815.49C1814.03 622.284 1812.58 622.006 1811.24 621.454C1809.89 620.903 1808.66 620.088 1807.64 619.058C1806.61 618.029 1805.79 616.804 1805.24 615.457C1804.69 614.109 1804.41 612.665 1804.42 611.209V611.209C1804.42 608.274 1805.59 605.46 1807.66 603.386C1809.74 601.311 1812.55 600.145 1815.49 600.145H1994.4C1997.34 600.145 2000.15 601.311 2002.23 603.386C2004.3 605.46 2005.47 608.274 2005.47 611.209C2005.48 612.665 2005.2 614.109 2004.65 615.457C2004.1 616.804 2003.28 618.029 2002.25 619.058C2001.22 620.088 2000 620.903 1998.65 621.454C1997.3 622.006 1995.86 622.284 1994.4 622.272Z" fill="white"/>
<path d="M2756.57 723.27V3758.25C2756.57 3844.04 2692.28 3913.41 2613.02 3913.41H1196.64C1117.2 3913.41 1053 3844.04 1053 3758.25V723.27C1053 548.524 1117.2 540 1196.64 540H1480.3C1496.8 540 1510.31 558.771 1510.31 581.986V592.052C1510.31 646.462 1540.06 646.462 1576.69 646.462H2232.79C2269.69 646.462 2299.26 646.462 2299.26 592.052V581.986C2299.26 558.771 2312.5 540 2329.27 540H2613.02C2692.28 540 2756.57 563.306 2756.57 723.27Z" fill="white"/>
<path d="M2756.68 766.911V1234.65H1053.11V766.911C1053.11 592.165 1117.41 583.641 1196.85 583.641H1480.59C1497.1 583.641 1510.52 602.412 1510.52 625.627V635.693C1510.52 690.103 1540.35 690.103 1576.9 690.103H2232.99C2269.9 690.103 2299.46 690.103 2299.46 635.693V625.627C2299.46 602.412 2312.79 583.641 2329.57 583.641H2613.22C2692.48 583.641 2756.68 606.946 2756.68 766.911Z" fill="#90CAF9"/>
<path d="M1431.62 651.834L1428.81 654.555C1428.35 655.113 1427.83 655.629 1427.27 656.097C1420.27 649.095 1410.78 645.15 1400.88 645.124C1395.95 645.096 1391.07 646.062 1386.52 647.962C1381.97 649.863 1377.85 652.66 1374.4 656.187C1373.97 655.631 1373.48 655.115 1372.95 654.646L1370.23 651.925C1371.32 650.837 1372.5 649.839 1373.68 648.842C1376.13 646.819 1378.81 645.084 1381.66 643.673C1385.01 641.997 1388.58 640.807 1392.27 640.136C1394.08 640.136 1395.8 639.683 1397.62 639.411H1402.24H1405.87C1409.22 639.787 1412.51 640.579 1415.66 641.769C1417.92 642.611 1420.11 643.643 1422.19 644.852C1424.45 646.113 1426.58 647.602 1428.54 649.295L1431.44 651.834H1431.62Z" fill="white"/>
<path d="M1383.11 664.711L1379.03 660.177C1381.92 657.276 1385.35 654.975 1389.13 653.404C1392.91 651.833 1396.97 651.025 1401.06 651.025C1405.16 651.025 1409.21 651.833 1412.99 653.404C1416.78 654.975 1420.21 657.276 1423.1 660.177L1418.75 664.53C1416.38 662.142 1413.55 660.259 1410.43 658.997C1407.31 657.734 1403.97 657.118 1400.61 657.185C1394.02 657.308 1387.73 660.01 1383.11 664.711V664.711Z" fill="white"/>
<path d="M1414.3 669.246L1409.95 673.508C1407.53 671.13 1404.28 669.795 1400.88 669.79C1399.19 669.779 1397.52 670.111 1395.96 670.766C1394.4 671.42 1392.99 672.384 1391.81 673.598L1387.46 669.246C1389.22 667.48 1391.31 666.079 1393.62 665.123C1395.92 664.167 1398.39 663.675 1400.88 663.675C1403.38 663.675 1405.85 664.167 1408.15 665.123C1410.45 666.079 1412.54 667.48 1414.3 669.246V669.246Z" fill="white"/>
<path d="M1404.78 677.316C1404.78 678.351 1404.37 679.342 1403.64 680.074C1402.91 680.805 1401.92 681.216 1400.88 681.216C1399.85 681.216 1398.86 680.805 1398.13 680.074C1397.39 679.342 1396.98 678.351 1396.98 677.316C1396.98 676.282 1397.39 675.29 1398.13 674.559C1398.86 673.828 1399.85 673.417 1400.88 673.417C1401.92 673.417 1402.91 673.828 1403.64 674.559C1404.37 675.29 1404.78 676.282 1404.78 677.316Z" fill="white"/>
<path d="M1175.54 671.331C1181.75 671.331 1186.78 666.297 1186.78 660.087C1186.78 653.876 1181.75 648.842 1175.54 648.842C1169.32 648.842 1164.29 653.876 1164.29 660.087C1164.29 666.297 1169.32 671.331 1175.54 671.331Z" fill="white"/>
<path d="M1199.84 660.177C1199.84 657.932 1200.51 655.736 1201.76 653.87C1203 652.004 1204.78 650.552 1206.86 649.696C1208.93 648.841 1211.22 648.622 1213.42 649.067C1215.62 649.512 1217.64 650.6 1219.22 652.195C1220.8 653.789 1221.88 655.817 1222.3 658.022C1222.73 660.227 1222.49 662.509 1221.62 664.578C1220.75 666.648 1219.28 668.412 1217.41 669.647C1215.53 670.881 1213.33 671.531 1211.08 671.513C1208.09 671.489 1205.23 670.284 1203.13 668.161C1201.02 666.037 1199.84 663.168 1199.84 660.177Z" fill="white"/>
<path d="M1246.72 671.331C1252.93 671.331 1257.97 666.297 1257.97 660.087C1257.97 653.876 1252.93 648.842 1246.72 648.842C1240.51 648.842 1235.48 653.876 1235.48 660.087C1235.48 666.297 1240.51 671.331 1246.72 671.331Z" fill="white"/>
<path d="M1270.93 660.177C1270.93 657.935 1271.6 655.744 1272.84 653.88C1274.09 652.016 1275.86 650.563 1277.93 649.705C1280 648.847 1282.28 648.622 1284.48 649.06C1286.68 649.497 1288.7 650.577 1290.28 652.162C1291.87 653.747 1292.95 655.767 1293.39 657.966C1293.82 660.165 1293.6 662.444 1292.74 664.515C1291.88 666.586 1290.43 668.357 1288.57 669.602C1286.7 670.848 1284.51 671.513 1282.27 671.513C1279.26 671.513 1276.38 670.318 1274.25 668.193C1272.13 666.067 1270.93 663.184 1270.93 660.177V660.177Z" fill="white"/>
<path d="M1306.48 660.177C1306.48 657.935 1307.15 655.744 1308.39 653.88C1309.64 652.016 1311.41 650.563 1313.48 649.705C1315.55 648.847 1317.83 648.622 1320.03 649.06C1322.23 649.497 1324.25 650.577 1325.83 652.162C1327.42 653.747 1328.5 655.767 1328.93 657.966C1329.37 660.165 1329.15 662.444 1328.29 664.515C1327.43 666.586 1325.98 668.357 1324.11 669.602C1322.25 670.848 1320.06 671.513 1317.82 671.513C1314.81 671.513 1311.93 670.318 1309.8 668.193C1307.68 666.067 1306.48 663.184 1306.48 660.177V660.177Z" fill="white"/>
<path d="M2628.82 684.662H2537.05V642.041H2628.82V684.662ZM2541.58 680.128H2624.29V646.847H2541.58V680.128Z" fill="white"/>
<path d="M2603.88 649.386H2544.67V677.498H2603.88V649.386Z" fill="white"/>
<path d="M2637.16 652.107H2629V674.868H2637.16V652.107Z" fill="white"/>
<path d="M2111.57 2416H1501V2503.42H2111.57V2416Z" fill="#60B0AA"/>
<path d="M2263.42 2416H2176V2503.42H2263.42V2416Z" fill="#DBDBDB"/>
<path d="M2197 2458.66C2197 2459.74 2196.68 2460.79 2196.08 2461.69C2195.49 2462.58 2194.64 2463.28 2193.64 2463.69C2192.65 2464.1 2191.55 2464.21 2190.5 2464C2189.44 2463.79 2188.47 2463.27 2187.71 2462.51C2186.95 2461.75 2186.43 2460.78 2186.22 2459.72C2186.01 2458.67 2186.12 2457.58 2186.53 2456.58C2186.94 2455.59 2187.64 2454.74 2188.54 2454.14C2189.43 2453.54 2190.48 2453.22 2191.56 2453.22C2192.27 2453.22 2192.98 2453.36 2193.64 2453.64C2194.3 2453.91 2194.9 2454.31 2195.41 2454.82C2195.91 2455.32 2196.31 2455.92 2196.59 2456.58C2196.86 2457.24 2197 2457.95 2197 2458.66Z" fill="#60B0AA"/>
<path d="M2225.88 2458.44C2225.88 2459.52 2225.56 2460.57 2224.97 2461.46C2224.37 2462.36 2223.52 2463.06 2222.52 2463.47C2221.53 2463.88 2220.44 2463.99 2219.38 2463.78C2218.32 2463.57 2217.35 2463.05 2216.59 2462.29C2215.83 2461.53 2215.31 2460.56 2215.1 2459.5C2214.89 2458.45 2215 2457.35 2215.41 2456.36C2215.83 2455.36 2216.52 2454.51 2217.42 2453.92C2218.31 2453.32 2219.36 2453 2220.44 2453C2221.16 2453 2221.86 2453.14 2222.52 2453.41C2223.18 2453.69 2223.78 2454.09 2224.29 2454.59C2224.79 2455.1 2225.19 2455.7 2225.47 2456.36C2225.74 2457.02 2225.88 2457.73 2225.88 2458.44V2458.44Z" fill="#60B0AA"/>
<path d="M2251.88 2458.44C2251.88 2459.52 2251.56 2460.57 2250.97 2461.46C2250.37 2462.36 2249.52 2463.06 2248.52 2463.47C2247.53 2463.88 2246.44 2463.99 2245.38 2463.78C2244.32 2463.57 2243.35 2463.05 2242.59 2462.29C2241.83 2461.53 2241.31 2460.56 2241.1 2459.5C2240.89 2458.45 2241 2457.35 2241.41 2456.36C2241.83 2455.36 2242.52 2454.51 2243.42 2453.92C2244.31 2453.32 2245.36 2453 2246.44 2453C2247.16 2453 2247.86 2453.14 2248.52 2453.41C2249.18 2453.69 2249.78 2454.09 2250.29 2454.59C2250.79 2455.1 2251.19 2455.7 2251.47 2456.36C2251.74 2457.02 2251.88 2457.73 2251.88 2458.44V2458.44Z" fill="#60B0AA"/>
<path d="M1178.98 923.884L1139.17 886.522L1178.98 849.251L1185.24 855.781L1152.32 886.522L1185.24 917.354L1178.98 923.884Z" fill="white"/>
<path d="M2660.65 871.106C2664.96 871.106 2668.45 867.614 2668.45 863.307C2668.45 859 2664.96 855.509 2660.65 855.509C2656.34 855.509 2652.85 859 2652.85 863.307C2652.85 867.614 2656.34 871.106 2660.65 871.106Z" fill="white"/>
<path d="M2660.65 898.946C2664.96 898.946 2668.45 895.454 2668.45 891.147C2668.45 886.84 2664.96 883.348 2660.65 883.348C2656.34 883.348 2652.85 886.84 2652.85 891.147C2652.85 895.454 2656.34 898.946 2660.65 898.946Z" fill="white"/>
<path d="M2668.54 919.077C2668.66 920.178 2668.54 921.292 2668.2 922.346C2667.86 923.399 2667.31 924.37 2666.57 925.194C2665.83 926.017 2664.92 926.676 2663.91 927.127C2662.9 927.578 2661.8 927.811 2660.7 927.811C2659.59 927.811 2658.49 927.578 2657.48 927.127C2656.47 926.676 2655.57 926.017 2654.83 925.194C2654.09 924.37 2653.53 923.399 2653.19 922.346C2652.85 921.292 2652.73 920.178 2652.85 919.077C2653.06 917.142 2653.98 915.353 2655.43 914.052C2656.87 912.752 2658.75 912.033 2660.7 912.033C2662.64 912.033 2664.52 912.752 2665.97 914.052C2667.42 915.353 2668.33 917.142 2668.54 919.077V919.077Z" fill="white"/>
<path d="M1283.08 2800.3C1273.31 2806.36 1261.87 2809.17 1250.4 2808.33C1238.92 2807.48 1228.01 2803.02 1219.24 2795.59C1210.46 2788.16 1204.26 2778.13 1201.53 2766.96C1198.81 2755.78 1199.69 2744.03 1204.06 2733.39C1208.44 2722.75 1216.07 2713.77 1225.86 2707.74C1235.65 2701.71 1247.11 2698.93 1258.58 2699.82C1270.05 2700.7 1280.94 2705.2 1289.69 2712.66C1298.45 2720.12 1304.61 2730.17 1307.3 2741.35C1309.97 2752.48 1309.07 2764.16 1304.72 2774.74C1300.38 2785.32 1292.8 2794.26 1283.08 2800.3V2800.3Z" fill="#DBDBDB"/>
<path d="M1271.12 2748.15C1271.12 2751.42 1270.15 2754.61 1268.33 2757.32C1266.52 2760.04 1263.94 2762.15 1260.93 2763.4C1257.91 2764.65 1254.59 2764.98 1251.39 2764.34C1248.19 2763.7 1245.25 2762.13 1242.94 2759.82C1240.63 2757.52 1239.06 2754.58 1238.42 2751.37C1237.79 2748.17 1238.11 2744.85 1239.36 2741.84C1240.61 2738.82 1242.73 2736.24 1245.44 2734.43C1248.16 2732.62 1251.35 2731.65 1254.61 2731.65C1258.99 2731.65 1263.19 2733.39 1266.28 2736.48C1269.38 2739.58 1271.12 2743.78 1271.12 2748.15V2748.15Z" fill="#60B0AA"/>
<path d="M1283.08 2793.68V2800.3C1274.51 2805.58 1264.64 2808.37 1254.57 2808.37C1244.49 2808.37 1234.62 2805.58 1226.05 2800.3V2793.5C1226.46 2786.21 1229.64 2779.36 1234.94 2774.34C1240.25 2769.33 1247.27 2766.54 1254.57 2766.54C1261.86 2766.54 1268.88 2769.33 1274.19 2774.34C1279.49 2779.36 1282.67 2786.21 1283.08 2793.5V2793.68Z" fill="#60B0AA"/>
<path d="M2585.11 2718.68C2586.07 2718.71 2586.98 2719.09 2587.65 2719.77C2588.33 2720.45 2588.72 2721.35 2588.74 2722.31C2588.74 2723.27 2588.36 2724.19 2587.68 2724.87C2587 2725.55 2586.07 2725.94 2585.11 2725.94C2584.64 2725.94 2584.17 2725.84 2583.74 2725.66C2583.3 2725.48 2582.91 2725.21 2582.58 2724.87C2582.25 2724.53 2581.99 2724.13 2581.82 2723.69C2581.65 2723.25 2581.56 2722.78 2581.58 2722.31C2581.58 2721.36 2581.94 2720.45 2582.61 2719.78C2583.27 2719.1 2584.17 2718.71 2585.11 2718.68V2718.68Z" fill="black"/>
<path d="M2595.9 2718.68C2596.86 2718.71 2597.77 2719.09 2598.44 2719.77C2599.12 2720.45 2599.51 2721.35 2599.53 2722.31C2599.53 2723.27 2599.15 2724.19 2598.47 2724.87C2597.79 2725.55 2596.87 2725.94 2595.9 2725.94C2595.43 2725.94 2594.96 2725.84 2594.53 2725.66C2594.09 2725.48 2593.7 2725.21 2593.37 2724.87C2593.04 2724.53 2592.78 2724.13 2592.61 2723.69C2592.44 2723.25 2592.35 2722.78 2592.37 2722.31C2592.37 2721.36 2592.74 2720.45 2593.4 2719.78C2594.06 2719.1 2594.96 2718.71 2595.9 2718.68V2718.68Z" fill="black"/>
<path d="M2606.97 2718.68C2607.92 2718.71 2608.83 2719.09 2609.51 2719.77C2610.18 2720.45 2610.57 2721.35 2610.59 2722.31C2610.68 2722.83 2610.65 2723.36 2610.5 2723.86C2610.36 2724.37 2610.11 2724.84 2609.77 2725.24C2609.43 2725.63 2609.01 2725.96 2608.53 2726.17C2608.06 2726.39 2607.54 2726.51 2607.01 2726.51C2606.49 2726.51 2605.97 2726.39 2605.49 2726.17C2605.02 2725.96 2604.59 2725.63 2604.25 2725.24C2603.91 2724.84 2603.66 2724.37 2603.52 2723.86C2603.38 2723.36 2603.35 2722.83 2603.43 2722.31C2603.45 2721.37 2603.83 2720.47 2604.49 2719.8C2605.14 2719.13 2606.03 2718.73 2606.97 2718.68V2718.68Z" fill="black"/>
<path d="M1206.82 2868.67L1382.93 2867.04L1528.56 2866.04L1819.84 2865.32L1958.58 2866.04L2104.13 2867.04L2249.77 2868.67L2104.13 2870.3L1958.58 2871.21L1819.84 2872.03L1528.56 2871.21L1382.93 2870.3L1206.82 2868.67Z" fill="#263238"/>
<path d="M1206.73 2899.5C1288.89 2898.14 1406.23 2897.51 1488.84 2896.97L1735.41 2896.15L1982.07 2896.97L2051.17 2899.5L1982.07 2902.13L1735.41 2902.86L1488.84 2902.13C1406.69 2901.59 1288.98 2900.96 1206.73 2899.5Z" fill="#263238"/>
<path d="M1206.73 2935.14C1296.32 2933.78 1424.37 2933.15 1514.15 2932.6L1782.93 2931.79L2051.62 2932.6L2126.98 2935.14L2051.62 2937.77L1782.93 2938.59L1514.15 2937.77C1424.37 2937.23 1296.42 2936.32 1206.73 2935.14Z" fill="#263238"/>
<path d="M1680.73 2712.88H1354.18V2748.15H1680.73V2712.88Z" fill="#455A64"/>
<path d="M1614.71 2765.75H1354.18V2787.06H1614.71V2765.75Z" fill="#DBDBDB"/>
<path d="M1200.29 3008.87L1376.31 3007.69L1552.23 3007.33L1904.08 3006.6L2255.93 3007.33L2431.95 3007.69L2607.87 3008.87L2431.95 3009.96L2255.93 3010.32L1904.08 3011.13L1552.23 3010.32L1376.31 3009.96L1200.29 3008.87Z" fill="#DBDBDB"/>
<path d="M1283.09 3183.43C1273.31 3189.49 1261.87 3192.3 1250.41 3191.45C1238.94 3190.61 1228.03 3186.15 1219.26 3178.72C1210.48 3171.29 1204.29 3161.27 1201.56 3150.1C1198.83 3138.93 1199.71 3127.18 1204.07 3116.54C1208.44 3105.91 1216.06 3096.92 1225.84 3090.89C1235.63 3084.85 1247.08 3082.07 1258.54 3082.94C1270.01 3083.81 1280.9 3088.29 1289.66 3095.74C1298.42 3103.19 1304.59 3113.22 1307.3 3124.4C1309.99 3135.53 1309.1 3147.24 1304.75 3157.84C1300.41 3168.44 1292.82 3177.39 1283.09 3183.43V3183.43Z" fill="#DBDBDB"/>
<path d="M1271.12 3131.11C1271.12 3134.37 1270.15 3137.56 1268.33 3140.28C1266.52 3142.99 1263.94 3145.11 1260.93 3146.36C1257.91 3147.61 1254.59 3147.93 1251.39 3147.3C1248.19 3146.66 1245.25 3145.09 1242.94 3142.78C1240.63 3140.47 1239.06 3137.53 1238.42 3134.33C1237.79 3131.13 1238.11 3127.81 1239.36 3124.79C1240.61 3121.78 1242.73 3119.2 1245.44 3117.39C1248.16 3115.57 1251.35 3114.6 1254.61 3114.6C1258.98 3114.63 1263.16 3116.37 1266.25 3119.46C1269.34 3122.55 1271.09 3126.74 1271.12 3131.11Z" fill="#60B0AA"/>
<path d="M1283.08 3176.63V3183.43C1274.51 3188.71 1264.64 3191.51 1254.57 3191.51C1244.49 3191.51 1234.62 3188.71 1226.05 3183.43V3176.63C1225.83 3172.75 1226.4 3168.87 1227.74 3165.22C1229.07 3161.57 1231.14 3158.23 1233.81 3155.4C1236.48 3152.58 1239.69 3150.33 1243.26 3148.79C1246.83 3147.25 1250.68 3146.46 1254.57 3146.46C1258.45 3146.46 1262.3 3147.25 1265.87 3148.79C1269.44 3150.33 1272.65 3152.58 1275.32 3155.4C1277.99 3158.23 1280.06 3161.57 1281.39 3165.22C1282.73 3168.87 1283.3 3172.75 1283.08 3176.63V3176.63Z" fill="#60B0AA"/>
<path d="M2585.11 3101.73C2586.07 3101.73 2587 3102.11 2587.68 3102.79C2588.36 3103.47 2588.74 3104.39 2588.74 3105.35C2588.74 3105.83 2588.65 3106.29 2588.46 3106.73C2588.28 3107.16 2588.01 3107.56 2587.67 3107.89C2587.33 3108.22 2586.93 3108.48 2586.49 3108.65C2586.05 3108.82 2585.58 3108.9 2585.11 3108.89C2584.64 3108.9 2584.18 3108.82 2583.74 3108.65C2583.31 3108.47 2582.91 3108.21 2582.58 3107.88C2582.25 3107.55 2581.99 3107.16 2581.82 3106.72C2581.65 3106.29 2581.56 3105.82 2581.58 3105.35C2581.56 3104.88 2581.65 3104.41 2581.82 3103.97C2581.99 3103.53 2582.25 3103.13 2582.58 3102.79C2582.91 3102.46 2583.3 3102.19 2583.74 3102C2584.17 3101.82 2584.64 3101.73 2585.11 3101.73V3101.73Z" fill="black"/>
<path d="M2595.9 3101.73C2596.87 3101.73 2597.79 3102.11 2598.47 3102.79C2599.15 3103.47 2599.53 3104.39 2599.53 3105.35C2599.53 3105.83 2599.44 3106.29 2599.25 3106.73C2599.07 3107.16 2598.8 3107.56 2598.46 3107.89C2598.12 3108.22 2597.72 3108.48 2597.28 3108.65C2596.84 3108.82 2596.38 3108.9 2595.9 3108.89C2595.44 3108.9 2594.97 3108.82 2594.54 3108.65C2594.1 3108.47 2593.71 3108.21 2593.37 3107.88C2593.04 3107.55 2592.78 3107.16 2592.61 3106.72C2592.44 3106.29 2592.35 3105.82 2592.37 3105.35C2592.35 3104.88 2592.44 3104.41 2592.61 3103.97C2592.78 3103.53 2593.04 3103.13 2593.37 3102.79C2593.7 3102.46 2594.09 3102.19 2594.53 3102C2594.96 3101.82 2595.43 3101.73 2595.9 3101.73V3101.73Z" fill="black"/>
<path d="M2606.97 3101.73C2607.93 3101.73 2608.85 3102.11 2609.53 3102.79C2610.21 3103.47 2610.59 3104.39 2610.59 3105.35C2610.46 3106.21 2610.02 3106.98 2609.37 3107.54C2608.71 3108.1 2607.87 3108.41 2607.01 3108.41C2606.15 3108.41 2605.31 3108.1 2604.66 3107.54C2604 3106.98 2603.57 3106.21 2603.43 3105.35C2603.43 3104.41 2603.8 3103.5 2604.46 3102.82C2605.12 3102.14 2606.02 3101.75 2606.97 3101.73V3101.73Z" fill="black"/>
<path d="M1206.82 3251.54L1382.93 3249.9L1528.56 3249L1819.84 3248.18L1958.58 3249L2104.13 3249.9L2249.77 3251.54L2104.13 3253.26L1958.58 3254.17L1819.84 3254.98L1528.56 3254.17L1382.93 3253.17L1206.82 3251.54Z" fill="#263238"/>
<path d="M1206.73 3282.46C1288.89 3281.1 1406.23 3280.37 1488.84 3279.83L1735.41 3279.1L1982.07 3279.83L2051.17 3282.46L1982.07 3285.09L1735.41 3285.81L1488.84 3285C1406.69 3284.45 1288.98 3283.82 1206.73 3282.46Z" fill="#263238"/>
<path d="M1680.73 3095.83H1354.18V3131.11H1680.73V3095.83Z" fill="#455A64"/>
<path d="M1614.71 3148.7H1354.18V3170.01H1614.71V3148.7Z" fill="#DBDBDB"/>
<path d="M1200.29 3373.59L1376.31 3372.51L1552.23 3372.14L1904.08 3371.33L2255.93 3372.14L2431.95 3372.51L2607.87 3373.59L2431.95 3374.77L2255.93 3375.14L1904.08 3375.86L1552.23 3375.14L1376.31 3374.68L1200.29 3373.59Z" fill="#DBDBDB"/>
<path d="M1283.08 3560.86C1273.31 3566.92 1261.87 3569.73 1250.4 3568.89C1238.92 3568.04 1228.01 3563.58 1219.24 3556.15C1210.46 3548.72 1204.26 3538.69 1201.53 3527.52C1198.81 3516.34 1199.69 3504.59 1204.06 3493.95C1208.44 3483.31 1216.07 3474.33 1225.86 3468.3C1235.65 3462.27 1247.11 3459.49 1258.58 3460.38C1270.05 3461.26 1280.94 3465.76 1289.69 3473.22C1298.45 3480.68 1304.61 3490.73 1307.3 3501.91C1309.97 3513.03 1309.07 3524.72 1304.72 3535.3C1300.38 3545.88 1292.8 3554.82 1283.08 3560.86V3560.86Z" fill="#DBDBDB"/>
<path d="M1271.12 3508.53C1271.12 3511.8 1270.15 3514.99 1268.33 3517.7C1266.52 3520.41 1263.94 3522.53 1260.93 3523.78C1257.91 3525.03 1254.59 3525.36 1251.39 3524.72C1248.19 3524.08 1245.25 3522.51 1242.94 3520.2C1240.63 3517.89 1239.06 3514.95 1238.42 3511.75C1237.79 3508.55 1238.11 3505.23 1239.36 3502.22C1240.61 3499.2 1242.73 3496.62 1245.44 3494.81C1248.16 3492.99 1251.35 3492.03 1254.61 3492.03C1258.99 3492.03 1263.19 3493.77 1266.28 3496.86C1269.38 3499.96 1271.12 3504.15 1271.12 3508.53V3508.53Z" fill="#60B0AA"/>
<path d="M1283.08 3554.05V3560.86C1274.54 3566.21 1264.65 3569.06 1254.57 3569.06C1244.48 3569.06 1234.59 3566.21 1226.05 3560.86V3554.05C1226.46 3546.77 1229.64 3539.92 1234.94 3534.9C1240.25 3529.89 1247.27 3527.1 1254.57 3527.1C1261.86 3527.1 1268.88 3529.89 1274.19 3534.9C1279.49 3539.92 1282.67 3546.77 1283.08 3554.05V3554.05Z" fill="#60B0AA"/>
<path d="M2585.11 3479.24C2585.63 3479.16 2586.16 3479.19 2586.67 3479.33C2587.17 3479.47 2587.64 3479.72 2588.04 3480.06C2588.44 3480.4 2588.76 3480.83 2588.98 3481.3C2589.2 3481.78 2589.31 3482.3 2589.31 3482.82C2589.31 3483.35 2589.2 3483.87 2588.98 3484.34C2588.76 3484.82 2588.44 3485.24 2588.04 3485.58C2587.64 3485.92 2587.17 3486.17 2586.67 3486.31C2586.16 3486.46 2585.63 3486.49 2585.11 3486.4C2584.26 3486.27 2583.48 3485.83 2582.92 3485.18C2582.36 3484.52 2582.06 3483.69 2582.06 3482.82C2582.06 3481.96 2582.36 3481.13 2582.92 3480.47C2583.48 3479.81 2584.26 3479.38 2585.11 3479.24V3479.24Z" fill="black"/>
<path d="M2595.9 3479.24C2596.42 3479.16 2596.95 3479.19 2597.46 3479.33C2597.96 3479.47 2598.43 3479.72 2598.83 3480.06C2599.23 3480.4 2599.55 3480.83 2599.77 3481.3C2599.99 3481.78 2600.1 3482.3 2600.1 3482.82C2600.1 3483.35 2599.99 3483.87 2599.77 3484.34C2599.55 3484.82 2599.23 3485.24 2598.83 3485.58C2598.43 3485.92 2597.96 3486.17 2597.46 3486.31C2596.95 3486.46 2596.42 3486.49 2595.9 3486.4C2595.05 3486.27 2594.28 3485.83 2593.72 3485.18C2593.16 3484.52 2592.85 3483.69 2592.85 3482.82C2592.85 3481.96 2593.16 3481.13 2593.72 3480.47C2594.28 3479.81 2595.05 3479.38 2595.9 3479.24V3479.24Z" fill="black"/>
<path d="M2606.97 3479.24C2607.48 3479.16 2608.01 3479.19 2608.52 3479.33C2609.02 3479.47 2609.49 3479.72 2609.89 3480.06C2610.29 3480.4 2610.61 3480.83 2610.83 3481.3C2611.05 3481.78 2611.17 3482.3 2611.17 3482.82C2611.17 3483.35 2611.05 3483.87 2610.83 3484.34C2610.61 3484.82 2610.29 3485.24 2609.89 3485.58C2609.49 3485.92 2609.02 3486.17 2608.52 3486.31C2608.01 3486.46 2607.48 3486.49 2606.97 3486.4C2606.11 3486.27 2605.34 3485.83 2604.78 3485.18C2604.22 3484.52 2603.91 3483.69 2603.91 3482.82C2603.91 3481.96 2604.22 3481.13 2604.78 3480.47C2605.34 3479.81 2606.11 3479.38 2606.97 3479.24V3479.24Z" fill="black"/>
<path d="M1527.39 3629.05L1649.35 3627.42L1750.28 3626.51L1951.96 3625.69L2048.09 3626.42L2148.93 3627.42L2249.77 3629.05L2148.93 3630.68L2048.09 3631.68L1951.96 3632.4L1750.28 3631.68L1649.35 3630.68L1527.39 3629.05Z" fill="#263238"/>
<path d="M1527.39 3659.88C1584.33 3658.52 1665.86 3657.89 1722.81 3657.34L1893.56 3656.53L2064.41 3657.34L2112.29 3659.88L2064.41 3662.51L1893.56 3663.33L1722.81 3662.51C1665.86 3661.79 1584.33 3661.79 1527.39 3659.88Z" fill="#263238"/>
<path d="M1680.73 3473.26H1354.18V3508.53H1680.73V3473.26Z" fill="#455A64"/>
<path d="M1614.71 3526.21H1354.18V3547.52H1614.71V3526.21Z" fill="#DBDBDB"/>
<path d="M1200.29 3842.97H1483.13V3625.69H1200.29V3842.97Z" fill="#90CAF9"/>
<path opacity="0.2" d="M1230.76 3676.66C1229.72 3681.96 1230.41 3687.47 1232.74 3692.35C1235.06 3697.23 1238.89 3701.24 1243.67 3703.78C1248.44 3706.31 1253.91 3707.25 1259.26 3706.44C1264.6 3705.64 1269.55 3703.13 1273.37 3699.3C1277.18 3695.47 1279.66 3690.51 1280.44 3685.16C1281.23 3679.81 1280.27 3674.35 1277.71 3669.58C1275.15 3664.82 1271.12 3661 1266.23 3658.7C1261.34 3656.4 1255.83 3655.73 1250.53 3656.8C1245.64 3657.78 1241.15 3660.19 1237.63 3663.73C1234.11 3667.26 1231.72 3671.76 1230.76 3676.66V3676.66Z" fill="black"/>
<path opacity="0.2" d="M1278.73 3797.08H1483.13L1380.93 3682.55L1278.73 3797.08Z" fill="black"/>
<path d="M1200.29 3797.18H1369.05L1284.72 3722.54L1200.29 3797.18Z" fill="#90CAF9"/>
<path opacity="0.3" d="M1200.29 3797.18H1369.05L1284.72 3722.54L1200.29 3797.18Z" fill="black"/>
<path d="M1483.22 3797.08H1200.38V3842.97H1483.22V3797.08Z" fill="#90CAF9"/>
<path opacity="0.3" d="M1483.22 3797.08H1200.38V3842.97H1483.22V3797.08Z" fill="black"/>
<path d="M2137.07 2022.32C2052.6 2071.35 1955.27 2097.32 1855.99 2097.32C1756.7 2097.32 1659.38 2071.35 1574.91 2022.32C1475.99 1964.84 1399.72 1878.61 1357.66 1776.71C1315.6 1674.81 1310.04 1562.79 1341.83 1457.65C1373.61 1352.51 1441.01 1259.98 1533.8 1194.1C1626.58 1128.21 1739.7 1092.57 1855.99 1092.57C1972.27 1092.57 2085.39 1128.21 2178.18 1194.1C2270.97 1259.98 2338.36 1352.51 2370.15 1457.65C2401.94 1562.79 2396.38 1674.81 2354.31 1776.71C2312.25 1878.61 2235.98 1964.84 2137.07 2022.32V2022.32Z" fill="#A6A6A6"/>
<path d="M1834.37 1478.94C2032.65 1588.59 2292.2 1659.76 2356.65 1621.45C2421.1 1583.13 2523.94 1273.37 2515.84 1199.8C2512.49 1168.03 2282.78 1151.06 2259.89 1177.46C2237 1203.86 2212.52 1391.72 2200.11 1409.18C2191.3 1421.76 1988.36 1391.38 1861.4 1379.38C1780.4 1371.61 1729.78 1421.09 1834.37 1478.94Z" fill="#AD6359"/>
<path d="M2513.28 1241.76C2521.12 1209.98 2548.5 1045.63 2544.63 1003.01C2540.75 960.39 2520.94 838.49 2485.99 837.497C2451.04 836.504 2453.77 872.916 2453.77 872.916C2453.77 872.916 2436.68 822.683 2401.38 825.083C2366.07 827.483 2372.41 883.013 2372.41 883.013C2372.41 883.013 2350.84 832.697 2315.8 837.331C2280.76 841.966 2297.22 897.412 2297.22 897.412C2297.22 897.412 2279.61 850.49 2252.67 865.799C2220.01 884.171 2262.53 967.259 2262.88 1014.76C2262.88 1025.52 2247.65 1232.66 2247.65 1232.66L2513.28 1241.76Z" fill="#AD6359"/>
<path d="M2296.34 893.44C2327.51 954.597 2329.89 986.375 2321.61 1052.66C2321.61 1053.99 2323.46 1054.48 2323.72 1053.16C2338.16 988.941 2341.33 948.639 2299.42 891.868C2296.96 889.054 2294.4 890.461 2296.34 893.44Z" fill="#263238"/>
<path d="M2369.86 879.206C2396.27 945.411 2399.18 979.92 2396.27 1049.93C2396.27 1050.17 2396.37 1050.41 2396.56 1050.58C2396.74 1050.75 2396.98 1050.84 2397.24 1050.84C2397.5 1050.84 2397.74 1050.75 2397.93 1050.58C2398.11 1050.41 2398.21 1050.17 2398.21 1049.93C2407.45 981.493 2409.65 941.191 2374 878.296C2371.97 875.399 2368.63 875.979 2369.86 879.206Z" fill="#263238"/>
<path d="M2453.5 876.806C2474.19 943.011 2479.12 980.334 2466.62 1047.95C2466.54 1048.28 2466.6 1048.62 2466.79 1048.91C2466.98 1049.2 2467.28 1049.4 2467.63 1049.48C2467.98 1049.55 2468.35 1049.5 2468.66 1049.32C2468.96 1049.14 2469.18 1048.85 2469.26 1048.53C2489.07 980.748 2483.35 933.66 2455.7 876.475C2453.85 872.503 2452.18 872.668 2453.5 876.806Z" fill="#263238"/>
<path d="M2241.58 1275.53C2241.58 1275.53 2188.13 1207 2171.76 1172C2155.38 1136.99 2145.34 985.548 2179.95 981.658C2224.76 976.61 2248.89 1062.92 2254.78 1106.7C2254.78 1106.7 2358.41 1094.95 2390.02 1153.46C2421.63 1211.97 2241.58 1275.53 2241.58 1275.53Z" fill="#AD6359"/>
<path d="M2192.71 984.058C2236.74 1007.15 2240.96 1065.08 2250.12 1107.12C2250.23 1107.74 2250.5 1108.32 2250.91 1108.82C2251.31 1109.32 2251.83 1109.73 2252.43 1110C2253.04 1110.28 2253.7 1110.42 2254.37 1110.4C2255.04 1110.39 2255.69 1110.23 2256.28 1109.93C2300.3 1107.7 2362.46 1116.55 2390.9 1151.31C2391.07 1151.5 2391.3 1151.62 2391.56 1151.66C2391.81 1151.7 2392.08 1151.64 2392.29 1151.51C2392.51 1151.38 2392.67 1151.17 2392.74 1150.94C2392.81 1150.7 2392.78 1150.45 2392.66 1150.23C2367.48 1109.52 2306.91 1096.11 2259.19 1101.41C2250.38 1058.13 2243.87 1000.2 2192.98 984.058C2192.63 983.562 2192.45 983.893 2192.71 984.058Z" fill="#263238"/>
<path d="M2141.38 1644.29L2195.53 1396.02C2195.53 1396.02 1989.33 1363.99 1862.81 1365.9C1736.29 1367.8 1694.47 1413.65 1853.3 1502.86C1946.19 1555.45 2042.39 1602.68 2141.38 1644.29Z" fill="#455A64"/>
<path d="M2144.38 1399.83C2133.69 1433.98 2123.95 1468.4 2115.15 1503.11C2110.83 1520.15 2106.34 1537.2 2102.2 1554.41C2098.07 1571.63 2095.25 1590.17 2091.02 1607.88C2091.02 1609.12 2092.78 1609.7 2093.13 1608.45C2097.8 1591.49 2103.7 1574.77 2108.54 1557.81C2113.38 1540.84 2117.35 1522.64 2122.19 1505.09C2131.05 1470.33 2139.01 1435.38 2146.05 1400.24C2146.06 1400.05 2146.01 1399.86 2145.89 1399.7C2145.77 1399.54 2145.59 1399.43 2145.39 1399.38C2145.2 1399.33 2144.99 1399.35 2144.8 1399.43C2144.61 1399.51 2144.46 1399.65 2144.38 1399.83Z" fill="#263238"/>
<path d="M2095.42 2043.59C2061.62 2059.68 2026.04 2072.25 1989.33 2081.08L1981.76 2082.9C1977 2084.05 1972.07 2085.05 1967.32 2086.04C1892.91 2101.23 1815.9 2101.23 1741.49 2086.04C1734.27 2084.55 1727.05 2082.9 1719.91 2081.08C1677.1 2070.6 1635.86 2055.08 1597.18 2034.9C1594.1 2033.41 1591.11 2031.84 1588.38 2030.1C1583.62 2027.53 1578.87 2024.8 1574.03 2021.82C1554.26 2010.31 1535.32 1997.6 1517.32 1983.75C1515.12 1982.26 1513.01 1980.61 1510.9 1978.87C1492.84 1964.58 1475.81 1949.18 1459.92 1932.78L1455.17 1927.89C1446.18 1918.35 1437.59 1908.5 1429.37 1898.35C1430.78 1892.89 1432.27 1887.43 1433.68 1881.8C1434.21 1880.23 1434.56 1878.57 1435 1877C1439.14 1861.94 1443.81 1846.63 1448.21 1830.82C1448.65 1829.17 1449.27 1827.59 1449.71 1825.86C1454.28 1810.88 1459.13 1795.4 1464.5 1779.93C1464.91 1778.27 1465.44 1776.62 1466.08 1774.96C1471.28 1759.82 1476.74 1744.34 1482.55 1728.78C1483.08 1727.29 1483.78 1725.64 1484.4 1723.98C1490.21 1708.76 1496.19 1693.36 1502.62 1677.89C1503.24 1676.4 1503.85 1674.82 1504.56 1673.25C1510.99 1657.86 1517.85 1642.63 1524.98 1627.24C1525.69 1625.5 1526.48 1623.93 1527.27 1622.27C1534.58 1606.8 1542.24 1591.49 1550.25 1576.18C1550.96 1574.69 1551.75 1573.12 1552.54 1571.71C1560.76 1556.15 1569.36 1540.79 1578.34 1525.62C1578.7 1524.87 1579.11 1524.15 1579.57 1523.46L1581.33 1520.57C1590.67 1505.01 1600.44 1489.62 1610.74 1474.64C1611.8 1472.98 1612.94 1471.33 1614.09 1469.67C1624.91 1453.95 1636.36 1438.56 1648.25 1423.66C1649.08 1422.43 1650 1421.24 1650.98 1420.1L1652.12 1418.78C1662.6 1405.7 1673.6 1392.87 1684.96 1380.63C1687.69 1377.68 1690.63 1374.92 1693.77 1372.35L1695.09 1371.36C1696.67 1370.2 1698.17 1369.12 1699.93 1368.05C1700.22 1367.81 1700.54 1367.61 1700.9 1367.47C1754.78 1333.7 1857.44 1347.28 1870.56 1365.23C1871.15 1365.94 1871.68 1366.69 1872.14 1367.47L1873.9 1369.87C1884.77 1385.53 1894.65 1401.78 1903.49 1418.53C1912.29 1434.25 1920.22 1451.63 1928.32 1469.42C1935.62 1485.56 1942.67 1502.53 1949.62 1520.15C1949.62 1521.06 1950.33 1521.89 1950.59 1522.72C1951 1523.51 1951.33 1524.34 1951.56 1525.2C1958.07 1541.75 1964.41 1558.3 1970.67 1576.01C1975.95 1591.16 1981.32 1606.55 1986.34 1622.11C1986.87 1623.85 1987.48 1625.34 1988.01 1627.07C1993.29 1643.05 1998.49 1659.27 2003.42 1675.49C2003.6 1676.33 2003.84 1677.16 2004.12 1677.97C2008.96 1693.36 2013.45 1708.76 2017.95 1724.06C2017.95 1725.47 2018.56 1726.71 2019 1728.04C2023.58 1743.84 2027.81 1759.57 2032.12 1775.04L2033.53 1780.01C2037.75 1795.48 2041.8 1810.88 2045.68 1825.94C2045.68 1826.43 2045.68 1826.85 2045.68 1827.26C2045.68 1827.68 2046.3 1829.66 2046.56 1830.9C2050.61 1846.63 2054.48 1862.02 2058.18 1877.08C2062.41 1894.63 2066.46 1911.67 2070.16 1927.98C2070.6 1929.71 2070.95 1931.29 2071.3 1932.86C2075.09 1949.41 2078.7 1965.3 2081.95 1980.36C2081.95 1981.52 2081.95 1982.68 2082.66 1983.84C2086.44 2001.46 2089.79 2017.77 2092.69 2032.41C2092.69 2033.24 2092.69 2033.99 2093.13 2034.73L2095.42 2043.59Z" fill="#90CAF9"/>
<path opacity="0.1" d="M1719.92 2081.08C1727.05 2082.9 1734.27 2084.55 1741.49 2086.04H1967.32C1972.07 2085.05 1977 2084.05 1981.76 2082.9L1989.33 2081.08H1719.92ZM2093.84 2032.58C2093.84 2031.75 2093.4 2030.93 2093.22 2030.1H1588.02C1591.11 2031.84 1594.1 2033.41 1596.83 2034.9H2093.84C2093.84 2034.15 2093.84 2033.41 2093.84 2032.58ZM2083.1 1980.53C2082.92 1980.07 2082.78 1979.6 2082.66 1979.12H1510.55C1512.66 1980.86 1514.77 1982.51 1516.97 1984H2083.36C2083.1 1982.84 2082.83 1981.69 2082.66 1980.53H2083.1ZM2071.3 1928.14H1454.99L1459.74 1933.02H2072.18C2071.65 1931.45 2071.3 1930.21 2070.86 1928.14H2071.3ZM1421.97 1928.14C1421.89 1928.98 1421.71 1929.82 1421.44 1930.62C1421.44 1929.8 1421.44 1928.97 1422.06 1928.14H1421.97ZM2058.62 1877.25H1434.56C1434.56 1878.82 1433.77 1880.47 1433.33 1882.05H2059.94L2058.62 1877.25ZM2046.12 1827.59C2046.12 1827.18 2046.12 1826.77 2046.12 1826.27H1449.35C1448.91 1828.01 1448.3 1829.58 1447.86 1831.23H2047.35C2047 1829.91 2046.74 1828.75 2046.38 1827.43L2046.12 1827.59ZM2032.21 1775.21H1465.82C1465.15 1776.83 1464.6 1778.49 1464.15 1780.17H2033.88L2032.21 1775.21ZM2019.09 1728.2C2018.65 1726.88 2018.39 1725.64 2018.03 1724.23H1484.13C1483.52 1725.89 1482.81 1727.54 1482.2 1729.03H2019.27C2019.25 1728.75 2019.28 1728.47 2019.35 1728.2H2019.09ZM2003.51 1675.65L2002.71 1673.25H1504.47C1503.77 1674.82 1503.15 1676.4 1502.45 1677.89H2004.3C2004.08 1677.15 2003.9 1676.41 2003.77 1675.65H2003.51ZM1986.43 1622.27H1527.19C1526.39 1623.93 1525.6 1625.5 1524.9 1627.24H1988.19C1988.19 1625.5 1987.22 1624.01 1986.69 1622.27H1986.43ZM1968.82 1571.38H1552.63C1551.84 1572.79 1551.05 1574.36 1550.34 1575.85H1971.19C1970.43 1574.4 1969.75 1572.91 1969.17 1571.38H1968.82ZM1950.59 1522.8C1950.59 1521.97 1949.98 1521.15 1949.62 1520.24H1581.42L1579.75 1523.13C1579.29 1523.82 1578.87 1524.54 1578.52 1525.28H1951.91C1951.68 1524.43 1951.36 1523.6 1950.94 1522.8H1950.59ZM1928.32 1469.51H1614.09C1613.03 1471.16 1611.88 1472.82 1610.92 1474.47H1930.69C1930.08 1472.73 1929.28 1471.08 1928.67 1469.51H1928.32ZM1903.4 1418.45H1652.3L1651.15 1419.77C1650.17 1420.91 1649.26 1422.1 1648.42 1423.33H1906.22C1905.34 1421.67 1904.54 1420.02 1903.75 1418.45H1903.4ZM1873.82 1369.79L1872.06 1367.39H1701.07C1700.72 1367.53 1700.39 1367.72 1700.11 1367.96C1698.34 1369.04 1696.85 1370.12 1695.26 1371.27L1693.94 1372.27H1875.84C1875.21 1371.48 1874.65 1370.65 1874.17 1369.79H1873.82Z" fill="black"/>
<path d="M1860.61 1497.97C1819.05 1505.01 1751.96 1442.53 1726.78 1393.37C1725.11 1390.06 1732.42 1355.8 1739.11 1313.76C1743.16 1288.27 1746.94 1259.72 1748.44 1233.49L1921.27 1282.23C1909.42 1314.53 1901.82 1348.08 1898.64 1382.12C1898.53 1385.74 1898.74 1389.37 1899.26 1392.96C1899.31 1393.54 1899.31 1394.12 1899.26 1394.69C1901.81 1415.38 1900.76 1491.11 1860.61 1497.97Z" fill="#AD6359"/>
<path d="M1899.52 1394.69C1899.52 1395.85 1899.52 1397.09 1899.52 1398.5C1794.49 1377.65 1762.09 1327.66 1743.51 1281.65C1745.62 1265.51 1747.38 1249.13 1748.18 1233.49L1921.01 1282.15C1909.16 1314.47 1901.59 1348.05 1898.47 1382.12C1898.27 1385.74 1898.48 1389.37 1899.08 1392.96C1899.15 1393.55 1899.3 1394.14 1899.52 1394.69V1394.69Z" fill="#263238"/>
<path d="M1708.82 1045.55C1689.54 1103.89 1721.59 1272.88 1765.7 1310.37C1829.53 1365.15 1934.48 1370.78 1984.14 1298.61C2032.3 1228.6 1986.34 1008.97 1937.12 974.707C1864.92 924.308 1737.26 959.314 1708.82 1045.55Z" fill="#AD6359"/>
<path d="M1856.12 1152.3C1856.12 1152.3 1855.24 1153.05 1855.33 1153.46C1857.79 1164.8 1858.67 1178.29 1848.37 1183.75C1848.37 1183.75 1848.37 1184.49 1848.37 1184.33C1862.02 1180.02 1860.7 1162.23 1856.12 1152.3Z" fill="#263238"/>
<path d="M1843.44 1141.79C1823.63 1143.53 1828.91 1180.52 1847.23 1178.87C1865.54 1177.21 1859.99 1140.3 1843.44 1141.79Z" fill="#263238"/>
<path d="M1931.84 1141.38C1931.84 1140.88 1932.89 1141.38 1932.98 1142.21C1934.22 1153.71 1937.65 1167.03 1949.27 1169.18C1949.27 1169.18 1949.27 1169.85 1949.27 1169.76C1935.36 1169.68 1931.05 1152.3 1931.84 1141.38Z" fill="#263238"/>
<path d="M1941.08 1128.05C1960.45 1124.16 1967.5 1161.16 1949.27 1164.47C1931.04 1167.78 1924.79 1131.28 1941.08 1128.05Z" fill="#263238"/>
<path d="M1825.48 1126.81C1830.45 1124.75 1835.3 1122.42 1840.01 1119.86C1845.49 1118.08 1850.19 1114.64 1853.39 1110.1C1854.03 1108.48 1854.12 1106.73 1853.64 1105.07C1853.17 1103.4 1852.16 1101.92 1850.75 1100.83C1847.5 1099.13 1843.82 1098.29 1840.1 1098.39C1836.38 1098.49 1832.76 1099.53 1829.62 1101.41C1822.67 1104.25 1817.09 1109.41 1813.95 1115.89C1813.24 1117.41 1813.03 1119.09 1813.36 1120.73C1813.68 1122.36 1814.52 1123.86 1815.76 1125.04C1817.01 1126.21 1818.6 1127.01 1820.33 1127.33C1822.06 1127.65 1823.86 1127.47 1825.48 1126.81V1126.81Z" fill="#263238"/>
<path d="M1953.67 1107.45C1948.24 1107.14 1942.83 1106.53 1937.47 1105.63C1931.67 1105.78 1925.98 1104.05 1921.36 1100.74C1920.17 1099.43 1919.44 1097.8 1919.28 1096.08C1919.12 1094.36 1919.54 1092.63 1920.48 1091.14C1922.92 1088.52 1926.06 1086.57 1929.57 1085.47C1933.09 1084.38 1936.85 1084.2 1940.47 1084.94C1948.01 1085.28 1955.16 1088.22 1960.54 1093.21C1961.86 1094.4 1962.76 1095.94 1963.11 1097.63C1963.46 1099.31 1963.24 1101.06 1962.49 1102.62C1961.73 1104.19 1960.48 1105.49 1958.9 1106.36C1957.32 1107.22 1955.49 1107.6 1953.67 1107.45Z" fill="#263238"/>
<path d="M1876.9 1220.82C1880.63 1224.97 1885.23 1228.34 1890.41 1230.73C1895.59 1233.12 1901.24 1234.48 1907.01 1234.73C1912.07 1235.02 1917.14 1234.6 1922.06 1233.49C1923.02 1233.35 1923.97 1233.13 1924.88 1232.82L1927.44 1232.08C1928.06 1231.88 1928.6 1231.51 1928.99 1231C1929.37 1230.49 1929.56 1229.88 1929.55 1229.27V1229.27C1929.61 1228.88 1929.61 1228.49 1929.55 1228.11V1227.11C1928.49 1218.26 1925.67 1205.02 1925.67 1205.02C1929.37 1206.18 1947.86 1211.39 1946.98 1206.84C1939.15 1168.94 1930.43 1126.9 1914.14 1090.98C1914.05 1090.72 1913.85 1090.5 1913.59 1090.37C1913.33 1090.25 1913.03 1090.22 1912.75 1090.29C1912.47 1090.36 1912.23 1090.54 1912.07 1090.77C1911.92 1091.01 1911.88 1091.29 1911.94 1091.56C1917.93 1128.22 1930.78 1163.64 1937.38 1200.38C1930.8 1198.44 1923.95 1197.39 1917.05 1197.24C1915.73 1197.73 1922.95 1222.89 1923.03 1226.87C1923.09 1227 1923.09 1227.15 1923.03 1227.28C1907.54 1231.17 1895.04 1228.19 1878.31 1220.16C1876.81 1219.09 1876.02 1220 1876.9 1220.82Z" fill="#263238"/>
<path d="M1914.67 1230.18C1910.68 1236.55 1905.01 1241.85 1898.2 1245.57C1894.43 1247.46 1890.12 1248.18 1885.88 1247.64C1876.54 1246.48 1875.31 1238.78 1876.1 1231.91C1876.61 1228.3 1877.53 1224.75 1878.83 1221.32C1889.45 1227.82 1902.02 1230.92 1914.67 1230.18V1230.18Z" fill="#263238"/>
<path d="M1898.2 1245.57C1894.43 1247.46 1890.12 1248.18 1885.88 1247.64C1876.54 1246.48 1875.31 1238.78 1876.1 1231.91C1880.88 1231.53 1885.66 1232.67 1889.67 1235.15C1893.68 1237.62 1896.68 1241.29 1898.2 1245.57V1245.57Z" fill="#FF9CBD"/>
<path opacity="0.2" d="M1709.17 1161.41C1720.44 1155.12 1739.55 1117.38 1748 1101.9C1756.45 1086.43 1749.85 1014.51 1747.21 993.244C1729.28 1007.07 1715.95 1025.46 1708.82 1046.21C1700.55 1070.46 1701.69 1115.72 1709.17 1161.41Z" fill="#263238"/>
<path d="M1900.76 1035.28C1895.25 1043.25 1887.67 1049.76 1878.73 1054.19C1869.79 1058.62 1859.8 1060.83 1849.69 1060.61C1839.41 1060.38 1829.35 1057.7 1820.48 1052.8C1811.6 1047.91 1804.2 1040.97 1798.98 1032.64C1798.98 1032.14 1797.83 1032.64 1798.1 1032.64C1802.77 1041.86 1810.02 1049.71 1819.08 1055.35C1828.14 1060.99 1838.66 1064.21 1849.52 1064.66C1860.26 1064.62 1870.81 1061.92 1880.08 1056.82C1889.36 1051.71 1897.04 1044.4 1902.34 1035.62C1902.43 1035.28 1901.29 1034.54 1900.76 1035.28Z" fill="#263238"/>
<path d="M1820.9 906.515C1786.92 911.398 1758.13 932.915 1748.71 956.169C1743.44 969.476 1743.16 984.072 1747.91 997.547C1747.91 998.127 1749.32 997.547 1749.15 997.547C1746.76 985.467 1747.89 973.006 1752.39 961.474C1756.9 949.941 1764.63 939.762 1774.77 932.004C1785.77 923.012 1798.85 916.551 1812.97 913.133C1827.09 909.714 1841.86 909.432 1856.12 912.308C1870.01 914.855 1882.49 921.952 1891.34 932.335C1892.13 933.411 1894.59 932.335 1893.89 931.26C1881.74 912.308 1851.81 902.129 1820.9 906.515Z" fill="#263238"/>
<path d="M2028.33 951.701C2020.55 936.604 2007.37 924.562 1991.09 917.688C1968.55 908.088 1945.22 912.805 1922.06 917.688C1921.97 917.726 1921.89 917.79 1921.83 917.871C1921.78 917.952 1921.75 918.046 1921.75 918.143C1921.75 918.24 1921.78 918.334 1921.83 918.415C1921.89 918.496 1921.97 918.559 1922.06 918.598C1941.7 914.377 1961.95 911.067 1981.49 917.688C1997.68 923.029 2011.39 933.467 2020.32 947.232C2029 961.445 2031.93 978.123 2028.58 994.205C2025.24 1010.29 2015.83 1024.7 2002.1 1034.79C1994.05 1040.42 1984.85 1044.44 1975.09 1046.6C1965.32 1048.76 1955.19 1049.02 1945.31 1047.37C1944.52 1047.37 1944.16 1048.28 1945.31 1048.44C1963.14 1051.94 1981.71 1049.2 1997.54 1040.74C2013.38 1032.29 2025.39 1018.7 2031.33 1002.51C2037.02 985.807 2035.95 967.714 2028.33 951.701V951.701Z" fill="#263238"/>
<path d="M1702.92 1079.72C1702.92 1079.72 1662.95 1026.26 1685.31 989.934C1698.17 969.41 1749.32 965.852 1749.32 965.852C1760.33 945.273 1779.59 929.645 1802.85 922.405C1844.23 908.253 1897.85 925.632 1897.85 925.632C1897.85 925.632 1935.36 899.15 1975.86 915.039C2032.38 937.135 2035.91 1013.44 1986.07 1043.97C1950.85 1065.41 1896.27 1040.42 1896.27 1040.42C1891.51 1041.57 1845.38 1075.67 1802.15 1038.35C1802.15 1038.35 1774.94 1067.56 1745.01 1052.83C1741.73 1060.8 1735.95 1067.65 1728.43 1072.45C1720.91 1077.26 1712.01 1079.79 1702.92 1079.72V1079.72Z" fill="#263238"/>
<path d="M1746.59 1183.25C1746.59 1183.25 1705.04 1129.3 1678.89 1143.28C1652.74 1157.27 1684.7 1235.97 1715.78 1246.31C1719.67 1247.91 1723.87 1248.74 1728.12 1248.77C1732.37 1248.79 1736.58 1248.01 1740.5 1246.46C1744.41 1244.91 1747.96 1242.64 1750.91 1239.77C1753.87 1236.9 1756.17 1233.49 1757.69 1229.76L1746.59 1183.25Z" fill="#AD6359"/>
<path d="M1688.84 1165.63C1688.72 1165.63 1688.61 1165.67 1688.52 1165.75C1688.44 1165.82 1688.4 1165.93 1688.4 1166.04C1688.4 1166.15 1688.44 1166.25 1688.52 1166.33C1688.61 1166.41 1688.72 1166.45 1688.84 1166.45C1710.67 1174.73 1722.47 1193.1 1730.74 1212.55C1729.42 1210.51 1727.65 1208.75 1725.54 1207.42C1723.43 1206.08 1721.04 1205.19 1718.53 1204.8C1716.02 1204.42 1713.45 1204.55 1711 1205.19C1708.55 1205.82 1706.27 1206.95 1704.33 1208.49C1704.24 1208.59 1704.19 1208.72 1704.18 1208.85C1704.16 1208.98 1704.19 1209.11 1704.26 1209.22C1704.32 1209.34 1704.43 1209.43 1704.55 1209.49C1704.67 1209.56 1704.81 1209.58 1704.95 1209.57C1708.74 1208.36 1712.84 1208.3 1716.67 1209.38C1720.5 1210.46 1723.88 1212.64 1726.34 1215.61C1730.42 1220.61 1733.93 1225.99 1736.82 1231.67C1737.88 1233.49 1741.31 1232.41 1740.61 1230.34C1740.57 1230.18 1740.57 1230.01 1740.61 1229.84C1740.52 1203.86 1718.42 1167.78 1688.84 1165.63Z" fill="#263238"/>
<path d="M1613.65 1412.65C1425.49 1577.09 1182.23 1929.13 1221.14 2004.11C1264.46 2087.61 1526.48 1856.97 1526.13 1842.9C1526.13 1832.23 1624.3 1638.08 1698.52 1481.18C1772.74 1324.27 1660.13 1372.02 1613.65 1412.65Z" fill="#AD6359"/>
<path d="M1221.14 2004.11C1259.18 2060.3 1369.15 2075.2 1642.26 2137.02C1680.03 2145.29 1816.15 1911.18 1776.26 1900.09C1726.08 1886.1 1527.98 1842.16 1513.1 1840.59C1387.28 1827.92 1195.26 1965.96 1221.14 2004.11Z" fill="#AD6359"/>
<path d="M1685.58 1890.82C1685.58 1890.82 1796.43 1889.58 1854.89 1905.96C1933.16 1927.81 1991.18 1976.97 2014.16 1998.9C2062.14 2044.83 2144.46 2186.92 2105.02 2216.3C2069.8 2242.95 1993.12 2093.65 1993.12 2093.65C1993.12 2093.65 2097.54 2233.84 2048.32 2258.42C1999.1 2283 1921.01 2105.07 1921.01 2105.07C1921.01 2105.07 2024.99 2251.31 1969.96 2269.18C1928.32 2282.67 1847.93 2125.18 1847.93 2125.18C1847.93 2125.18 1936.42 2251.47 1894.24 2267.03C1847.67 2284.33 1763.76 2143.31 1763.76 2143.31C1649.3 2166.07 1585.29 2132.96 1542.51 2104.33C1532.2 2097.38 1685.58 1890.82 1685.58 1890.82Z" fill="#AD6359"/>
<path d="M1960.28 2043.09C1973.13 2059.06 1986.69 2075.28 1997.69 2092.74C2008.7 2110.21 2019.71 2127.25 2029.39 2145.21C2042.37 2168.51 2052.53 2193.11 2059.68 2218.53C2043.57 2174.26 2003.95 2112.61 1992.59 2095.48C1981.23 2078.34 1970.84 2060.88 1959.57 2043.84C1959.22 2043.01 1959.92 2042.68 1960.28 2043.09Z" fill="#263238"/>
<path d="M1893.89 2080.41C1909.47 2101.6 1925.76 2121.79 1940.29 2143.89C1954.82 2165.98 1966.7 2187.33 1979.29 2210.09C1980.35 2211.83 1979.29 2211.75 1977.88 2210.09C1964.15 2188 1949.53 2168.71 1935.45 2146.62C1921.36 2124.52 1908.24 2102.26 1893.36 2080.91C1893.1 2080.41 1893.71 2080.17 1893.89 2080.41Z" fill="#263238"/>
<path d="M1830.85 2102.92C1855.53 2134.84 1876.65 2169.06 1893.89 2205.04C1894.77 2206.78 1893.1 2206.53 1892.04 2205.04C1871.79 2170.2 1856.12 2143.39 1829.71 2104C1829.71 2103.17 1830.32 2102.26 1830.85 2102.92Z" fill="#263238"/>
<path d="M1357.79 1876.17C1407.15 1845.76 1466.69 1833.45 1525.07 1841.58C1525.78 1841.58 1525.78 1842.82 1525.07 1842.74C1464.59 1838.68 1381.56 1865.16 1357.79 1877.16C1357.61 1877.5 1357.17 1876.58 1357.79 1876.17Z" fill="#263238"/>
<path d="M1343.61 1643.63L1577.46 1769.25C1577.46 1769.25 1674.31 1595.05 1711.55 1481.42C1748.79 1367.8 1715.69 1315.91 1576.05 1430.36C1494.04 1496.95 1416.42 1568.17 1343.61 1643.63V1643.63Z" fill="#455A64"/>
<path d="M1589.87 1722.58C1558.65 1702.38 1526.89 1683.07 1494.61 1664.65C1478.67 1655.46 1462.82 1646.03 1446.71 1637.09C1430.6 1628.15 1412.82 1619.71 1396.17 1610.52C1395.03 1609.86 1393.8 1611.43 1394.94 1612.18C1410.61 1621.61 1425.67 1632.12 1441.34 1641.64C1457.01 1651.16 1474.01 1660.76 1490.38 1670.27C1522.78 1689.09 1555.62 1707.1 1588.9 1724.31C1589.87 1724.4 1590.84 1723.32 1589.87 1722.58Z" fill="#263238"/>
<path d="M1567.6 1763.95C1571.12 1765.44 1574.55 1766.85 1577.99 1768.42L1576.49 1768.84C1583.09 1752.78 1590.58 1737.22 1597.8 1721.5C1605.02 1705.78 1613.12 1690.55 1621.22 1675.24C1629.32 1659.93 1637.5 1644.7 1646.4 1629.72C1655.29 1614.74 1664.01 1599.76 1673.78 1585.2C1667.53 1601.34 1660.4 1617.06 1653 1632.7C1645.6 1648.34 1637.94 1663.82 1630.02 1679.29C1622.1 1694.77 1613.82 1709.83 1605.28 1724.98C1596.74 1740.12 1587.67 1755.1 1578.87 1769.75L1578.25 1770.66L1577.37 1770.16C1573.76 1768.17 1570.68 1766.02 1567.6 1763.95Z" fill="#263238"/>
<path d="M1678.36 1615.74C1668.54 1630.67 1655.04 1643.16 1639 1652.15C1643.88 1644.63 1649.8 1637.75 1656.61 1631.71C1663.1 1625.53 1670.41 1620.16 1678.36 1615.74Z" fill="#263238"/>
<path d="M802.776 155.582C790.08 259.324 704.385 348.375 704.385 348.375C704.385 348.375 581.781 332.596 506.968 259.687C444.578 198.838 439.681 111.148 491.098 73.4236C564.824 19.0138 636.191 155.673 636.191 155.673C636.191 155.673 607.444 4.59526 698.581 0.0611057C762.24 -2.38734 813.386 69.0708 802.776 155.582Z" fill="#90CAF9"/>
<path d="M3166.21 1659.41C3119.96 1720.9 3032.63 1746.2 3032.63 1746.2C3032.63 1746.2 2960.09 1691.06 2939.32 1617.06C2921.91 1555.4 2951.02 1497.63 2997.63 1492.47C3064.46 1485.21 3060.2 1598.38 3060.2 1598.38C3060.2 1598.38 3096.93 1491.2 3156.78 1522.21C3198.4 1543.79 3204.75 1608.09 3166.21 1659.41Z" fill="#90CAF9"/>
<path d="M851.888 1576.08C807.09 1638.56 720.307 1665.85 720.307 1665.85C720.307 1665.85 646.672 1612.44 624.092 1538.9C605.23 1477.59 633.16 1419.19 679.59 1413.03C746.242 1403.96 744.519 1517.49 744.519 1517.49C744.519 1517.49 778.797 1409.49 839.283 1439.05C881.45 1460 889.34 1524.21 851.888 1576.08Z" fill="#90CAF9"/>
</svg>
