<svg width="140" height="125" viewBox="0 0 140 125" fill="none" xmlns="http://www.w3.org/2000/svg">
<path d="M124.532 38.2527C124.945 37.6242 125.194 36.9171 125.26 36.1863C125.325 35.4555 125.205 34.7208 124.91 34.0392C124.614 33.3577 124.15 32.7476 123.554 32.2566C122.959 31.7655 122.247 31.4066 121.475 31.2078C120.703 31.0091 119.891 30.9757 119.103 31.1105C118.314 31.2452 117.57 31.5444 116.929 31.9847C116.288 32.425 115.766 32.9946 115.405 33.6492C115.043 34.3038 114.852 35.0257 114.845 35.759V35.7809C114.845 36.1407 114.936 36.4456 114.972 36.8438L115.506 41.4139C115.522 41.5465 115.571 41.6739 115.65 41.7861C115.729 41.8983 115.835 41.9923 115.96 42.0607C116.086 42.1291 116.226 42.17 116.372 42.1803C116.517 42.1905 116.663 42.1698 116.798 42.1198L121.38 40.4225C121.777 40.2989 122.167 40.1549 122.546 39.9913H122.564C123.378 39.5831 124.058 38.9827 124.532 38.2527ZM118.89 37.5854C118.499 37.3719 118.187 37.0575 117.993 36.6818C117.798 36.3062 117.73 35.8863 117.796 35.4751C117.863 35.064 118.061 34.6801 118.367 34.3721C118.672 34.064 119.07 33.8457 119.511 33.7446C119.952 33.6435 120.416 33.6643 120.844 33.8043C121.272 33.9442 121.645 34.1971 121.916 34.5309C122.187 34.8648 122.343 35.2645 122.366 35.6796C122.388 36.0948 122.275 36.5066 122.041 36.863C121.727 37.3401 121.219 37.6841 120.629 37.8195C120.038 37.9549 119.413 37.8707 118.89 37.5854Z" fill="#EBEBEB"/>
<path d="M50.1378 42.747L38.7943 45.0571L46.8027 77.915L58.1461 75.6049L50.1378 42.747Z" fill="#F5F5F5"/>
<path d="M50.1377 42.7495L44.4659 43.9045L52.4528 76.674L58.1245 75.5189L50.1377 42.7495Z" fill="#EBEBEB"/>
<path d="M43.3103 40.7528L39.3043 41.5686L40.0903 44.7935L44.0963 43.9777L43.3103 40.7528Z" fill="#F5F5F5"/>
<path d="M43.3094 40.7543L42.3534 40.949L43.1394 44.1739L44.0954 43.9792L43.3094 40.7543Z" fill="#EBEBEB"/>
<path d="M37.8512 45.2453L37.8062 45.0585L50.4252 42.4878L50.4703 42.6746" fill="#E0E0E0"/>
<path d="M42.3335 45.8145L41.3745 46.0098L41.8253 47.8595L42.7843 47.6642L42.3335 45.8145Z" fill="#FAFAFA"/>
<path d="M45.4407 47.8956C45.4407 47.9148 44.1788 48.1895 42.6134 48.5081C41.048 48.8267 39.7741 49.0574 39.7681 49.0574C39.7621 49.0574 41.03 48.7635 42.5954 48.4449C44.1607 48.1263 45.4346 47.8627 45.4407 47.8956Z" fill="#E0E0E0"/>
<path d="M48.062 44.6371L47.103 44.8325L47.5542 46.6822L48.5131 46.4867L48.062 44.6371Z" fill="#E0E0E0"/>
<path d="M51.1614 46.7173C51.1614 46.7366 49.8995 47.0112 48.3341 47.3298C46.7687 47.6484 45.4948 47.8928 45.4888 47.8791C45.4828 47.8654 46.7507 47.5852 48.3161 47.2666C49.8814 46.9481 51.1553 46.6981 51.1614 46.7173Z" fill="#E0E0E0"/>
<path d="M48.9575 48.3121L47.9985 48.5076L48.4497 50.3572L49.4086 50.1618L48.9575 48.3121Z" fill="#E0E0E0"/>
<path d="M52.0567 50.392C52.0567 50.4113 50.7948 50.6859 49.2295 51.0045C47.6641 51.3231 46.3902 51.5538 46.3842 51.5538C46.3782 51.5538 47.6461 51.2599 49.2114 50.9413C50.7768 50.6227 52.0507 50.3673 52.0567 50.392Z" fill="#E0E0E0"/>
<path d="M49.8813 52.0965L48.9224 52.292L49.3735 54.1416L50.3325 53.9462L49.8813 52.0965Z" fill="#E0E0E0"/>
<path d="M52.9791 54.1769C52.9791 54.1961 51.7172 54.4707 50.1518 54.7893C48.5865 55.1079 47.3125 55.3386 47.3065 55.3386C47.3005 55.3386 48.5684 55.0448 50.1338 54.7262C51.6992 54.4076 52.9731 54.1549 52.9791 54.1769Z" fill="#E0E0E0"/>
<path d="M50.8054 55.8817L49.8464 56.0771L50.2976 57.9268L51.2566 57.7313L50.8054 55.8817Z" fill="#E0E0E0"/>
<path d="M53.9015 57.9615C53.9015 57.9807 52.6396 58.2554 51.0742 58.574C49.5088 58.8925 48.2349 59.1232 48.2289 59.1232C48.2229 59.1232 49.4908 58.8294 51.0562 58.5108C52.6215 58.1922 53.8955 57.9423 53.9015 57.9615Z" fill="#E0E0E0"/>
<path d="M51.691 59.5708L50.7321 59.7661L51.1829 61.6158L52.1419 61.4205L51.691 59.5708Z" fill="#E0E0E0"/>
<path d="M54.7969 61.6279C54.7969 61.6472 53.538 61.9218 51.9696 62.2404C50.4012 62.559 49.1303 62.8034 49.1273 62.7897C49.1243 62.776 50.3862 62.4958 51.9546 62.1772C53.523 61.8586 54.7939 61.6279 54.7969 61.6279Z" fill="#E0E0E0"/>
<path d="M52.6038 63.2491L51.6449 63.4446L52.0961 65.2942L53.055 65.0988L52.6038 63.2491Z" fill="#E0E0E0"/>
<path d="M53.5029 67.0003L52.5439 67.1956L52.9948 69.0453L53.9537 68.85L53.5029 67.0003Z" fill="#E0E0E0"/>
<path d="M55.6982 65.3274C55.6982 65.3467 54.4363 65.6213 52.871 65.9427C51.3056 66.264 50.0317 66.4919 50.0257 66.4919C50.0196 66.4919 51.2876 66.1981 52.8529 65.8795C54.4183 65.5609 55.6922 65.3082 55.6982 65.3274Z" fill="#E0E0E0"/>
<path d="M43.2529 49.536L42.2939 49.7314L42.7451 51.5811L43.7041 51.3856L43.2529 49.536Z" fill="#FAFAFA"/>
<path d="M46.348 51.6116C46.348 51.6309 45.0891 51.9055 43.5208 52.2241C41.9524 52.5427 40.6815 52.7871 40.6785 52.7734C40.6755 52.7597 41.9374 52.4795 43.5057 52.1609C45.0741 51.8423 46.345 51.5924 46.348 51.6116Z" fill="#E0E0E0"/>
<path d="M44.1611 53.2643L43.2021 53.4597L43.6533 55.3094L44.6123 55.1139L44.1611 53.2643Z" fill="#FAFAFA"/>
<path d="M47.2585 55.3412C47.2585 55.3605 45.9966 55.6351 44.4313 55.9564C42.8659 56.2778 41.592 56.5057 41.586 56.5057C41.5799 56.5057 42.8479 56.2119 44.4132 55.8933C45.9786 55.5747 47.2525 55.311 47.2585 55.3412Z" fill="#E0E0E0"/>
<path d="M45.0694 56.996L44.1105 57.1914L44.5617 59.0411L45.5206 58.8456L45.0694 56.996Z" fill="#FAFAFA"/>
<path d="M48.1688 59.0736C48.1688 59.0928 46.9069 59.3675 45.3415 59.6861C43.7762 60.0047 42.5022 60.2354 42.4962 60.2354C42.4902 60.2354 43.7581 59.9415 45.3235 59.6229C46.8889 59.3043 48.1628 59.0516 48.1688 59.0736Z" fill="#E0E0E0"/>
<path d="M45.9728 60.7322L45.0138 60.9275L45.4646 62.7772L46.4236 62.5819L45.9728 60.7322Z" fill="#FAFAFA"/>
<path d="M49.0762 62.8035C49.0762 62.8228 47.8173 63.0974 46.2519 63.416C44.6866 63.7346 43.4096 63.9653 43.4066 63.9653C43.4036 63.9653 44.6655 63.6714 46.2339 63.3528C47.8023 63.0342 49.0732 62.7843 49.0762 62.8035Z" fill="#E0E0E0"/>
<path d="M46.8918 64.4527L45.9329 64.6482L46.384 66.4978L47.343 66.3024L46.8918 64.4527Z" fill="#FAFAFA"/>
<path d="M49.9866 66.533C49.9866 66.5522 48.7247 66.8269 47.1593 67.1455C45.594 67.4641 44.32 67.7085 44.317 67.6948C44.314 67.681 45.5759 67.4009 47.1413 67.0823C48.7067 66.7637 49.9806 66.5138 49.9866 66.533Z" fill="#E0E0E0"/>
<path d="M47.8001 68.1844L46.8412 68.3799L47.2924 70.2295L48.2513 70.0341L47.8001 68.1844Z" fill="#FAFAFA"/>
<path d="M68.4705 57.7689L51.5841 59.2471L53.717 79.6069L70.6034 78.1287L68.4705 57.7689Z" fill="#EBEBEB"/>
<path d="M68.4717 57.7667L60.5549 58.4597L62.6878 78.8196L70.6046 78.1266L68.4717 57.7667Z" fill="#E0E0E0"/>
<path d="M56.9345 61.5591L55.4152 61.6921L55.7683 65.0631L57.2877 64.9301L56.9345 61.5591Z" fill="#F5F5F5"/>
<path d="M58.3166 74.7593L56.7972 74.8923L57.1504 78.2633L58.6697 78.1303L58.3166 74.7593Z" fill="#F5F5F5"/>
<path d="M61.3347 65.9124C61.3347 65.9509 59.3337 66.1568 56.8579 66.3738C54.3822 66.5908 52.3721 66.7363 52.3511 66.6979C52.3301 66.6594 54.3521 66.4535 56.8279 66.2365C59.3036 66.0195 61.3317 65.874 61.3347 65.9124Z" fill="#F5F5F5"/>
<path d="M57.6309 68.2083L56.1116 68.3413L56.4647 71.7123L57.9841 71.5793L57.6309 68.2083Z" fill="#F5F5F5"/>
<path d="M62.0318 72.5616C62.0318 72.6 60.0308 72.806 57.555 73.023C55.0793 73.24 53.0662 73.3855 53.0482 73.3471C53.0302 73.3086 55.0492 73.1026 57.525 72.8857C60.0007 72.6687 62.0288 72.5231 62.0318 72.5616Z" fill="#F5F5F5"/>
<path d="M64.0454 60.9371L62.526 61.0701L62.8791 64.441L64.3985 64.308L64.0454 60.9371Z" fill="#F5F5F5"/>
<path d="M67.3354 60.6514L65.816 60.7844L66.1692 64.1554L67.6885 64.0224L67.3354 60.6514Z" fill="#F5F5F5"/>
<path d="M64.7123 67.3367L63.193 67.4697L63.5461 70.8407L65.0655 70.7077L64.7123 67.3367Z" fill="#F5F5F5"/>
<path d="M68.0084 67.0455L66.489 67.1785L66.8422 70.5494L68.3615 70.4164L68.0084 67.0455Z" fill="#F5F5F5"/>
<path d="M65.3826 73.7364L63.8633 73.8694L64.2164 77.2404L65.7358 77.1074L65.3826 73.7364Z" fill="#F5F5F5"/>
<path d="M68.6787 73.4449L67.1593 73.5779L67.5124 76.9489L69.0318 76.8159L68.6787 73.4449Z" fill="#F5F5F5"/>
<path d="M69.6656 56.9492L50.24 58.6497L50.317 59.3851L69.7426 57.6847L69.6656 56.9492Z" fill="#E0E0E0"/>
<path d="M68.5997 57.8514C68.5997 57.8899 64.835 58.2497 60.187 58.6562C55.539 59.0626 51.7533 59.3647 51.7502 59.3263C51.7472 59.2878 55.5179 58.9281 60.163 58.5216C64.808 58.1151 68.5967 57.813 68.5997 57.8514Z" fill="#EBEBEB"/>
<path d="M53.661 80.1996L38.0194 86.5192L27.0288 63.9515L42.6674 57.6318L53.661 80.1996Z" fill="#EBEBEB"/>
<path d="M42.665 57.6342L34.8436 60.7935L45.767 83.3901L53.5884 80.2308L42.665 57.6342Z" fill="#E0E0E0"/>
<path d="M32.1841 56.5537L26.6603 58.7849L28.811 63.2339L34.3348 61.0026L32.1841 56.5537Z" fill="#EBEBEB"/>
<path d="M32.1849 56.5527L30.8685 57.0845L33.0192 61.5335L34.3356 61.0017L32.1849 56.5527Z" fill="#E0E0E0"/>
<path d="M42.9994 57.1917L25.5979 64.2207L25.723 64.4795L43.1245 57.4504L42.9994 57.1917Z" fill="#E0E0E0"/>
<path d="M32.372 64.1122L31.0474 64.6472L32.2812 67.1995L33.6058 66.6645L32.372 64.1122Z" fill="white"/>
<path d="M37.5027 66.2969C37.5177 66.3244 35.7751 67.055 33.6178 67.9256C31.4606 68.7962 29.7119 69.4856 29.6819 69.4581C29.6519 69.4307 31.4095 68.7028 33.5698 67.8295C35.73 66.9561 37.4907 66.2585 37.5027 66.2969Z" fill="#E0E0E0"/>
<path d="M40.2624 60.9261L38.9377 61.4612L40.1716 64.0135L41.4962 63.4785L40.2624 60.9261Z" fill="#F5F5F5"/>
<path d="M45.3927 63.0972C45.3927 63.1247 43.665 63.8525 41.5048 64.7259C39.3445 65.5993 37.5989 66.2831 37.5718 66.2557C37.5448 66.2282 39.2995 65.5004 41.4597 64.627C43.62 63.7536 45.3776 63.0698 45.3927 63.0972Z" fill="#EBEBEB"/>
<path d="M42.7101 65.9903L41.3855 66.5254L42.6193 69.0777L43.9439 68.5427L42.7101 65.9903Z" fill="#F5F5F5"/>
<path d="M47.8414 68.1646C47.8414 68.1921 46.1138 68.9199 43.9535 69.7933C41.7932 70.6667 40.0476 71.3505 40.0206 71.3231C39.9935 71.2956 41.7482 70.5678 43.9084 69.6944C46.0687 68.821 47.8294 68.1372 47.8414 68.1646Z" fill="#EBEBEB"/>
<path d="M45.236 71.212L43.9114 71.7471L45.1452 74.2994L46.4698 73.7643L45.236 71.212Z" fill="#F5F5F5"/>
<path d="M50.3651 73.3829C50.3651 73.4103 48.6375 74.1382 46.4772 75.0115C44.3169 75.8849 42.5563 76.5688 42.5443 76.5413C42.5322 76.5139 44.2719 75.786 46.4321 74.9127C48.5924 74.0393 50.35 73.3554 50.3651 73.3829Z" fill="#EBEBEB"/>
<path d="M47.7549 76.4325L46.4303 76.9675L47.6641 79.5199L48.9887 78.9848L47.7549 76.4325Z" fill="#F5F5F5"/>
<path d="M52.889 78.6011C52.889 78.6286 51.1614 79.3592 49.0011 80.2298C46.8409 81.1004 45.0802 81.787 45.0682 81.7623C45.0562 81.7376 46.7958 81.0043 48.9561 80.1337C51.1163 79.263 52.874 78.5737 52.889 78.6011Z" fill="#EBEBEB"/>
<path d="M34.8609 69.255L33.5363 69.79L34.7701 72.3424L36.0947 71.8073L34.8609 69.255Z" fill="white"/>
<path d="M39.9904 71.4273C39.9904 71.4548 38.2628 72.1826 36.1026 73.056C33.9423 73.9293 32.1967 74.6132 32.1696 74.5885C32.1426 74.5638 33.8972 73.8305 36.0575 72.9598C38.2178 72.0892 39.9784 71.3998 39.9904 71.4273Z" fill="#E0E0E0"/>
<path d="M37.344 74.4017L36.0194 74.9368L37.2532 77.4891L38.5779 76.954L37.344 74.4017Z" fill="white"/>
<path d="M42.4782 76.5714C42.4782 76.5988 40.7506 77.3266 38.5904 78.2C36.4301 79.0734 34.6694 79.7573 34.6574 79.7298C34.6454 79.7023 36.385 78.9745 38.5423 78.1011C40.6995 77.2278 42.4632 76.5439 42.4782 76.5714Z" fill="#E0E0E0"/>
<path d="M39.8329 79.5472L38.5083 80.0823L39.7421 82.6346L41.0667 82.0995L39.8329 79.5472Z" fill="white"/>
<path d="M44.9629 81.7156C44.9629 81.7431 43.2383 82.4709 41.078 83.3443C38.9178 84.2177 37.1571 84.9015 37.1451 84.8741C37.1331 84.8466 38.8697 84.1188 41.0299 83.2454C43.1902 82.372 44.9509 81.6772 44.9629 81.7156Z" fill="#E0E0E0"/>
<path d="M110.128 74.8907L103.72 81.7569C103.687 81.792 103.662 81.8327 103.646 81.8767C103.63 81.9208 103.624 81.9672 103.628 82.0134C103.632 82.0596 103.645 82.1046 103.669 82.1459C103.692 82.1872 103.723 82.2239 103.762 82.254L119.545 94.5444C119.583 94.5749 119.628 94.5981 119.677 94.6126C119.725 94.627 119.777 94.6325 119.828 94.6287C119.878 94.6248 119.928 94.6117 119.973 94.5902C120.019 94.5687 120.059 94.5391 120.092 94.5032L122.402 91.9572C122.453 91.8992 122.483 91.8283 122.489 91.754L122.805 87.2306C122.809 87.1764 122.799 87.1222 122.776 87.0721C122.753 87.022 122.717 86.9775 122.672 86.9422L120.083 84.8933C120.006 84.8323 119.959 84.7461 119.951 84.6535C119.944 84.5609 119.977 84.4694 120.043 84.399L121.011 83.358C121.044 83.3232 121.069 83.2827 121.085 83.2389C121.101 83.195 121.107 83.1488 121.103 83.1028C121.099 83.0569 121.085 83.0121 121.062 82.971C121.039 82.93 121.007 82.8935 120.969 82.8637L110.687 74.8522C110.649 74.8198 110.603 74.795 110.553 74.7793C110.504 74.7636 110.451 74.7574 110.399 74.761C110.346 74.7646 110.295 74.778 110.249 74.8003C110.202 74.8226 110.161 74.8533 110.128 74.8907Z" fill="#F5F5F5"/>
<path d="M119.95 85.8381L117.895 88.0353C117.86 88.0753 117.843 88.1264 117.848 88.1776C117.853 88.2289 117.879 88.2764 117.922 88.31L121.456 90.9658C121.486 90.9886 121.524 91.0035 121.563 91.0088C121.602 91.0141 121.642 91.0096 121.679 90.9958C121.716 90.9821 121.748 90.9596 121.772 90.9306C121.796 90.9017 121.811 90.8673 121.816 90.8312L122.249 87.3871C122.253 87.3538 122.248 87.3201 122.234 87.2889C122.221 87.2578 122.199 87.2302 122.171 87.2086L120.272 85.8107C120.249 85.7921 120.223 85.778 120.194 85.7692C120.165 85.7605 120.135 85.7573 120.104 85.7599C120.074 85.7625 120.045 85.7708 120.018 85.7842C119.992 85.7977 119.969 85.816 119.95 85.8381Z" fill="#EBEBEB"/>
<path d="M119.949 95.2247L102.964 81.9917L102.517 82.4704L119.503 95.7034L119.949 95.2247Z" fill="#F5F5F5"/>
<path d="M108.404 86.5549C108.121 86.8589 107.745 87.0793 107.325 87.1882C106.905 87.2972 106.459 87.2898 106.043 87.167C105.627 87.0441 105.261 86.8114 104.99 86.4982C104.719 86.185 104.556 85.8054 104.521 85.4074C104.486 85.0094 104.581 84.6109 104.794 84.2623C105.007 83.9136 105.328 83.6305 105.717 83.4488C106.106 83.267 106.545 83.1948 106.979 83.2412C107.413 83.2876 107.822 83.4506 108.154 83.7095C108.375 83.8812 108.557 84.091 108.69 84.327C108.822 84.5631 108.902 84.8206 108.925 85.0849C108.948 85.3492 108.914 85.6151 108.825 85.8673C108.735 86.1196 108.592 86.3532 108.404 86.5549Z" fill="#EBEBEB"/>
<path d="M107.713 86.0166C107.546 86.1959 107.325 86.3259 107.077 86.3902C106.83 86.4546 106.567 86.4503 106.322 86.3781C106.077 86.3058 105.861 86.1687 105.701 85.9842C105.542 85.7997 105.445 85.5761 105.425 85.3416C105.404 85.1071 105.46 84.8722 105.586 84.6668C105.711 84.4613 105.9 84.2945 106.129 84.1874C106.359 84.0804 106.617 84.0378 106.873 84.0652C107.129 84.0926 107.37 84.1887 107.566 84.3413C107.828 84.5457 107.991 84.837 108.018 85.1511C108.046 85.4653 107.936 85.7766 107.713 86.0166Z" fill="#FAFAFA"/>
<path d="M114.323 90.4906C114.281 90.4576 115.795 88.7713 117.703 86.7251C119.611 84.679 121.191 83.0476 121.233 83.0806C121.275 83.1135 119.764 84.7999 117.856 86.846C115.948 88.8921 114.368 90.5235 114.323 90.4906Z" fill="#EBEBEB"/>
<path d="M117.556 93.6876C117.272 93.9914 116.896 94.2115 116.476 94.3201C116.056 94.4287 115.61 94.4209 115.194 94.2977C114.779 94.1746 114.412 93.9415 114.142 93.6281C113.871 93.3146 113.708 92.9349 113.674 92.5368C113.64 92.1388 113.735 91.7403 113.948 91.3919C114.162 91.0434 114.483 90.7606 114.872 90.5792C115.261 90.3978 115.701 90.326 116.134 90.3728C116.568 90.4196 116.977 90.583 117.309 90.8422C117.53 91.0139 117.712 91.2238 117.845 91.4599C117.977 91.696 118.057 91.9537 118.079 92.2181C118.102 92.4825 118.068 92.7484 117.978 93.0006C117.888 93.2528 117.745 93.4862 117.556 93.6876Z" fill="#EBEBEB"/>
<path d="M116.865 93.1491C116.698 93.3272 116.477 93.4561 116.23 93.5195C115.983 93.5829 115.721 93.5779 115.477 93.5053C115.233 93.4326 115.018 93.2955 114.859 93.1113C114.701 92.9271 114.605 92.704 114.585 92.4702C114.565 92.2364 114.621 92.0025 114.746 91.7978C114.871 91.5932 115.06 91.427 115.289 91.3204C115.517 91.2138 115.775 91.1714 116.03 91.1987C116.285 91.226 116.525 91.3217 116.72 91.4738C116.85 91.575 116.957 91.6987 117.035 91.8377C117.113 91.9767 117.159 92.1284 117.173 92.2841C117.186 92.4397 117.166 92.5962 117.113 92.7447C117.06 92.8931 116.976 93.0306 116.865 93.1491Z" fill="#FAFAFA"/>
<path d="M118.523 89.5486C118.487 89.587 118.223 89.4305 117.922 89.1998C117.622 88.9691 117.411 88.7493 117.448 88.7109C117.484 88.6724 117.748 88.829 118.048 89.0597C118.349 89.2904 118.559 89.5101 118.523 89.5486Z" fill="#EBEBEB"/>
<path d="M15.8881 73.023C15.4049 72.4374 14.7804 71.9616 14.0631 71.6326C13.3459 71.3036 12.5553 71.1304 11.7528 71.1263C10.9504 71.1222 10.1577 71.2875 9.43654 71.6092C8.71535 71.9309 8.0851 72.4003 7.59481 72.981C7.10452 73.5617 6.76742 74.238 6.60974 74.9572C6.45206 75.6765 6.47806 76.4193 6.6857 77.1278C6.89335 77.8364 7.27705 78.4916 7.80694 79.0425C8.33684 79.5933 8.99863 80.025 9.74084 80.3039H9.76487C10.1284 80.4412 10.4739 80.4769 10.8886 80.5978L15.7259 81.8529C15.8658 81.8893 16.013 81.8957 16.156 81.8715C16.299 81.8473 16.434 81.7932 16.5503 81.7134C16.6667 81.6337 16.7613 81.5304 16.8268 81.4116C16.8922 81.2929 16.9268 81.1619 16.9277 81.029V76.5083C16.951 76.125 16.951 75.7408 16.9277 75.3575V75.341C16.8135 74.4974 16.4546 73.6971 15.8881 73.023ZM13.1089 77.5574C12.7467 77.8077 12.3114 77.9541 11.8582 77.9782C11.4049 78.0023 10.954 77.903 10.5625 77.6928C10.171 77.4826 9.85648 77.171 9.6587 76.7975C9.46092 76.4239 9.38878 76.0051 9.4514 75.594C9.51402 75.183 9.70859 74.7981 10.0105 74.4881C10.3124 74.1781 10.7081 73.957 11.1475 73.8526C11.587 73.7482 12.0504 73.7653 12.4792 73.9016C12.908 74.038 13.2829 74.2875 13.5566 74.6187C13.9235 75.0627 14.0824 75.6217 13.9985 76.1728C13.9145 76.7239 13.5945 77.222 13.1089 77.5574Z" fill="#F5F5F5"/>
<path d="M30.9108 16.2919C30.5974 15.3365 30.047 14.46 29.3026 13.7307C28.5581 13.0014 27.6397 12.439 26.6186 12.0871C25.5976 11.7352 24.5015 11.6034 23.4156 11.7019C22.3298 11.8003 21.2834 12.1265 20.3579 12.6549C19.4325 13.1834 18.6528 13.8999 18.0797 14.7486C17.5065 15.5974 17.1553 16.5557 17.0534 17.5488C16.9514 18.5419 17.1015 19.5431 17.4919 20.4745C17.8823 21.406 18.5025 22.2425 19.3043 22.9191L19.3313 22.9384C19.7249 23.2679 20.1455 23.4657 20.6142 23.7953L26.1366 27.481C26.2972 27.5876 26.4827 27.6586 26.6784 27.6884C26.8742 27.7182 27.0749 27.706 27.2646 27.6527C27.4543 27.5995 27.6279 27.5066 27.7715 27.3815C27.9152 27.2563 28.0251 27.1024 28.0925 26.9317L30.4181 21.1641C30.6479 20.6858 30.8485 20.1962 31.019 19.6975V19.6756C31.3139 18.5591 31.2766 17.3908 30.9108 16.2919ZM25.0009 20.8703C24.4098 21.0336 23.7791 21.033 23.1884 20.8686C22.5978 20.7042 22.0737 20.3834 21.6825 19.9467C21.2913 19.5101 21.0505 18.9772 20.9907 18.4154C20.9308 17.8537 21.0545 17.2883 21.3462 16.7908C21.6378 16.2934 22.0843 15.8861 22.6291 15.6206C23.174 15.3551 23.7928 15.2433 24.4072 15.2992C25.0216 15.3552 25.604 15.5764 26.0808 15.935C26.5577 16.2935 26.9075 16.7733 27.086 17.3136C27.3254 18.038 27.2402 18.8196 26.8492 19.4866C26.4581 20.1536 25.7933 20.6513 25.0009 20.8703Z" fill="#EBEBEB"/>
<path d="M68.182 12.0816C68.3232 11.1533 66.8871 10.387 65.8084 10.3074C65.2947 10.2717 64.7599 10.3431 64.2731 10.1865C63.2185 9.85146 62.7949 8.60456 61.7643 8.20632C60.9952 7.9097 60.1088 8.17336 59.3607 8.51667C58.6126 8.85998 57.8765 9.29392 57.0412 9.34061C56.3171 9.38181 55.5389 9.13737 54.893 9.45871C54.4212 9.7004 54.1719 10.2003 53.7362 10.4941C53.285 10.7478 52.7635 10.8774 52.2339 10.8677C51.7029 10.8571 51.1742 10.9362 50.6746 11.1011C50.1939 11.3016 49.7942 11.7685 49.8934 12.2436L68.182 12.0816Z" fill="#EBEBEB"/>
<path d="M25.8781 48.5134C25.779 47.912 24.7334 47.6758 24.0454 47.8048C23.7288 47.9038 23.3996 47.9647 23.0659 47.9861C22.3418 47.9532 21.831 47.2473 21.1099 47.1622C20.5721 47.1045 20.0704 47.4176 19.6768 47.7554C19.2832 48.0932 18.9076 48.486 18.3968 48.6563C17.9552 48.8046 17.4144 48.7826 17.0839 49.0902C16.8375 49.3182 16.7834 49.6697 16.5701 49.9279C16.3392 50.1625 16.0385 50.3304 15.7048 50.4113C15.3721 50.4925 15.0591 50.6304 14.7824 50.8177C14.6457 50.9134 14.5466 51.0471 14.5 51.1986C14.4534 51.3501 14.4619 51.5114 14.524 51.6581L25.8781 48.5134Z" fill="#F5F5F5"/>
<path d="M111.132 58.4723C111.381 57.6978 110.267 56.8793 109.359 56.6871C108.927 56.5937 108.458 56.5937 108.07 56.4124C107.22 56.0032 107.034 54.8936 106.213 54.4377C105.613 54.0944 104.81 54.2153 104.125 54.4212C103.44 54.6272 102.755 54.9074 102.04 54.8524C101.418 54.803 100.781 54.5036 100.195 54.7041C99.7597 54.8552 99.4803 55.2534 99.0687 55.4484C98.6467 55.6143 98.181 55.6639 97.7287 55.5912C97.2788 55.5197 96.8182 55.5253 96.3706 55.6077C96.148 55.6544 95.9478 55.7654 95.7995 55.9241C95.6513 56.0829 95.5629 56.2811 95.5474 56.4893L111.132 58.4723Z" fill="#F5F5F5"/>
<path d="M98.7321 119.757C98.6811 119.117 99.27 118.549 99.9189 118.274C100.568 117.999 101.298 117.906 101.965 117.659C102.229 117.557 102.524 117.384 102.533 117.126C102.533 116.741 101.947 116.577 101.794 116.228C101.632 115.824 102.094 115.45 102.281 115.055C102.695 114.157 101.662 113.251 100.658 112.883C99.6545 112.515 98.4587 112.251 97.993 111.372C97.8225 110.949 97.7134 110.508 97.6685 110.059C97.4342 108.961 96.5328 107.878 95.298 107.694C94.0631 107.51 92.672 108.518 92.8733 109.617C92.9965 110.232 93.5012 110.716 93.7747 111.265C94.0481 111.814 93.979 112.677 93.33 112.861C92.2664 113.154 91.2418 111.394 90.3495 111.998C90.716 113.127 91.0706 114.253 91.4341 115.39C90.037 116.033 88.3635 114.868 87.7656 113.547C87.1677 112.226 87.1466 110.735 86.4376 109.469C85.7285 108.203 83.8116 107.252 82.5948 108.15C82.5347 109.782 84.9173 110.441 85.9719 111.762C86.732 112.715 86.6208 114.264 85.4941 114.868C84.3674 115.472 82.6068 114.421 83.0304 113.311C83.1836 112.926 83.5382 112.605 83.5772 112.19C83.6193 111.68 83.1416 111.265 82.7059 110.935C82.0269 110.413 81.3479 109.9 80.6688 109.386C80.2517 109.025 79.7591 108.745 79.2207 108.562C77.8205 108.194 76.4234 109.221 75.6813 110.35C74.9392 111.479 74.5276 112.822 73.503 113.759C72.0338 115.132 69.2456 115.217 67.8665 113.778C66.4874 112.339 67.1875 109.658 69.2246 109.123C69.9967 108.93 70.9672 108.947 71.3758 108.332C72.0849 107.233 70.0568 105.86 70.7569 104.761C71.2917 103.918 72.7128 104.303 73.7464 104.017C74.78 103.731 75.3478 102.797 75.9547 101.993C76.5616 101.188 77.4961 100.389 78.5507 100.598C78.4695 100.048 78.3884 99.4358 78.6618 98.9305C78.9352 98.4251 79.7074 98.0873 80.2122 98.4169C79.6954 99.1886 80.3143 100.26 81.2157 100.644C82.117 101.029 83.1716 100.938 84.1661 100.837C85.1606 100.735 86.4075 100.397 86.4886 99.499C86.5187 99.2051 86.3955 98.8948 86.5187 98.6201C86.9543 97.5462 89.1447 99.0211 89.9859 98.1614C90.4727 97.711 89.9349 96.9145 89.2558 96.7662C88.5768 96.6179 87.8857 96.8404 87.1977 96.8596C86.5097 96.8788 85.6654 96.5575 85.6354 95.9341C85.6053 95.3106 86.3655 94.8794 86.4466 94.2862C86.5788 93.259 84.6439 92.9926 83.9738 93.8275C83.3038 94.6624 83.5382 95.8077 83.7395 96.8239C83.9408 97.8401 84.055 99.0431 83.2227 99.7571C82.8682 100.243 81.9458 99.9878 81.6423 99.4825C81.3389 98.9771 81.399 98.3455 81.3419 97.7687C81.2848 97.1919 81.0084 96.5218 80.3804 96.3653C79.9448 96.2554 79.4791 96.4476 79.0314 96.5026C77.2677 96.6948 76.0419 94.6322 76.5977 93.1107C77.1535 91.5891 78.7459 90.6004 80.2993 89.8149C81.435 89.2464 82.8441 88.7163 83.9678 89.2931C84.4936 89.5677 84.8692 90.0154 85.377 90.2928C86.2783 90.7679 87.375 90.5949 88.3965 90.6114C90.0157 90.6519 91.5711 91.1975 92.8042 92.1577C93.2609 92.5339 93.6845 93.1574 93.33 93.6078C92.9754 94.0582 91.8427 94.1846 92.035 94.7448C93.2368 95.1019 94.658 94.2669 94.7902 93.1409C95.0831 93.2598 95.3361 93.4479 95.5231 93.6859C95.71 93.9239 95.8242 94.2032 95.8538 94.4949C97.1427 93.3139 99.6155 93.487 100.661 94.8547C100.943 95.2117 101.148 95.6429 101.562 95.8901C101.977 96.1373 102.677 96.0082 102.728 95.577C102.737 95.4384 102.709 95.2999 102.647 95.1733C102.404 94.5498 102.151 93.9374 101.908 93.3222C102.848 92.8635 103.963 93.5803 104.612 94.3493C106.983 97.2194 108.677 95.4946 112.021 95.9615C114.284 96.2746 115.275 97.5847 116.552 99.1694C120.458 104.047 125.635 108.043 129.192 113.141C129.568 113.671 129.913 114.212 130.238 114.761C130.178 114.624 130.127 114.486 130.063 114.349C128.673 111.039 126.942 107.856 124.896 104.844C124.46 104.204 124.012 103.569 123.559 102.946C123.273 102.561 122.979 102.169 122.684 101.792C122.312 101.298 121.915 100.82 121.519 100.345C121.218 99.9576 120.891 99.5841 120.566 99.2161C120.344 98.9607 120.109 98.7025 119.878 98.4471C119.647 98.1917 119.37 97.8703 119.088 97.5847L118.235 96.6948C118.153 96.6042 118.063 96.5136 117.961 96.4202C117.661 96.1098 117.36 95.8077 117.039 95.5056C117.017 95.4686 116.986 95.4366 116.949 95.4122C116.868 95.3298 116.777 95.2474 116.684 95.165C116.432 94.9096 116.158 94.6597 115.894 94.4125C115.458 94.0115 115.011 93.6078 114.557 93.2233C114.181 92.8827 113.797 92.5614 113.4 92.2401C113.055 91.9654 112.712 91.6743 112.358 91.3969C112.003 91.1195 111.667 90.8476 111.312 90.5922C110.886 90.2626 110.45 89.9413 110.005 89.6199C108.779 88.7301 107.516 87.8896 106.216 87.0987C105.892 86.8982 105.576 86.7059 105.252 86.5137C104.927 86.3214 104.594 86.1264 104.27 85.9451C103.945 85.7639 103.612 85.5689 103.275 85.3958C102.938 85.2228 102.608 85.0306 102.271 84.8466C101.998 84.6982 101.737 84.5719 101.46 84.4318C101.327 84.3549 101.188 84.2852 101.046 84.2231C100.469 83.9292 99.8799 83.6436 99.291 83.3799C98.9905 83.2426 98.7051 83.1053 98.3896 82.9762C98.0171 82.8004 97.6295 82.6356 97.2449 82.4818C97.1905 82.4522 97.1332 82.4274 97.0736 82.4077C96.7281 82.2594 96.3856 82.1138 96.0281 81.9765C95.5323 81.7842 95.0366 81.592 94.5258 81.408C93.9579 81.1965 93.3901 80.9878 92.8102 80.7928C92.1732 80.573 91.5333 80.3643 90.8843 80.1721C90.2353 79.9798 89.5773 79.7766 88.9193 79.5926C88.2613 79.4085 87.6003 79.2438 86.9303 79.079C85.6143 78.7604 84.2773 78.4747 82.9283 78.2276C82.9038 78.2224 82.8798 78.216 82.8562 78.2083C82.3394 78.1177 81.8226 78.0271 81.3058 77.9529C81.2726 77.9434 81.2383 77.9369 81.2037 77.9337C80.9813 77.898 80.75 77.8623 80.5156 77.8348C79.5512 77.6865 78.5807 77.5602 77.5952 77.4668C77.4778 77.4489 77.3595 77.4369 77.2407 77.4311C76.9582 77.3926 76.6728 77.3761 76.3784 77.3487C75.7324 77.2938 75.0834 77.2471 74.4224 77.2114C73.7614 77.1757 73.0554 77.1372 72.3643 77.118C71.6733 77.0988 70.9251 77.0823 70.207 77.0823C68.3022 77.0823 66.4163 77.1583 64.5495 77.3102C64.1048 77.3377 63.6692 77.3762 63.2335 77.4201C62.7979 77.464 62.3321 77.5135 61.8634 77.5684C61.3947 77.6233 60.9621 77.6783 60.5054 77.7414C60.0487 77.8046 59.604 77.8705 59.1473 77.9447C58.7628 77.9996 58.3662 78.0628 57.9816 78.1369C57.0291 78.3017 56.0857 78.483 55.1543 78.6862C54.7187 78.7768 54.283 78.8785 53.8473 78.9883C53.4117 79.0982 52.973 79.1998 52.5494 79.3097C51.8283 79.4937 51.1282 79.6942 50.4312 79.8947C49.8633 80.0704 49.2864 80.2435 48.7306 80.4192C48.715 80.4206 48.7003 80.4264 48.6885 80.4357C48.1117 80.6197 47.5528 80.812 46.985 81.0152L46.8948 81.0427C46.378 81.224 45.8613 81.4162 45.3535 81.6112C44.7135 81.8474 44.0856 82.1056 43.4667 82.361C42.9409 82.5807 42.4241 82.8004 41.9163 83.0311C41.4085 83.2618 40.8227 83.5255 40.2848 83.7809L40.2248 83.8111C39.708 84.0583 39.1912 84.3137 38.6834 84.5801C38.1757 84.8466 37.6408 85.1294 37.1241 85.4041C36.6373 85.6787 36.1626 85.9342 35.6849 86.2088C35.5016 86.3104 35.3304 86.4203 35.1471 86.5301C34.6423 86.824 34.1556 87.1261 33.6448 87.4365C33.0439 87.8127 32.443 88.2082 31.8631 88.601C31.3433 88.9498 30.8386 89.3068 30.3398 89.6639C27.4755 91.7328 24.8108 94.0226 22.3748 96.5081C21.5125 97.3677 20.7013 98.2493 19.9111 99.1474C19.2411 99.9164 18.5921 100.696 17.9731 101.504C18.1354 101.485 18.3006 101.465 18.4599 101.457C19.3612 101.394 20.3377 101.422 21.164 101.062C21.9241 100.724 22.4619 100.109 23.15 99.6693C24.9136 98.5322 27.804 98.3207 28.2787 96.4147C28.441 95.7748 28.2487 95.0772 28.5131 94.4619C29.0088 93.3167 30.7034 93.1519 32.0614 93.1711C32.6383 93.1711 33.3173 93.2453 33.5817 93.7012C33.774 94.0225 33.6628 94.4262 33.5186 94.7668C32.6653 96.9277 31.0225 98.7534 28.8676 99.9357C27.1039 100.908 24.8025 101.658 24.3157 103.473C24.5591 104.088 25.797 104.042 25.8961 104.684C25.9682 105.195 25.2381 105.462 24.9737 105.92C24.5891 106.59 25.4725 107.406 26.3137 107.368C27.155 107.329 27.8551 106.783 28.471 106.269C30.3158 104.72 32.2537 103.05 32.9207 100.853C33.2212 99.9439 33.3083 98.881 34.1225 98.2768C35.087 97.56 36.8116 98.0571 37.1271 99.1474C37.9263 98.7437 39.1732 98.4416 39.5878 99.1941C39.732 99.4688 39.6899 99.7709 39.7621 100.054C40.0235 101.227 41.7991 101.759 41.9824 102.94C42.1927 104.314 40.2578 105.014 38.7465 105.225C37.3795 105.418 36.0094 105.61 34.6423 105.81C34.0397 105.85 33.4558 106.019 32.9387 106.305C32.452 106.634 32.1486 107.258 32.431 107.744C32.6379 107.99 32.877 108.213 33.1431 108.406C34.2788 109.43 33.3444 111.548 31.7429 111.594C31.1961 111.614 30.6583 111.43 30.1115 111.41C28.489 111.347 27.2031 112.638 26.4309 113.932C25.6587 115.225 25.0819 116.7 23.7869 117.579C21.6837 118.999 18.0993 118.678 17.0868 120.853C16.6812 121.732 16.8915 122.72 17.0537 123.665C17.0808 123.813 17.1018 123.967 17.1229 124.121H61.6802C62.6086 123.783 63.6151 123.533 64.4083 122.995C66.235 121.759 66.4784 119.403 67.6292 117.623C68.7799 115.843 72.3733 115.093 72.9141 117.107C76.7239 109.735 85.1426 120.677 90.1482 119.853C91.6024 119.614 93.0205 118.982 94.4837 119.169C97.0045 119.488 98.3355 121.94 99.2159 124.113H101.319C101.079 123.349 101.091 122.509 100.601 121.861C100.015 121.114 98.8133 120.677 98.7321 119.757ZM64.7508 87.0327C64.3572 87.8567 64.5345 88.8948 63.9306 89.6144C63.4498 90.1829 62.6176 90.3862 61.8484 90.551L57.0051 91.5919C56.2792 91.7132 55.5773 91.9336 54.923 92.2455C53.655 92.9322 52.979 94.2285 51.9995 95.2282C51.0201 96.2279 49.2654 96.9448 48.1087 96.1126C47.8463 95.896 47.6342 95.6334 47.4851 95.3404C47.3359 95.0474 47.2527 94.73 47.2404 94.407C47.1528 93.4778 47.3951 92.5474 47.9314 91.7539C48.4812 90.93 49.3255 90.301 49.7912 89.4469C50.2569 88.5927 50.1638 87.3376 49.1903 86.9366C48.6735 86.7196 48.0215 86.8048 47.5618 86.4999C46.7356 85.9506 47.3275 84.6488 48.2859 84.3192C49.2444 83.9897 50.311 84.2478 51.3355 84.3055C55.0461 84.5197 57.7773 82.3225 60.5685 80.4961C62.7408 79.0762 67.3648 77.3981 69.8826 78.8483C70.8831 79.4278 71.2767 80.9163 70.3332 81.57C69.9096 81.8611 69.3267 81.9271 68.9331 82.2511C68.4614 82.6411 68.3953 83.2783 68.1249 83.8029C67.4309 85.1596 65.4028 85.654 64.7508 87.0327Z" fill="#455A64"/>
<g opacity="0.3">
<path opacity="0.3" d="M63.9306 89.6143C64.5315 88.8947 64.3572 87.8648 64.7508 87.0326C65.4028 85.6594 67.4309 85.1595 68.1339 83.8028C68.4044 83.2782 68.4705 82.641 68.9422 82.251C69.3358 81.9269 69.9186 81.861 70.3423 81.5699C71.2857 80.9162 70.8921 79.4277 69.8916 78.8482C67.3798 77.398 62.7558 79.0761 60.5775 80.496C57.7863 82.3224 55.0552 84.5196 51.3446 84.3054C50.32 84.2477 49.2564 83.9923 48.295 84.3191C47.3335 84.646 46.7446 85.9478 47.5709 86.4998C48.0306 86.8047 48.6826 86.7195 49.1993 86.9365C50.1578 87.3375 50.2539 88.5844 49.8003 89.4468C49.3466 90.3092 48.4903 90.9409 47.9404 91.7538C47.4042 92.5473 47.1618 93.4776 47.2494 94.4069C47.2617 94.7299 47.3449 95.0473 47.4941 95.3403C47.6433 95.6333 47.8553 95.8959 48.1177 96.1125C49.2745 96.9364 51.0321 96.2306 52.0086 95.2281C52.9851 94.2256 53.6641 92.9321 54.932 92.2454C55.5863 91.9335 56.2882 91.7131 57.0142 91.5918L61.8575 90.5509C62.6176 90.3861 63.4499 90.1911 63.9306 89.6143Z" fill="black"/>
<path opacity="0.3" d="M94.4838 119.172C93.0206 118.985 91.6025 119.617 90.1483 119.856C85.1427 120.68 76.724 109.727 72.9143 117.109C72.3825 115.104 68.78 115.86 67.6293 117.639C66.4785 119.419 66.2352 121.775 64.4084 123.011C63.6152 123.561 62.6057 123.8 61.6803 124.137H99.216C98.3357 121.943 97.0107 119.49 94.4838 119.172Z" fill="black"/>
<path opacity="0.3" d="M41.9794 102.946C41.7961 101.765 40.0204 101.232 39.759 100.059C39.6869 99.7845 39.729 99.4631 39.5848 99.1995C39.1701 98.4469 37.9233 98.7491 37.1241 99.1528C36.7996 98.0542 35.075 97.5653 34.1195 98.2821C33.3113 98.8864 33.2182 99.9493 32.9177 100.858C32.2507 103.056 30.3128 104.725 28.468 106.274C27.8671 106.788 27.152 107.337 26.3107 107.373C25.4694 107.409 24.5861 106.596 24.9707 105.926C25.2351 105.467 25.9652 105.201 25.8931 104.69C25.7939 104.047 24.5561 104.094 24.3127 103.478C24.7994 101.663 27.1009 100.913 28.8646 99.941C31.0195 98.7587 32.6623 96.9331 33.5156 94.7722C33.6598 94.4316 33.771 94.0279 33.5787 93.7065C33.3143 93.2506 32.6353 93.1765 32.0584 93.1765C30.7004 93.1572 29.0058 93.322 28.51 94.4673C28.2456 95.0825 28.4379 95.7801 28.2757 96.42C27.801 98.3261 24.9106 98.5376 23.1469 99.6746C22.4589 100.114 21.9211 100.729 21.1609 101.067C20.3407 101.427 19.3762 101.399 18.4569 101.463C18.2976 101.463 18.1324 101.49 17.9701 101.509C17.4173 102.203 16.8815 102.916 16.3627 103.649C15.8439 104.381 15.3431 105.118 14.8604 105.86C12.5723 109.4 10.7106 113.156 9.30803 117.063C8.81128 118.434 8.37262 119.826 7.99204 121.24C7.73566 122.192 7.50731 123.154 7.30701 124.126H7.60746C7.80876 123.489 7.95899 122.852 8.08518 122.297C8.11823 122.157 8.14828 122.023 8.17832 121.894C8.51483 120.52 9.01058 119.062 10.1974 118.134C11.3842 117.205 13.4633 117.106 14.3857 118.254C15.0437 119.078 14.8935 120.207 14.7222 121.215C14.551 122.223 14.3857 123.149 14.2144 124.126H17.1198C17.0988 123.973 17.0778 123.819 17.0507 123.671C16.8885 122.726 16.6782 121.748 17.0838 120.858C18.0963 118.661 21.6957 119.004 23.7839 117.584C25.0789 116.705 25.6587 115.228 26.4279 113.937C27.1971 112.646 28.486 111.353 30.1085 111.416C30.6553 111.435 31.1931 111.619 31.7399 111.6C33.3413 111.553 34.2758 109.436 33.14 108.411C32.874 108.218 32.6348 107.996 32.428 107.749C32.1455 107.263 32.449 106.651 32.9357 106.31C33.4528 106.024 34.0367 105.855 34.6393 105.816C36.0064 105.615 37.3764 105.423 38.7435 105.231C40.2548 105.022 42.1897 104.313 41.9794 102.946Z" fill="black"/>
<path opacity="0.3" d="M131.863 119.235C131.623 118.48 131.37 117.73 131.1 116.986C130.83 116.241 130.544 115.505 130.241 114.772C129.916 114.223 129.571 113.673 129.195 113.152C125.638 108.054 120.482 104.058 116.555 99.1802C115.278 97.5955 114.287 96.2854 112.024 95.9723C108.68 95.5054 106.986 97.2302 104.615 94.3602C103.975 93.5911 102.86 92.8743 101.911 93.333C102.154 93.9482 102.407 94.5607 102.65 95.1841C102.712 95.3107 102.74 95.4492 102.731 95.5878C102.68 96.019 101.971 96.1371 101.565 95.9009C101.16 95.6647 100.964 95.2225 100.664 94.8655C99.6094 93.4923 97.1367 93.3247 95.8567 94.5057C95.8272 94.214 95.713 93.9347 95.526 93.6967C95.3391 93.4587 95.0861 93.2706 94.7931 93.1517C94.6609 94.2778 93.2338 95.1127 92.038 94.7557C91.8457 94.2064 92.9393 94.0938 93.3329 93.6186C93.7265 93.1435 93.2638 92.5447 92.8071 92.1685C91.5736 91.2068 90.0171 90.6601 88.3965 90.6195C87.3749 90.603 86.2693 90.776 85.3769 90.3009C84.8601 90.0262 84.4936 89.5676 83.9678 89.3012C82.8441 88.7244 81.435 89.2545 80.2992 89.823C78.7459 90.603 77.1445 91.5835 76.5976 93.1188C76.0508 94.654 77.2677 96.6892 79.0313 96.5107C79.476 96.4557 79.9327 96.2635 80.3804 96.3733C81.0083 96.5299 81.2817 97.1973 81.3418 97.7768C81.4019 98.3563 81.3208 98.977 81.6423 99.4906C81.9638 100.004 82.8681 100.26 83.2227 99.7652C84.0549 99.0511 83.9528 97.8427 83.7394 96.832C83.5261 95.8213 83.3038 94.6678 83.9738 93.8356C84.6438 93.0034 86.5787 93.2671 86.4465 94.2942C86.3654 94.8985 85.6053 95.3379 85.6353 95.9421C85.6654 96.5464 86.5066 96.8952 87.1977 96.8677C87.8887 96.8402 88.5858 96.6205 89.2558 96.7743C89.9258 96.9281 90.4726 97.7191 89.9859 98.1695C89.1446 99.0292 86.9543 97.5543 86.5186 98.6282C86.3954 98.9028 86.5186 99.2132 86.4886 99.5071C86.4075 100.405 85.1606 100.735 84.1661 100.845C83.1716 100.954 82.12 101.037 81.2156 100.652C80.3113 100.268 79.6953 99.1967 80.2121 98.4249C79.7073 98.0954 78.9352 98.4249 78.6618 98.9385C78.3884 99.4521 78.4695 100.037 78.5506 100.606C77.496 100.397 76.5526 101.202 75.9547 102.001C75.3568 102.8 74.7709 103.742 73.7463 104.025C72.7218 104.308 71.2916 103.926 70.7568 104.769C70.0568 105.868 72.0848 107.26 71.3758 108.34C70.9671 108.955 69.9967 108.938 69.2245 109.131C67.1874 109.653 66.4784 112.347 67.8665 113.786C69.2546 115.225 72.0338 115.143 73.503 113.767C74.5275 112.822 74.9422 111.495 75.6813 110.358C76.4204 109.221 77.8205 108.202 79.2206 108.57C79.7591 108.753 80.2517 109.033 80.6688 109.394C81.3478 109.908 82.0269 110.422 82.7059 110.943C83.1415 111.273 83.6072 111.688 83.5772 112.198C83.5381 112.613 83.1836 112.935 83.0304 113.319C82.6067 114.418 84.3794 115.481 85.4941 114.876C86.6088 114.272 86.732 112.723 85.9718 111.77C84.9172 110.449 82.5346 109.79 82.5947 108.158C83.8115 107.26 85.7284 108.202 86.4375 109.477C87.1466 110.751 87.1676 112.245 87.7655 113.555C88.3634 114.865 90.037 116.041 91.4341 115.398C91.0705 114.261 90.716 113.135 90.3494 112.006C91.2508 111.402 92.2663 113.163 93.3299 112.869C93.9789 112.685 94.06 111.841 93.7746 111.273C93.4892 110.704 92.9964 110.229 92.8732 109.625C92.6719 108.507 94.051 107.508 95.2979 107.703C96.5448 107.898 97.4341 108.96 97.6685 110.067C97.7134 110.516 97.8225 110.957 97.993 111.38C98.4587 112.259 99.6665 112.525 100.658 112.891C101.65 113.256 102.695 114.165 102.28 115.063C102.088 115.459 101.631 115.832 101.794 116.236C101.947 116.593 102.533 116.749 102.533 117.134C102.533 117.392 102.232 117.565 101.965 117.667C101.298 117.914 100.568 117.996 99.9189 118.282C99.2699 118.568 98.681 119.125 98.7321 119.765C98.8132 120.682 100.021 121.122 100.589 121.883C101.079 122.531 101.067 123.371 101.307 124.135H108.728C108.461 123.646 108.196 123.16 107.926 122.671C108.527 122.212 109.476 122.396 110.095 122.855C110.546 123.232 110.94 123.663 111.267 124.135H133.128C132.784 122.474 132.362 120.841 131.863 119.235Z" fill="black"/>
</g>
<path d="M68.1338 83.8028C68.4042 83.2782 68.4703 82.641 68.942 82.251C69.3356 81.9269 69.9185 81.861 70.3422 81.5699C71.2856 80.9162 70.892 79.4277 69.8915 78.8482C67.3797 77.398 62.7557 79.0761 60.5774 80.496C57.7862 82.3224 55.0551 84.5196 51.3445 84.3054C50.3199 84.2477 49.2563 83.9923 48.2949 84.3191C47.3334 84.646 46.7445 85.9478 47.5708 86.4998C48.0305 86.8047 48.6824 86.7195 49.1992 86.9365C50.1577 87.3375 50.2538 88.5844 49.8001 89.4468C49.3464 90.3092 48.4902 90.9409 47.9403 91.7538C47.404 92.5473 47.1617 93.4776 47.2493 94.4069C47.2616 94.7299 47.3448 95.0473 47.494 95.3403C47.6431 95.6333 47.8552 95.8959 48.1176 96.1125C49.2743 96.9364 51.032 96.2306 52.0085 95.2281C52.9849 94.2256 53.664 92.9321 54.9319 92.2454C55.5862 91.9335 56.2881 91.7131 57.014 91.5918L61.8573 90.5509C62.6265 90.3861 63.4588 90.1828 63.9395 89.6143C64.5404 88.8947 64.3661 87.8648 64.7597 87.0326C65.4027 85.6539 67.4308 85.1595 68.1338 83.8028Z" fill="#263238"/>
<path d="M94.4838 119.172C93.0206 118.985 91.6025 119.617 90.1483 119.856C85.1427 120.68 76.724 109.727 72.9143 117.109C72.3825 115.104 68.78 115.86 67.6293 117.639C66.4785 119.419 66.2352 121.775 64.4084 123.011C63.6152 123.561 62.6057 123.8 61.6803 124.137H99.216C98.3357 121.943 97.0107 119.49 94.4838 119.172Z" fill="#263238"/>
<path d="M131.097 116.986C130.827 116.242 130.541 115.505 130.238 114.772C129.913 114.223 129.568 113.674 129.192 113.152C125.635 108.054 120.479 104.058 116.552 99.1805C115.275 97.5958 114.284 96.2857 112.021 95.9726C108.677 95.5057 106.983 97.2305 104.612 94.3604C103.972 93.5914 102.857 92.8746 101.908 93.3332C102.151 93.9484 102.404 94.5609 102.647 95.1843C102.709 95.311 102.737 95.4495 102.728 95.5881C102.677 96.0193 101.968 96.1374 101.562 95.9012C101.157 95.665 100.961 95.2228 100.661 94.8658C99.6064 93.4925 97.1336 93.325 95.8537 94.506C95.8241 94.2142 95.7099 93.935 95.523 93.697C95.336 93.459 95.083 93.2708 94.7901 93.152C94.6579 94.278 93.2307 95.1129 92.0349 94.7559C91.8426 94.2066 92.9363 94.094 93.3299 93.6189C93.7235 93.1437 93.2608 92.545 92.8041 92.1687C91.5706 91.207 90.014 90.6604 88.3934 90.6197C87.3719 90.6032 86.2662 90.7763 85.3739 90.3011C84.8571 90.0265 84.4905 89.5678 83.9647 89.3014C82.841 88.7246 81.4319 89.2547 80.2962 89.8232C78.7428 90.6032 77.1414 91.5837 76.5946 93.119C76.0478 94.6543 77.2646 96.6894 79.0283 96.5109C79.4729 96.456 79.9296 96.2637 80.3773 96.3736C81.0053 96.5301 81.2787 97.1975 81.3388 97.777C81.3989 98.3565 81.3177 98.9772 81.6392 99.4908C81.9607 100.004 82.8651 100.26 83.2196 99.7655C84.0519 99.0514 83.9497 97.8429 83.7364 96.8322C83.5231 95.8215 83.3007 94.668 83.9707 93.8358C84.6408 93.0036 86.5757 93.2673 86.4435 94.2945C86.3624 94.8987 85.6022 95.3381 85.6323 95.9424C85.6623 96.5466 86.5036 96.8954 87.1946 96.8679C87.8857 96.8405 88.5827 96.6208 89.2527 96.7746C89.9227 96.9284 90.4696 97.7193 89.9828 98.1698C89.1415 99.0294 86.9512 97.5546 86.5156 98.6284C86.3924 98.9031 86.5156 99.2134 86.4855 99.5073C86.4044 100.405 85.1575 100.735 84.163 100.845C83.1685 100.955 82.1169 101.037 81.2126 100.653C80.3082 100.268 79.6923 99.1969 80.2091 98.4252C79.7043 98.0956 78.9321 98.4252 78.6587 98.9388C78.3853 99.4524 78.4664 100.037 78.5475 100.606C77.493 100.397 76.5495 101.202 75.9516 102.001C75.3537 102.8 74.7678 103.742 73.7433 104.025C72.7187 104.308 71.2886 103.926 70.7538 104.77C70.0537 105.868 72.0818 107.261 71.3727 108.34C70.9641 108.955 69.9936 108.939 69.2215 109.131C67.1844 109.653 66.4753 112.347 67.8634 113.786C69.2515 115.225 72.0307 115.143 73.4999 113.767C74.5245 112.822 74.9391 111.496 75.6782 110.359C76.4173 109.222 77.8174 108.203 79.2176 108.571C79.756 108.753 80.2486 109.034 80.6658 109.395C81.3448 109.908 82.0238 110.422 82.7028 110.944C83.1385 111.273 83.6042 111.688 83.5741 112.199C83.5351 112.613 83.1805 112.935 83.0273 113.319C82.6037 114.418 84.3764 115.481 85.491 114.877C86.6057 114.272 86.7289 112.723 85.9688 111.77C84.9142 110.449 82.5316 109.79 82.5917 108.159C83.8085 107.261 85.7254 108.203 86.4345 109.477C87.1435 110.751 87.1646 112.245 87.7625 113.555C88.3604 114.866 90.0339 116.041 91.431 115.398C91.0675 114.261 90.7129 113.135 90.3464 112.006C91.2477 111.402 92.2633 113.163 93.3269 112.869C93.9759 112.685 94.057 111.842 93.7715 111.273C93.4861 110.705 92.9934 110.23 92.8702 109.625C92.6689 108.507 94.048 107.508 95.2949 107.703C96.5417 107.898 97.4311 108.961 97.6654 110.067C97.7103 110.516 97.8194 110.958 97.9899 111.38C98.4556 112.259 99.6634 112.526 100.655 112.891C101.646 113.256 102.692 114.165 102.277 115.063C102.085 115.459 101.628 115.832 101.791 116.236C101.944 116.593 102.53 116.75 102.53 117.134C102.53 117.392 102.229 117.565 101.962 117.667C101.295 117.914 100.565 117.997 99.9158 118.282C99.2669 118.568 98.678 119.125 98.729 119.765C98.8102 120.683 100.018 121.122 100.586 121.883C101.076 122.531 101.064 123.371 101.304 124.135H108.728C108.461 123.646 108.196 123.16 107.926 122.671C108.527 122.212 109.476 122.396 110.095 122.855C110.546 123.232 110.94 123.663 111.267 124.135H133.128C132.783 122.487 132.361 120.857 131.86 119.243C131.62 118.48 131.367 117.73 131.097 116.986Z" fill="#263238"/>
<path d="M110.095 122.847C109.476 122.396 108.524 122.204 107.926 122.663C108.196 123.152 108.461 123.638 108.728 124.127H111.267C110.94 123.655 110.546 123.224 110.095 122.847Z" fill="#455A64"/>
<path d="M17.0898 120.858C18.1023 118.661 21.7018 119.005 23.7899 117.585C25.0849 116.706 25.6647 115.228 26.4339 113.937C27.2031 112.646 28.492 111.353 30.1145 111.416C30.6613 111.435 31.1991 111.619 31.7459 111.6C33.3473 111.553 34.2818 109.436 33.146 108.411C32.88 108.218 32.6409 107.996 32.434 107.749C32.1515 107.263 32.455 106.651 32.9417 106.31C33.4588 106.025 34.0427 105.855 34.6453 105.816C36.0124 105.615 37.3824 105.423 38.7495 105.231C40.2518 105.019 42.1957 104.314 41.9854 102.946C41.8021 101.765 40.0264 101.232 39.765 100.059C39.6929 99.7847 39.735 99.4634 39.5908 99.1997C39.1762 98.4472 37.9293 98.7493 37.1301 99.153C36.8056 98.0544 35.081 97.5656 34.1255 98.2824C33.3173 98.8866 33.2242 99.9495 32.9237 100.859C32.2567 103.056 30.3188 104.726 28.474 106.275C27.8731 106.788 27.158 107.338 26.3167 107.373C25.4755 107.409 24.5921 106.596 24.9767 105.926C25.2411 105.467 25.9712 105.201 25.8991 104.69C25.7999 104.047 24.5621 104.094 24.3187 103.479C24.8054 101.663 27.1069 100.914 28.8706 99.9413C31.0255 98.759 32.6683 96.9333 33.5216 94.7724C33.6658 94.4318 33.777 94.0281 33.5847 93.7068C33.3203 93.2509 32.6413 93.1767 32.0644 93.1767C30.7064 93.1575 29.0118 93.3223 28.516 94.4675C28.2516 95.0828 28.4439 95.7804 28.2817 96.4203C27.807 98.3263 24.9166 98.5378 23.1529 99.6749C22.4649 100.114 21.9271 100.73 21.1669 101.067C20.3467 101.427 19.3822 101.4 18.4629 101.463C18.3036 101.463 18.1384 101.49 17.9761 101.509C17.4193 102.203 16.8815 102.917 16.3627 103.649C15.8439 104.381 15.3431 105.118 14.8604 105.86C12.5723 109.4 10.7106 113.156 9.30803 117.063C8.81128 118.434 8.37262 119.827 7.99204 121.24C7.73566 122.192 7.50731 123.154 7.30701 124.127H7.60746C7.80876 123.49 7.95899 122.852 8.08518 122.298C8.11823 122.157 8.14828 122.023 8.17832 121.894C8.51483 120.521 9.01058 119.062 10.1974 118.134C11.3842 117.206 13.4633 117.107 14.3857 118.255C15.0437 119.079 14.8935 120.207 14.7222 121.215C14.551 122.223 14.3857 123.149 14.2144 124.127H17.1198C17.0988 123.973 17.0778 123.819 17.0507 123.671C16.8885 122.726 16.6782 121.737 17.0898 120.858Z" fill="#263238"/>
<path d="M14.3858 118.255C13.4634 117.098 11.3813 117.208 10.2005 118.134C9.01972 119.059 8.51797 120.51 8.18146 121.894C8.15141 122.02 8.12137 122.168 8.08832 122.297C7.96213 122.847 7.8119 123.489 7.6106 124.127H14.2206C14.3888 123.154 14.5581 122.184 14.7283 121.215C14.8936 120.207 15.0438 119.079 14.3858 118.255Z" fill="#455A64"/>
<path d="M55.3135 114.039C55.4548 113.113 54.0276 112.355 52.955 112.275C52.4442 112.237 51.9154 112.308 51.4317 112.155C50.3831 111.819 49.9625 110.584 48.9409 110.188C48.1748 109.894 47.2944 110.155 46.5523 110.496C45.8102 110.836 45.0771 111.267 44.2508 111.32C43.5297 111.361 42.7486 111.116 42.1146 111.438C41.6459 111.677 41.3995 112.174 40.9669 112.465C40.5158 112.719 39.9942 112.849 39.4646 112.838C38.9375 112.826 38.4125 112.904 37.9173 113.069C37.4365 113.27 37.0399 113.731 37.1391 114.203L55.3135 114.039Z" fill="#FAFAFA"/>
<path d="M59.9887 107.45C60.0818 106.818 59.1053 106.299 58.3722 106.244C58.0213 106.256 57.6702 106.228 57.3267 106.162C56.6086 105.931 56.3231 105.085 55.6231 104.813C55.0973 104.613 54.4964 104.791 53.9886 105.025C53.4808 105.258 52.9761 105.552 52.4112 105.588C51.9155 105.615 51.3807 105.448 50.948 105.668C50.6265 105.832 50.4583 106.173 50.1608 106.371C49.8534 106.547 49.4959 106.636 49.1333 106.626C48.772 106.619 48.4124 106.673 48.0727 106.785C47.9045 106.846 47.762 106.954 47.6662 107.094C47.5705 107.234 47.5265 107.398 47.5409 107.563L59.9887 107.45Z" fill="#FAFAFA"/>
<path d="M35.8592 77.7524C35.8592 77.7524 35.8352 77.7717 35.7811 77.8019L35.5467 77.9337L34.6454 78.4308L33.9874 78.7851L33.2152 79.2273C32.6654 79.5514 32.0134 79.9002 31.3524 80.3259L30.2858 80.9905C29.9162 81.224 29.5467 81.4849 29.1531 81.7431C28.3659 82.2567 27.5637 82.8417 26.7074 83.4678C25.0278 84.7285 23.2371 86.1814 21.4645 87.8073C19.8086 89.3524 18.2392 90.9731 16.7624 92.663C16.0983 93.4513 15.4554 94.1901 14.9025 94.9179C14.6231 95.2777 14.3437 95.621 14.0913 95.9616L13.3762 96.9448C12.9075 97.5627 12.532 98.1505 12.1744 98.6586L11.6967 99.3672L11.3151 99.9741L10.7833 100.812C10.7262 100.902 10.6782 100.974 10.6421 101.029C10.606 101.084 10.591 101.103 10.588 101.1C10.585 101.097 10.588 101.073 10.6271 101.023L10.7563 100.798L11.261 99.9467C11.3752 99.7599 11.4984 99.5567 11.6306 99.3315C11.7628 99.1063 11.9311 98.8728 12.0993 98.6146C12.4388 98.1038 12.8084 97.5161 13.2711 96.8871L13.9801 95.8984C14.2295 95.5551 14.5089 95.2118 14.7854 94.8492C15.3352 94.1187 15.9872 93.3744 16.6362 92.5806C19.5639 89.1794 22.9043 86.0928 26.5932 83.38C27.4525 82.7675 28.2607 82.1743 29.0539 81.6662C29.4475 81.408 29.8201 81.1471 30.1926 80.9164L31.2683 80.26C31.9473 79.8288 32.5903 79.4855 33.1461 79.1614C33.4255 79.0048 33.6809 78.8565 33.9243 78.7247L34.5913 78.3814L35.5197 77.909L35.7631 77.7909L35.8592 77.7524Z" fill="#263238"/>
<path d="M43.2563 71.9792C43.2007 72.0071 43.141 72.0274 43.079 72.0397L42.5593 72.188C42.3339 72.2484 42.0575 72.3226 41.739 72.4214C41.4205 72.5203 41.054 72.6164 40.6574 72.7483C39.8612 72.9982 38.9238 73.3278 37.8962 73.7233C36.8687 74.1188 35.763 74.5994 34.6243 75.1487C33.4855 75.698 32.44 76.283 31.5025 76.8323C30.5651 77.3816 29.7479 77.9309 29.0749 78.384C28.7354 78.612 28.4379 78.8317 28.1735 79.0212C27.9091 79.2107 27.6868 79.3727 27.5035 79.5128L27.0799 79.8232C27.0342 79.8634 26.9827 79.8976 26.9266 79.9248C26.9676 79.88 27.0129 79.8387 27.0618 79.8012L27.4644 79.4689C27.6417 79.3261 27.858 79.1503 28.1194 78.958C28.3808 78.7658 28.6723 78.5378 29.0208 78.3044C29.6848 77.8265 30.505 77.2882 31.4244 76.7224C32.3438 76.1566 33.4134 75.5799 34.5522 75.0223C35.6909 74.4648 36.8086 73.9979 37.8391 73.5997C38.8697 73.2014 39.8191 72.8911 40.6243 72.6549C41.0239 72.5258 41.3905 72.4324 41.712 72.3445C42.0335 72.2566 42.3129 72.1852 42.5412 72.133L43.07 72.0122C43.1313 71.9976 43.1935 71.9866 43.2563 71.9792Z" fill="#263238"/>
<path d="M6.30959 101.474C5.75824 101.22 5.15019 101.085 4.53276 101.081C3.91533 101.077 3.30515 101.203 2.7497 101.449C2.19424 101.696 1.70848 102.056 1.3302 102.502C0.951912 102.948 0.691305 103.468 0.568648 104.021C0.44599 104.575 0.464588 105.146 0.622994 105.692C0.781401 106.237 1.07534 106.742 1.48196 107.167C1.88858 107.591 2.39691 107.925 2.96741 108.141C3.53791 108.357 4.1552 108.449 4.77127 108.411C5.07172 108.392 5.3241 108.313 5.6546 108.263L9.46136 107.629C9.5746 107.612 9.68193 107.571 9.77453 107.51C9.86713 107.448 9.94234 107.367 9.99397 107.273C10.0456 107.179 10.0722 107.076 10.0715 106.971C10.0709 106.866 10.043 106.763 9.99015 106.67L8.30761 103.553C8.18116 103.281 8.03873 103.017 7.88097 102.759C7.49366 102.209 6.95067 101.765 6.30959 101.474ZM6.06923 105.47C5.9124 105.755 5.66646 105.992 5.3625 106.15C5.05855 106.307 4.71025 106.379 4.36167 106.356C4.0131 106.333 3.67991 106.215 3.40426 106.019C3.1286 105.823 2.92288 105.556 2.81312 105.252C2.70335 104.949 2.69447 104.623 2.78761 104.315C2.88074 104.007 3.0717 103.731 3.33633 103.523C3.60096 103.314 3.92736 103.182 4.27424 103.143C4.62112 103.103 4.97289 103.159 5.28505 103.303C5.70261 103.496 6.01954 103.832 6.1665 104.238C6.31346 104.645 6.27849 105.087 6.06923 105.47Z" fill="#90CAF9"/>
<path d="M104.068 77.1263C104.375 76.6369 104.554 76.0894 104.592 75.5263C104.63 74.9633 104.525 74.3998 104.286 73.8798C104.047 73.3597 103.68 72.8971 103.213 72.5278C102.747 72.1585 102.193 71.8925 101.596 71.7505C100.999 71.6085 100.374 71.5943 99.7696 71.7089C99.1654 71.8236 98.5982 72.0641 98.1122 72.4117C97.6261 72.7594 97.2343 73.2047 96.9672 73.7133C96.7 74.2218 96.5648 74.7798 96.5719 75.3439V75.3603C96.5719 75.635 96.65 75.8712 96.686 76.1843L97.1758 79.6915C97.19 79.7931 97.2297 79.8904 97.292 79.9755C97.3543 80.0607 97.4373 80.1315 97.5346 80.1823C97.6319 80.2332 97.7407 80.2627 97.8526 80.2685C97.9645 80.2744 98.0763 80.2565 98.1793 80.2161L101.677 78.8429C101.984 78.7421 102.285 78.6256 102.578 78.4941C103.199 78.1672 103.713 77.6951 104.068 77.1263ZM99.7146 76.6924C99.4104 76.5345 99.1643 76.2975 99.0076 76.0116C98.8509 75.7257 98.7905 75.4037 98.8342 75.0864C98.8779 74.7691 99.0237 74.4708 99.253 74.2294C99.4824 73.9879 99.785 73.8141 100.123 73.73C100.46 73.6459 100.817 73.6553 101.149 73.7571C101.481 73.8588 101.772 74.0483 101.986 74.3014C102.199 74.5546 102.326 74.8601 102.35 75.1791C102.373 75.4982 102.293 75.8165 102.118 76.0937C101.886 76.464 101.502 76.7351 101.052 76.8473C100.601 76.9596 100.12 76.9038 99.7146 76.6924Z" fill="#90CAF9"/>
<path d="M44.2238 75.3302C44.0128 75.0477 43.7333 74.8134 43.4071 74.6456C43.0809 74.4779 42.7168 74.3812 42.343 74.363C41.9693 74.3448 41.596 74.4057 41.2522 74.5409C40.9084 74.6761 40.6033 74.882 40.3607 75.1425C40.1181 75.403 39.9445 75.7112 39.8533 76.043C39.7622 76.3748 39.7561 76.7214 39.8354 77.0558C39.9147 77.3902 40.0773 77.7033 40.3105 77.9709C40.5438 78.2384 40.8414 78.4532 41.1802 78.5985C41.3455 78.6699 41.5047 78.6947 41.697 78.7578L43.9204 79.439C43.9849 79.4585 44.0535 79.4641 44.1208 79.4555C44.1882 79.4468 44.2524 79.424 44.3085 79.3889C44.3646 79.3538 44.4111 79.3074 44.4444 79.2532C44.4776 79.199 44.4967 79.1385 44.5002 79.0764L44.6054 76.9699C44.6252 76.7919 44.6342 76.6132 44.6324 76.4343C44.6061 76.0396 44.4651 75.6585 44.2238 75.3302ZM42.8147 77.3846C42.6403 77.494 42.4343 77.5538 42.2228 77.5562C42.0112 77.5586 41.8037 77.5036 41.6263 77.3982C41.4489 77.2928 41.3098 77.1417 41.2264 76.964C41.143 76.7863 41.1191 76.59 41.1577 76.3999C41.1964 76.2097 41.2958 76.0344 41.4435 75.8959C41.5912 75.7575 41.7805 75.6622 41.9874 75.622C42.1944 75.5819 42.4097 75.5988 42.6062 75.6706C42.8026 75.7423 42.9714 75.8657 43.0911 76.0251C43.1706 76.131 43.2265 76.2501 43.2557 76.3757C43.2848 76.5013 43.2866 76.6309 43.2609 76.7572C43.2353 76.8834 43.1826 77.0038 43.1061 77.1115C43.0295 77.2191 42.9305 77.3119 42.8147 77.3846Z" fill="#90CAF9"/>
<path d="M75.0474 108.73C75.0475 108.388 74.9615 108.051 74.7959 107.744C74.6304 107.438 74.3898 107.17 74.0928 106.963C73.7958 106.755 73.4505 106.612 73.0836 106.546C72.7166 106.48 72.338 106.493 71.9771 106.582C71.6161 106.672 71.2826 106.836 71.0024 107.062C70.7221 107.288 70.5027 107.571 70.3612 107.887C70.2196 108.204 70.1597 108.546 70.1861 108.887C70.2126 109.228 70.3246 109.558 70.5136 109.853C70.6067 109.999 70.7239 110.101 70.8441 110.252L72.2562 111.963C72.2967 112.013 72.3495 112.053 72.4103 112.081C72.471 112.109 72.5382 112.124 72.6062 112.124C72.6743 112.124 72.7414 112.109 72.8022 112.081C72.863 112.053 72.9157 112.013 72.9562 111.963L74.3474 110.279C74.4736 110.142 74.592 109.999 74.7019 109.851C74.9241 109.512 75.0434 109.125 75.0474 108.73ZM72.6137 109.691C72.4015 109.692 72.1938 109.635 72.017 109.527C71.8402 109.42 71.7023 109.267 71.6206 109.088C71.539 108.909 71.5173 108.712 71.5584 108.521C71.5994 108.331 71.7013 108.156 71.8512 108.018C72.0011 107.881 72.1922 107.787 72.4004 107.749C72.6085 107.711 72.8243 107.731 73.0205 107.805C73.2167 107.879 73.3844 108.004 73.5024 108.166C73.6204 108.327 73.6833 108.517 73.6833 108.711C73.6833 108.97 73.5707 109.219 73.3702 109.403C73.1697 109.587 72.8977 109.691 72.6137 109.691Z" fill="#90CAF9"/>
<path d="M130.511 101.597C130.799 101.379 131.027 101.103 131.179 100.791C131.331 100.479 131.402 100.139 131.387 99.7974C131.372 99.4561 131.271 99.1225 131.092 98.8225C130.913 98.5225 130.661 98.2642 130.356 98.0676C130.05 97.871 129.699 97.7414 129.33 97.6889C128.96 97.6363 128.583 97.6621 128.226 97.7645C127.87 97.8668 127.544 98.0428 127.274 98.2788C127.003 98.5149 126.796 98.8046 126.668 99.1256C126.605 99.2849 126.593 99.4332 126.542 99.6118L126.007 101.699C125.992 101.76 125.991 101.823 126.007 101.883C126.022 101.944 126.053 102.001 126.096 102.049C126.139 102.097 126.195 102.135 126.257 102.16C126.319 102.185 126.387 102.196 126.455 102.193L128.76 102.095C128.955 102.095 129.151 102.087 129.346 102.07C129.773 102.011 130.176 101.847 130.511 101.597ZM128.141 100.499C128.005 100.35 127.92 100.168 127.898 99.9758C127.875 99.7833 127.916 99.589 128.014 99.4176C128.112 99.2461 128.264 99.1052 128.45 99.0128C128.636 98.9203 128.848 98.8804 129.059 98.8981C129.27 98.9159 129.471 98.9904 129.635 99.1124C129.8 99.2343 129.921 99.3982 129.983 99.5832C130.046 99.7681 130.047 99.9659 129.986 100.151C129.926 100.337 129.806 100.502 129.643 100.625C129.426 100.791 129.146 100.871 128.865 100.848C128.583 100.825 128.323 100.702 128.141 100.504V100.499Z" fill="#90CAF9"/>
<path d="M65.7813 27.4482L79.482 23.7844L81.3358 28.0442L65.4298 30.4336L65.7813 27.4482Z" fill="#FFBE9D"/>
<path d="M65.7813 27.4482C65.7813 27.4482 63.1373 27.6103 62.8729 27.7641C62.6085 27.9179 59.8684 28.0387 59.8684 28.4013C59.8684 28.7638 59.9976 28.5715 60.4332 28.5963C60.8689 28.621 61.9085 28.4754 61.9205 28.6457C61.9325 28.816 58.7176 29.2829 58.6155 29.4092C58.5133 29.5356 58.2339 29.6591 58.6335 29.7635C58.6335 29.7635 58.1378 29.9832 58.2429 30.2524C58.2755 30.3824 58.3553 30.4986 58.4693 30.5819C58.5834 30.6652 58.7249 30.7107 58.8709 30.711C59.1713 30.6863 61.5479 30.6067 61.5479 30.6067C61.5479 30.6067 58.9189 30.7275 58.931 30.9665C58.943 31.2054 58.8498 31.1779 59.1743 31.351C59.4988 31.524 61.2294 31.524 61.2294 31.524L63.2425 31.1532C63.2425 31.1532 61.8303 31.7849 61.6561 32.0376C61.4818 32.2903 61.3857 32.7544 61.6561 32.9137C61.9265 33.073 62.0437 32.8451 62.257 32.6391C62.4703 32.4331 64.2009 31.6668 64.5134 31.4553C64.8259 31.2439 66.3702 29.8899 66.3702 29.8899L65.7813 27.4482Z" fill="#FFBE9D"/>
<path d="M92.1311 7.1929C92.2229 7.0941 92.3408 7.01846 92.4736 6.97318C92.9072 6.79898 93.3971 6.78228 93.8437 6.9265C93.5924 6.60588 93.4108 6.24411 93.3089 5.86086C93.2596 5.66792 93.2658 5.4666 93.3269 5.2765C93.388 5.08639 93.5018 4.91397 93.6574 4.77601C93.8303 4.66563 94.0266 4.58976 94.2337 4.55332C94.4407 4.51689 94.6539 4.5207 94.8592 4.56453C95.4471 4.63314 95.9929 4.8797 96.4096 5.26488C96.6136 5.45994 96.7633 5.69704 96.8459 5.95615C96.9285 6.21525 96.9417 6.48873 96.8843 6.75347L95.6825 7.61311C95.3345 8.02086 94.8741 8.33654 94.3485 8.52769C94.2357 8.58424 94.1082 8.6118 93.9797 8.60745C93.8511 8.60309 93.7263 8.56699 93.6183 8.50297C93.5458 8.42946 93.4997 8.33736 93.4863 8.23912C93.4728 8.14089 93.4927 8.04125 93.5432 7.95368C93.6503 7.77841 93.7967 7.62585 93.9729 7.506C93.5232 7.6933 93.0299 7.77632 92.5367 7.74769C92.4516 7.75148 92.3668 7.73736 92.2886 7.7064C92.2105 7.67545 92.1412 7.6285 92.086 7.56917C92.0539 7.50897 92.041 7.44167 92.049 7.37507C92.057 7.30847 92.0854 7.24531 92.1311 7.1929Z" fill="#263238"/>
<path d="M93.4261 4.7981C93.4261 4.81183 93.6425 4.81733 93.973 4.89972C94.4022 5.00987 94.7973 5.2102 95.1267 5.48472C95.4537 5.76171 95.7066 6.10377 95.8658 6.48443C95.986 6.77831 96.01 6.97331 96.0251 6.97331C96.033 6.92689 96.033 6.87965 96.0251 6.83324C96.0054 6.70904 95.9732 6.58676 95.9289 6.46796C95.7819 6.0705 95.5289 5.71277 95.1928 5.42704C94.8524 5.14451 94.4387 4.946 93.991 4.85028C93.8577 4.82115 93.7221 4.80187 93.5854 4.79261C93.5324 4.78612 93.4785 4.78797 93.4261 4.7981Z" fill="#455A64"/>
<path d="M95.6375 7.42909C95.6812 7.33306 95.7444 7.24546 95.8238 7.17092C96.0898 6.83136 96.4599 6.57142 96.8874 6.42388C96.9254 6.41072 96.9661 6.40537 97.0066 6.40821C97.0471 6.41106 97.0864 6.42204 97.1217 6.44036C97.2239 6.51177 97.1878 6.66282 97.1037 6.75346C97.0079 6.83545 96.9231 6.92765 96.8513 7.0281L96.2053 7.64331C96.1467 7.71984 96.0623 7.77674 95.965 7.80535C95.917 7.81969 95.8658 7.82189 95.8166 7.81174C95.7674 7.80158 95.7221 7.77945 95.6856 7.74768C95.6438 7.70494 95.617 7.65182 95.6084 7.59508C95.5999 7.53834 95.61 7.48055 95.6375 7.42909Z" fill="#455A64"/>
<path d="M93.1047 12.8478C93.2746 11.8906 93.535 10.9487 93.8829 10.0327C94.2326 9.11271 94.8274 8.28682 95.6135 7.6295C95.7337 7.53337 96.6411 6.93464 96.7733 7.01704C96.9055 7.09943 96.1543 7.70366 96.1573 7.80802C96.1481 8.81764 95.8022 9.80067 95.1658 10.6259C94.5712 11.4342 93.8799 12.1794 93.1047 12.8478Z" fill="#263238"/>
<path d="M90.62 17.0034L94.9675 9.5605C96.1694 7.39354 98.555 6.22903 100.892 7.38805L101.139 7.52812C102.144 8.09853 102.877 8.99395 103.193 10.0362C103.509 11.0785 103.384 12.1912 102.842 13.1529C101.782 15.0342 100.58 17.1106 99.913 18.0663C98.5399 20.0328 96.1633 19.11 96.1633 19.11C96.1633 19.11 95.3071 20.4832 94.9405 21.0655C94.9405 21.0655 94.607 21.2358 92.5369 20.1893C90.4667 19.1429 90.62 17.0034 90.62 17.0034Z" fill="#FFBE9D"/>
<path d="M96.1633 19.1098C95.1634 18.5394 94.3636 17.7187 93.8588 16.7451C93.8588 16.7451 93.5583 18.577 95.8508 19.6262L96.1633 19.1098Z" fill="#EB996E"/>
<path d="M101.334 14.3475C101.286 14.4221 101.207 14.4763 101.116 14.4984C101.024 14.5205 100.927 14.5087 100.844 14.4656C100.803 14.4462 100.766 14.4195 100.736 14.3868C100.706 14.3542 100.683 14.3164 100.67 14.2757C100.656 14.235 100.651 14.1922 100.656 14.1498C100.661 14.1074 100.675 14.0663 100.697 14.0289C100.746 13.9542 100.825 13.8999 100.917 13.8778C101.009 13.8557 101.107 13.8676 101.19 13.9108C101.231 13.9305 101.268 13.9574 101.297 13.9901C101.327 14.0229 101.349 14.0607 101.363 14.1014C101.376 14.1421 101.38 14.1848 101.376 14.2271C101.371 14.2694 101.357 14.3103 101.334 14.3475Z" fill="#263238"/>
<path d="M101.869 13.6388C101.806 13.6388 101.68 13.3641 101.346 13.1719C101.013 12.9796 100.664 12.9989 100.652 12.9412C100.64 12.8835 100.73 12.8698 100.886 12.8588C101.098 12.8465 101.308 12.8955 101.487 12.9989C101.661 13.0972 101.795 13.2434 101.872 13.4163C101.911 13.5454 101.899 13.6305 101.869 13.6388Z" fill="#263238"/>
<path d="M98.1884 12.7628C98.1645 12.7998 98.1329 12.8321 98.0954 12.8579C98.0578 12.8837 98.0151 12.9025 97.9697 12.9132C97.9242 12.9239 97.8768 12.9264 97.8303 12.9203C97.7838 12.9143 97.7391 12.9 97.6986 12.8782C97.6572 12.8591 97.6205 12.8325 97.5905 12.8002C97.5605 12.7678 97.538 12.7302 97.5243 12.6897C97.5106 12.6493 97.5059 12.6066 97.5105 12.5645C97.5152 12.5223 97.5291 12.4814 97.5514 12.4442C97.6002 12.3694 97.6792 12.3152 97.7714 12.2931C97.8635 12.271 97.9615 12.2829 98.0442 12.3261C98.0854 12.3457 98.122 12.3727 98.1516 12.4054C98.1813 12.4382 98.2035 12.476 98.217 12.5167C98.2304 12.5574 98.2348 12.6001 98.2299 12.6424C98.225 12.6847 98.2109 12.7256 98.1884 12.7628Z" fill="#263238"/>
<path d="M98.4888 11.9635C98.4227 11.9635 98.2965 11.6889 97.963 11.4994C97.6295 11.3099 97.281 11.3236 97.2719 11.2659C97.2629 11.2082 97.3501 11.1945 97.5033 11.1835C97.7097 11.1741 97.9142 11.223 98.0892 11.3236C98.2627 11.4218 98.3975 11.568 98.4738 11.741C98.5278 11.8701 98.5128 11.958 98.4888 11.9635Z" fill="#263238"/>
<path d="M98.0591 15.034C98.2689 15.0823 98.4708 15.1552 98.6601 15.251C98.7502 15.2922 98.8433 15.3224 98.8914 15.2784C98.957 15.1995 98.9919 15.1029 98.9906 15.0038C99.0386 14.7713 99.0897 14.5268 99.1438 14.2705C99.2507 13.6361 99.4135 13.0106 99.6305 12.4001C99.5781 13.0404 99.4706 13.6759 99.309 14.3007C99.2519 14.5561 99.1979 14.8006 99.1438 15.034C99.1336 15.1579 99.0762 15.2745 98.9815 15.3636C98.9507 15.384 98.9151 15.3976 98.8776 15.4033C98.8401 15.409 98.8016 15.4067 98.7652 15.3965C98.7098 15.3832 98.6571 15.3619 98.609 15.3334C98.4121 15.2562 98.2272 15.1555 98.0591 15.034Z" fill="#263238"/>
<path d="M99.1378 11.277C99.0417 11.3292 98.7683 11.071 98.3747 10.8458C97.9811 10.6206 97.6115 10.4997 97.6115 10.3981C97.6115 10.3487 97.7317 10.313 97.912 10.3267C98.148 10.3482 98.3748 10.4217 98.573 10.5409C98.7748 10.6547 98.9437 10.811 99.0657 10.9968C99.1679 11.1424 99.1829 11.2495 99.1378 11.277Z" fill="#263238"/>
<path d="M102.335 13.0153C102.22 13.0456 102.004 12.8203 101.686 12.6336C101.367 12.4468 101.064 12.3425 101.049 12.2353C101.049 12.1832 101.136 12.1392 101.301 12.142C101.517 12.1555 101.724 12.2219 101.902 12.3342C102.085 12.4411 102.233 12.5922 102.329 12.7709C102.401 12.9 102.389 12.9906 102.335 13.0153Z" fill="#263238"/>
<path d="M94.1501 11.1287C94.1231 11.093 92.9333 9.88182 92.047 11.2633C91.1606 12.6448 92.8732 13.1611 92.9002 13.1227C92.9273 13.0842 94.1501 11.1287 94.1501 11.1287Z" fill="#FFBE9D"/>
<path d="M92.7802 12.3563C92.7802 12.3563 92.7441 12.3563 92.687 12.3563C92.6089 12.3475 92.5377 12.311 92.4887 12.2547C92.4267 12.1469 92.3974 12.0259 92.4038 11.9042C92.4101 11.7825 92.4519 11.6646 92.5248 11.5626C92.5973 11.4408 92.7002 11.3364 92.8252 11.2578C92.8653 11.2242 92.9131 11.1994 92.9651 11.1851C93.0172 11.1709 93.072 11.1675 93.1257 11.1754C93.1603 11.1846 93.1904 11.2043 93.2111 11.2313C93.2319 11.2582 93.242 11.2908 93.2399 11.3237C93.2399 11.3731 93.2068 11.3951 93.2158 11.4033C93.2248 11.4116 93.2609 11.4033 93.2849 11.3347C93.2998 11.2965 93.2998 11.2547 93.2849 11.2166C93.2602 11.1666 93.2164 11.1265 93.1617 11.104C93.0924 11.0824 93.0182 11.0774 92.9462 11.0894C92.8741 11.1014 92.8066 11.1301 92.7501 11.1726C92.6096 11.2577 92.4949 11.3739 92.4166 11.5104C92.3298 11.6286 92.2834 11.7677 92.2834 11.91C92.2834 12.0524 92.3298 12.1915 92.4166 12.3097C92.4507 12.3415 92.4921 12.3662 92.5378 12.3818C92.5835 12.3975 92.6324 12.4038 92.681 12.4003C92.7591 12.3866 92.7862 12.3591 92.7802 12.3563Z" fill="#EB996E"/>
<path d="M103.263 10.3788C103.585 10.3788 103.299 9.28017 102.848 8.70891C102.172 7.8575 100.922 6.90173 99.943 6.68476C98.7682 6.41011 97.6415 6.44856 96.611 7.02807C95.5865 7.63203 94.7567 8.47487 94.2073 9.46968C94.0151 9.75985 93.9114 10.0918 93.9069 10.4309C93.9309 10.8457 94.2073 11.2549 93.9369 11.6641C93.83 11.8132 93.7922 11.9949 93.8318 12.1695C93.9429 12.5842 94.4327 12.5073 94.7542 12.3315C95.4242 11.9607 95.8628 11.3318 96.2775 10.7221C96.5995 10.3037 96.8441 9.83975 97.0016 9.34883C97.0707 9.07419 97.0857 8.79954 97.1698 8.52489C97.2043 8.38968 97.2702 8.26281 97.363 8.15288C97.4558 8.04295 97.5733 7.95252 97.7076 7.88771C97.7703 7.86688 97.8346 7.85036 97.8999 7.83828C98.2176 7.77951 98.5467 7.79945 98.8531 7.89603C99.1595 7.99261 99.432 8.16231 99.6425 8.38757C100.328 9.10715 101.532 10.2771 102.076 10.2085C102.451 10.185 102.816 10.0915 103.149 9.93383L103.263 10.3788Z" fill="#263238"/>
<path d="M100.141 6.53923C100.64 6.61933 101.117 6.78926 101.544 7.03915C101.97 7.28903 102.338 7.61389 102.626 7.99486C102.784 8.19375 102.897 8.42005 102.956 8.65993C103.015 8.89981 103.021 9.14825 102.972 9.39006C102.914 9.63063 102.766 9.845 102.553 9.99564C102.339 10.1463 102.075 10.2236 101.806 10.214H101.767C100.995 10.0794 100.622 9.78281 100.102 9.24175C99.6666 8.78859 99.3722 8.2338 98.9335 7.78063C98.4607 7.2992 97.8413 6.95779 97.1548 6.80014C98.1076 6.47341 99.1381 6.38338 100.141 6.53923Z" fill="#263238"/>
<path d="M97.4552 6.68213C97.4552 6.68213 97.5393 6.68213 97.6896 6.70685C97.9015 6.73982 98.1051 6.80775 98.2905 6.90734C98.5644 7.05381 98.8042 7.24788 98.9965 7.47861C99.2327 7.76331 99.4409 8.06661 99.6185 8.38494C99.7991 8.70574 100.005 9.01416 100.234 9.30776C100.426 9.54832 100.665 9.75493 100.937 9.91747C101.121 10.0257 101.325 10.1021 101.538 10.1427C101.596 10.154 101.654 10.1604 101.713 10.1619C101.755 10.1619 101.776 10.1619 101.776 10.1619C101.487 10.1252 101.21 10.0315 100.964 9.88726C100.703 9.72264 100.475 9.51717 100.291 9.28029C100.069 8.98733 99.8679 8.68085 99.6906 8.36297C99.5124 8.03996 99.3 7.73364 99.0566 7.44839C98.8556 7.21405 98.6053 7.01888 98.3205 6.87438C98.1277 6.77613 97.9151 6.71448 97.6956 6.69312C97.6366 6.68805 97.5773 6.68805 97.5183 6.69312L97.4552 6.68213Z" fill="#455A64"/>
<path d="M98.3776 6.56127C98.6424 6.59593 98.8968 6.67907 99.1257 6.80571C99.37 6.94733 99.5855 7.12669 99.7627 7.33578C99.9771 7.59149 100.16 7.86776 100.309 8.15972C100.475 8.47007 100.61 8.77767 100.775 9.04408C100.911 9.28414 101.074 9.51057 101.262 9.71971C101.389 9.86078 101.535 9.98632 101.698 10.0932C101.741 10.122 101.788 10.1477 101.836 10.1701C101.866 10.1866 101.884 10.1949 101.887 10.1921C101.671 10.0471 101.476 9.87725 101.307 9.68676C101.129 9.47673 100.974 9.25137 100.844 9.01387C100.691 8.73922 100.544 8.43986 100.382 8.12676C100.233 7.82541 100.045 7.54142 99.8227 7.28085C99.6372 7.06811 99.4112 6.88764 99.1557 6.74803C98.9833 6.65502 98.794 6.59085 98.5969 6.55853C98.543 6.55308 98.4886 6.55308 98.4347 6.55853C98.3956 6.55578 98.3776 6.55852 98.3776 6.56127Z" fill="#455A64"/>
<path d="M95.7006 7.52246C95.6792 7.5603 95.665 7.60115 95.6585 7.64331C95.6271 7.75234 95.605 7.86345 95.5924 7.97563C95.501 8.72317 95.6827 9.47734 96.1092 10.1206C96.1719 10.2174 96.2433 10.3092 96.3225 10.3953C96.3766 10.4584 96.4096 10.4914 96.4156 10.4887C96.4217 10.4859 96.3105 10.3403 96.1603 10.0904C95.7685 9.44202 95.5921 8.70329 95.6525 7.96464C95.6735 7.6845 95.7156 7.52246 95.7006 7.52246Z" fill="#455A64"/>
<path d="M94.9074 8.39038C94.88 8.42118 94.8596 8.45666 94.8473 8.49475C94.8077 8.59478 94.7824 8.6991 94.7722 8.8051C94.7462 9.15874 94.8328 9.51169 95.0216 9.82129C95.2097 10.1243 95.4433 10.4016 95.7156 10.6452C95.819 10.7534 95.9348 10.851 96.0612 10.9364C95.9704 10.8205 95.87 10.7112 95.7607 10.6095C95.5064 10.3584 95.2837 10.0821 95.0967 9.78559C94.9163 9.48751 94.8251 9.15119 94.8323 8.81059C94.8463 8.66906 94.8714 8.52863 94.9074 8.39038Z" fill="#455A64"/>
<path d="M102.202 7.96191C102.216 8.07973 102.241 8.19636 102.275 8.31072C102.341 8.58651 102.366 8.86919 102.35 9.15114C102.328 9.43116 102.225 9.7007 102.049 9.93113C101.967 10.0207 101.88 10.106 101.788 10.1866C101.821 10.177 101.853 10.1621 101.881 10.1426C101.961 10.0922 102.032 10.0322 102.094 9.96409C102.286 9.73446 102.398 9.45836 102.419 9.17036C102.439 8.88058 102.404 8.58978 102.317 8.31072C102.299 8.18975 102.26 8.07209 102.202 7.96191Z" fill="#455A64"/>
<path d="M102.845 9.17041C102.764 9.40831 102.632 9.62938 102.458 9.82132C102.264 9.99828 102.036 10.14 101.785 10.2388C101.868 10.2397 101.951 10.2218 102.025 10.1866C102.213 10.1177 102.382 10.0107 102.518 9.87351C102.655 9.73626 102.758 9.57312 102.818 9.39562C102.848 9.3238 102.857 9.24637 102.845 9.17041Z" fill="#455A64"/>
<path d="M92.041 12.6336C92.0591 12.6336 92.005 12.7379 91.9719 12.8917C91.9508 12.9776 91.9614 13.0674 92.002 13.1472C92.0309 13.1906 92.0708 13.227 92.1184 13.2533C92.166 13.2796 92.2199 13.295 92.2754 13.2982C92.3316 13.3001 92.3876 13.2907 92.4395 13.2708C92.4914 13.2509 92.5379 13.2209 92.5758 13.1829C92.6455 13.1207 92.6918 13.0399 92.7081 12.9522C92.7411 12.7984 92.7081 12.694 92.7231 12.6775C92.7381 12.661 92.8072 12.7682 92.7952 12.9522C92.7875 13.0607 92.741 13.1639 92.663 13.246C92.6135 13.2979 92.5519 13.3388 92.4827 13.3659C92.4135 13.393 92.3386 13.4056 92.2634 13.4026C92.1866 13.3986 92.1123 13.3761 92.0479 13.3376C91.9836 13.299 91.9315 13.2457 91.8968 13.1829C91.8489 13.082 91.8436 12.9685 91.8818 12.8643C91.9449 12.705 92.032 12.6281 92.041 12.6336Z" fill="#263238"/>
<path d="M91.7738 11.9936C91.7738 12.0101 91.7047 12.0321 91.6686 12.1227C91.6477 12.1713 91.6477 12.2253 91.6686 12.2738C91.6842 12.3009 91.7064 12.3245 91.7334 12.3426C91.7605 12.3607 91.7918 12.3728 91.8248 12.3782C91.8893 12.3872 91.9553 12.3768 92.0127 12.3486C92.0702 12.3203 92.116 12.2758 92.1433 12.2216C92.1914 12.131 92.1914 12.0623 92.2094 12.0596C92.2274 12.0568 92.2635 12.131 92.2274 12.2518C92.2038 12.3235 92.1566 12.3867 92.0922 12.4331C92.0502 12.4628 92.0013 12.4835 91.9493 12.4935C91.8972 12.5035 91.8434 12.5025 91.7918 12.4908C91.7442 12.4833 91.6993 12.4655 91.6609 12.4388C91.6225 12.4121 91.5917 12.3774 91.571 12.3375C91.5504 12.2976 91.5406 12.2538 91.5424 12.2097C91.5442 12.1656 91.5576 12.1226 91.5815 12.0843C91.6686 11.9689 91.7798 11.9772 91.7738 11.9936Z" fill="#263238"/>
<path d="M92.2574 11.0271C92.2574 11.0436 92.1823 11.0271 92.0831 11.0546C92.0231 11.0708 91.9709 11.1051 91.935 11.1519C91.8991 11.1988 91.8816 11.2553 91.8855 11.3124C91.8893 11.3695 91.9142 11.4237 91.9561 11.4662C91.998 11.5086 92.0545 11.5368 92.1162 11.5462C92.2153 11.5654 92.2844 11.5462 92.2904 11.5462C92.2965 11.5462 92.2394 11.6176 92.1072 11.6176C92.0282 11.6173 91.9518 11.5921 91.8908 11.5462C91.8527 11.5171 91.8215 11.4811 91.7992 11.4404C91.777 11.3998 91.7642 11.3554 91.7616 11.31C91.7546 11.2286 91.7818 11.1478 91.8376 11.084C91.8934 11.0203 91.9737 10.9783 92.0621 10.9667C92.2033 10.9612 92.2664 11.0161 92.2574 11.0271Z" fill="#263238"/>
<path d="M97.2209 14.9518C97.272 14.9792 97.0677 15.2813 97.2029 15.6576C97.3381 16.0339 97.7166 16.2069 97.6896 16.2453C97.6626 16.2838 97.5694 16.2453 97.4192 16.1794C97.2267 16.0693 97.0822 15.9013 97.0106 15.7043C96.9403 15.5141 96.9532 15.3065 97.0466 15.1248C97.1127 14.993 97.1999 14.938 97.2209 14.9518Z" fill="#263238"/>
<path d="M79.5393 66.8464L77.6945 71.4165C77.6945 71.4165 82.9885 73.8389 82.9374 74.7782L72.2743 73.7126L74.7771 66.1433L79.5393 66.8464Z" fill="#455A64"/>
<path d="M74.4495 70.6665C74.3435 70.6856 74.2487 70.7394 74.1829 70.8177C74.1171 70.8961 74.0848 70.9936 74.0919 71.0922C74.1083 71.1893 74.1648 71.2771 74.2497 71.3373C74.3346 71.3976 74.4416 71.4259 74.5486 71.4163C74.6611 71.3969 74.7617 71.3402 74.831 71.257C74.9004 71.1738 74.9336 71.0701 74.9242 70.9659C74.8957 70.8658 74.8261 70.7796 74.7298 70.7254C74.6335 70.6711 74.518 70.653 74.4074 70.6747" fill="white"/>
<path d="M72.2743 73.7124L72.5297 72.9407L82.5889 74.2425C82.5889 74.2425 83.0396 74.4787 82.9494 74.7918L72.2743 73.7124Z" fill="white"/>
<path d="M77.7034 71.4797C77.7034 71.5264 77.433 71.5236 77.1566 71.65C76.8802 71.7763 76.724 71.9631 76.6759 71.9411C76.6278 71.9191 76.742 71.65 77.0785 71.4989C77.415 71.3478 77.7185 71.4357 77.7034 71.4797Z" fill="#263238"/>
<path d="M78.8421 72.0398C78.8421 72.0893 78.6138 72.147 78.4125 72.331C78.2112 72.515 78.1361 72.721 78.082 72.7155C78.0279 72.71 78.0309 72.4408 78.2863 72.2101C78.5417 71.9794 78.8451 71.9959 78.8421 72.0398Z" fill="#263238"/>
<path d="M79.3378 73.3307C79.2898 73.3307 79.2447 73.0917 79.41 72.8446C79.5752 72.5974 79.8306 72.5177 79.8486 72.5699C79.8666 72.6221 79.6984 72.7374 79.5662 72.9407C79.434 73.1439 79.3889 73.3307 79.3378 73.3307Z" fill="#263238"/>
<path d="M78.1121 70.4579C78.0821 70.4991 77.8597 70.3892 77.5653 70.3535C77.2708 70.3178 77.0275 70.3535 77.0094 70.3123C76.9914 70.2711 77.2468 70.1421 77.5923 70.1887C77.9378 70.2354 78.1452 70.4167 78.1121 70.4579Z" fill="#263238"/>
<path d="M46.0235 57.2529L40.5252 58.2087C40.5252 58.2087 40.6664 63.6192 39.738 64.0175L35.769 54.9074L44.2479 53.3694L46.0235 57.2529Z" fill="#455A64"/>
<path d="M39.729 55.2369C39.6619 55.1595 39.566 55.1075 39.4595 55.0908C39.3531 55.074 39.2436 55.0938 39.1522 55.1463C39.065 55.2046 39.006 55.2916 38.9875 55.3889C38.969 55.4862 38.9925 55.5863 39.053 55.6681C39.1238 55.7476 39.224 55.8007 39.3347 55.8174C39.4454 55.8341 39.5589 55.8132 39.6539 55.7587C39.7365 55.6894 39.7867 55.5936 39.794 55.4912C39.8012 55.3889 39.7651 55.288 39.693 55.2094" fill="white"/>
<path d="M35.769 54.9073L36.6193 54.7617L40.0745 63.4845C40.0745 63.4845 40.0565 63.9624 39.726 64.0338L35.769 54.9073Z" fill="white"/>
<path d="M40.4712 58.2443C40.4201 58.2608 40.3029 58.0466 40.0506 57.8845C39.7982 57.7225 39.5428 57.6786 39.5458 57.6319C39.5488 57.5852 39.8463 57.5467 40.1467 57.7472C40.4472 57.9477 40.5253 58.2361 40.4712 58.2443Z" fill="#263238"/>
<path d="M40.4622 59.4308C40.4202 59.4583 40.2519 59.2935 39.9815 59.2193C39.7111 59.1452 39.4737 59.1781 39.4557 59.1342C39.4377 59.0903 39.7021 58.9584 40.0386 59.06C40.3751 59.1617 40.5073 59.4089 40.4622 59.4308Z" fill="#263238"/>
<path d="M39.4497 60.4333C39.4196 60.3948 39.636 60.2465 39.9544 60.263C40.2729 60.2795 40.4652 60.4498 40.4322 60.4827C40.3991 60.5157 40.2038 60.4388 39.9424 60.4278C39.681 60.4168 39.4737 60.4745 39.4497 60.4333Z" fill="#263238"/>
<path d="M41.6488 58.0959C41.5947 58.0959 41.5977 57.8597 41.4956 57.6043C41.3934 57.3489 41.2372 57.1731 41.2732 57.1374C41.3093 57.1017 41.5497 57.2472 41.6668 57.5493C41.784 57.8515 41.6939 58.1069 41.6488 58.0959Z" fill="#263238"/>
<path d="M69.8856 27.0965C69.8856 27.0965 66.2802 28.728 64.5195 31.2602C62.7589 33.7924 57.7533 46.2202 57.7533 46.2202C57.7533 46.2202 55.6922 47.4067 55.3737 48.2883C55.0552 49.1699 41.2944 53.2732 41.2944 53.2732L42.6435 58.2717C42.6435 58.2717 59.2886 54.976 60.3973 54.0477C61.506 53.1194 71.4209 42.4411 71.4209 42.4411L78.746 53.9763C78.746 53.9763 76.2012 58.9446 75.5852 60.7518C74.9693 62.559 72.6889 68.6781 72.6889 68.6781L78.6829 69.0654C78.6829 69.0654 84.1662 58.2443 85.5513 56.157C86.9364 54.0696 86.7531 52.7239 86.2513 51.5017C85.7496 50.2795 78.9083 35.1382 78.9083 35.1382L81.4501 33.0372L72.9292 25.3745L69.8856 27.0965Z" fill="#263238"/>
<path d="M58.7087 51.4412C58.6116 51.2531 58.54 51.0548 58.4953 50.8508C58.364 50.3658 58.2785 49.8715 58.24 49.3732C58.1794 48.713 58.2117 48.0484 58.3361 47.3957H58.3812C58.3571 47.4836 58.3421 47.5248 58.3331 47.5248C58.3241 47.5248 58.3331 47.4781 58.3331 47.3875H58.3812C58.3341 48.0413 58.3341 48.6973 58.3812 49.3512C58.4202 49.8437 58.4925 50.3335 58.5975 50.8178C58.652 51.0227 58.6891 51.2311 58.7087 51.4412Z" fill="#455A64"/>
<path d="M58.4833 51.2627C58.1167 50.8722 57.8131 50.4356 57.582 49.9663C57.3046 49.5146 57.1021 49.0278 56.9811 48.5217C57.0201 48.508 57.2815 49.1534 57.6992 49.9087C58.1168 50.6639 58.5194 51.2407 58.4833 51.2627Z" fill="#455A64"/>
<path d="M82.655 53.8225C82.1647 53.7045 81.6597 53.6455 81.1527 53.6467C80.6534 53.6904 80.1624 53.7938 79.6925 53.9543C79.8039 53.8589 79.9359 53.7859 80.0801 53.7401C80.4192 53.6111 80.7799 53.5359 81.1467 53.5176C81.5138 53.5016 81.881 53.5453 82.2313 53.6467C82.3847 53.6768 82.5292 53.7367 82.655 53.8225Z" fill="#455A64"/>
<path d="M81.7084 54.2839C81.6904 54.3196 81.1947 54.1218 80.5457 54.0614C79.8967 54.001 79.3649 54.0944 79.3439 54.0614C79.7308 53.9424 80.1414 53.9011 80.5474 53.9405C80.9534 53.9798 81.3453 54.0988 81.6964 54.2894L81.7084 54.2839Z" fill="#455A64"/>
<path d="M74.2664 39.2168C74.1428 39.4265 73.9979 39.6251 73.8337 39.81C73.5513 40.1643 73.1427 40.634 72.6709 41.1586C72.1992 41.6831 71.7516 42.1253 71.4211 42.4412C71.2508 42.6224 71.0616 42.7879 70.8562 42.9355C71.0017 42.7398 71.1656 42.556 71.3459 42.3862L72.5478 41.0817L73.7496 39.7579C73.9053 39.5648 74.0781 39.3839 74.2664 39.2168Z" fill="#455A64"/>
<path d="M58.5735 47.6346C58.5966 47.5732 58.6247 47.5135 58.6576 47.456C58.7117 47.3407 58.8078 47.1814 58.913 46.9507C59.1353 46.5113 59.4358 45.8686 59.7723 45.0611C60.1088 44.2537 60.4754 43.2814 60.8599 42.1938C61.2445 41.1062 61.6531 39.906 62.1309 38.6591C62.5753 37.4834 63.0991 36.3341 63.6992 35.2178C64.1906 34.3056 64.7697 33.4352 65.4298 32.6169C65.8736 32.0648 66.3671 31.5476 66.9051 31.0706C67.0914 30.8976 67.2536 30.7822 67.3588 30.6971C67.4107 30.6525 67.4659 30.6112 67.524 30.5735C67.48 30.6253 67.4307 30.6731 67.3768 30.7163C67.2806 30.8069 67.1244 30.9305 66.9441 31.1063C66.4236 31.5949 65.9436 32.1182 65.508 32.6718C64.865 33.4927 64.2992 34.3619 63.8164 35.27C63.225 36.3844 62.7063 37.5298 62.2631 38.7003C61.7853 39.9445 61.3617 41.1447 60.9831 42.2295C60.6046 43.3144 60.217 44.2894 59.8654 45.0941C59.5139 45.8988 59.2014 46.5387 58.9641 46.9727C58.8499 47.1924 58.7477 47.3544 58.6816 47.467C58.6527 47.5265 58.6164 47.5827 58.5735 47.6346Z" fill="#455A64"/>
<path d="M57.9516 47.9807C57.9516 48.0192 57.6933 48.0878 57.4138 48.2554C57.1344 48.4229 56.9571 48.6206 56.9241 48.5987C56.891 48.5767 57.0293 48.324 57.3357 48.1482C57.4213 48.0847 57.5197 48.0371 57.6254 48.0084C57.7311 47.9796 57.842 47.9702 57.9516 47.9807Z" fill="#455A64"/>
<path d="M56.7138 48.9941C56.6729 49.0248 56.6273 49.0497 56.5785 49.0683L56.1759 49.2523C55.8274 49.4116 55.3136 49.6313 54.6737 49.8922C53.3997 50.4196 51.6181 51.0979 49.611 51.7543C47.604 52.4108 45.7502 52.9161 44.4012 53.2484C43.7281 53.4132 43.1813 53.5423 42.7997 53.6219L42.3611 53.7098C42.3098 53.722 42.2576 53.7303 42.2048 53.7345C42.2523 53.712 42.3028 53.6954 42.3551 53.6851L42.7847 53.5725L44.3771 53.1605C45.7171 52.809 47.5589 52.2872 49.563 51.6335C51.567 50.9798 53.3517 50.3124 54.6316 49.8098L56.1339 49.2056L56.5485 49.0436C56.6013 49.0214 56.6568 49.0048 56.7138 48.9941Z" fill="#455A64"/>
<path d="M69.6693 33.2048C69.5552 33.3477 69.4099 33.4674 69.2426 33.5564C68.8504 33.7934 68.4027 33.943 67.9357 33.9931C67.4683 34.0455 66.9941 33.9976 66.5506 33.853C66.3722 33.8045 66.2066 33.7232 66.0638 33.6141C66.0638 33.5948 66.2681 33.691 66.6017 33.7788C67.0336 33.8967 67.4872 33.9331 67.9349 33.8858C68.3827 33.8386 68.8153 33.7088 69.2066 33.5042C69.3549 33.397 69.5094 33.2971 69.6693 33.2048Z" fill="#455A64"/>
<path d="M74.152 68.733C74.1595 68.68 74.1715 68.6277 74.188 68.5764C74.2181 68.4611 74.2601 68.3155 74.3112 68.1343C74.4224 67.7525 74.5936 67.2005 74.816 66.5221C75.2606 65.1653 75.9277 63.306 76.7659 61.2873C77.6042 59.2687 78.4665 57.4725 79.1215 56.1899C79.449 55.5472 79.7224 55.0308 79.9177 54.6793C80.0138 54.5118 80.0889 54.3799 80.146 54.2728C80.1706 54.2242 80.2008 54.1782 80.2362 54.1355C80.2203 54.1875 80.1992 54.2381 80.1731 54.2866L79.9688 54.7013C79.7825 55.0748 79.5271 55.5939 79.2116 56.2256C78.5807 57.5164 77.7394 59.3153 76.8981 61.3313C76.0569 63.3472 75.3778 65.201 74.9091 66.5496C74.6838 67.2115 74.4975 67.7552 74.3653 68.148C74.3022 68.3265 74.2541 68.4693 74.2151 68.5819C74.2004 68.6343 74.1793 68.685 74.152 68.733Z" fill="#455A64"/>
<path d="M94.3065 18.9177L91.0736 16.0613C91.0736 16.0613 87.9519 16.0174 86.2663 16.5063C84.5808 16.9951 67.1965 28.3161 67.1965 28.3161C69.522 29.1647 71.5651 31.0625 73.488 33.3943C75.1105 35.1548 75.6573 37.7694 78.0189 38.5659C78.5206 38.7334 80.3113 38.2501 80.3113 38.2501L80.723 36.5473L94.8653 24.2101C94.8653 24.2101 95.5083 20.6644 94.3065 18.9177Z" fill="#90CAF9"/>
<g opacity="0.3">
<path opacity="0.3" d="M84.004 28.1706C82.1618 28.2297 80.355 27.6983 78.8963 26.6683C81.0806 25.6301 82.9734 24.158 84.8483 22.6969C86.2664 21.5983 88.613 19.7609 90.4878 18.5991C86.663 19.0331 81.1978 20.6507 77.8687 22.4442C75.0084 23.9932 72.3854 26.0338 69.1856 26.866L68.7079 26.8385C68.759 27.6954 69.5071 28.4232 70.3814 28.7391C71.2771 29.0144 72.235 29.0749 73.1636 28.9149C74.0865 28.7557 75.0183 28.6438 75.9548 28.5798C77.385 28.5496 78.7761 28.9423 80.1822 29.1675C81.5883 29.3928 83.1237 29.4257 84.3495 28.7556C84.4727 28.6869 84.6019 28.5963 84.6109 28.4644C84.638 28.2255 84.2684 28.1596 84.004 28.1706Z" fill="black"/>
</g>
<path d="M91.3021 26.3962C85.9422 27.3726 80.4074 27.1968 75.1346 25.8826L75.2759 27.5991C78.004 28.1814 80.7561 28.7636 83.5564 28.8652C86.3566 28.9669 89.247 28.5494 91.6686 27.2531C91.5274 26.9674 91.4072 26.6818 91.3021 26.3962Z" fill="#455A64"/>
<g opacity="0.3">
<path opacity="0.3" d="M88.8413 28.1923C88.7389 25.9019 88.8091 23.6078 89.0516 21.3262L89.1087 21.0955C88.5558 21.6448 88.3906 22.4083 88.2854 23.1416C87.9604 25.3753 87.9705 27.6392 88.3155 29.8704L88.9164 29.5024C88.9224 29.4008 88.8533 28.651 88.8413 28.1923Z" fill="black"/>
</g>
<path d="M93.5584 17.7997C92.1312 16.7011 89.4151 17.2696 87.6785 17.9096L86.3986 20.3375C88.1081 19.8486 91.0015 18.1623 92.645 18.8159C94.2885 19.4696 94.8684 20.8373 95.2559 22.4413C95.4508 21.5995 95.3962 20.7254 95.0977 19.9094C94.7993 19.0935 94.2679 18.3651 93.5584 17.7997Z" fill="#263238"/>
<path d="M87.7266 13.9739C86.2243 13.0044 84.3074 13.1198 82.5257 13.2956C79.0735 13.6361 76.766 15.1577 73.2117 16.2617C70.999 16.9232 69.1503 18.3387 68.0499 20.2139C66.7158 22.5649 66.9021 24.7374 68.6297 26.8796L69.2306 27.4069C69.845 27.9545 70.6206 28.3266 71.4626 28.4778C72.3045 28.629 73.1765 28.5527 73.9718 28.2583C78.5537 26.5418 81.4531 23.7761 86.1402 21.1175C87.5103 20.3402 88.9074 19.4696 89.31 17.8959C89.4991 17.1723 89.4496 16.4137 89.1678 15.7158C88.886 15.0178 88.3846 14.4118 87.7266 13.9739Z" fill="#455A64"/>
<path d="M88.9734 15.4404C88.9725 15.5179 88.9635 15.5952 88.9464 15.6711C88.8957 15.8881 88.8181 16.0991 88.7151 16.3001C88.2978 17.0259 87.7074 17.6567 86.9875 18.1457C84.6921 19.809 82.2935 21.3496 79.8036 22.7598C78.3494 23.5837 76.9283 24.3308 75.6213 24.9762C74.9663 25.3003 74.3413 25.5969 73.7494 25.8715C73.2057 26.1333 72.6459 26.3662 72.0729 26.5691C71.2403 26.8822 70.3273 26.9717 69.4409 26.8273C69.2033 26.7806 68.9723 26.7087 68.7529 26.6131C68.6957 26.5883 68.6405 26.5598 68.5876 26.5279C68.568 26.5194 68.5497 26.5083 68.5336 26.495C68.8271 26.6194 69.1357 26.7116 69.453 26.7696C70.327 26.8907 71.2206 26.7871 72.0339 26.4703C72.6008 26.2627 73.1545 26.0261 73.6924 25.7617C74.2783 25.487 74.8942 25.1849 75.5522 24.8581C76.8531 24.2072 78.2563 23.4629 79.7225 22.6334C82.2109 21.225 84.6178 19.6996 86.9334 18.0633C87.6483 17.589 88.2427 16.9791 88.676 16.2754C88.8121 16.0092 88.912 15.7288 88.9734 15.4404Z" fill="#263238"/>
<path d="M79.2058 22.8834C79.1697 22.9027 78.058 21.3674 76.727 19.4531C75.396 17.5388 74.3414 15.9651 74.3775 15.9431C74.4135 15.9211 75.5252 17.4592 76.8592 19.3762C78.1932 21.2932 79.2418 22.8615 79.2058 22.8834Z" fill="#263238"/>
<path d="M78.0369 21.1971C77.9264 21.2473 77.8322 21.323 77.7635 21.4168C77.6954 21.5314 77.6201 21.6424 77.5382 21.7491C77.4771 21.8198 77.3945 21.8723 77.3008 21.9002C77.2454 21.9138 77.1872 21.9149 77.1312 21.9034C77.0752 21.8919 77.0231 21.8682 76.9793 21.8343C76.9301 21.7966 76.8954 21.7456 76.8802 21.6887C76.8753 21.6588 76.877 21.6283 76.8853 21.5991C76.8935 21.5698 76.9081 21.5424 76.9282 21.5184C76.9962 21.4516 77.0856 21.4064 77.1836 21.3893L77.5922 21.2877C77.8266 21.2328 77.9738 21.2081 77.9798 21.2273C77.9858 21.2465 77.8506 21.3042 77.6253 21.3838L77.2257 21.5157C77.0694 21.5541 76.9673 21.642 77.0785 21.7244C77.1033 21.7431 77.1323 21.7565 77.1635 21.7636C77.1947 21.7707 77.2272 21.7714 77.2587 21.7656C77.3253 21.7477 77.3842 21.7112 77.427 21.6612C77.5261 21.5651 77.5922 21.4443 77.6764 21.3564C77.7386 21.2808 77.8245 21.2243 77.9227 21.1943C77.9948 21.1751 78.0369 21.1888 78.0369 21.1971Z" fill="#263238"/>
<path d="M84.3675 76.912C84.3675 77.2899 84.2448 77.6592 84.0149 77.9733C83.7851 78.2874 83.4584 78.532 83.0763 78.6763C82.6942 78.8205 82.2739 78.8578 81.8686 78.7835C81.4633 78.7092 81.0912 78.5265 80.7996 78.2588C80.5079 77.991 80.3097 77.6501 80.2302 77.2793C80.1506 76.9085 80.1933 76.5244 80.3527 76.1758C80.5121 75.8271 80.7812 75.5296 81.1258 75.3209C81.4703 75.1121 81.875 75.0016 82.2883 75.0032C82.8406 75.0054 83.3694 75.2074 83.7591 75.5652C84.1487 75.9229 84.3675 76.4072 84.3675 76.912Z" fill="#263238"/>
<path d="M84.1601 76.9121C84.1451 76.9121 84.1601 76.7583 84.073 76.5001C83.9626 76.1332 83.7215 75.8104 83.3879 75.5828C83.1597 75.4281 82.8954 75.3238 82.6158 75.2779C82.2782 75.2215 81.93 75.2532 81.6112 75.3692C81.2923 75.4853 81.0157 75.6812 80.813 75.9344C80.5846 76.2176 80.4614 76.5602 80.4614 76.9121C80.4614 77.264 80.5846 77.6066 80.813 77.8898C81.0233 78.156 81.3165 78.358 81.6543 78.4693C81.9584 78.5729 82.2875 78.5994 82.6068 78.5462C82.8864 78.5004 83.1507 78.3961 83.3789 78.2414C83.7125 78.0137 83.9536 77.691 84.064 77.3241C84.1421 77.0659 84.1361 76.9121 84.1511 76.9121C84.1556 76.9486 84.1556 76.9854 84.1511 77.022C84.1524 77.1283 84.1393 77.2344 84.112 77.3378C84.0172 77.7253 83.777 78.0703 83.433 78.3128C83.1959 78.4829 82.9178 78.5988 82.6218 78.6506C82.3411 78.7008 82.0517 78.6936 81.7744 78.6295C81.4971 78.5653 81.2387 78.4459 81.0179 78.2797C80.7971 78.1135 80.6193 77.9047 80.4972 77.6682C80.3751 77.4318 80.3118 77.1736 80.3118 76.9121C80.3118 76.6506 80.3751 76.3924 80.4972 76.156C80.6193 75.9195 80.7971 75.7107 81.0179 75.5445C81.2387 75.3783 81.4971 75.2589 81.7744 75.1947C82.0517 75.1306 82.3411 75.1234 82.6218 75.1736C82.9178 75.2254 83.1959 75.3413 83.433 75.5114C83.777 75.7539 84.0172 76.0989 84.112 76.4864C84.1395 76.5898 84.1526 76.6959 84.1511 76.8022C84.1586 76.8384 84.1616 76.8753 84.1601 76.9121Z" fill="#455A64"/>
<path d="M55.9175 77.5741C55.9175 77.9517 55.795 78.3209 55.5654 78.6348C55.3358 78.9488 55.0095 79.1935 54.6278 79.3378C54.246 79.4822 53.826 79.5199 53.4209 79.446C53.0157 79.3721 52.6437 79.1901 52.3518 78.9228C52.0598 78.6556 51.8612 78.3152 51.781 77.9448C51.7007 77.5743 51.7425 77.1905 51.901 76.8417C52.0595 76.493 52.3276 76.1951 52.6714 75.9856C53.0152 75.7762 53.4192 75.6647 53.8324 75.6653C54.3857 75.666 54.916 75.8674 55.307 76.2253C55.6979 76.5832 55.9175 77.0683 55.9175 77.5741Z" fill="#263238"/>
<path d="M55.7101 77.5741C55.7101 77.5741 55.7101 77.4203 55.626 77.1594C55.5128 76.7937 55.271 76.4723 54.938 76.2448C54.694 76.0785 54.4085 75.9706 54.1073 75.9307C53.8061 75.8909 53.4989 75.9205 53.2134 76.0169C52.8764 76.1283 52.5842 76.3303 52.3751 76.5964C52.1467 76.8796 52.0235 77.2222 52.0235 77.5741C52.0235 77.926 52.1467 78.2686 52.3751 78.5518C52.5177 78.7305 52.6977 78.8815 52.9047 78.996C53.1116 79.1106 53.3414 79.1864 53.5807 79.2191C53.8199 79.2518 54.0639 79.2407 54.2985 79.1865C54.533 79.1323 54.7535 79.0361 54.947 78.9034C55.2802 78.6749 55.522 78.3526 55.635 77.9861C55.7101 77.7279 55.7041 77.5741 55.7192 77.5741C55.7342 77.5741 55.7192 77.6126 55.7192 77.684C55.7176 77.7903 55.7035 77.8962 55.6771 77.9998C55.5823 78.3873 55.342 78.7323 54.9981 78.9748C54.7618 79.1444 54.4848 79.2602 54.1899 79.3126C53.8067 79.3814 53.4097 79.3426 53.0511 79.2012C52.6925 79.0599 52.389 78.8227 52.1807 78.5208C51.9723 78.2189 51.8687 77.8664 51.8836 77.5097C51.8985 77.153 52.0311 76.8087 52.2639 76.5222C52.4892 76.2377 52.8035 76.0223 53.1653 75.9043C53.4929 75.7979 53.8458 75.7742 54.1868 75.8356C54.5496 75.8976 54.8848 76.0547 55.1515 76.2878C55.4182 76.5209 55.605 76.8199 55.6891 77.1484C55.7157 77.252 55.7298 77.3579 55.7312 77.4642C55.7192 77.5357 55.7162 77.5741 55.7101 77.5741Z" fill="#455A64"/>
<path d="M88.8592 76.4863C88.8442 76.533 88.2763 76.4204 87.2698 76.1842L86.4346 75.981L85.431 75.7695C84.713 75.6212 83.9017 75.4235 82.9854 75.2751L81.5582 75.0197C81.0624 74.9291 80.5397 74.8687 80.0018 74.7863C78.9292 74.6132 77.7695 74.5116 76.5556 74.3716C73.9129 74.1346 71.2577 74.0337 68.6026 74.0694C65.9433 74.1304 63.29 74.3303 60.6556 74.6682C59.4538 74.8467 58.294 74.9978 57.2274 75.2175C56.6956 75.3191 56.1758 75.3987 55.6831 75.5058L54.268 75.8162C53.3666 75.9975 52.5584 76.2254 51.8463 76.3984L50.8548 76.6484L50.0286 76.8818C49.0341 77.1565 48.4722 77.2883 48.4542 77.2416C48.4362 77.1949 48.959 76.967 49.9294 76.6182L50.7376 76.3243C51.0381 76.2227 51.3656 76.1266 51.7171 76.0167C52.4232 75.8052 53.2194 75.5416 54.1207 75.3273L55.5359 74.9675C56.0286 74.8467 56.5514 74.7506 57.0892 74.6352C58.1588 74.3963 59.3216 74.2205 60.5414 74.0228C65.8579 73.2368 71.2687 73.1361 76.6157 73.7234C77.8446 73.8744 79.0194 73.998 80.092 74.2095C80.6328 74.3029 81.1586 74.3798 81.6573 74.4842L83.0875 74.789C83.9889 74.9703 84.8121 75.2065 85.5272 75.3905C85.8817 75.4866 86.2152 75.5718 86.5187 75.6651L87.3389 75.9398C88.3424 76.2392 88.8772 76.4396 88.8592 76.4863Z" fill="#90CAF9"/>
<path d="M98.7832 42.9326C98.8373 43.0727 99.1648 43.6934 99.1648 43.6934L100.385 46.2394L100.505 49.7933C100.43 49.8258 100.347 49.8418 100.264 49.8402C100.181 49.8385 100.099 49.8192 100.025 49.7838C99.9515 49.7484 99.8878 49.6978 99.8392 49.6361C99.7905 49.5744 99.7581 49.5031 99.7447 49.428C99.6394 48.8716 99.5781 48.3089 99.5614 47.7444L97.7166 49.9059C97.7166 49.9059 97.1157 49.5022 97.4913 48.9886L96.7251 49.3649C96.5301 49.1183 96.4502 48.8111 96.5028 48.5107C96.617 48.063 97.939 46.7804 97.939 46.7804L95.6315 46.6953C95.6315 46.6953 95.2349 46.4206 95.6165 46.1927C96.1865 45.9649 96.7765 45.7811 97.3801 45.6434C97.1409 45.5904 96.9166 45.4918 96.7219 45.354C96.5272 45.2163 96.3666 45.0426 96.2504 44.8442C96.0201 44.3935 95.9257 43.8947 95.977 43.3995L98.7832 42.9326Z" fill="#FFBE9D"/>
<path d="M89.968 24.9627C89.968 24.9627 91.4853 34.4408 91.5003 35.0615C91.5605 35.7434 91.6608 36.4218 91.8008 37.0939C91.8008 37.0939 91.7557 37.0279 92.3206 37.9178C92.8854 38.8076 96.4698 44.6 96.4698 44.6L99.1739 43.6881C99.1739 43.6881 96.3797 36.1381 96.1333 34.9873C95.887 33.8365 96.3226 28.0827 95.6616 25.6795C95.0006 23.2764 89.968 24.9627 89.968 24.9627Z" fill="#FFBE9D"/>
<path d="M91.2809 18.7582C91.1612 18.7864 91.046 18.8289 90.9384 18.8845C90.4126 19.1592 88.9313 20.1342 88.8352 23.0866C88.703 26.7971 88.9163 29.4941 88.9163 29.4941L96.4277 28.9448C96.3916 28.9009 95.965 17.7145 91.2809 18.7582Z" fill="#90CAF9"/>
<path d="M96.4248 28.9448C96.378 28.958 96.3295 28.9654 96.2805 28.9668L95.8629 29.0108L94.3006 29.1453L88.9164 29.5655H88.8413V29.4941C88.7902 28.7279 88.7512 27.9012 88.7331 27.047C88.7001 25.7562 88.7121 24.5258 88.7692 23.408C88.8263 22.2901 88.9615 21.2684 89.3701 20.4857C89.6597 19.8593 90.1526 19.3292 90.7822 18.9669C90.9547 18.8727 91.1381 18.7962 91.3291 18.7389C91.3947 18.7197 91.4621 18.706 91.5304 18.6978C91.2811 18.7811 91.0416 18.8869 90.8153 19.0136C90.2127 19.3852 89.7443 19.9119 89.4693 20.5269C89.0967 21.2959 88.9675 22.3011 88.9254 23.4134C88.8834 24.5258 88.8683 25.7562 88.9014 27.0443C88.9194 27.8957 88.9555 28.7196 89.0065 29.4859L88.9224 29.4227L94.3066 29.0547L95.8749 28.9613L96.2956 28.9421C96.3386 28.9386 96.3819 28.9395 96.4248 28.9448Z" fill="#263238"/>
<path d="M139.339 124.127C139.339 124.165 108.145 124.198 69.6723 124.198C31.1991 124.198 0 124.165 0 124.127C0 124.088 31.1871 124.055 69.6723 124.055C108.157 124.055 139.339 124.085 139.339 124.127Z" fill="#263238"/>
</svg>
