<svg width="182" height="176" viewBox="0 0 182 176" fill="none" xmlns="http://www.w3.org/2000/svg">
<path d="M163.409 26.4466C152.252 1.09654 125.471 -8.44828 104.341 8.57243C96.09 15.2127 90.942 25.7808 80.8388 30.0215C71.359 33.9985 59.35 32.8277 49.0988 34.9816C27.2691 39.5395 -2.12116 56.8328 0.121001 83.4787C1.10307 95.1506 9.00445 108.114 12.9103 119.035C17.3946 131.601 20.0852 147.321 31.9552 154.833C52.3051 167.729 76.8523 157.187 95.1842 146.789C105.05 141.199 110.48 137.763 121.104 139.68C130.938 141.467 139.794 147.723 149.404 140.301C156.619 134.729 157.216 123.436 163.274 116.805C170.099 109.334 177.019 108.793 180.566 97.5636C184.866 83.939 178.53 75.4264 174.247 63.2541C169.965 51.0817 168.664 38.3732 163.409 26.4466Z" fill="#90CAF9"/>
<g opacity="0.7">
<path opacity="0.7" d="M163.409 26.4466C152.252 1.09654 125.471 -8.44828 104.341 8.57243C96.09 15.2127 90.942 25.7808 80.8388 30.0215C71.359 33.9985 59.35 32.8277 49.0988 34.9816C27.2691 39.5395 -2.12116 56.8328 0.121001 83.4787C1.10307 95.1506 9.00445 108.114 12.9103 119.035C17.3946 131.601 20.0852 147.321 31.9552 154.833C52.3051 167.729 76.8523 157.187 95.1842 146.789C105.05 141.199 110.48 137.763 121.104 139.68C130.938 141.467 139.794 147.723 149.404 140.301C156.619 134.729 157.216 123.436 163.274 116.805C170.099 109.334 177.019 108.793 180.566 97.5636C184.866 83.939 178.53 75.4264 174.247 63.2541C169.965 51.0817 168.664 38.3732 163.409 26.4466Z" fill="white"/>
</g>
<path d="M78.5116 176C116.795 176 147.83 174.073 147.83 171.697C147.83 169.32 116.795 167.394 78.5116 167.394C40.2279 167.394 9.19287 169.32 9.19287 171.697C9.19287 174.073 40.2279 176 78.5116 176Z" fill="#90CAF9"/>
<path opacity="0.8" d="M78.5116 176C116.795 176 147.83 174.073 147.83 171.697C147.83 169.32 116.795 167.394 78.5116 167.394C40.2279 167.394 9.19287 169.32 9.19287 171.697C9.19287 174.073 40.2279 176 78.5116 176Z" fill="white"/>
<path d="M130.601 8.06305H60.9015C56.0894 8.06305 52.1885 11.9503 52.1885 16.7454V163.376C52.1885 168.172 56.0894 172.059 60.9015 172.059H130.601C135.413 172.059 139.314 168.172 139.314 163.376V16.7454C139.314 11.9503 135.413 8.06305 130.601 8.06305Z" fill="#263238"/>
<path d="M135.44 26.0712H56.0583V154.05H135.44V26.0712Z" fill="white" stroke="#263238" stroke-width="1.33739" stroke-miterlimit="10"/>
<path d="M107.918 77.8938C114.638 71.198 114.638 60.3419 107.918 53.646C101.199 46.9502 90.3042 46.9502 83.5847 53.646C76.8652 60.3419 76.8652 71.198 83.5847 77.8938C90.3042 84.5897 101.199 84.5897 107.918 77.8938Z" fill="#60B0AA"/>
<path d="M118.341 146.003H73.1662C73.0645 146.003 72.9637 145.984 72.8696 145.945C72.7755 145.907 72.69 145.851 72.6179 145.779C72.5458 145.708 72.4886 145.623 72.4495 145.529C72.4105 145.436 72.3904 145.335 72.3904 145.234C72.3898 145.132 72.4095 145.032 72.4482 144.937C72.487 144.843 72.5441 144.758 72.6163 144.686C72.6884 144.614 72.7742 144.557 72.8686 144.519C72.963 144.48 73.0641 144.46 73.1662 144.461H118.341C118.443 144.461 118.544 144.481 118.637 144.52C118.731 144.559 118.817 144.616 118.888 144.688C118.96 144.759 119.017 144.845 119.055 144.939C119.094 145.032 119.113 145.133 119.113 145.234C119.113 145.438 119.031 145.633 118.887 145.778C118.742 145.922 118.546 146.003 118.341 146.003Z" fill="#2997CC"/>
<path d="M119.812 92.5543H71.6908C70.6977 92.5543 69.8926 93.3565 69.8926 94.3462V99.9989C69.8926 100.989 70.6977 101.791 71.6908 101.791H119.812C120.805 101.791 121.61 100.989 121.61 99.9989V94.3462C121.61 93.3565 120.805 92.5543 119.812 92.5543Z" fill="#60B0AA"/>
<path d="M119.812 109.83H71.6908C70.6977 109.83 69.8926 110.632 69.8926 111.622V117.274C69.8926 118.264 70.6977 119.066 71.6908 119.066H119.812C120.805 119.066 121.61 118.264 121.61 117.274V111.622C121.61 110.632 120.805 109.83 119.812 109.83Z" fill="#60B0AA"/>
<path d="M104.319 74.3227L99.2558 71.4181V69.0185C99.9889 68.1347 100.52 67.1024 100.812 65.9933C100.986 66.055 101.17 66.0867 101.354 66.0871C101.982 66.0871 102.381 64.1478 102.449 62.7625C103.18 61.2209 102.184 60.3182 102.184 60.3182C102.184 60.3182 102.597 59.9071 102.87 58.2582C103.144 56.6094 101.906 57.2975 100.942 55.7871C99.9778 54.2768 99.2872 52.6323 96.1212 52.6323C95.2489 52.6038 94.3881 52.8373 93.6507 53.3028C92.9134 53.7682 92.3336 54.4438 91.9867 55.242C91.1986 55.2448 90.4134 55.3362 89.6459 55.5146C88.6773 55.7871 88.4037 58.9464 89.2288 60.1842C89.5982 60.8606 89.7953 61.6171 89.8028 62.3872C89.5831 62.1191 89.3544 62.0476 89.2288 62.6553C88.9553 64.0271 90.0584 65.9486 90.0584 65.9486L90.628 65.7877C90.9149 66.973 91.4684 68.0778 92.2468 69.0185V71.4181L87.184 74.3227C86.5927 74.6628 86.1017 75.152 85.7601 75.741C85.4185 76.33 85.2384 76.9982 85.2378 77.6785V79.3408C88.2489 81.6588 91.9464 82.9162 95.7513 82.9162C99.5562 82.9162 103.254 81.6588 106.265 79.3408V77.6785C106.265 76.998 106.085 76.3295 105.744 75.7403C105.402 75.1511 104.91 74.6621 104.319 74.3227Z" fill="#263238"/>
<path d="M76.4442 116.77C76.3282 116.768 76.2172 116.721 76.1348 116.64C76.0907 116.601 76.0555 116.552 76.0315 116.498C76.0076 116.445 75.9954 116.386 75.9958 116.327C75.9972 116.247 76.0204 116.168 76.0631 116.099L76.8703 114.812L75.2963 114.861C75.2369 114.865 75.1775 114.856 75.1219 114.836C75.0662 114.815 75.0156 114.782 74.9734 114.741C74.9003 114.659 74.8599 114.553 74.8599 114.444C74.8599 114.334 74.9003 114.228 74.9734 114.146C75.0147 114.103 75.065 114.07 75.1208 114.048C75.1766 114.026 75.2365 114.017 75.2963 114.021L76.8478 114.079L76.0496 112.797C76.0062 112.727 75.9829 112.647 75.9824 112.565C75.9819 112.506 75.9941 112.447 76.0181 112.393C76.042 112.339 76.0773 112.291 76.1214 112.252C76.2038 112.17 76.3147 112.124 76.4308 112.122C76.5072 112.123 76.5819 112.145 76.6462 112.186C76.7105 112.227 76.7618 112.286 76.794 112.355L77.5608 113.735L78.3187 112.364C78.3546 112.29 78.41 112.228 78.4788 112.184C78.5475 112.14 78.6271 112.116 78.7088 112.113C78.7655 112.114 78.8215 112.126 78.8732 112.149C78.925 112.172 78.9713 112.205 79.0093 112.247C79.0916 112.332 79.1367 112.446 79.1348 112.565C79.1346 112.641 79.1145 112.717 79.0765 112.784L78.2649 114.079L79.8389 114.021C79.8986 114.017 79.9585 114.026 80.0143 114.048C80.0701 114.07 80.1204 114.103 80.1618 114.146C80.2382 114.226 80.2801 114.332 80.2783 114.441C80.2781 114.552 80.2365 114.659 80.1618 114.741C80.1195 114.782 80.0689 114.815 80.0133 114.836C79.9576 114.856 79.8982 114.865 79.8389 114.861L78.2559 114.812L79.0452 116.086C79.0894 116.157 79.1127 116.239 79.1124 116.323C79.1124 116.441 79.0652 116.555 78.9811 116.639C78.897 116.722 78.7829 116.77 78.664 116.77C78.5871 116.769 78.5122 116.745 78.4485 116.702C78.3847 116.659 78.3349 116.599 78.3052 116.528L77.5564 115.188L76.812 116.528C76.7789 116.598 76.7271 116.658 76.6622 116.701C76.5973 116.743 76.5219 116.767 76.4442 116.77Z" fill="#263238"/>
<path d="M83.7179 116.769C83.6018 116.768 83.4909 116.721 83.4085 116.64C83.3644 116.601 83.3292 116.552 83.3052 116.498C83.2812 116.444 83.2691 116.386 83.2695 116.327C83.2709 116.246 83.2941 116.168 83.3368 116.099L84.1439 114.812L82.5744 114.861C82.5145 114.864 82.4547 114.855 82.3985 114.834C82.3423 114.813 82.2908 114.782 82.2471 114.741C82.1876 114.68 82.1479 114.602 82.1332 114.518C82.1186 114.434 82.1297 114.348 82.165 114.27C82.2003 114.192 82.2582 114.127 82.3313 114.083C82.4043 114.038 82.489 114.017 82.5744 114.021L84.1215 114.079L83.3233 112.797C83.2799 112.727 83.2566 112.647 83.256 112.565C83.2556 112.506 83.2678 112.447 83.2918 112.393C83.3157 112.339 83.3509 112.291 83.3951 112.252C83.4775 112.17 83.5884 112.124 83.7045 112.122C83.7809 112.123 83.8556 112.145 83.9199 112.186C83.9842 112.227 84.0354 112.286 84.0677 112.355L84.8345 113.735L85.5924 112.364C85.6283 112.29 85.6837 112.228 85.7524 112.184C85.8212 112.14 85.9008 112.116 85.9825 112.113C86.0393 112.113 86.0954 112.125 86.1473 112.148C86.1991 112.171 86.2453 112.205 86.283 112.247C86.3245 112.289 86.3574 112.339 86.3797 112.393C86.402 112.447 86.4133 112.506 86.413 112.565C86.4114 112.642 86.3898 112.717 86.3502 112.784L85.5386 114.079L87.117 114.03C87.1761 114.026 87.2353 114.035 87.2904 114.057C87.3454 114.079 87.395 114.112 87.4354 114.155C87.5119 114.234 87.5538 114.341 87.552 114.45C87.5517 114.561 87.5102 114.668 87.4354 114.75C87.394 114.791 87.3442 114.823 87.2893 114.844C87.2344 114.865 87.1757 114.874 87.117 114.87L85.5296 114.821L86.3188 116.095C86.3631 116.166 86.3864 116.248 86.3861 116.332C86.3861 116.45 86.3389 116.564 86.2548 116.648C86.1707 116.731 86.0566 116.778 85.9377 116.778C85.8608 116.777 85.7859 116.754 85.7221 116.711C85.6584 116.668 85.6086 116.608 85.5789 116.537L84.83 115.197L84.0856 116.537C84.0514 116.605 83.999 116.663 83.9342 116.704C83.8694 116.745 83.7946 116.768 83.7179 116.769Z" fill="#263238"/>
<path d="M90.9958 116.769C90.8781 116.769 90.7654 116.722 90.6819 116.64C90.6378 116.6 90.6025 116.552 90.5786 116.498C90.5546 116.444 90.5424 116.386 90.5429 116.327C90.5442 116.246 90.5675 116.168 90.6101 116.099L91.4173 114.812L89.8478 114.861C89.7633 114.865 89.6797 114.843 89.6076 114.799C89.5356 114.755 89.4783 114.69 89.4432 114.613C89.4081 114.537 89.3967 114.451 89.4105 114.368C89.4242 114.285 89.4625 114.208 89.5204 114.146C89.5628 114.103 89.6139 114.07 89.6704 114.048C89.7269 114.027 89.7874 114.018 89.8478 114.021L91.3949 114.079L90.5967 112.797C90.5532 112.727 90.53 112.647 90.5294 112.565C90.5308 112.506 90.5438 112.448 90.5677 112.394C90.5915 112.341 90.6258 112.292 90.6684 112.252C90.7519 112.169 90.8647 112.123 90.9823 112.122C91.058 112.124 91.1317 112.146 91.1951 112.187C91.2586 112.228 91.3091 112.286 91.3411 112.355L92.1079 113.735L92.8657 112.364C92.9017 112.29 92.957 112.228 93.0258 112.184C93.0946 112.14 93.1741 112.116 93.2559 112.113C93.3126 112.113 93.3688 112.125 93.4206 112.148C93.4724 112.171 93.5187 112.205 93.5563 112.247C93.5979 112.289 93.6308 112.339 93.6531 112.393C93.6754 112.447 93.6867 112.506 93.6864 112.565C93.6848 112.642 93.6631 112.717 93.6236 112.784L92.8119 114.079L94.3904 114.021C94.4484 114.016 94.5071 114.022 94.5623 114.041C94.6175 114.06 94.6681 114.09 94.7106 114.13C94.7531 114.169 94.7865 114.218 94.8086 114.272C94.8308 114.325 94.8411 114.383 94.8388 114.441C94.8398 114.552 94.7999 114.658 94.7267 114.741C94.6845 114.782 94.6339 114.815 94.5782 114.835C94.5226 114.856 94.4632 114.865 94.4039 114.861L92.8209 114.812L93.6057 116.086C93.6499 116.157 93.6732 116.239 93.6729 116.323C93.6715 116.381 93.6585 116.439 93.6346 116.493C93.6108 116.546 93.5766 116.595 93.5339 116.635C93.4949 116.677 93.4477 116.711 93.3953 116.734C93.3429 116.757 93.2863 116.769 93.229 116.769C93.1527 116.768 93.0785 116.745 93.0156 116.702C92.9526 116.659 92.9036 116.598 92.8747 116.528L92.1213 115.188L91.3769 116.528C91.3434 116.601 91.2896 116.662 91.222 116.705C91.1544 116.747 91.0759 116.77 90.9958 116.769Z" fill="#263238"/>
<path d="M98.2695 116.769C98.1519 116.769 98.0392 116.722 97.9556 116.64C97.8711 116.557 97.8228 116.445 97.8211 116.327C97.8197 116.247 97.8415 116.168 97.8839 116.099L98.6911 114.812L97.1215 114.861C97.0617 114.864 97.0018 114.855 96.9456 114.834C96.8894 114.813 96.8379 114.782 96.7942 114.741C96.7211 114.659 96.6807 114.553 96.6807 114.444C96.6807 114.334 96.7211 114.228 96.7942 114.146C96.8375 114.105 96.8888 114.072 96.9451 114.051C97.0013 114.029 97.0613 114.019 97.1215 114.021L98.6731 114.079L97.8794 112.797C97.836 112.727 97.8127 112.647 97.8121 112.565C97.8136 112.506 97.8266 112.448 97.8504 112.394C97.8743 112.341 97.9085 112.292 97.9511 112.252C98.0347 112.169 98.1474 112.123 98.265 112.122C98.3414 112.123 98.4162 112.145 98.4805 112.186C98.5448 112.227 98.596 112.286 98.6283 112.355L99.3906 113.735L100.148 112.364C100.184 112.29 100.24 112.228 100.309 112.184C100.377 112.14 100.457 112.116 100.539 112.113C100.595 112.113 100.652 112.125 100.703 112.148C100.755 112.171 100.801 112.205 100.839 112.247C100.881 112.289 100.913 112.339 100.936 112.393C100.958 112.448 100.969 112.506 100.969 112.565C100.968 112.642 100.946 112.717 100.906 112.784L100.095 114.079L101.673 114.021C101.731 114.016 101.79 114.022 101.845 114.041C101.9 114.06 101.951 114.09 101.993 114.13C102.036 114.169 102.069 114.218 102.091 114.272C102.113 114.325 102.124 114.383 102.122 114.441C102.123 114.552 102.083 114.658 102.009 114.741C101.967 114.782 101.917 114.815 101.861 114.836C101.805 114.856 101.746 114.865 101.687 114.861L100.104 114.812L100.888 116.086C100.933 116.157 100.956 116.239 100.956 116.323C100.956 116.382 100.944 116.44 100.92 116.494C100.896 116.548 100.861 116.596 100.817 116.635C100.778 116.677 100.73 116.711 100.678 116.734C100.626 116.757 100.569 116.769 100.512 116.769C100.435 116.768 100.361 116.745 100.298 116.702C100.235 116.659 100.186 116.599 100.157 116.528L99.4041 115.188L98.6597 116.528C98.6255 116.602 98.5703 116.664 98.5009 116.707C98.4316 116.75 98.3511 116.772 98.2695 116.769Z" fill="#263238"/>
<path d="M105.543 116.769C105.425 116.769 105.313 116.722 105.229 116.64C105.16 116.57 105.115 116.479 105.103 116.381C105.091 116.283 105.112 116.184 105.162 116.099L105.964 114.812L104.395 114.861C104.335 114.864 104.275 114.855 104.219 114.834C104.163 114.813 104.111 114.782 104.068 114.741C103.994 114.659 103.954 114.553 103.954 114.444C103.954 114.334 103.994 114.228 104.068 114.146C104.111 114.105 104.162 114.072 104.219 114.051C104.275 114.029 104.335 114.019 104.395 114.021L105.947 114.079L105.148 112.797C105.105 112.727 105.082 112.647 105.081 112.565C105.083 112.447 105.131 112.334 105.216 112.252C105.299 112.169 105.412 112.123 105.53 112.122C105.606 112.123 105.681 112.145 105.745 112.186C105.809 112.227 105.86 112.286 105.893 112.355L106.655 113.735L107.413 112.364C107.449 112.29 107.504 112.228 107.573 112.184C107.642 112.14 107.721 112.116 107.803 112.113C107.86 112.113 107.917 112.125 107.97 112.148C108.022 112.171 108.069 112.205 108.108 112.247C108.19 112.332 108.235 112.446 108.234 112.565C108.232 112.642 108.21 112.717 108.171 112.784L107.359 114.079L108.938 114.021C108.996 114.016 109.054 114.022 109.109 114.041C109.165 114.06 109.215 114.09 109.258 114.13C109.3 114.169 109.334 114.218 109.356 114.272C109.378 114.325 109.388 114.383 109.386 114.441C109.387 114.552 109.347 114.658 109.274 114.741C109.232 114.782 109.181 114.815 109.125 114.835C109.07 114.856 109.01 114.865 108.951 114.861L107.368 114.812L108.153 116.086C108.197 116.157 108.22 116.239 108.22 116.323C108.221 116.382 108.208 116.44 108.184 116.494C108.16 116.548 108.125 116.596 108.081 116.635C108.042 116.677 107.995 116.711 107.942 116.734C107.89 116.757 107.833 116.769 107.776 116.769C107.7 116.768 107.626 116.745 107.563 116.702C107.5 116.659 107.451 116.598 107.422 116.528L106.669 115.188L105.924 116.528C105.891 116.601 105.837 116.662 105.769 116.705C105.702 116.747 105.623 116.77 105.543 116.769Z" fill="#263238"/>
<path d="M112.817 116.769C112.701 116.768 112.59 116.721 112.507 116.64C112.463 116.601 112.428 116.552 112.404 116.498C112.38 116.444 112.368 116.386 112.368 116.327C112.37 116.246 112.393 116.168 112.436 116.099L113.238 114.812L111.669 114.861C111.611 114.866 111.553 114.858 111.498 114.839C111.444 114.82 111.394 114.789 111.352 114.75C111.309 114.71 111.276 114.662 111.253 114.609C111.231 114.556 111.219 114.499 111.22 114.441C111.22 114.387 111.231 114.332 111.251 114.282C111.272 114.231 111.303 114.185 111.341 114.146C111.383 114.103 111.433 114.07 111.489 114.048C111.545 114.026 111.604 114.017 111.664 114.021L113.216 114.079L112.418 112.797C112.374 112.727 112.351 112.647 112.35 112.565C112.352 112.447 112.4 112.334 112.485 112.252C112.568 112.169 112.681 112.123 112.799 112.122C112.875 112.123 112.95 112.145 113.014 112.186C113.078 112.227 113.13 112.286 113.162 112.355L113.924 113.735L114.687 112.364C114.722 112.291 114.777 112.229 114.845 112.185C114.913 112.141 114.991 112.116 115.072 112.113C115.13 112.113 115.187 112.125 115.239 112.148C115.292 112.171 115.339 112.205 115.377 112.247C115.46 112.332 115.505 112.446 115.503 112.565C115.503 112.641 115.482 112.717 115.444 112.784L114.633 114.079L116.207 114.021C116.267 114.017 116.326 114.026 116.382 114.048C116.438 114.07 116.488 114.103 116.53 114.146C116.606 114.226 116.648 114.332 116.646 114.441C116.646 114.552 116.604 114.659 116.53 114.741C116.487 114.782 116.437 114.815 116.381 114.835C116.326 114.856 116.266 114.865 116.207 114.861L114.624 114.812L115.409 116.086C115.453 116.157 115.476 116.239 115.476 116.323C115.474 116.44 115.426 116.553 115.341 116.635C115.26 116.718 115.149 116.767 115.032 116.769C114.956 116.768 114.881 116.745 114.819 116.702C114.756 116.659 114.707 116.598 114.678 116.528L113.924 115.188L113.18 116.528C113.148 116.598 113.097 116.657 113.033 116.7C112.968 116.742 112.894 116.767 112.817 116.769Z" fill="#263238"/>
<g style="mix-blend-mode:multiply">
<path d="M135.44 26.2411H56.0583V31.1967H135.44V26.2411Z" fill="#2997CC"/>
</g>
<path d="M104.381 17.1119H87.1168C86.8052 17.1119 86.5063 16.9886 86.286 16.769C86.0657 16.5495 85.9419 16.2517 85.9419 15.9412C85.9419 15.6307 86.0657 15.3329 86.286 15.1133C86.5063 14.8938 86.8052 14.7704 87.1168 14.7704H104.381C104.693 14.7704 104.992 14.8938 105.212 15.1133C105.433 15.3329 105.556 15.6307 105.556 15.9412C105.556 16.2517 105.433 16.5495 105.212 16.769C104.992 16.9886 104.693 17.1119 104.381 17.1119Z" fill="#90CAF9" stroke="#263238" stroke-width="1.33739" stroke-linecap="round" stroke-linejoin="round"/>
<path d="M100.458 161.281C100.458 160.352 100.183 159.444 99.6659 158.672C99.1489 157.9 98.4136 157.298 97.553 156.942C96.6925 156.586 95.7454 156.493 94.8316 156.674C93.9178 156.855 93.0784 157.302 92.4196 157.958C91.7609 158.615 91.3123 159.451 91.1308 160.362C90.9492 161.272 91.0429 162.216 91.3998 163.074C91.7567 163.931 92.3609 164.664 93.1359 165.179C93.9109 165.694 94.8219 165.969 95.7536 165.968C97.0008 165.967 98.1966 165.473 99.0785 164.594C99.9604 163.715 100.456 162.523 100.458 161.281Z" fill="#90CAF9"/>
<path d="M98.1395 158.904H93.3682V163.658H98.1395V158.904Z" fill="#90CAF9" stroke="#263238" stroke-width="1.33739" stroke-linecap="round" stroke-linejoin="round"/>
<path d="M152.588 107.327C152.588 107.327 146.337 91.4998 151.902 89.6185C157.696 87.6568 157.44 98.1088 157.216 103.203C156.745 114.088 155.539 116.113 154.637 113.454L152.588 107.327ZM150.709 119.674C152.426 121.908 152.911 119.594 149.812 109.142C148.359 104.226 145.202 94.2837 140.359 98.0149C135.709 101.59 146.776 114.549 146.776 114.549L150.709 119.674ZM147.391 128.745C149.027 130.193 149.059 128.365 145.171 120.818C143.346 117.283 139.485 110.129 136.323 113.668C133.287 117.082 143.633 125.38 143.633 125.38L147.391 128.745ZM143.803 139.532C145.44 140.985 145.471 139.152 141.583 131.61C139.758 128.075 135.897 120.916 132.736 124.46C129.718 127.883 140.032 136.181 140.032 136.181L143.803 139.532ZM154.162 117.574C151.543 118.593 153.624 119.701 164.561 119.67C169.691 119.67 180.166 119.437 177.933 113.758C175.794 108.302 160.216 115.25 160.216 115.25L154.162 117.574ZM151.18 124.831C148.409 125.309 150.229 126.81 160.956 128.946C165.983 129.952 176.292 131.806 175.238 125.818C174.229 120.045 157.574 123.772 157.574 123.772L151.18 124.831ZM147.844 133.692C145.485 134.031 146.991 135.341 156.009 137.396C160.238 138.361 168.915 140.171 168.162 135.064C167.444 130.148 153.274 132.928 153.274 132.928L147.844 133.692ZM145.31 141.901C143 142.486 144.637 143.63 153.83 144.72C158.135 145.23 166.956 146.114 165.669 141.114C164.427 136.315 150.633 140.564 150.633 140.564L145.31 141.901ZM158.826 108.668C157.48 111.671 160.274 111.215 169.772 102.957C174.22 99.0829 183.144 90.977 176.077 86.9419C169.292 83.0632 161.996 101.777 161.996 101.777L158.826 108.668ZM145.66 152.594C144.238 153.421 145.633 153.742 152.153 152.446C155.211 151.843 161.431 150.503 159.328 147.857C157.292 145.31 148.951 150.672 148.951 150.672L145.66 152.594Z" fill="#FFC727"/>
<path opacity="0.3" d="M152.588 107.327C152.588 107.327 146.337 91.4998 151.902 89.6185C157.696 87.6568 157.44 98.1088 157.216 103.203C156.745 114.088 155.539 116.113 154.637 113.454L152.588 107.327ZM150.709 119.674C152.426 121.908 152.911 119.594 149.812 109.142C148.359 104.226 145.202 94.2837 140.359 98.0149C135.709 101.59 146.776 114.549 146.776 114.549L150.709 119.674ZM147.391 128.745C149.027 130.193 149.059 128.365 145.171 120.818C143.346 117.283 139.485 110.129 136.323 113.668C133.287 117.082 143.633 125.38 143.633 125.38L147.391 128.745ZM143.803 139.532C145.44 140.985 145.471 139.152 141.583 131.61C139.758 128.075 135.897 120.916 132.736 124.46C129.718 127.883 140.032 136.181 140.032 136.181L143.803 139.532ZM154.162 117.574C151.543 118.593 153.624 119.701 164.561 119.67C169.691 119.67 180.166 119.437 177.933 113.758C175.794 108.302 160.216 115.25 160.216 115.25L154.162 117.574ZM151.18 124.831C148.409 125.309 150.229 126.81 160.956 128.946C165.983 129.952 176.292 131.806 175.238 125.818C174.229 120.045 157.574 123.772 157.574 123.772L151.18 124.831ZM147.844 133.692C145.485 134.031 146.991 135.341 156.009 137.396C160.238 138.361 168.915 140.171 168.162 135.064C167.444 130.148 153.274 132.928 153.274 132.928L147.844 133.692ZM145.31 141.901C143 142.486 144.637 143.63 153.83 144.72C158.135 145.23 166.956 146.114 165.669 141.114C164.427 136.315 150.633 140.564 150.633 140.564L145.31 141.901ZM158.826 108.668C157.48 111.671 160.274 111.215 169.772 102.957C174.22 99.0829 183.144 90.977 176.077 86.9419C169.292 83.0632 161.996 101.777 161.996 101.777L158.826 108.668ZM145.66 152.594C144.238 153.421 145.633 153.742 152.153 152.446C155.211 151.843 161.431 150.503 159.328 147.857C157.292 145.31 148.951 150.672 148.951 150.672L145.66 152.594Z" fill="white"/>
<path d="M155.346 114.696L154.256 96.6297L155.346 114.696ZM151.897 120.657L145.009 105.12L151.897 120.657ZM169.673 116.139L153.166 118.499L169.673 116.139ZM148.328 129.031L139.39 117.605L148.328 129.031ZM149.897 125.528L162.211 126.145L149.897 125.528ZM146.982 134.291L156.399 135.22L146.982 134.291ZM144.709 139.859L140.032 132.847L144.709 139.859ZM144.171 142.334L155.242 142.437L144.171 142.334ZM141.929 163.032C142.003 163.027 142.072 162.992 142.12 162.936C142.169 162.88 142.194 162.807 142.189 162.733C141.485 152.196 145.574 134.939 152.135 120.773C156.328 111.72 172.763 93.9263 172.938 93.7475C172.99 93.6947 173.02 93.6232 173.02 93.5487C173.02 93.4741 172.99 93.4026 172.938 93.3498C172.912 93.3239 172.881 93.3033 172.847 93.2892C172.813 93.2752 172.777 93.2679 172.74 93.2679C172.704 93.2679 172.667 93.2752 172.633 93.2892C172.6 93.3033 172.569 93.3239 172.543 93.3498C172.377 93.5285 155.875 111.389 151.646 120.523C144.964 135.032 140.928 151.977 141.646 162.769C141.652 162.84 141.684 162.906 141.736 162.955C141.788 163.004 141.857 163.032 141.929 163.032ZM155.341 114.973C155.415 114.969 155.485 114.935 155.534 114.88C155.584 114.825 155.609 114.752 155.606 114.678L154.534 96.6029C154.532 96.5661 154.523 96.53 154.507 96.4968C154.491 96.4635 154.469 96.4337 154.442 96.4092C154.414 96.3846 154.382 96.3658 154.347 96.3538C154.312 96.3418 154.275 96.3369 154.238 96.3393C154.164 96.3439 154.094 96.3774 154.045 96.4326C153.995 96.4878 153.97 96.5602 153.973 96.6342L155.063 114.701C155.067 114.772 155.097 114.839 155.149 114.888C155.201 114.937 155.27 114.964 155.341 114.964V114.973ZM151.996 120.912C152.063 120.882 152.116 120.826 152.142 120.758C152.169 120.689 152.168 120.613 152.139 120.545L145.247 105.008C145.217 104.941 145.162 104.888 145.093 104.861C145.024 104.834 144.947 104.836 144.879 104.865C144.811 104.895 144.758 104.95 144.731 105.019C144.704 105.088 144.706 105.164 144.736 105.232L151.624 120.769C151.645 120.819 151.681 120.861 151.726 120.891C151.772 120.922 151.825 120.938 151.879 120.939C151.926 120.941 151.972 120.932 152.014 120.912H151.996ZM153.189 118.767L169.686 116.416C169.726 116.416 169.766 116.406 169.802 116.389C169.838 116.372 169.87 116.348 169.895 116.318C169.921 116.288 169.941 116.252 169.952 116.214C169.963 116.176 169.966 116.136 169.961 116.097C169.955 116.057 169.941 116.02 169.92 115.986C169.899 115.952 169.871 115.923 169.838 115.901C169.805 115.879 169.768 115.864 169.728 115.858C169.689 115.851 169.649 115.853 169.61 115.862L153.112 118.213C153.039 118.218 152.97 118.251 152.921 118.307C152.872 118.362 152.848 118.434 152.852 118.508C152.857 118.581 152.891 118.65 152.946 118.698C153.002 118.747 153.075 118.772 153.148 118.767H153.189ZM148.485 129.255C148.543 129.209 148.581 129.142 148.59 129.068C148.6 128.995 148.579 128.92 148.534 128.861L139.592 117.413C139.546 117.354 139.479 117.315 139.404 117.305C139.33 117.296 139.255 117.316 139.195 117.362C139.136 117.407 139.097 117.475 139.087 117.549C139.078 117.623 139.098 117.698 139.144 117.757L148.103 129.223C148.129 129.257 148.163 129.284 148.201 129.302C148.239 129.321 148.281 129.331 148.323 129.331C148.39 129.327 148.454 129.3 148.503 129.255H148.485ZM162.458 126.158C162.46 126.084 162.433 126.012 162.383 125.958C162.333 125.903 162.263 125.871 162.189 125.867L149.897 125.246C149.828 125.251 149.763 125.281 149.715 125.33C149.666 125.38 149.638 125.445 149.634 125.514C149.631 125.583 149.653 125.65 149.697 125.704C149.74 125.758 149.802 125.794 149.87 125.805L162.184 126.426C162.258 126.428 162.331 126.402 162.385 126.352C162.44 126.301 162.472 126.232 162.476 126.158H162.458ZM156.66 135.247C156.664 135.21 156.661 135.173 156.65 135.137C156.64 135.102 156.623 135.069 156.599 135.04C156.576 135.011 156.547 134.987 156.514 134.97C156.481 134.953 156.445 134.942 156.408 134.939L146.991 134.014C146.955 134.01 146.918 134.014 146.883 134.024C146.848 134.035 146.815 134.052 146.786 134.075C146.758 134.099 146.735 134.127 146.718 134.16C146.7 134.192 146.69 134.227 146.686 134.264C146.68 134.337 146.703 134.41 146.75 134.467C146.797 134.524 146.864 134.56 146.937 134.568L156.355 135.497H156.381C156.454 135.502 156.525 135.479 156.581 135.432C156.636 135.385 156.671 135.319 156.677 135.247H156.66ZM144.843 140.091C144.906 140.05 144.949 139.986 144.964 139.913C144.979 139.84 144.965 139.764 144.924 139.702L140.269 132.691C140.227 132.631 140.162 132.589 140.09 132.575C140.017 132.561 139.941 132.575 139.879 132.615C139.817 132.656 139.773 132.72 139.758 132.793C139.743 132.866 139.758 132.941 139.798 133.004L144.453 140.015C144.48 140.053 144.515 140.085 144.557 140.106C144.598 140.128 144.644 140.14 144.691 140.14C144.752 140.143 144.812 140.126 144.861 140.091H144.843ZM155.525 142.437C155.524 142.363 155.494 142.293 155.443 142.241C155.391 142.188 155.321 142.158 155.247 142.155L144.175 142.053C144.101 142.053 144.031 142.082 143.979 142.134C143.926 142.186 143.897 142.256 143.897 142.33C143.896 142.367 143.902 142.403 143.916 142.438C143.929 142.472 143.95 142.503 143.976 142.53C144.002 142.556 144.033 142.577 144.067 142.591C144.101 142.605 144.138 142.612 144.175 142.611L155.247 142.714C155.285 142.716 155.323 142.71 155.358 142.697C155.394 142.684 155.426 142.664 155.454 142.638C155.481 142.612 155.504 142.581 155.519 142.546C155.534 142.512 155.542 142.475 155.543 142.437H155.525ZM140.668 158.935C140.691 158.886 142.579 153.702 148.256 152.464C148.329 152.448 148.393 152.404 148.433 152.341C148.473 152.278 148.487 152.202 148.471 152.129C148.453 152.058 148.408 151.996 148.345 151.957C148.283 151.918 148.207 151.904 148.135 151.919C142.148 153.224 140.162 158.698 140.139 158.752C140.116 158.822 140.121 158.899 140.154 158.966C140.187 159.032 140.244 159.084 140.314 159.109H140.404C140.463 159.114 140.523 159.1 140.574 159.069C140.625 159.037 140.664 158.99 140.686 158.935H140.668ZM141.929 163.032C142.003 163.027 142.072 162.992 142.12 162.936C142.169 162.88 142.194 162.807 142.189 162.733C141.485 152.196 145.574 134.939 152.135 120.773C156.328 111.72 172.763 93.9263 172.938 93.7475C172.99 93.6947 173.02 93.6232 173.02 93.5487C173.02 93.4741 172.99 93.4026 172.938 93.3498C172.912 93.3239 172.881 93.3033 172.847 93.2892C172.813 93.2752 172.777 93.2679 172.74 93.2679C172.704 93.2679 172.667 93.2752 172.633 93.2892C172.6 93.3033 172.569 93.3239 172.543 93.3498C172.377 93.5285 155.875 111.389 151.646 120.523C144.964 135.032 140.928 151.977 141.646 162.769C141.652 162.84 141.684 162.906 141.736 162.955C141.788 163.004 141.857 163.032 141.929 163.032ZM155.341 114.973C155.415 114.969 155.485 114.935 155.534 114.88C155.584 114.825 155.609 114.752 155.606 114.678L154.534 96.6029C154.532 96.5661 154.523 96.53 154.507 96.4968C154.491 96.4635 154.469 96.4337 154.442 96.4092C154.414 96.3846 154.382 96.3658 154.347 96.3538C154.312 96.3418 154.275 96.3369 154.238 96.3393C154.164 96.3439 154.094 96.3774 154.045 96.4326C153.995 96.4878 153.97 96.5602 153.973 96.6342L155.063 114.701C155.067 114.772 155.097 114.839 155.149 114.888C155.201 114.937 155.27 114.964 155.341 114.964V114.973ZM151.996 120.912C152.063 120.882 152.116 120.826 152.142 120.758C152.169 120.689 152.168 120.613 152.139 120.545L145.247 105.008C145.217 104.941 145.162 104.888 145.093 104.861C145.024 104.834 144.947 104.836 144.879 104.865C144.811 104.895 144.758 104.95 144.731 105.019C144.704 105.088 144.706 105.164 144.736 105.232L151.624 120.769C151.645 120.819 151.681 120.861 151.726 120.891C151.772 120.922 151.825 120.938 151.879 120.939C151.926 120.941 151.972 120.932 152.014 120.912H151.996ZM153.189 118.767L169.686 116.416C169.726 116.416 169.766 116.406 169.802 116.389C169.838 116.372 169.87 116.348 169.895 116.318C169.921 116.288 169.941 116.252 169.952 116.214C169.963 116.176 169.966 116.136 169.961 116.097C169.955 116.057 169.941 116.02 169.92 115.986C169.899 115.952 169.871 115.923 169.838 115.901C169.805 115.879 169.768 115.864 169.728 115.858C169.689 115.851 169.649 115.853 169.61 115.862L153.112 118.213C153.039 118.218 152.97 118.251 152.921 118.307C152.872 118.362 152.848 118.434 152.852 118.508C152.857 118.581 152.891 118.65 152.946 118.698C153.002 118.747 153.075 118.772 153.148 118.767H153.189ZM148.485 129.255C148.543 129.209 148.581 129.142 148.59 129.068C148.6 128.995 148.579 128.92 148.534 128.861L139.592 117.413C139.569 117.384 139.541 117.359 139.509 117.341C139.477 117.322 139.441 117.31 139.404 117.305C139.368 117.301 139.33 117.303 139.294 117.313C139.258 117.322 139.225 117.339 139.195 117.362C139.166 117.384 139.141 117.412 139.123 117.444C139.104 117.477 139.092 117.512 139.087 117.549C139.083 117.585 139.085 117.623 139.095 117.658C139.104 117.694 139.121 117.728 139.144 117.757L148.103 129.223C148.129 129.257 148.163 129.284 148.201 129.302C148.239 129.321 148.281 129.331 148.323 129.331C148.39 129.327 148.454 129.3 148.503 129.255H148.485ZM162.458 126.158C162.46 126.084 162.433 126.012 162.383 125.958C162.333 125.903 162.263 125.871 162.189 125.867L149.897 125.246C149.828 125.251 149.763 125.281 149.715 125.33C149.666 125.38 149.638 125.445 149.634 125.514C149.631 125.583 149.653 125.65 149.697 125.704C149.74 125.758 149.802 125.794 149.87 125.805L162.184 126.426C162.258 126.428 162.331 126.402 162.385 126.352C162.44 126.301 162.472 126.232 162.476 126.158H162.458ZM156.66 135.247C156.664 135.21 156.661 135.173 156.65 135.137C156.64 135.102 156.623 135.069 156.599 135.04C156.576 135.011 156.547 134.987 156.514 134.97C156.481 134.953 156.445 134.942 156.408 134.939L146.991 134.014C146.955 134.01 146.918 134.014 146.883 134.024C146.848 134.035 146.815 134.052 146.786 134.075C146.758 134.099 146.735 134.127 146.718 134.16C146.7 134.192 146.69 134.227 146.686 134.264C146.68 134.337 146.703 134.41 146.75 134.467C146.797 134.524 146.864 134.56 146.937 134.568L156.355 135.497H156.381C156.454 135.502 156.525 135.479 156.581 135.432C156.636 135.385 156.671 135.319 156.677 135.247H156.66ZM144.843 140.091C144.906 140.05 144.949 139.986 144.964 139.913C144.979 139.84 144.965 139.764 144.924 139.702L140.269 132.691C140.227 132.631 140.162 132.589 140.09 132.575C140.017 132.561 139.941 132.575 139.879 132.615C139.817 132.656 139.773 132.72 139.758 132.793C139.743 132.866 139.758 132.941 139.798 133.004L144.453 140.015C144.48 140.053 144.515 140.085 144.557 140.106C144.598 140.128 144.644 140.14 144.691 140.14C144.752 140.143 144.812 140.126 144.861 140.091H144.843ZM155.525 142.437C155.524 142.363 155.494 142.293 155.443 142.241C155.391 142.188 155.321 142.158 155.247 142.155L144.175 142.053C144.101 142.053 144.031 142.082 143.979 142.134C143.926 142.186 143.897 142.256 143.897 142.33C143.896 142.367 143.902 142.403 143.916 142.438C143.929 142.472 143.95 142.503 143.976 142.53C144.002 142.556 144.033 142.577 144.067 142.591C144.101 142.605 144.138 142.612 144.175 142.611L155.247 142.714C155.285 142.716 155.323 142.71 155.358 142.697C155.394 142.684 155.426 142.664 155.454 142.638C155.481 142.612 155.504 142.581 155.519 142.546C155.534 142.512 155.542 142.475 155.543 142.437H155.525ZM140.668 158.935C140.691 158.886 142.579 153.702 148.256 152.464C148.329 152.448 148.393 152.404 148.433 152.341C148.473 152.278 148.487 152.202 148.471 152.129C148.453 152.058 148.408 151.996 148.345 151.957C148.283 151.918 148.207 151.904 148.135 151.919C142.148 153.224 140.162 158.698 140.139 158.752C140.116 158.822 140.121 158.899 140.154 158.966C140.187 159.032 140.244 159.084 140.314 159.109H140.404C140.463 159.114 140.523 159.1 140.574 159.069C140.625 159.037 140.664 158.99 140.686 158.935H140.668Z" fill="#FFC727"/>
<path opacity="0.2" d="M155.346 114.696L154.256 96.6297L155.346 114.696ZM151.897 120.657L145.009 105.12L151.897 120.657ZM169.673 116.139L153.166 118.499L169.673 116.139ZM148.328 129.031L139.39 117.605L148.328 129.031ZM149.897 125.528L162.211 126.145L149.897 125.528ZM146.982 134.291L156.399 135.22L146.982 134.291ZM144.709 139.859L140.032 132.847L144.709 139.859ZM144.171 142.334L155.242 142.437L144.171 142.334ZM141.929 163.032C142.003 163.027 142.072 162.992 142.12 162.936C142.169 162.88 142.194 162.807 142.189 162.733C141.485 152.196 145.574 134.939 152.135 120.773C156.328 111.72 172.763 93.9263 172.938 93.7475C172.99 93.6947 173.02 93.6232 173.02 93.5487C173.02 93.4741 172.99 93.4026 172.938 93.3498C172.912 93.3239 172.881 93.3033 172.847 93.2892C172.813 93.2752 172.777 93.2679 172.74 93.2679C172.704 93.2679 172.667 93.2752 172.633 93.2892C172.6 93.3033 172.569 93.3239 172.543 93.3498C172.377 93.5285 155.875 111.389 151.646 120.523C144.964 135.032 140.928 151.977 141.646 162.769C141.652 162.84 141.684 162.906 141.736 162.955C141.788 163.004 141.857 163.032 141.929 163.032ZM155.341 114.973C155.415 114.969 155.485 114.935 155.534 114.88C155.584 114.825 155.609 114.752 155.606 114.678L154.534 96.6029C154.532 96.5661 154.523 96.53 154.507 96.4968C154.491 96.4635 154.469 96.4337 154.442 96.4092C154.414 96.3846 154.382 96.3658 154.347 96.3538C154.312 96.3418 154.275 96.3369 154.238 96.3393C154.164 96.3439 154.094 96.3774 154.045 96.4326C153.995 96.4878 153.97 96.5602 153.973 96.6342L155.063 114.701C155.067 114.772 155.097 114.839 155.149 114.888C155.201 114.937 155.27 114.964 155.341 114.964V114.973ZM151.996 120.912C152.063 120.882 152.116 120.826 152.142 120.758C152.169 120.689 152.168 120.613 152.139 120.545L145.247 105.008C145.217 104.941 145.162 104.888 145.093 104.861C145.024 104.834 144.947 104.836 144.879 104.865C144.811 104.895 144.758 104.95 144.731 105.019C144.704 105.088 144.706 105.164 144.736 105.232L151.624 120.769C151.645 120.819 151.681 120.861 151.726 120.891C151.772 120.922 151.825 120.938 151.879 120.939C151.926 120.941 151.972 120.932 152.014 120.912H151.996ZM153.189 118.767L169.686 116.416C169.726 116.416 169.766 116.406 169.802 116.389C169.838 116.372 169.87 116.348 169.895 116.318C169.921 116.288 169.941 116.252 169.952 116.214C169.963 116.176 169.966 116.136 169.961 116.097C169.955 116.057 169.941 116.02 169.92 115.986C169.899 115.952 169.871 115.923 169.838 115.901C169.805 115.879 169.768 115.864 169.728 115.858C169.689 115.851 169.649 115.853 169.61 115.862L153.112 118.213C153.039 118.218 152.97 118.251 152.921 118.307C152.872 118.362 152.848 118.434 152.852 118.508C152.857 118.581 152.891 118.65 152.946 118.698C153.002 118.747 153.075 118.772 153.148 118.767H153.189ZM148.485 129.255C148.543 129.209 148.581 129.142 148.59 129.068C148.6 128.995 148.579 128.92 148.534 128.861L139.592 117.413C139.546 117.354 139.479 117.315 139.404 117.305C139.33 117.296 139.255 117.316 139.195 117.362C139.136 117.407 139.097 117.475 139.087 117.549C139.078 117.623 139.098 117.698 139.144 117.757L148.103 129.223C148.129 129.257 148.163 129.284 148.201 129.302C148.239 129.321 148.281 129.331 148.323 129.331C148.39 129.327 148.454 129.3 148.503 129.255H148.485ZM162.458 126.158C162.46 126.084 162.433 126.012 162.383 125.958C162.333 125.903 162.263 125.871 162.189 125.867L149.897 125.246C149.828 125.251 149.763 125.281 149.715 125.33C149.666 125.38 149.638 125.445 149.634 125.514C149.631 125.583 149.653 125.65 149.697 125.704C149.74 125.758 149.802 125.794 149.87 125.805L162.184 126.426C162.258 126.428 162.331 126.402 162.385 126.352C162.44 126.301 162.472 126.232 162.476 126.158H162.458ZM156.66 135.247C156.664 135.21 156.661 135.173 156.65 135.137C156.64 135.102 156.623 135.069 156.599 135.04C156.576 135.011 156.547 134.987 156.514 134.97C156.481 134.953 156.445 134.942 156.408 134.939L146.991 134.014C146.955 134.01 146.918 134.014 146.883 134.024C146.848 134.035 146.815 134.052 146.786 134.075C146.758 134.099 146.735 134.127 146.718 134.16C146.7 134.192 146.69 134.227 146.686 134.264C146.68 134.337 146.703 134.41 146.75 134.467C146.797 134.524 146.864 134.56 146.937 134.568L156.355 135.497H156.381C156.454 135.502 156.525 135.479 156.581 135.432C156.636 135.385 156.671 135.319 156.677 135.247H156.66ZM144.843 140.091C144.906 140.05 144.949 139.986 144.964 139.913C144.979 139.84 144.965 139.764 144.924 139.702L140.269 132.691C140.227 132.631 140.162 132.589 140.09 132.575C140.017 132.561 139.941 132.575 139.879 132.615C139.817 132.656 139.773 132.72 139.758 132.793C139.743 132.866 139.758 132.941 139.798 133.004L144.453 140.015C144.48 140.053 144.515 140.085 144.557 140.106C144.598 140.128 144.644 140.14 144.691 140.14C144.752 140.143 144.812 140.126 144.861 140.091H144.843ZM155.525 142.437C155.524 142.363 155.494 142.293 155.443 142.241C155.391 142.188 155.321 142.158 155.247 142.155L144.175 142.053C144.101 142.053 144.031 142.082 143.979 142.134C143.926 142.186 143.897 142.256 143.897 142.33C143.896 142.367 143.902 142.403 143.916 142.438C143.929 142.472 143.95 142.503 143.976 142.53C144.002 142.556 144.033 142.577 144.067 142.591C144.101 142.605 144.138 142.612 144.175 142.611L155.247 142.714C155.285 142.716 155.323 142.71 155.358 142.697C155.394 142.684 155.426 142.664 155.454 142.638C155.481 142.612 155.504 142.581 155.519 142.546C155.534 142.512 155.542 142.475 155.543 142.437H155.525ZM140.668 158.935C140.691 158.886 142.579 153.702 148.256 152.464C148.329 152.448 148.393 152.404 148.433 152.341C148.473 152.278 148.487 152.202 148.471 152.129C148.453 152.058 148.408 151.996 148.345 151.957C148.283 151.918 148.207 151.904 148.135 151.919C142.148 153.224 140.162 158.698 140.139 158.752C140.116 158.822 140.121 158.899 140.154 158.966C140.187 159.032 140.244 159.084 140.314 159.109H140.404C140.463 159.114 140.523 159.1 140.574 159.069C140.625 159.037 140.664 158.99 140.686 158.935H140.668ZM141.929 163.032C142.003 163.027 142.072 162.992 142.12 162.936C142.169 162.88 142.194 162.807 142.189 162.733C141.485 152.196 145.574 134.939 152.135 120.773C156.328 111.72 172.763 93.9263 172.938 93.7475C172.99 93.6947 173.02 93.6232 173.02 93.5487C173.02 93.4741 172.99 93.4026 172.938 93.3498C172.912 93.3239 172.881 93.3033 172.847 93.2892C172.813 93.2752 172.777 93.2679 172.74 93.2679C172.704 93.2679 172.667 93.2752 172.633 93.2892C172.6 93.3033 172.569 93.3239 172.543 93.3498C172.377 93.5285 155.875 111.389 151.646 120.523C144.964 135.032 140.928 151.977 141.646 162.769C141.652 162.84 141.684 162.906 141.736 162.955C141.788 163.004 141.857 163.032 141.929 163.032ZM155.341 114.973C155.415 114.969 155.485 114.935 155.534 114.88C155.584 114.825 155.609 114.752 155.606 114.678L154.534 96.6029C154.532 96.5661 154.523 96.53 154.507 96.4968C154.491 96.4635 154.469 96.4337 154.442 96.4092C154.414 96.3846 154.382 96.3658 154.347 96.3538C154.312 96.3418 154.275 96.3369 154.238 96.3393C154.164 96.3439 154.094 96.3774 154.045 96.4326C153.995 96.4878 153.97 96.5602 153.973 96.6342L155.063 114.701C155.067 114.772 155.097 114.839 155.149 114.888C155.201 114.937 155.27 114.964 155.341 114.964V114.973ZM151.996 120.912C152.063 120.882 152.116 120.826 152.142 120.758C152.169 120.689 152.168 120.613 152.139 120.545L145.247 105.008C145.217 104.941 145.162 104.888 145.093 104.861C145.024 104.834 144.947 104.836 144.879 104.865C144.811 104.895 144.758 104.95 144.731 105.019C144.704 105.088 144.706 105.164 144.736 105.232L151.624 120.769C151.645 120.819 151.681 120.861 151.726 120.891C151.772 120.922 151.825 120.938 151.879 120.939C151.926 120.941 151.972 120.932 152.014 120.912H151.996ZM153.189 118.767L169.686 116.416C169.726 116.416 169.766 116.406 169.802 116.389C169.838 116.372 169.87 116.348 169.895 116.318C169.921 116.288 169.941 116.252 169.952 116.214C169.963 116.176 169.966 116.136 169.961 116.097C169.955 116.057 169.941 116.02 169.92 115.986C169.899 115.952 169.871 115.923 169.838 115.901C169.805 115.879 169.768 115.864 169.728 115.858C169.689 115.851 169.649 115.853 169.61 115.862L153.112 118.213C153.039 118.218 152.97 118.251 152.921 118.307C152.872 118.362 152.848 118.434 152.852 118.508C152.857 118.581 152.891 118.65 152.946 118.698C153.002 118.747 153.075 118.772 153.148 118.767H153.189ZM148.485 129.255C148.543 129.209 148.581 129.142 148.59 129.068C148.6 128.995 148.579 128.92 148.534 128.861L139.592 117.413C139.569 117.384 139.541 117.359 139.509 117.341C139.477 117.322 139.441 117.31 139.404 117.305C139.368 117.301 139.33 117.303 139.294 117.313C139.258 117.322 139.225 117.339 139.195 117.362C139.166 117.384 139.141 117.412 139.123 117.444C139.104 117.477 139.092 117.512 139.087 117.549C139.083 117.585 139.085 117.623 139.095 117.658C139.104 117.694 139.121 117.728 139.144 117.757L148.103 129.223C148.129 129.257 148.163 129.284 148.201 129.302C148.239 129.321 148.281 129.331 148.323 129.331C148.39 129.327 148.454 129.3 148.503 129.255H148.485ZM162.458 126.158C162.46 126.084 162.433 126.012 162.383 125.958C162.333 125.903 162.263 125.871 162.189 125.867L149.897 125.246C149.828 125.251 149.763 125.281 149.715 125.33C149.666 125.38 149.638 125.445 149.634 125.514C149.631 125.583 149.653 125.65 149.697 125.704C149.74 125.758 149.802 125.794 149.87 125.805L162.184 126.426C162.258 126.428 162.331 126.402 162.385 126.352C162.44 126.301 162.472 126.232 162.476 126.158H162.458ZM156.66 135.247C156.664 135.21 156.661 135.173 156.65 135.137C156.64 135.102 156.623 135.069 156.599 135.04C156.576 135.011 156.547 134.987 156.514 134.97C156.481 134.953 156.445 134.942 156.408 134.939L146.991 134.014C146.955 134.01 146.918 134.014 146.883 134.024C146.848 134.035 146.815 134.052 146.786 134.075C146.758 134.099 146.735 134.127 146.718 134.16C146.7 134.192 146.69 134.227 146.686 134.264C146.68 134.337 146.703 134.41 146.75 134.467C146.797 134.524 146.864 134.56 146.937 134.568L156.355 135.497H156.381C156.454 135.502 156.525 135.479 156.581 135.432C156.636 135.385 156.671 135.319 156.677 135.247H156.66ZM144.843 140.091C144.906 140.05 144.949 139.986 144.964 139.913C144.979 139.84 144.965 139.764 144.924 139.702L140.269 132.691C140.227 132.631 140.162 132.589 140.09 132.575C140.017 132.561 139.941 132.575 139.879 132.615C139.817 132.656 139.773 132.72 139.758 132.793C139.743 132.866 139.758 132.941 139.798 133.004L144.453 140.015C144.48 140.053 144.515 140.085 144.557 140.106C144.598 140.128 144.644 140.14 144.691 140.14C144.752 140.143 144.812 140.126 144.861 140.091H144.843ZM155.525 142.437C155.524 142.363 155.494 142.293 155.443 142.241C155.391 142.188 155.321 142.158 155.247 142.155L144.175 142.053C144.101 142.053 144.031 142.082 143.979 142.134C143.926 142.186 143.897 142.256 143.897 142.33C143.896 142.367 143.902 142.403 143.916 142.438C143.929 142.472 143.95 142.503 143.976 142.53C144.002 142.556 144.033 142.577 144.067 142.591C144.101 142.605 144.138 142.612 144.175 142.611L155.247 142.714C155.285 142.716 155.323 142.71 155.358 142.697C155.394 142.684 155.426 142.664 155.454 142.638C155.481 142.612 155.504 142.581 155.519 142.546C155.534 142.512 155.542 142.475 155.543 142.437H155.525ZM140.668 158.935C140.691 158.886 142.579 153.702 148.256 152.464C148.329 152.448 148.393 152.404 148.433 152.341C148.473 152.278 148.487 152.202 148.471 152.129C148.453 152.058 148.408 151.996 148.345 151.957C148.283 151.918 148.207 151.904 148.135 151.919C142.148 153.224 140.162 158.698 140.139 158.752C140.116 158.822 140.121 158.899 140.154 158.966C140.187 159.032 140.244 159.084 140.314 159.109H140.404C140.463 159.114 140.523 159.1 140.574 159.069C140.625 159.037 140.664 158.99 140.686 158.935H140.668Z" fill="black"/>
<path d="M149.252 155.154H136.557V157.773H137.664L139.956 172.059H145.853L148.144 157.773H149.252V155.154Z" fill="#FFC727"/>
<path opacity="0.3" d="M149.252 155.154H136.557V157.773H137.664L139.956 172.059H145.853L148.144 157.773H149.252V155.154Z" fill="white"/>
<path d="M34.9552 75.9715L20.1883 71.1678L18.8744 67.7092L15.8744 67.6154L10.4304 66.5876L11.0851 67.7092L17.9372 72.6648L19.6278 73.5049L35.0718 81.5438L34.9552 75.9715Z" fill="white" stroke="#263238" stroke-width="1.00396" stroke-miterlimit="10"/>
<path d="M18.874 67.7092L17.466 66.8691L14.6543 67.8968L15.1207 68.4554L18.874 67.7092Z" fill="white" stroke="#263238" stroke-width="1.00396" stroke-linejoin="round"/>
<path d="M34.9552 75.9715L20.1883 71.1678L18.8744 67.7092L15.8744 67.6154L10.4304 66.5876L11.0851 67.7092L17.9372 72.6648L19.6278 73.5049L35.0718 81.5438L34.9552 75.9715Z" fill="white"/>
<path opacity="0.5" d="M34.9552 75.9715L20.1883 71.1678L18.8744 67.7092L15.8744 67.6154L10.4304 66.5876L11.0851 67.7092L17.9372 72.6648L19.6278 73.5049L35.0718 81.5438L34.9552 75.9715Z" fill="#90CAF9" stroke="#263238" stroke-width="1.00396" stroke-miterlimit="10"/>
<path d="M34.9552 75.9715L20.1883 71.1678L18.8744 67.7092L15.8744 67.6154L10.4304 66.5876L11.0851 67.7092L17.9372 72.6648L19.6278 73.5049L35.0718 81.5438L34.9552 75.9715Z" stroke="#263238" stroke-width="1.00396" stroke-miterlimit="10"/>
<path d="M18.874 67.7092L17.466 66.8691L14.6543 67.8968L15.1207 68.4554L18.874 67.7092Z" fill="white"/>
<path opacity="0.5" d="M18.874 67.7092L17.466 66.8691L14.6543 67.8968L15.1207 68.4554L18.874 67.7092Z" fill="#90CAF9" stroke="#263238" stroke-width="1.00396" stroke-linejoin="round"/>
<path d="M18.874 67.7092L17.466 66.8691L14.6543 67.8968L15.1207 68.4554L18.874 67.7092Z" stroke="#263238" stroke-width="1.00396" stroke-linejoin="round"/>
<path d="M38.0896 44.7946C38.0896 44.7946 37.8609 46.8054 38.4304 48.0968C38.9999 49.3882 42.1614 53.7629 42.1614 53.7629L36.26 58.4773C36.26 58.4773 33.8116 53.5619 33.3452 52.7665C32.8788 51.971 32.3183 48.5481 33.8385 46.0949C35.3587 43.6417 37.547 42.9803 38.0896 44.7946Z" fill="white"/>
<g style="mix-blend-mode:multiply" opacity="0.5">
<path d="M35.0583 51.256L37.6189 56.5467L36.2556 58.4816L33.6816 53.9014L35.0583 51.256Z" fill="#90CAF9"/>
</g>
<path d="M38.0896 44.7946C38.0896 44.7946 37.8609 46.8054 38.4304 48.0968C38.9999 49.3882 42.1614 53.7629 42.1614 53.7629L36.26 58.4773C36.26 58.4773 33.8116 53.5619 33.3452 52.7665C32.8788 51.971 32.3183 48.5481 33.8385 46.0949C35.3587 43.6417 37.547 42.9803 38.0896 44.7946Z" stroke="#263238" stroke-width="1.00396" stroke-miterlimit="10"/>
<path d="M39.9193 41.1124C39.556 38.8781 36.9865 34.3336 32.9103 34.5079C30.2645 34.6241 29.0268 35.1558 27.8788 35.8038C26.9431 36.3532 26.0709 37.0035 25.2779 37.7431C23.2869 40.1249 22.5873 40.7773 22.973 42.6004C22.9414 43.3276 23.0557 44.0538 23.3093 44.7364C23.9192 46.3585 24.3362 47.4175 24.8654 48.1906C24.7039 48.9458 24.2824 50.9387 24.26 51.3945C24.2376 51.8503 25.6053 51.533 26.2959 51.3588C27.5784 54.2186 29.9282 56.2027 30.6591 56.4306C31.9327 56.8283 33.9461 54.7415 35.0134 53.1238C36.0807 51.5062 35.2735 49.6875 35.278 48.9636C35.2825 48.2397 37.6771 46.6489 38.565 46.144C39.4529 45.639 40.278 43.3422 39.9193 41.1124Z" fill="white"/>
<g style="mix-blend-mode:multiply" opacity="0.5">
<path d="M22.9909 42.6004C22.9592 43.3276 23.0736 44.0538 23.3272 44.7364C23.9371 46.3585 24.3541 47.4175 24.8833 48.1906C24.7218 48.9458 24.3003 50.9387 24.2779 51.3945C24.2555 51.8503 25.6232 51.5331 26.3138 51.3588C27.5963 54.2187 29.9461 56.2027 30.677 56.4306C31.9506 56.8283 33.964 54.7415 35.0313 53.1239C35.2979 52.72 35.471 52.2621 35.538 51.7833C35.4797 51.5733 35.4394 51.4437 35.4394 51.4437C35.4394 51.4437 34.8385 53.745 33.6456 53.4456C32.4528 53.1462 30.6277 50.7645 29.6097 49.9423C28.5918 49.12 29.0088 48.0387 28.807 46.8143C28.6052 45.5899 25.5918 44.513 25.39 43.8114C25.1882 43.1098 25.8922 40.2053 25.8922 40.2053C25.8922 40.2053 27.0357 38.686 26.7891 39.3116C26.6148 39.854 26.5515 40.4258 26.6032 40.9931C26.6548 41.5603 26.8202 42.1115 27.0895 42.6138C27.2786 43.0102 27.5784 43.3438 27.9531 43.5745C28.3278 43.8051 28.7613 43.9231 29.2017 43.9142L30.2958 38.5117L27.9864 36.6081L25.2958 37.7252C23.2868 40.1248 22.6007 40.7773 22.9909 42.6004Z" fill="#90CAF9"/>
</g>
<path d="M39.9193 41.1124C39.556 38.8781 36.9865 34.3336 32.9103 34.5079C30.2645 34.6241 29.0268 35.1558 27.8788 35.8038C26.9431 36.3532 26.0709 37.0035 25.2779 37.7431C23.2869 40.1249 22.5873 40.7773 22.973 42.6004C22.9414 43.3276 23.0557 44.0538 23.3093 44.7364C23.9192 46.3585 24.3362 47.4175 24.8654 48.1906C24.7039 48.9458 24.2824 50.9387 24.26 51.3945C24.2376 51.8503 25.6053 51.533 26.2959 51.3588C27.5784 54.2186 29.9282 56.2027 30.6591 56.4306C31.9327 56.8283 33.9461 54.7415 35.0134 53.1238C36.0807 51.5062 35.2735 49.6875 35.278 48.9636C35.2825 48.2397 37.6771 46.6489 38.565 46.144C39.4529 45.639 40.278 43.3422 39.9193 41.1124Z" stroke="#263238" stroke-miterlimit="10"/>
<path d="M25.4214 46.841L25.8698 48.119C25.8698 48.119 26.834 48.4363 28.0088 47.1583" stroke="#263238" stroke-miterlimit="10" stroke-linecap="round"/>
<path d="M28.7354 52.8111C28.7354 52.8111 29.8026 52.7039 30.2331 51.2114" stroke="#263238" stroke-miterlimit="10" stroke-linecap="round"/>
<path d="M24.6726 45.7731C24.6726 45.7731 24.991 44.8123 26.9148 44.8123" stroke="#263238" stroke-miterlimit="10" stroke-linecap="round"/>
<path d="M34.5335 32.7294C33.1357 32.5291 31.726 32.4217 30.3138 32.4077C30.3138 32.4077 26.0896 29.9813 22.0313 32.5686C17.9729 35.1559 19.9236 39.687 19.9236 40.8175C19.9236 41.9481 18.6232 41.9525 19.4348 43.4093C20.2465 44.866 22.9909 44.0617 22.9909 44.0617C23.0199 43.5122 23.1656 42.9752 23.4184 42.486C23.6712 41.9969 24.0253 41.5668 24.4573 41.2242C25.9192 40.0936 27.0851 39.8478 27.5694 40.174C27.5694 40.174 27.2465 42.6005 27.7308 43.5701C27.7308 43.5701 29.3542 44.3789 29.8429 44.3789C30.3317 44.3789 29.5246 45.0626 31.1434 45.6704C31.4383 45.7759 31.7538 45.8119 32.065 45.7754C32.3763 45.739 32.6748 45.6311 32.9371 45.4603C33.1748 44.4773 33.695 42.9982 34.6636 43.3422C36.0851 43.8472 37.3811 47.3327 35.4573 48.5213C37.7712 48.9413 40.5739 44.8615 40.7399 41.1437C40.9058 37.4259 36.9371 33.1495 34.5335 32.7294Z" fill="#263238"/>
<path d="M27.6411 38.5787C27.6411 38.5787 28.8339 37.9397 30.2958 39.3071C31.7577 40.6744 34.6008 42.502 38.3676 41.4966" stroke="white" stroke-width="0.5" stroke-linecap="round" stroke-linejoin="round"/>
<path d="M27.4751 37.4839C27.4751 37.4839 28.2957 36.2059 29.6679 36.2059C31.0401 36.2059 34.2464 38.1229 36.807 38.1229" stroke="white" stroke-width="0.5" stroke-linecap="round" stroke-linejoin="round"/>
<path d="M26.5423 39.9461C26.5423 39.9461 24.9863 38.0336 23.5244 39.5841C22.0625 41.1347 22.9907 42.6004 22.9907 42.6004" stroke="white" stroke-width="0.5" stroke-linecap="round" stroke-linejoin="round"/>
<path d="M20.3228 41.2241C21.2145 40.4228 21.7688 39.3148 21.8743 38.1229C22.0582 36.1166 24.8071 34.3828 26.5425 36.0272" stroke="white" stroke-width="0.5" stroke-linecap="round" stroke-linejoin="round"/>
<path d="M23.1567 33.927C23.1567 33.927 25.9056 31.2816 28.1926 34.6554" stroke="white" stroke-width="0.5" stroke-linecap="round" stroke-linejoin="round"/>
<path d="M45.5291 163.993C45.5291 163.993 47.2197 166.612 47.0314 168.296L46.8475 169.981C46.8475 169.981 40.6457 171.674 39.3318 171.674C38.0179 171.674 31.0627 171.018 31.0627 171.018L30.7623 169.829C30.7412 169.741 30.7511 169.649 30.7903 169.567C30.8295 169.486 30.8956 169.421 30.9775 169.382L37.1793 166.5L39.1345 164.368L45.5291 163.993Z" fill="white" stroke="#263238" stroke-width="1.00396" stroke-miterlimit="10"/>
<path d="M40.2735 170.356C41.9551 170.486 45.1479 169.462 47 168.81L46.8699 169.981C46.8699 169.981 40.6457 171.674 39.3318 171.674C38.0179 171.674 31.0627 171.018 31.0627 171.018L30.8474 170.168C31.9595 170.173 38.0492 170.186 40.2735 170.356Z" fill="#90CAF9" stroke="#263238" stroke-width="1.00396" stroke-miterlimit="10"/>
<path d="M37.1881 166.5L28.1612 170.414C28.1612 170.414 27.3899 172.34 28.1612 172.725C28.9325 173.109 45.7487 172.725 45.7487 172.725C45.7487 172.725 46.9101 169.682 45.076 167.639C43.242 165.597 37.1881 166.5 37.1881 166.5Z" fill="white" stroke="#263238" stroke-width="1.00396" stroke-miterlimit="10"/>
<path d="M45.7489 172.725C45.7489 172.725 28.9327 173.109 28.1614 172.725C27.7892 172.537 27.7757 171.996 27.8609 171.482H46.0449C45.9854 171.905 45.8863 172.321 45.7489 172.725Z" fill="#90CAF9" stroke="#263238" stroke-width="1.00396" stroke-miterlimit="10"/>
<path d="M32.9194 98.484C32.9194 98.484 30.5606 108.9 29.6682 115.415C28.7758 121.931 28.2512 134.983 28.4395 136.48C28.6279 137.977 38.018 163.059 38.018 163.059L38.9553 165.293L45.5293 163.984C45.5293 163.984 42.5248 154.439 41.3992 149.198C40.2736 143.956 37.8118 135.345 37.8118 133.848C37.8118 132.351 43.6414 103.761 44.0584 101.885C44.4755 100.008 46.3678 97.1256 46.3678 97.1256L33.7803 96.8709L32.9194 98.484Z" fill="#90CAF9" stroke="#263238" stroke-width="1.00396" stroke-miterlimit="10"/>
<path d="M32.9191 98.484C32.9191 98.484 31.5379 107.998 32.1074 114.611C32.6769 121.224 33.9012 135.305 33.9012 137.401C33.9012 139.496 37.2958 152.013 37.4886 155.945C37.7891 161.625 37.3675 164.435 37.3675 164.435L37.1657 166.495C37.1657 166.495 41.1254 167.058 41.9909 167.304C42.9905 167.561 44.0221 167.672 45.0537 167.635C45.0537 167.635 46.4931 161.321 46.4931 155.941C46.4931 150.561 45.2958 139.487 44.6994 135.001C44.103 130.515 45.9819 113.208 47.0492 109.977C48.1165 106.746 50.4483 99.905 48.8788 96.4106C47.3093 92.9162 32.9191 98.484 32.9191 98.484Z" fill="#90CAF9" stroke="#263238" stroke-width="1.00396" stroke-miterlimit="10"/>
<path d="M50.6232 94.659L50.4797 98.9131C50.4797 98.9131 47.9236 99.418 44.4797 100.012C41.6366 100.504 34.4976 99.8828 32.094 99.6504C31.8749 99.6311 31.6724 99.5263 31.5305 99.3589C31.3886 99.1916 31.3187 98.9751 31.3361 98.7567L31.5693 94.9137L50.6232 94.659Z" fill="#263238"/>
<path d="M40.6322 52.2525C40.6322 52.2525 36.5963 56.6004 35.0762 59.3039C33.556 62.0073 32.9551 66.1497 32.3856 69.4117C31.8161 72.6737 33.3587 80.3328 32.9237 83.8496L31.547 94.9271C31.547 94.9271 31.251 95.6778 32.2421 96.5C33.2331 97.3222 38.0717 97.6216 42.4439 97.8406C44.0403 97.921 48.8072 96.8977 49.5874 96.8485C50.5291 96.7905 50.5605 95.5974 50.6009 94.659C50.7892 90.2485 51.5874 78.4918 52.1121 73.3708C53.1928 62.9278 47.278 52.8468 40.6322 52.2525Z" fill="white" stroke="#263238" stroke-width="1.00396" stroke-miterlimit="10"/>
<g style="mix-blend-mode:multiply">
<path d="M51.6188 79.3095C51.7982 76.9904 51.9776 74.8857 52.1345 73.3708C52.1794 72.924 52.2063 72.4771 52.2287 72.0303L41.5067 73.8177L32.2959 70.6897C32.2969 72.5889 32.4047 74.4865 32.6188 76.3737L41.6547 78.894L51.6188 79.3095Z" fill="#90CAF9"/>
</g>
<g style="mix-blend-mode:multiply">
<path d="M40.2331 52.6904C39.6232 53.3652 38.4125 54.737 37.26 56.1938L44.0672 63.0887L46.3094 62.195L40.2331 52.6904Z" fill="#90CAF9"/>
</g>
<path d="M40.6321 52.2525C40.6321 52.2525 36.5962 56.6004 35.076 59.3038C34.6253 60.1255 34.2601 60.9909 33.9863 61.8867L42.103 52.543C41.6234 52.3982 41.1308 52.3009 40.6321 52.2525Z" fill="#263238"/>
<g style="mix-blend-mode:multiply">
<path d="M32.6995 67.6511L41.5067 70.5378L52.2018 69.3134C52.0342 66.6585 51.4422 64.0473 50.4484 61.5784L41.8251 65.0236L34.1165 61.5426C33.4862 63.5391 33.0124 65.5815 32.6995 67.6511Z" fill="#90CAF9"/>
</g>
<g style="mix-blend-mode:multiply">
<path d="M47.861 90.2486C43.3941 90.996 38.8106 90.6228 34.5247 89.1628L32.3767 88.4299L31.7085 93.7922L34.1569 94.4759C38.8115 95.7727 43.6764 96.1462 48.4754 95.5751L50.453 95.3383C50.5559 95.1212 50.6138 94.8856 50.6234 94.6457C50.6772 93.4526 50.7714 91.7188 50.8924 89.7303L47.861 90.2486Z" fill="#90CAF9"/>
</g>
<g style="mix-blend-mode:multiply">
<path d="M49.0582 82.947C44.5911 83.6973 40.0066 83.3225 35.7219 81.8567L32.9864 80.9228C33.0543 81.8963 33.0408 82.8738 32.9461 83.8452L32.6277 86.4235L35.3542 87.1831C40.0069 88.4813 44.8703 88.8563 49.6681 88.2869L51.0134 88.126C51.1255 86.3386 51.2556 84.435 51.3946 82.5538L49.0582 82.947Z" fill="#90CAF9"/>
</g>
<path d="M6.98686 64.0504L15.6575 70.9973L16.0312 70.5341L7.36058 63.5872L6.98686 64.0504Z" fill="#263238"/>
<path d="M44.807 57.0741C44.807 57.0741 47.9864 59.2324 48.0582 64.331C48.0896 66.5653 47.8564 68.6521 47.3407 72.3118C46.825 75.9716 43.6232 87.8892 41.1299 89.337C38.6366 90.7848 34.7666 88.0501 34.7666 88.0501L16.0491 75.6677L11.5244 72.0258L9.28223 67.8075L9.98627 66.467L15.5065 70.6853L12.5334 67.9461L13.1163 67.2087L14.1926 67.955L17.3316 69.1258L18.0177 73.5943L18.9863 74.2557L36.8922 80.7753C36.8922 80.7753 36.668 71.1724 36.8339 69.3358C36.9998 67.4992 37.2285 62.8832 39.2016 59.5362" fill="white"/>
<g style="mix-blend-mode:multiply" opacity="0.5">
<path d="M36.7667 73.5183C36.7667 76.8339 36.8788 80.7752 36.8788 80.7752L18.9908 74.2824L18.0222 73.621L17.3361 69.1525L14.1971 67.9817L13.1253 67.2221L12.5423 67.9594L15.5065 70.6852L9.98628 66.4669L9.31812 67.7851L11.5603 72.0034L16.085 75.6676L17.224 76.4228L41.955 84.3634L36.7667 73.5183Z" fill="#90CAF9"/>
</g>
<path d="M44.807 57.0741C44.807 57.0741 47.9864 59.2324 48.0582 64.331C48.0896 66.5653 47.8564 68.6521 47.3407 72.3118C46.825 75.9716 43.6232 87.8892 41.1299 89.337C38.6366 90.7848 34.7666 88.0501 34.7666 88.0501L16.0491 75.6677L11.5244 72.0258L9.28223 67.8075L9.98627 66.467L15.5065 70.6853L12.5334 67.9461L13.1163 67.2087L14.1926 67.955L17.3316 69.1258L18.0177 73.5943L18.9863 74.2557L36.8922 80.7753C36.8922 80.7753 36.668 71.1724 36.8339 69.3358C36.9998 67.4992 37.2285 62.8832 39.2016 59.5362" stroke="#263238" stroke-width="1.00396" stroke-miterlimit="10"/>
<path d="M36.8924 80.7751L43.7265 85.6906L45.4978 82.5626C45.4978 82.5626 46.722 81.6018 46.9014 80.8779C47.0808 80.154 46.8521 78.9788 47.0359 78.2549C47.2198 77.531 48.1346 76.8518 48.2198 75.1001C48.305 73.3484 48.2198 71.8872 48.2198 71.8872C48.2198 71.8872 49.6996 65.8234 49.5382 63.1869C49.3767 60.5505 46.8252 55.8898 44.7803 55.787C42.7355 55.6843 40.0763 55.9926 38.0135 59.1027C35.9507 62.2128 36.3722 71.2929 36.0493 71.8604C35.7265 72.4279 36.1749 75.2297 36.1749 75.2297C35.9957 75.3629 35.847 75.5326 35.7387 75.7275C35.6305 75.9225 35.5651 76.1382 35.5471 76.3602C35.5112 77.0886 36.3005 78.8805 36.3005 78.8805L36.8924 80.7751Z" fill="white" stroke="#263238" stroke-width="1.00396" stroke-miterlimit="10"/>
<g style="mix-blend-mode:multiply">
<path d="M36.2286 69.5279C36.2426 70.3077 36.1841 71.0871 36.0537 71.856C35.7667 72.3654 36.094 74.6667 36.1658 75.1359C40.0097 76.3256 44.0742 76.6312 48.0537 76.0297C48.1392 75.7189 48.1903 75.3997 48.2062 75.0779C48.2959 73.3307 48.2062 71.865 48.2062 71.865C48.2062 71.865 48.3362 71.3243 48.5156 70.5021C44.3943 70.7631 40.2566 70.4351 36.2286 69.5279Z" fill="#90CAF9"/>
</g>
<g style="mix-blend-mode:multiply">
<path d="M37.7356 59.5987C37.0943 60.8812 36.7356 62.8072 36.5293 64.7599C40.6002 66.3081 44.9894 66.8404 49.3141 66.3105C49.4867 65.2771 49.5632 64.23 49.5428 63.1825C49.4652 62.3546 49.2688 61.542 48.9598 60.7695C45.1837 60.8573 41.4117 60.4639 37.7356 59.5987Z" fill="#90CAF9"/>
</g>
<path d="M36.3003 78.9297L36.8788 80.7753L43.7129 85.6906L45.4842 82.5627C45.4842 82.5627 46.7084 81.6019 46.8878 80.878C46.9198 80.7521 46.9393 80.6234 46.9461 80.4937C43.3447 80.4318 39.7664 79.9061 36.3003 78.9297Z" fill="#263238"/>
<path d="M41.2467 167.246C41.2467 167.246 41.3991 163.376 42.1435 157.719C42.8879 152.062 41.0987 144.028 40.7982 142.687C40.4978 141.346 40.9507 138.37 40.6503 137.325C40.3498 136.279 38.8969 131.82 39.7534 126.645C40.6099 121.47 41.305 107.792 41.305 107.792C41.305 107.792 39.148 106.045 38.5157 103.77C37.8834 101.496 38.3677 100.781 38.3677 100.781" stroke="#263238" stroke-width="1.00396" stroke-miterlimit="10"/>
<path d="M42.2466 100.991L41.417 105.567" stroke="#263238" stroke-width="1.00396" stroke-miterlimit="10"/>
</svg>
