<svg xmlns="http://www.w3.org/2000/svg" width="266" height="260.477" viewBox="0 0 266 260.477">
  <g id="Pharmacist-cuate" transform="translate(-34 -36.76)">
    <g id="freepik--background-complete--inject-5" transform="translate(38.396 36.76)">
      <rect id="Rectangle_11" data-name="Rectangle 11" width="16.305" height="6.89" transform="translate(231.808 140.629)" fill="#ebebeb"/>
      <rect id="Rectangle_12" data-name="Rectangle 12" width="16.305" height="6.89" transform="translate(231.808)" fill="#ebebeb"/>
      <rect id="Rectangle_13" data-name="Rectangle 13" width="16.305" height="6.89" transform="translate(240.902 8.688)" fill="#ebebeb"/>
      <rect id="Rectangle_14" data-name="Rectangle 14" width="16.305" height="6.89" transform="translate(0 0.012)" fill="#ebebeb"/>
      <rect id="Rectangle_15" data-name="Rectangle 15" width="16.305" height="6.89" transform="translate(110.79 82.442) rotate(180)" fill="#ebebeb"/>
      <rect id="Rectangle_16" data-name="Rectangle 16" width="16.305" height="6.89" transform="translate(119.885 73.753) rotate(180)" fill="#ebebeb"/>
      <circle id="Ellipse_14" data-name="Ellipse 14" cx="15.855" cy="15.855" r="15.855" transform="translate(134.858 43.348) rotate(-64.57)" fill="#ebebeb"/>
      <circle id="Ellipse_15" data-name="Ellipse 15" cx="15.129" cy="15.129" r="15.129" transform="matrix(0.926, -0.377, 0.377, 0.926, 136.981, 27.866)" fill="#dbdbdb"/>
      <circle id="Ellipse_16" data-name="Ellipse 16" cx="14.174" cy="14.174" r="14.174" transform="translate(138.224 28.403) rotate(-22.17)" fill="#fff"/>
      <path id="Path_112" data-name="Path 112" d="M301.365,84.688C294.906,88.6,284.3,95.014,278.373,98.53a14.119,14.119,0,0,1-3.873-5.209L294.105,75.15a14.2,14.2,0,0,1,7.26,9.538Z" transform="translate(-130.811 -51.512)" fill="#ebebeb" opacity="0.5"/>
      <path id="Path_113" data-name="Path 113" d="M305.619,96.33a14.106,14.106,0,0,1-.936,4.606L287.005,109.3a14.377,14.377,0,0,1-2.235-.961C290.115,105.252,299.868,99.637,305.619,96.33Z" transform="translate(-134.757 -59.65)" fill="#ebebeb" opacity="0.5"/>
      <rect id="Rectangle_17" data-name="Rectangle 17" width="0.271" height="2.149" transform="translate(156.564 23.041)" fill="#c7c7c7"/>
      <rect id="Rectangle_18" data-name="Rectangle 18" width="0.277" height="2.149" transform="translate(150.006 24.864) rotate(-30)" fill="#c7c7c7"/>
      <rect id="Rectangle_19" data-name="Rectangle 19" width="0.271" height="2.149" transform="translate(145.237 29.716) rotate(-60)" fill="#c7c7c7"/>
      <rect id="Rectangle_20" data-name="Rectangle 20" width="2.149" height="0.271" transform="translate(143.554 36.045)" fill="#c7c7c7"/>
      <rect id="Rectangle_21" data-name="Rectangle 21" width="2.149" height="0.271" transform="translate(145.249 42.637) rotate(-30)" fill="#c7c7c7"/>
      <rect id="Rectangle_22" data-name="Rectangle 22" width="2.149" height="0.277" transform="translate(150.012 47.507) rotate(-60.03)" fill="#c7c7c7"/>
      <rect id="Rectangle_23" data-name="Rectangle 23" width="0.271" height="2.149" transform="translate(156.564 47.178)" fill="#c7c7c7"/>
      <rect id="Rectangle_24" data-name="Rectangle 24" width="0.278" height="2.156" transform="translate(162.828 46.049) rotate(-29.887)" fill="#c7c7c7"/>
      <rect id="Rectangle_25" data-name="Rectangle 25" width="0.271" height="2.149" transform="translate(166.141 41.79) rotate(-60)" fill="#c7c7c7"/>
      <rect id="Rectangle_26" data-name="Rectangle 26" width="2.149" height="0.271" transform="translate(167.697 36.045)" fill="#c7c7c7"/>
      <rect id="Rectangle_27" data-name="Rectangle 27" width="2.149" height="0.271" transform="translate(166.154 30.569) rotate(-30)" fill="#c7c7c7"/>
      <rect id="Rectangle_28" data-name="Rectangle 28" width="2.149" height="0.277" transform="translate(162.073 26.582) rotate(-60.03)" fill="#c7c7c7"/>
      <path id="Path_114" data-name="Path 114" d="M295.414,75.75l.468,13.134-1.342-.018.511-13.115Z" transform="translate(-138.511 -51.742)" fill="#c7c7c7"/>
      <path id="Path_115" data-name="Path 115" d="M303.336,87.89,294.5,93.53l-.64-1.182,9.3-4.778Z" transform="translate(-138.25 -56.284)" fill="#a6a6a6"/>
      <path id="Path_116" data-name="Path 116" d="M295.764,95.234a.456.456,0,0,1-.456.462.462.462,0,1,1,0-.917.456.456,0,0,1,.456.456Z" transform="translate(-138.609 -59.053)" fill="#c7c7c7"/>
      <rect id="Rectangle_29" data-name="Rectangle 29" width="68.593" height="85.588" transform="translate(187.573 32.302)" fill="#ebebeb"/>
      <rect id="Rectangle_30" data-name="Rectangle 30" width="62.713" height="79.597" transform="translate(190.516 35.325)" fill="#fff"/>
      <path id="Path_117" data-name="Path 117" d="M379.608,129.421c-5.154-.536-9,5.917-12.315,16.009s-2.98,15.806-2.543,17.462,2.247,5.154,5.819,5.542,6.225-2.321,8.14-3.867,5.813-2.247,6.625-5.782-.616-15.394-.844-17.561S384.176,129.9,379.608,129.421Z" transform="translate(-165.385 -72.354)" fill="#dbdbdb"/>
      <path id="Path_118" data-name="Path 118" d="M384.449,160.407c-.936,2.112-4.612,2.3-5.745,3.584s-4.366,3.922-6.872,4.07-4.372-2.7-5.006-4.169c-.468-1.078-.671-4.68.3-10.092a62.056,62.056,0,0,1,1.613-6.773,56.909,56.909,0,0,1,1.952-5.542c2.4-5.806,5.154-9.3,7.081-9.95,6.428-2.155,5.6,7.389,6.281,11.44.228,1.348.45,3.485.616,5.813.086,1.312.16,2.691.2,4.027C384.985,156.251,384.9,159.409,384.449,160.407Z" transform="translate(-166.138 -73.058)" fill="#ebebeb"/>
      <path id="Path_119" data-name="Path 119" d="M374.381,149.836a.486.486,0,0,0-.7-.437,1.422,1.422,0,0,0-.665,1.016c-.074.326,0,.874.437.825.283-.037.462-.333.616-.554a1.422,1.422,0,0,0,.314-.85Z" transform="translate(-168.656 -80.023)" fill="#dbdbdb"/>
      <path id="Path_120" data-name="Path 120" d="M375.673,144.624a1.607,1.607,0,0,0-.616,1.034c-.1.32-.246.9.24.967.388.049.579-.382.7-.665a3,3,0,0,0,.3-.961.413.413,0,0,0-.622-.376Z" transform="translate(-169.412 -78.186)" fill="#dbdbdb"/>
      <path id="Path_121" data-name="Path 121" d="M377.1,148.458a.345.345,0,0,0-.493-.222,1.232,1.232,0,0,0-.616,1.361.376.376,0,0,0,.536.24,1.4,1.4,0,0,0,.573-1.379Z" transform="translate(-169.797 -79.581)" fill="#dbdbdb"/>
      <path id="Path_122" data-name="Path 122" d="M379.647,142.459a.4.4,0,0,0-.616-.4,1.552,1.552,0,0,0-.616,1.527.314.314,0,0,0,.394.191A1.7,1.7,0,0,0,379.647,142.459Z" transform="translate(-170.732 -77.196)" fill="#dbdbdb"/>
      <path id="Path_123" data-name="Path 123" d="M377.385,140.76a1.232,1.232,0,0,0-.523.566.967.967,0,0,0-.092.727.2.2,0,0,0,.289.129,1.527,1.527,0,0,0,.813-1.121C377.915,140.8,377.582,140.662,377.385,140.76Z" transform="translate(-170.096 -76.711)" fill="#dbdbdb"/>
      <path id="Path_124" data-name="Path 124" d="M379.873,137.81A1.4,1.4,0,0,0,379.06,139a.376.376,0,0,0,.542.339,1.848,1.848,0,0,0,.72-1.158.32.32,0,0,0-.45-.369Z" transform="translate(-170.989 -75.577)" fill="#dbdbdb"/>
      <path id="Path_125" data-name="Path 125" d="M382.172,135.245a.326.326,0,0,0-.388-.24c-.222.055-.326.234-.443.413a.616.616,0,0,0-.148.53.24.24,0,0,0,.222.185.616.616,0,0,0,.517-.283,1.851,1.851,0,0,0,.172-.209A.523.523,0,0,0,382.172,135.245Z" transform="translate(-171.804 -74.509)" fill="#dbdbdb"/>
      <path id="Path_126" data-name="Path 126" d="M381.8,140.2a.332.332,0,0,0-.406-.246.757.757,0,0,0-.486.5c-.1.209-.154.616.148.683s.431-.129.56-.326c.037-.068.086-.135.123-.2A.616.616,0,0,0,381.8,140.2Z" transform="translate(-171.67 -76.409)" fill="#dbdbdb"/>
      <path id="Path_127" data-name="Path 127" d="M379.576,146a.388.388,0,0,0-.56-.351,1.139,1.139,0,0,0-.486,1.231.332.332,0,0,0,.468.216,1.083,1.083,0,0,0,.394-.456A1.231,1.231,0,0,0,379.576,146Z" transform="translate(-170.772 -78.584)" fill="#dbdbdb"/>
      <path id="Path_128" data-name="Path 128" d="M374.808,152.622a1.459,1.459,0,0,0-.388.954c0,.209.074.782.425.653a.831.831,0,0,0,.437-.523,2.573,2.573,0,0,0,.253-.751.437.437,0,0,0-.727-.332Z" transform="translate(-169.206 -81.239)" fill="#dbdbdb"/>
      <path id="Path_129" data-name="Path 129" d="M372.087,154.27a1.324,1.324,0,0,0-.357,1.231.32.32,0,0,0,.573.092,2.154,2.154,0,0,0,.419-1.047.382.382,0,0,0-.634-.277Z" transform="translate(-168.159 -81.878)" fill="#dbdbdb"/>
      <path id="Path_130" data-name="Path 130" d="M373.381,158.874a.382.382,0,0,0-.554-.252.844.844,0,0,0-.351.382,1.453,1.453,0,0,0-.086.456c0,.314.222.708.585.56a.751.751,0,0,0,.357-.5A1.158,1.158,0,0,0,373.381,158.874Z" transform="translate(-168.426 -83.569)" fill="#dbdbdb"/>
      <path id="Path_131" data-name="Path 131" d="M370.542,161.985a.345.345,0,0,0-.573-.259.991.991,0,0,0-.289.893.351.351,0,0,0,.573.172,1.232,1.232,0,0,0,.289-.807Z" transform="translate(-167.379 -84.746)" fill="#dbdbdb"/>
      <path id="Path_132" data-name="Path 132" d="M371.35,164.549a.332.332,0,0,0-.388.142.419.419,0,0,0-.055.283.357.357,0,0,0,.1.191.277.277,0,0,0,.326.08.51.51,0,0,0,.1-.055.412.412,0,0,0,.16-.308A.332.332,0,0,0,371.35,164.549Z" transform="translate(-167.854 -85.858)" fill="#dbdbdb"/>
      <path id="Path_133" data-name="Path 133" d="M384.717,133.181a.351.351,0,0,0-.394.142.474.474,0,0,0-.055.289.333.333,0,0,0,.1.185.277.277,0,0,0,.326.08l.092-.049a.394.394,0,0,0,.16-.308A.345.345,0,0,0,384.717,133.181Z" transform="translate(-172.989 -73.805)" fill="#dbdbdb"/>
      <path id="Path_134" data-name="Path 134" d="M410.163,129.421c5.154-.536,9,5.917,12.315,16.009s2.98,15.806,2.543,17.462-2.247,5.154-5.819,5.542-6.225-2.321-8.14-3.867-5.819-2.247-6.625-5.782.616-15.394.844-17.561S405.595,129.9,410.163,129.421Z" transform="translate(-180.646 -72.354)" fill="#dbdbdb"/>
      <path id="Path_135" data-name="Path 135" d="M406.958,160.407c.93,2.112,4.612,2.3,5.745,3.584s4.366,3.922,6.872,4.07,4.372-2.7,5.006-4.169c.468-1.078.671-4.68-.3-10.092a62.035,62.035,0,0,0-1.613-6.773,56.908,56.908,0,0,0-1.952-5.542c-2.4-5.806-5.154-9.3-7.081-9.95-6.428-2.155-5.6,7.389-6.281,11.44-.228,1.348-.45,3.485-.616,5.813-.086,1.312-.16,2.691-.2,4.027C406.422,156.251,406.508,159.409,406.958,160.407Z" transform="translate(-181.529 -73.058)" fill="#ebebeb"/>
      <path id="Path_136" data-name="Path 136" d="M409.225,153.326a.369.369,0,0,0-.511,0c-.363.351-.616,1.718.172,1.755S409.595,153.7,409.225,153.326Z" transform="translate(-182.251 -81.512)" fill="#dbdbdb"/>
      <path id="Path_137" data-name="Path 137" d="M411.553,155.951a.277.277,0,0,0-.388,0,1.416,1.416,0,0,0-.228,1.429.474.474,0,0,0,.868-.068A1.367,1.367,0,0,0,411.553,155.951Z" transform="translate(-183.2 -82.53)" fill="#dbdbdb"/>
      <path id="Path_138" data-name="Path 138" d="M408.712,158.527c-.529.209-.554,1.176-.32,1.595a.5.5,0,0,0,.911-.068C409.408,159.691,409.377,158.244,408.712,158.527Z" transform="translate(-182.206 -83.536)" fill="#dbdbdb"/>
      <path id="Path_139" data-name="Path 139" d="M411.1,162.426a.413.413,0,0,0-.7-.037.973.973,0,0,0-.1.967.468.468,0,0,0,.794.037.985.985,0,0,0,.006-.967Z" transform="translate(-182.959 -84.965)" fill="#dbdbdb"/>
      <path id="Path_140" data-name="Path 140" d="M408.533,165.309a.388.388,0,0,0-.548,0,.69.69,0,0,0,.055,1.022.388.388,0,0,0,.474-.031.757.757,0,0,0,.018-.991Z" transform="translate(-182.027 -86.113)" fill="#dbdbdb"/>
      <path id="Path_141" data-name="Path 141" d="M409.678,168.521h0a.32.32,0,0,0-.332,0h0a.369.369,0,0,0-.179.382.345.345,0,0,0,.646.08A.357.357,0,0,0,409.678,168.521Z" transform="translate(-182.556 -87.373)" fill="#dbdbdb"/>
      <path id="Path_142" data-name="Path 142" d="M411.786,149.831a.314.314,0,0,0-.474-.086,2.032,2.032,0,0,0-.369,1.65.517.517,0,0,0,.554.406.523.523,0,0,0,.48-.493,2.26,2.26,0,0,0-.191-1.478Z" transform="translate(-183.223 -80.147)" fill="#dbdbdb"/>
      <path id="Path_143" data-name="Path 143" d="M409.718,147.238a.277.277,0,0,0-.369-.117,1.305,1.305,0,0,0-.616,1.053c-.055.376-.068,1,.394,1.121s.659-.449.708-.813a1.847,1.847,0,0,0-.117-1.244Z" transform="translate(-182.381 -79.156)" fill="#dbdbdb"/>
      <path id="Path_144" data-name="Path 144" d="M412.322,145.685a1.016,1.016,0,0,0-.234-.671.369.369,0,0,0-.517-.031,1.01,1.01,0,0,0-.3.647,1.848,1.848,0,0,0,0,.708.5.5,0,0,0,.954.055,1.847,1.847,0,0,0,.1-.708Z" transform="translate(-183.352 -78.311)" fill="#dbdbdb"/>
      <path id="Path_145" data-name="Path 145" d="M410.58,141.594a.283.283,0,0,0-.462-.148,1.084,1.084,0,0,0-.333,1.231.425.425,0,0,0,.727.043,1.3,1.3,0,0,0,.068-1.127Z" transform="translate(-182.768 -76.96)" fill="#dbdbdb"/>
      <path id="Path_146" data-name="Path 146" d="M413.437,160.178a.775.775,0,0,0,0-.172.351.351,0,0,0-.086-.172h0a.345.345,0,0,0-.449-.135.677.677,0,0,0-.326.388.905.905,0,0,0,.031.616.45.45,0,0,0,.437.24.468.468,0,0,0,.388-.3A1.1,1.1,0,0,0,413.437,160.178Z" transform="translate(-183.852 -83.987)" fill="#dbdbdb"/>
      <path id="Path_147" data-name="Path 147" d="M414.294,153.77c-.068-.228-.24-.616-.548-.462-.5.228-.548,1.133-.339,1.558a.48.48,0,0,0,.868-.068A1.724,1.724,0,0,0,414.294,153.77Z" transform="translate(-184.142 -81.531)" fill="#dbdbdb"/>
      <path id="Path_148" data-name="Path 148" d="M414.243,148.685c-.062-.222-.3-.456-.536-.351a.43.43,0,0,0-.179.117.548.548,0,0,0-.148.339.567.567,0,0,0,.111.48.431.431,0,0,0,.616,0,.542.542,0,0,0,.166-.357A1.175,1.175,0,0,0,414.243,148.685Z" transform="translate(-184.172 -79.623)" fill="#dbdbdb"/>
      <path id="Path_149" data-name="Path 149" d="M413.667,141.016c0-.24-.2-.714-.523-.659s-.511.443-.554.72a.967.967,0,0,0,.289.973.376.376,0,0,0,.4,0,1.1,1.1,0,0,0,.388-1.034Z" transform="translate(-183.86 -76.566)" fill="#dbdbdb"/>
      <path id="Path_150" data-name="Path 150" d="M412.05,136.943a.3.3,0,0,0-.345-.062,1.108,1.108,0,0,0-.529,1.071.523.523,0,0,0,.419.53.5.5,0,0,0,.579-.339,1.509,1.509,0,0,0-.123-1.2Z" transform="translate(-183.327 -75.222)" fill="#dbdbdb"/>
      <path id="Path_151" data-name="Path 151" d="M412.608,133.92a.345.345,0,0,0-.376-.271.486.486,0,0,0-.24.129.567.567,0,0,0-.172.382.4.4,0,0,0,.776.148A.529.529,0,0,0,412.608,133.92Z" transform="translate(-183.577 -73.99)" fill="#dbdbdb"/>
      <path id="Path_152" data-name="Path 152" d="M404.071,146.35a3.99,3.99,0,0,1-1.847-.751l-.345-.222a10.964,10.964,0,0,1-1.373-1.053l-.062-.055a5.479,5.479,0,0,1-.437-.468c-.3-.345-.616-.764-.917-1.195-.068-.1-.135-.191-.2-.289-.179-.252-.351-.511-.517-.757-.092-.135-.185-.271-.265-.406a6.884,6.884,0,0,0-.881-1.231,5.171,5.171,0,0,0-.523.616l-.351.437-.228.277c-.123.148-.252.3-.382.443a6.779,6.779,0,0,1-.486.523,2.849,2.849,0,0,1-.616.486.425.425,0,0,1-.228.055c-.683-.074-1.484-1.552-1.447-2.21a.868.868,0,0,1,.179-.4,5.773,5.773,0,0,1,.413-.53c.185-.209.4-.443.616-.671l.277-.3.394-.406.216-.234a3.506,3.506,0,0,0,.7-.948.926.926,0,0,0,0-.2,1.454,1.454,0,0,0-.037-.369c0-.283-.068-.653-.117-1.084a1.466,1.466,0,0,0-.043-.425c-.043-.369-.092-.764-.135-1.176a4.282,4.282,0,0,0-.049-.474c-.055-.517-.111-1.053-.16-1.558l-.037-.351c0-.314-.055-.616-.074-.905s-.037-.523-.049-.751a3.46,3.46,0,0,1,.043-1.078c.166-.376,1.847-.745,3.288-.911a5.036,5.036,0,0,1,2.161,0,4.421,4.421,0,0,1,.043,1.195v.653h0c0,.413-.043.862-.068,1.342a2.587,2.587,0,0,1-.031.486c0,.462-.055.936-.086,1.41,0,.222-.031.443-.043.665,0,.382-.049.757-.074,1.1,0,.246-.031.48-.049.7a7.2,7.2,0,0,1-.043.733c-.043.216,0,.394-.031.542a2.38,2.38,0,0,0,0,.425,7.389,7.389,0,0,0,1.078,1.884c.117.16.246.314.376.468s.345.388.523.566.234.24.351.351a8.864,8.864,0,0,0,.69.616l.616.511.677.554.419.345c.123.1.246.2.351.3a2.291,2.291,0,0,1,.579.665C406.158,144.305,404.57,146.257,404.071,146.35Z" transform="translate(-176.333 -71.697)" fill="#a6a6a6"/>
      <path id="Path_153" data-name="Path 153" d="M401.927,129.89v.653h0c-.924.209-1.884.32-2.789.456l-2.118.333a5.579,5.579,0,0,0-.56.08c0-.271-.037-.523-.049-.751l.677-.148c.653-.135,1.312-.246,1.97-.345a21.24,21.24,0,0,1,2.869-.277Z" transform="translate(-177.656 -72.546)" fill="#c7c7c7"/>
      <path id="Path_154" data-name="Path 154" d="M401.906,133.13a2.583,2.583,0,0,1-.031.486c-.683.068-1.367.092-2.044.142-1.059.068-2.149.185-3.214.154l-.037-.351c.979-.16,1.983-.2,2.962-.271C400.324,133.241,401.112,133.161,401.906,133.13Z" transform="translate(-177.721 -73.791)" fill="#c7c7c7"/>
      <path id="Path_155" data-name="Path 155" d="M401.868,136.21c0,.222-.031.443-.043.665a32.88,32.88,0,0,1-4.926.252,4.282,4.282,0,0,0-.049-.474A30.64,30.64,0,0,1,401.868,136.21Z" transform="translate(-177.825 -74.975)" fill="#c7c7c7"/>
      <path id="Path_156" data-name="Path 156" d="M401.91,139.08c0,.246-.031.48-.049.7a33.655,33.655,0,0,1-4.618.049,1.467,1.467,0,0,0-.043-.425A32.165,32.165,0,0,1,401.91,139.08Z" transform="translate(-177.959 -76.077)" fill="#c7c7c7"/>
      <path id="Path_157" data-name="Path 157" d="M401.918,141.41a2.825,2.825,0,0,1-.031.542c-.585.055-1.176.086-1.755.123-.881.055-1.761.135-2.635.1a1.455,1.455,0,0,0-.037-.369c.788-.129,1.582-.172,2.383-.234C400.526,141.521,401.222,141.453,401.918,141.41Z" transform="translate(-178.059 -76.973)" fill="#c7c7c7"/>
      <path id="Path_158" data-name="Path 158" d="M395.406,149.748a2.849,2.849,0,0,1-.616.486,9.144,9.144,0,0,1-.874-1.231,6.931,6.931,0,0,1-.616-1.293,5.775,5.775,0,0,1,.413-.53c.265.493.536.985.831,1.453A12.874,12.874,0,0,0,395.406,149.748Z" transform="translate(-176.461 -79.19)" fill="#c7c7c7"/>
      <path id="Path_159" data-name="Path 159" d="M396.9,148.158c-.123.148-.252.3-.382.443a25.678,25.678,0,0,1-1.582-2.746l.277-.3C395.7,146.317,396.369,147.327,396.9,148.158Z" transform="translate(-177.091 -78.567)" fill="#c7c7c7"/>
      <path id="Path_160" data-name="Path 160" d="M397.9,147.045l-.351.437c-.228-.363-.437-.751-.647-1.1-.314-.53-.616-1.078-.874-1.626l.216-.234c.345.548.7,1.09,1.047,1.632C397.483,146.447,397.7,146.743,397.9,147.045Z" transform="translate(-177.51 -78.168)" fill="#c7c7c7"/>
      <path id="Path_161" data-name="Path 161" d="M404.829,146.508a18.418,18.418,0,0,1-3.214,2.124c-.092-.135-.185-.271-.265-.406.708-.573,2.124-1.576,3.079-2.186C404.57,146.2,404.7,146.354,404.829,146.508Z" transform="translate(-179.554 -78.752)" fill="#c7c7c7"/>
      <path id="Path_162" data-name="Path 162" d="M406.191,148.071a29.255,29.255,0,0,1-3.374,2.254c-.068-.1-.135-.191-.2-.289.887-.616,2.26-1.644,3.22-2.315Q406.019,147.892,406.191,148.071Z" transform="translate(-180.042 -79.397)" fill="#c7c7c7"/>
      <path id="Path_163" data-name="Path 163" d="M408.168,149.831a19.806,19.806,0,0,1-3.3,2.771,5.484,5.484,0,0,1-.437-.468,39.589,39.589,0,0,1,3.146-2.814Z" transform="translate(-180.738 -80.012)" fill="#c7c7c7"/>
      <path id="Path_164" data-name="Path 164" d="M410.783,151.912a13.546,13.546,0,0,1-2.968,2.9l-.345-.222c.53-.523,1.078-1.022,1.607-1.552s.905-.954,1.355-1.429C410.555,151.715,410.678,151.813,410.783,151.912Z" transform="translate(-181.906 -80.892)" fill="#c7c7c7"/>
      <rect id="Rectangle_31" data-name="Rectangle 31" width="30.578" height="2.321" transform="translate(206.581 39.063)" fill="#c7c7c7"/>
      <rect id="Rectangle_32" data-name="Rectangle 32" width="17.272" height="2.321" transform="translate(213.231 43.163)" fill="#c7c7c7"/>
    </g>
    <g id="freepik--Shadow--inject-5" transform="translate(37.904 274.122)">
      <ellipse id="Ellipse_17" data-name="Ellipse 17" cx="129.096" cy="11.557" rx="129.096" ry="11.557" transform="translate(0)" fill="#ebebeb"/>
    </g>
    <g id="freepik--Shelf--inject-5" transform="translate(36.044 56.735)">
      <rect id="Rectangle_33" data-name="Rectangle 33" width="119.133" height="190.701" transform="translate(119.133 190.701) rotate(180)" fill="#c7c7c7"/>
      <rect id="Rectangle_34" data-name="Rectangle 34" width="106.991" height="46.174" transform="translate(113.068 53.015) rotate(180)" fill="#a6a6a6"/>
      <rect id="Rectangle_35" data-name="Rectangle 35" width="106.991" height="46.174" transform="translate(113.068 107.508) rotate(180)" fill="#a6a6a6"/>
      <rect id="Rectangle_36" data-name="Rectangle 36" width="106.991" height="46.174" transform="translate(113.068 161.995) rotate(180)" fill="#a6a6a6"/>
      <rect id="Rectangle_37" data-name="Rectangle 37" width="10.96" height="42.726" transform="translate(33.416 64.782)" fill="#fff"/>
      <rect id="Rectangle_38" data-name="Rectangle 38" width="10.96" height="8.62" transform="translate(33.416 78.883)" fill="#ffc727"/>
      <rect id="Rectangle_39" data-name="Rectangle 39" width="10.96" height="5.012" transform="translate(33.416 91.105)" fill="#ffc727"/>
      <rect id="Rectangle_40" data-name="Rectangle 40" width="10.96" height="42.726" transform="translate(20.972 64.782)" fill="#fff"/>
      <rect id="Rectangle_41" data-name="Rectangle 41" width="10.96" height="8.62" transform="translate(20.972 78.883)" fill="#455a64"/>
      <rect id="Rectangle_42" data-name="Rectangle 42" width="10.96" height="5.012" transform="translate(20.972 91.105)" fill="#455a64"/>
      <rect id="Rectangle_43" data-name="Rectangle 43" width="10.96" height="42.726" transform="translate(8.528 64.782)" fill="#fff"/>
      <rect id="Rectangle_44" data-name="Rectangle 44" width="10.96" height="8.62" transform="translate(8.528 78.883)" fill="#ffc727"/>
      <rect id="Rectangle_45" data-name="Rectangle 45" width="10.96" height="5.012" transform="translate(8.528 91.105)" fill="#ffc727"/>
      <rect id="Rectangle_46" data-name="Rectangle 46" width="9.876" height="16.434" transform="translate(17.998 53.021) rotate(180)" fill="#fff"/>
      <rect id="Rectangle_47" data-name="Rectangle 47" width="12.586" height="2.795" transform="translate(19.353 36.581) rotate(180)" fill="#ffc727"/>
      <rect id="Rectangle_48" data-name="Rectangle 48" width="7.34" height="10.135" transform="translate(16.736 50.337) rotate(180)" fill="#455a64"/>
      <rect id="Rectangle_49" data-name="Rectangle 49" width="9.876" height="16.434" transform="translate(17.998 33.145) rotate(180)" fill="#fff"/>
      <rect id="Rectangle_50" data-name="Rectangle 50" width="12.586" height="2.795" transform="translate(19.353 16.705) rotate(180)" fill="#ffc727"/>
      <rect id="Rectangle_51" data-name="Rectangle 51" width="7.34" height="10.135" transform="translate(16.736 30.455) rotate(180)" fill="#455a64"/>
      <rect id="Rectangle_52" data-name="Rectangle 52" width="9.876" height="16.434" transform="translate(31.397 53.021) rotate(180)" fill="#fff"/>
      <rect id="Rectangle_53" data-name="Rectangle 53" width="12.586" height="2.795" transform="translate(32.751 36.581) rotate(180)" fill="#ffc727"/>
      <rect id="Rectangle_54" data-name="Rectangle 54" width="7.34" height="10.135" transform="translate(30.128 50.337) rotate(180)" fill="#455a64"/>
      <rect id="Rectangle_55" data-name="Rectangle 55" width="9.876" height="16.434" transform="translate(31.397 33.145) rotate(180)" fill="#fff"/>
      <rect id="Rectangle_56" data-name="Rectangle 56" width="12.586" height="2.795" transform="translate(32.751 16.705) rotate(180)" fill="#ffc727"/>
      <rect id="Rectangle_57" data-name="Rectangle 57" width="7.34" height="10.135" transform="translate(30.128 30.455) rotate(180)" fill="#455a64"/>
      <rect id="Rectangle_58" data-name="Rectangle 58" width="9.876" height="16.434" transform="translate(44.783 53.021) rotate(180)" fill="#fff"/>
      <rect id="Rectangle_59" data-name="Rectangle 59" width="12.586" height="2.795" transform="translate(46.137 36.581) rotate(180)" fill="#ffc727"/>
      <rect id="Rectangle_60" data-name="Rectangle 60" width="7.34" height="10.135" transform="translate(43.514 50.337) rotate(180)" fill="#455a64"/>
      <rect id="Rectangle_61" data-name="Rectangle 61" width="9.876" height="16.434" transform="translate(44.783 33.145) rotate(180)" fill="#fff"/>
      <rect id="Rectangle_62" data-name="Rectangle 62" width="12.586" height="2.795" transform="translate(46.137 16.705) rotate(180)" fill="#ffc727"/>
      <rect id="Rectangle_63" data-name="Rectangle 63" width="7.34" height="10.135" transform="translate(43.514 30.455) rotate(180)" fill="#455a64"/>
      <rect id="Rectangle_64" data-name="Rectangle 64" width="9.876" height="16.434" transform="translate(58.175 53.021) rotate(180)" fill="#fff"/>
      <rect id="Rectangle_65" data-name="Rectangle 65" width="12.586" height="2.795" transform="translate(59.53 36.581) rotate(180)" fill="#ffc727"/>
      <rect id="Rectangle_66" data-name="Rectangle 66" width="7.34" height="10.135" transform="translate(56.907 50.337) rotate(180)" fill="#455a64"/>
      <rect id="Rectangle_67" data-name="Rectangle 67" width="9.876" height="16.434" transform="translate(58.175 33.145) rotate(180)" fill="#fff"/>
      <rect id="Rectangle_68" data-name="Rectangle 68" width="12.586" height="2.795" transform="translate(59.53 16.705) rotate(180)" fill="#ffc727"/>
      <rect id="Rectangle_69" data-name="Rectangle 69" width="7.34" height="10.135" transform="translate(56.907 30.455) rotate(180)" fill="#455a64"/>
      <path id="Path_165" data-name="Path 165" d="M0,0H11.391V12.173a3.27,3.27,0,0,1-3.27,3.27H3.27A3.27,3.27,0,0,1,0,12.173Z" transform="translate(110.919 107.508) rotate(180)" fill="#fff"/>
      <rect id="Rectangle_70" data-name="Rectangle 70" width="6.601" height="1.576" transform="translate(108.537 92.109) rotate(180)" fill="#fff"/>
      <rect id="Rectangle_71" data-name="Rectangle 71" width="9.963" height="1.681" transform="translate(110.218 90.532) rotate(180)" fill="#ffc727"/>
      <rect id="Rectangle_72" data-name="Rectangle 72" width="9.562" height="8.337" transform="translate(110.932 104.14) rotate(180)" fill="#455a64"/>
      <path id="Path_166" data-name="Path 166" d="M0,0H11.391V12.173a3.27,3.27,0,0,1-3.27,3.27H3.27A3.27,3.27,0,0,1,0,12.173Z" transform="translate(98.562 107.508) rotate(180)" fill="#fff"/>
      <rect id="Rectangle_73" data-name="Rectangle 73" width="6.601" height="1.576" transform="translate(96.166 92.109) rotate(180)" fill="#fff"/>
      <rect id="Rectangle_74" data-name="Rectangle 74" width="9.963" height="1.681" transform="translate(97.847 90.532) rotate(180)" fill="#ffc727"/>
      <rect id="Rectangle_75" data-name="Rectangle 75" width="9.562" height="8.337" transform="translate(98.555 104.14) rotate(180)" fill="#455a64"/>
      <path id="Path_167" data-name="Path 167" d="M0,0H11.391V12.173a3.27,3.27,0,0,1-3.263,3.27H3.276a3.27,3.27,0,0,1-3.27-3.27V0Z" transform="translate(86.191 107.508) rotate(180)" fill="#fff"/>
      <rect id="Rectangle_76" data-name="Rectangle 76" width="6.601" height="1.576" transform="translate(83.796 92.109) rotate(180)" fill="#fff"/>
      <rect id="Rectangle_77" data-name="Rectangle 77" width="9.963" height="1.681" transform="translate(85.477 90.532) rotate(180)" fill="#ffc727"/>
      <rect id="Rectangle_78" data-name="Rectangle 78" width="9.562" height="8.337" transform="translate(86.191 104.14) rotate(180)" fill="#455a64"/>
      <path id="Path_168" data-name="Path 168" d="M.012,0H11.4V12.173a3.27,3.27,0,0,1-3.27,3.27H3.27A3.27,3.27,0,0,1,0,12.173V0Z" transform="translate(73.84 107.508) rotate(180)" fill="#fff"/>
      <rect id="Rectangle_79" data-name="Rectangle 79" width="6.601" height="1.576" transform="translate(71.432 92.109) rotate(180)" fill="#fff"/>
      <rect id="Rectangle_80" data-name="Rectangle 80" width="9.963" height="1.681" transform="translate(73.113 90.532) rotate(180)" fill="#ffc727"/>
      <rect id="Rectangle_81" data-name="Rectangle 81" width="9.562" height="8.337" transform="translate(73.821 104.14) rotate(180)" fill="#455a64"/>
      <path id="Path_169" data-name="Path 169" d="M0,0H11.391V12.173a3.27,3.27,0,0,1-3.27,3.27H3.27A3.27,3.27,0,0,1,0,12.173V0Z" transform="translate(61.451 107.508) rotate(180)" fill="#fff"/>
      <rect id="Rectangle_82" data-name="Rectangle 82" width="6.601" height="1.576" transform="translate(59.062 92.109) rotate(180)" fill="#fff"/>
      <rect id="Rectangle_83" data-name="Rectangle 83" width="9.963" height="1.681" transform="translate(60.743 90.532) rotate(180)" fill="#ffc727"/>
      <rect id="Rectangle_84" data-name="Rectangle 84" width="9.562" height="8.337" transform="translate(61.451 104.14) rotate(180)" fill="#455a64"/>
      <path id="Path_170" data-name="Path 170" d="M0,0H11.391V12.173a3.27,3.27,0,0,1-3.27,3.27H3.27A3.27,3.27,0,0,1,0,12.173Z" transform="translate(110.919 88.211) rotate(180)" fill="#fff"/>
      <rect id="Rectangle_85" data-name="Rectangle 85" width="6.601" height="1.576" transform="translate(108.537 72.811) rotate(180)" fill="#fff"/>
      <rect id="Rectangle_86" data-name="Rectangle 86" width="9.963" height="1.681" transform="translate(110.218 71.241) rotate(180)" fill="#ffc727"/>
      <rect id="Rectangle_87" data-name="Rectangle 87" width="9.562" height="8.337" transform="translate(110.932 84.849) rotate(180)" fill="#455a64"/>
      <path id="Path_171" data-name="Path 171" d="M0,0H11.391V12.173a3.27,3.27,0,0,1-3.27,3.27H3.27A3.27,3.27,0,0,1,0,12.173Z" transform="translate(98.562 88.211) rotate(180)" fill="#fff"/>
      <rect id="Rectangle_88" data-name="Rectangle 88" width="6.601" height="1.576" transform="translate(96.166 72.811) rotate(180)" fill="#fff"/>
      <rect id="Rectangle_89" data-name="Rectangle 89" width="9.963" height="1.681" transform="translate(97.847 71.241) rotate(180)" fill="#ffc727"/>
      <rect id="Rectangle_90" data-name="Rectangle 90" width="9.562" height="8.337" transform="translate(98.555 84.849) rotate(180)" fill="#455a64"/>
      <path id="Path_172" data-name="Path 172" d="M0,0H11.391V12.173a3.27,3.27,0,0,1-3.27,3.27H3.27A3.27,3.27,0,0,1,0,12.173Z" transform="translate(86.191 88.211) rotate(180)" fill="#fff"/>
      <rect id="Rectangle_91" data-name="Rectangle 91" width="6.601" height="1.576" transform="translate(83.796 72.811) rotate(180)" fill="#fff"/>
      <rect id="Rectangle_92" data-name="Rectangle 92" width="9.963" height="1.681" transform="translate(85.477 71.241) rotate(180)" fill="#ffc727"/>
      <rect id="Rectangle_93" data-name="Rectangle 93" width="9.562" height="8.337" transform="translate(86.191 84.849) rotate(180)" fill="#455a64"/>
      <path id="Path_173" data-name="Path 173" d="M.012,0H11.4V12.173a3.27,3.27,0,0,1-3.27,3.27H3.27A3.27,3.27,0,0,1,0,12.173V0Z" transform="translate(73.84 88.211) rotate(180)" fill="#fff"/>
      <rect id="Rectangle_94" data-name="Rectangle 94" width="6.601" height="1.576" transform="translate(71.432 72.811) rotate(180)" fill="#fff"/>
      <rect id="Rectangle_95" data-name="Rectangle 95" width="9.963" height="1.681" transform="translate(73.113 71.241) rotate(180)" fill="#ffc727"/>
      <rect id="Rectangle_96" data-name="Rectangle 96" width="9.562" height="8.337" transform="translate(73.821 84.849) rotate(180)" fill="#455a64"/>
      <path id="Path_174" data-name="Path 174" d="M0,0H11.391V12.173a3.27,3.27,0,0,1-3.27,3.27H3.27A3.27,3.27,0,0,1,0,12.173V0Z" transform="translate(61.451 88.211) rotate(180)" fill="#fff"/>
      <rect id="Rectangle_97" data-name="Rectangle 97" width="6.601" height="1.576" transform="translate(59.062 72.811) rotate(180)" fill="#fff"/>
      <rect id="Rectangle_98" data-name="Rectangle 98" width="9.963" height="1.681" transform="translate(60.743 71.241) rotate(180)" fill="#ffc727"/>
      <rect id="Rectangle_99" data-name="Rectangle 99" width="9.562" height="8.337" transform="translate(61.451 84.849) rotate(180)" fill="#455a64"/>
      <path id="Path_175" data-name="Path 175" d="M0,0H24.9V20.584a3.387,3.387,0,0,1-3.387,3.387H3.387A3.387,3.387,0,0,1,0,20.584Z" transform="translate(85.077 161.909) rotate(180)" fill="#fff"/>
      <rect id="Rectangle_100" data-name="Rectangle 100" width="24.901" height="4.156" transform="translate(85.077 137.938) rotate(180)" fill="#263238"/>
      <rect id="Rectangle_101" data-name="Rectangle 101" width="5.905" height="3.762" rx="1.881" transform="translate(75.582 134.779) rotate(180)" fill="#263238"/>
      <rect id="Rectangle_102" data-name="Rectangle 102" width="22.197" height="11.096" transform="translate(83.728 156.651) rotate(180)" fill="#455a64"/>
      <path id="Path_176" data-name="Path 176" d="M0,0H24.9V20.584a3.387,3.387,0,0,1-3.387,3.387H3.387A3.387,3.387,0,0,1,0,20.584Z" transform="translate(59.006 161.909) rotate(180)" fill="#fff"/>
      <rect id="Rectangle_103" data-name="Rectangle 103" width="24.901" height="4.156" transform="translate(59.006 137.938) rotate(180)" fill="#263238"/>
      <rect id="Rectangle_104" data-name="Rectangle 104" width="5.905" height="3.762" rx="1.881" transform="translate(49.506 134.779) rotate(180)" fill="#263238"/>
      <rect id="Rectangle_105" data-name="Rectangle 105" width="22.197" height="11.096" transform="translate(57.652 156.651) rotate(180)" fill="#455a64"/>
      <path id="Path_177" data-name="Path 177" d="M0,0H24.9V20.584a3.387,3.387,0,0,1-3.387,3.387H3.387A3.387,3.387,0,0,1,0,20.584Z" transform="translate(111.104 161.909) rotate(180)" fill="#fff"/>
      <rect id="Rectangle_106" data-name="Rectangle 106" width="24.901" height="4.156" transform="translate(111.104 137.938) rotate(180)" fill="#263238"/>
      <rect id="Rectangle_107" data-name="Rectangle 107" width="5.905" height="3.762" rx="1.881" transform="translate(101.603 134.779) rotate(180)" fill="#263238"/>
      <rect id="Rectangle_108" data-name="Rectangle 108" width="22.197" height="11.096" transform="translate(109.75 156.651) rotate(180)" fill="#455a64"/>
      <path id="Path_178" data-name="Path 178" d="M0,0H24.9V20.584a3.387,3.387,0,0,1-3.387,3.387H3.387A3.387,3.387,0,0,1,0,20.584Z" transform="translate(32.93 161.909) rotate(180)" fill="#fff"/>
      <rect id="Rectangle_109" data-name="Rectangle 109" width="24.901" height="4.156" transform="translate(32.93 137.938) rotate(180)" fill="#263238"/>
      <rect id="Rectangle_110" data-name="Rectangle 110" width="5.905" height="3.762" rx="1.881" transform="translate(23.435 134.779) rotate(180)" fill="#263238"/>
      <rect id="Rectangle_111" data-name="Rectangle 111" width="22.197" height="11.096" transform="translate(31.581 156.651) rotate(180)" fill="#455a64"/>
      <rect id="Rectangle_112" data-name="Rectangle 112" width="14.273" height="18.466" transform="translate(76.179 53.021) rotate(180)" fill="#fff"/>
      <path id="Path_179" data-name="Path 179" d="M137.85,122.968h14.279l-2.74-3.768h-8.8Z" transform="translate(-75.95 -88.413)" fill="#fff"/>
      <rect id="Rectangle_113" data-name="Rectangle 113" width="12.056" height="3.664" transform="translate(75.071 30.787) rotate(180)" fill="#455a64"/>
      <rect id="Rectangle_114" data-name="Rectangle 114" width="12.235" height="8.3" transform="translate(76.179 46.963) rotate(180)" fill="#ffc727"/>
      <rect id="Rectangle_115" data-name="Rectangle 115" width="14.273" height="18.466" transform="translate(92.478 53.021) rotate(180)" fill="#fff"/>
      <path id="Path_180" data-name="Path 180" d="M164.34,122.968h14.273l-2.74-3.768h-8.8Z" transform="translate(-86.129 -88.413)" fill="#fff"/>
      <rect id="Rectangle_116" data-name="Rectangle 116" width="12.056" height="3.664" transform="translate(91.376 30.787) rotate(180)" fill="#455a64"/>
      <rect id="Rectangle_117" data-name="Rectangle 117" width="12.235" height="8.3" transform="translate(92.484 46.963) rotate(180)" fill="#ffc727"/>
      <rect id="Rectangle_118" data-name="Rectangle 118" width="14.273" height="18.466" transform="translate(108.783 53.021) rotate(180)" fill="#fff"/>
      <path id="Path_181" data-name="Path 181" d="M190.82,122.968h14.273l-2.74-3.768h-8.8Z" transform="translate(-96.304 -88.413)" fill="#fff"/>
      <rect id="Rectangle_119" data-name="Rectangle 119" width="12.056" height="3.664" transform="translate(107.681 30.787) rotate(180)" fill="#455a64"/>
      <rect id="Rectangle_120" data-name="Rectangle 120" width="12.235" height="8.3" transform="translate(108.789 46.963) rotate(180)" fill="#ffc727"/>
    </g>
    <g id="freepik--Floor--inject-5" transform="translate(34 247.128)">
      <path id="Path_182" data-name="Path 182" d="M34,378.718l33.25-.148,33.25-.055,66.5-.1,66.5.1,33.25.055,33.25.148-33.25.148-33.25.055-66.5.1-66.5-.1-33.25-.055Z" transform="translate(-34 -378.41)" fill="#263238"/>
    </g>
    <g id="freepik--Character--inject-5" transform="translate(120.674 80.039)">
      <path id="Path_183" data-name="Path 183" d="M255.62,369.07s3.171,23.355,3.171,23.4c.062,4.464.191,8.38.443,10.4a.055.055,0,0,0,0,.031,3.041,3.041,0,0,0,.351,1.373.061.061,0,0,0,0,.031c1.342.881,37.049,1.466,38.305,1.065s.209-4-1.158-5.129-14.944-7.463-14.944-7.463l-3.4-23.343Z" transform="translate(-205.833 -207.732)" fill="#f7a9a0"/>
      <path id="Path_184" data-name="Path 184" d="M260.85,411.69c.074,3.239.2,5.96.4,7.531a.044.044,0,0,0,0,.031,2.987,2.987,0,0,0,.345,1.373v.031c1.342.88,37.049,1.459,38.305,1.065s.209-4-1.158-5.123a77.568,77.568,0,0,0-7.524-3.928c1.084.85,2.174,1.9,1.675,2.321C292.05,415.735,270.394,414.96,260.85,411.69Z" transform="translate(-207.843 -224.109)" fill="#263238"/>
      <path id="Path_185" data-name="Path 185" d="M296.295,411.2s-6.317-2.876-17.154,2.327" transform="translate(-214.871 -223.615)" fill="#263238"/>
      <path id="Path_186" data-name="Path 186" d="M249.415,322.032l22.844-.5-14.9-116.763H233.8Z" transform="translate(-197.449 -144.598)" fill="#f7a9a0"/>
      <path id="Path_187" data-name="Path 187" d="M213.573,369.246s-2.992,22.265-2.992,22.278c0,4.47-.129,8.386-.376,10.406a.055.055,0,0,1,0,.031,3.11,3.11,0,0,1-.332,1.379h0c-1.336.893-33.25,1.706-34.481,1.318s-.234-4,1.127-5.135S187.6,391.96,187.6,391.96l3.75-23.33Z" transform="translate(-174.79 -207.563)" fill="#f7a9a0"/>
      <path id="Path_188" data-name="Path 188" d="M175.334,420.152c1.231.388,33.139-.425,34.481-1.312V418.8a2.986,2.986,0,0,0,.345-1.373.08.08,0,0,0,0-.037,56.473,56.473,0,0,0,.332-7.063c-5.209,3.3-18.688,4.772-22.973,3.83-3.8-.831-2.968-3.891-2.167-5.271-2.937,1.958-7.955,5.326-8.916,6.127C175.1,416.15,174.078,419.764,175.334,420.152Z" transform="translate(-174.764 -223.033)" fill="#263238"/>
      <path id="Path_189" data-name="Path 189" d="M192,408.736s10.732-1.749,18.066,4.052" transform="translate(-181.387 -222.879)" fill="#263238"/>
      <path id="Path_190" data-name="Path 190" d="M241.282,204.73c-.092.431-1.57,7.278-3.079,13.158-1.114,4.31-2.26,8.072-2.912,8.46a15.971,15.971,0,0,1-2.463,1.232l-12.6,94.11-22.69-.5,12.025-101.412,2.845-15.043Z" transform="translate(-183.516 -144.583)" fill="#f7a9a0"/>
      <path id="Path_191" data-name="Path 191" d="M213.826,204.84h32.745l9.667,71.74s-15.664,3.984-25.288,3.885-26.729-5.332-26.729-5.332Z" transform="translate(-186.083 -144.625)" fill="#263238"/>
      <path id="Path_192" data-name="Path 192" d="M256.927,136.137a.277.277,0,0,1-.252.252l-1.053-.1c-.554-2.758-1.268-4.994-1.121-4.144a14.252,14.252,0,0,1,.086,4.045c-.462-.043-1.533-.166-2.069-.222-.154-4.729-.7-8.306-.788-7.241a24.268,24.268,0,0,1-1.262,7.019c-5.006-.554-11.557-1.367-16.286-2.057-.179-2.629-.259-5.455-.369-5.277a13.994,13.994,0,0,0-1.57,4.988c-1.5-.234-2.7-.449-3.424-.616,0,0-.043-2.2,0-2.906a15.665,15.665,0,0,1,1.293-5.265A26.963,26.963,0,0,1,233.005,120v-.031h0a15.56,15.56,0,0,0,1.73-3.079h0a15.62,15.62,0,0,0,.757-2.463c.665-3.079,2.7-5.542,5.572-5.936,5.572-3.528,11.243,0,12.069,4.31h0c.271,1.9.413,4.31.616,6.219h0a19.6,19.6,0,0,0,.314,2.2C254.938,124.684,257.666,127.03,256.927,136.137Z" transform="translate(-195.527 -107.047)" fill="#263238"/>
      <path id="Path_193" data-name="Path 193" d="M239.5,110.335a5.85,5.85,0,0,0-3.873,4.255,16.293,16.293,0,0,1-1.281,3.781,13.823,13.823,0,0,1-2.574,3.079,10.363,10.363,0,0,0-3.165,5.24,18.664,18.664,0,0,0-.406,7.21h0a19.808,19.808,0,0,1,.825-7.45c.751-2.42,2.291-3.774,3.9-5.443a10.683,10.683,0,0,0,2.715-4.723,13.1,13.1,0,0,1,1.028-3.288,6.4,6.4,0,0,1,2.925-2.4C239.744,110.513,239.645,110.279,239.5,110.335Z" transform="translate(-195.228 -108.307)" fill="#263238"/>
      <path id="Path_194" data-name="Path 194" d="M271.832,128.729c-1.016-1.983-2.124-3.694-2.549-6.04-.394-2.124-.474-4.31-.881-6.428,0-.037-.049,0-.043,0,.548,3.738.24,7.389,1.958,10.72a24.438,24.438,0,0,1,2.371,5.6,18.781,18.781,0,0,1,.277,6.644c0,.08.086.092.1,0A15.5,15.5,0,0,0,271.832,128.729Z" transform="translate(-210.729 -110.581)" fill="#263238"/>
      <path id="Path_195" data-name="Path 195" d="M253.263,158.22c1.847,6.016,9.606,25.6,15.615,27.431,3.941,1.231,20.289.979,23.4-2.623,1.355-1.57.265-13.4-1.933-13.115s-15.344.917-16.9.32-12.383-15.394-16.57-19.162C249.649,144.526,252.26,154.975,253.263,158.22Z" transform="translate(-204.431 -123.152)" fill="#f7a9a0"/>
      <path id="Path_196" data-name="Path 196" d="M284.608,168.03,283.5,185.573s-13.048,1.281-18.367-1.3c-6.459-3.134-13.823-25.178-14.778-28.767-1.546-5.893-.523-9.236,2.518-8a13.094,13.094,0,0,1,4.433,3.584c1.761,1.97,12.259,15.1,15.738,17.776C274.984,170.352,284.608,168.03,284.608,168.03Z" transform="translate(-203.536 -122.495)" fill="#ebebeb"/>
      <path id="Path_197" data-name="Path 197" d="M299.44,198.05c.086-2.6.831-13.214,1.145-15.5,0-.154.129-.179.129,0a141.1,141.1,0,0,1-1.17,15.511C299.539,198.112,299.44,198.118,299.44,198.05Z" transform="translate(-222.672 -136.013)" fill="#263238"/>
      <path id="Path_198" data-name="Path 198" d="M278,185.825c-4.218.086-9.815-.123-12.863-1.6-6.459-3.134-13.823-25.178-14.778-28.767-1.545-5.893-.523-9.236,2.518-8l.283.123Z" transform="translate(-203.536 -122.476)" fill="#263238"/>
      <path id="Path_199" data-name="Path 199" d="M250.664,172.443l2.58,17.727s-28.891.425-36.064-.08c0,0,5.85-33.139,13.546-41.513,3.855-4.187,8.38-3.873,11.268-.942.733.739,9.445,12.253,10.363,16.656C253.176,168.17,250.664,172.443,250.664,172.443Z" transform="translate(-191.063 -121.797)" fill="#60b0aa"/>
      <path id="Path_200" data-name="Path 200" d="M227.512,146.56s5.431,12.352,5.757,22.37c.874,26.871-2.882,71.229-4.181,74.425-1.786,4.384-28.638,8.744-28.638,8.744s7.881-66.143,15.03-86.2C222.106,147.268,227.512,146.56,227.512,146.56Z" transform="translate(-184.634 -122.231)" fill="#ebebeb"/>
      <path id="Path_201" data-name="Path 201" d="M214.978,244.683c-.123,3.947.055,8.417.9,9.236,1.576,1.539,5.763,1.41,7.081,1.4s6.01,0,7.112-2.463c.486-1.065.616-6.582.616-8.534,0-.794-.185-4.692-.246-5.129,0-.1-.289-.092-.3,0-.068.45,0,2.069-.049,2.377a43.653,43.653,0,0,1-14.661-.308V239.24a41.4,41.4,0,0,0,7.161.677,77.926,77.926,0,0,0,7.851-.56c.062,0,0-.3-.074-.3-.985,0-4.4.351-7.838.351a64.11,64.11,0,0,1-7.352-.573C215.027,238.871,215.021,242.787,214.978,244.683Zm1.355,8.787c-.831-.954-.936-3.694-.936-5.363v-6.361a38.853,38.853,0,0,0,14.649.2c0,.1.049,4.889,0,6.416-.055,1.952-.117,3.694-.868,4.729-.616.868-2.463,1.743-6.613,1.736-3-.006-5.542-.554-6.244-1.355Z" transform="translate(-190.203 -157.69)" fill="#a6a6a6"/>
      <path id="Path_202" data-name="Path 202" d="M266.585,244.21c1.484,3.522,10.369,5.9,10.369,5.9L265.76,173a11.52,11.52,0,0,0,1.564-7.752c-.751-4.31-9.809-16.871-11.274-17.518a139.855,139.855,0,0,1,3.14,19.667C261.7,194.5,264.96,240.381,266.585,244.21Z" transform="translate(-205.999 -122.68)" fill="#ebebeb"/>
      <path id="Path_203" data-name="Path 203" d="M268.206,164.229c-.807-1.287-1.632-2.561-2.426-3.855,0-.037.037-.08.062-.043.807,1.059,1.595,2.137,2.377,3.214-.259-.579-.511-1.158-.745-1.749,0-.068.068-.123.1-.055.357.757.683,1.533,1,2.309a22.315,22.315,0,0,1,1.847,3.079,10.628,10.628,0,0,1,.979,7.155,9.5,9.5,0,0,1-.72,1.977c-.216.425-.911,1.355-.905,1.379.456,2.525.794,5.08,1.151,7.623s.727,5.148,1.022,7.728c.172,1.459.283,2.937.493,4.39,0,.055-.074.074-.08,0-.185-1.268-.462-2.525-.69-3.787s-.437-2.525-.616-3.793c-.413-2.561-.776-5.129-1.145-7.7-.209-1.453-.443-2.9-.616-4.359a13.462,13.462,0,0,1,.837-1.595,10.467,10.467,0,0,0,.616-1.669,9.413,9.413,0,0,0,.3-3.59A16.528,16.528,0,0,0,268.206,164.229Z" transform="translate(-209.738 -127.517)" fill="#263238"/>
      <path id="Path_204" data-name="Path 204" d="M256.16,148.19q.893,1.195,1.816,2.364c.616.776,1.231,1.564,1.847,2.34v-.185l-1.521,1.4-.123.117.136.111c.616.548,1.287,1.078,1.933,1.613l-.055-.135c-.234,1.447-.486,2.894-.7,4.347s-.431,2.906-.616,4.359q.462-2.161.868-4.31c.289-1.447.536-2.894.794-4.341v-.08l-.068-.055c-.616-.542-1.281-1.09-1.927-1.619v.228l1.49-1.422.092-.086-.08-.1c-.616-.77-1.3-1.521-1.952-2.278S256.837,148.935,256.16,148.19Z" transform="translate(-206.041 -122.857)" fill="#dbdbdb"/>
      <path id="Path_205" data-name="Path 205" d="M245.315,140.56c.154.566,1.847,4.4,4.421,4.68,1.626.172,1.847-5.443,1.847-5.443l.062-.345.844-4.846-5.751-3.393-.831-.443s-.154,1.336-.332,3V134l-.037.271c-.031.246-.055.5-.08.757s-.037.376-.055.579-.031.406-.049.616a32.012,32.012,0,0,0-.037,4.335Z" transform="translate(-201.852 -116.163)" fill="#f7a9a0"/>
      <path id="Path_206" data-name="Path 206" d="M245.81,133.793a9.852,9.852,0,0,0,6.022,5.659l.868-4.846-5.751-3.393-.831-.443S245.989,132.143,245.81,133.793Z" transform="translate(-202.064 -116.163)" fill="#263238"/>
      <path id="Path_207" data-name="Path 207" d="M258.391,120.494c-.936,8.553-6.157,8.953-8,8.75-1.669-.185-7.346-1.034-7.3-9.636s4.31-10.868,8.177-10.646S259.333,111.941,258.391,120.494Z" transform="translate(-201.019 -107.777)" fill="#f7a9a0"/>
      <path id="Path_208" data-name="Path 208" d="M264.7,123.688a5.435,5.435,0,0,1-.554-.215.954.954,0,0,1-.523-.326.3.3,0,0,1,.062-.369.764.764,0,0,1,.77-.055,1.145,1.145,0,0,1,.616.5.326.326,0,0,1-.369.462Z" transform="translate(-208.896 -113.04)" fill="#263238"/>
      <path id="Path_209" data-name="Path 209" d="M255.781,122.272a4.749,4.749,0,0,0,.616,0,.979.979,0,0,0,.616-.142.32.32,0,0,0,.062-.369.757.757,0,0,0-.708-.3,1.09,1.09,0,0,0-.757.271.326.326,0,0,0,.172.536Z" transform="translate(-205.797 -112.585)" fill="#263238"/>
      <path id="Path_210" data-name="Path 210" d="M256.8,126.59s-.049,0-.055.043c-.062.616-.234,1.231-.788,1.355v.037C256.6,128.025,256.834,127.15,256.8,126.59Z" transform="translate(-205.964 -114.557)" fill="#263238"/>
      <path id="Path_211" data-name="Path 211" d="M256.077,125.48c-.924-.209-1.232,1.656-.406,1.847S256.847,125.646,256.077,125.48Z" transform="translate(-205.669 -114.124)" fill="#263238"/>
      <path id="Path_212" data-name="Path 212" d="M255.312,125.386c-.185.074-.376.228-.579.215s-.363-.246-.48-.462h0a.683.683,0,0,0,.369.868c.339.111.616-.16.8-.5C255.429,125.46,255.386,125.356,255.312,125.386Z" transform="translate(-205.291 -114)" fill="#263238"/>
      <path id="Path_213" data-name="Path 213" d="M262.906,127.47s.037.037.031.062c-.129.573-.179,1.231.308,1.539v.031C262.623,128.892,262.7,127.993,262.906,127.47Z" transform="translate(-208.575 -114.895)" fill="#263238"/>
      <path id="Path_214" data-name="Path 214" d="M263.54,126.658c.936.1.653,1.977-.216,1.878S262.77,126.566,263.54,126.658Z" transform="translate(-208.593 -114.582)" fill="#263238"/>
      <path id="Path_215" data-name="Path 215" d="M264.546,126.979c.135.123.252.326.425.363s.388-.135.548-.308h0c-.043.357-.222.708-.573.727s-.5-.326-.536-.7C264.428,126.979,264.49,126.9,264.546,126.979Z" transform="translate(-209.211 -114.694)" fill="#263238"/>
      <path id="Path_216" data-name="Path 216" d="M256.489,134.149c.111.16.2.376.406.443a1.632,1.632,0,0,0,.616,0v.031a.807.807,0,0,1-.8.148.616.616,0,0,1-.333-.616C256.427,134.124,256.476,134.124,256.489,134.149Z" transform="translate(-206.123 -117.455)" fill="#263238"/>
      <path id="Path_217" data-name="Path 217" d="M259.75,127.888a12.325,12.325,0,0,1-.1,1.287c0,.037-.1.037-.246,0h0a1.964,1.964,0,0,1-1.755-1.047c0-.043.037-.074.068-.043a2.974,2.974,0,0,0,1.681.807c.049-.111,0-1.515.062-1.509a3.449,3.449,0,0,1,.887.369c.111-1.847-.074-3.694.068-5.5,0-.068.1-.068.111,0a29.945,29.945,0,0,1,.179,5.936C260.686,128.43,259.9,127.981,259.75,127.888Z" transform="translate(-206.614 -112.869)" fill="#263238"/>
      <path id="Path_218" data-name="Path 218" d="M258.982,132.625a2.1,2.1,0,0,1-.924.542.942.942,0,0,1-.579-.037c-.4-.16-.357-.542-.24-.856a2.027,2.027,0,0,1,.246-.474,2.765,2.765,0,0,0,1.5.825Z" transform="translate(-206.425 -116.559)" fill="#263238"/>
      <path id="Path_219" data-name="Path 219" d="M258.058,133.443a.942.942,0,0,1-.579-.037c-.4-.16-.357-.542-.24-.856a.973.973,0,0,1,.819.893Z" transform="translate(-206.425 -116.847)" fill="#ff9cbd"/>
      <path id="Path_220" data-name="Path 220" d="M258.271,117.136c-1.053.117-4.126-2.8-4.9-6.237a8.054,8.054,0,0,1-3.467,4.255,8.288,8.288,0,0,1-4.926,1.367s-1.465,3.657-2.106,3.608-1.927-13.842,9.156-11.718c0,0,3.294.339,4.926,2.635S258.271,117.136,258.271,117.136Z" transform="translate(-200.782 -107.486)" fill="#263238"/>
      <path id="Path_221" data-name="Path 221" d="M253.03,127.839a2.783,2.783,0,1,1,3.577-2.561h0a2.8,2.8,0,0,1-2.894,2.678A2.741,2.741,0,0,1,253.03,127.839Zm1.478-4.981a2.285,2.285,0,0,0-.616-.1,2.414,2.414,0,1,0,.616.1Z" transform="translate(-204.075 -112.942)" fill="#37474f"/>
      <path id="Path_222" data-name="Path 222" d="M263.608,129.551a2.612,2.612,0,0,1-1.392-3.079,3.362,3.362,0,0,1,.911-1.847,1.736,1.736,0,0,1,2.931.5,3.356,3.356,0,0,1,.246,2.02c-.265,1.515-1.392,2.586-2.518,2.389A.844.844,0,0,1,263.608,129.551Zm1.2-5.043a.867.867,0,0,0-.135-.037,1.478,1.478,0,0,0-1.281.474,2.9,2.9,0,0,0-.807,1.613c-.228,1.312.333,2.512,1.232,2.672s1.847-.776,2.087-2.087a2.95,2.95,0,0,0-.209-1.792,1.527,1.527,0,0,0-.887-.868Z" transform="translate(-208.347 -113.571)" fill="#37474f"/>
      <path id="Path_223" data-name="Path 223" d="M259.725,127.189l-.185-.32a1.518,1.518,0,0,1,2.063.252l-.308.2C260.8,126.58,259.768,127.165,259.725,127.189Z" transform="translate(-207.34 -114.553)" fill="#37474f"/>
      <path id="Path_224" data-name="Path 224" d="M239.6,124.3l-.3-.228c.1-.135,1.047-1.348,1.89-1.342s5.628,1.324,5.831,1.379l-.1.363c-1.385-.382-5.129-1.361-5.739-1.367S239.848,123.961,239.6,124.3Z" transform="translate(-199.562 -113.074)" fill="#37474f"/>
      <path id="Path_225" data-name="Path 225" d="M243.343,124.595s-1.318-3-2.642-2.58-.7,4.507.616,5.314a1.453,1.453,0,0,0,2.063-.388Z" transform="translate(-199.818 -112.783)" fill="#f7a9a0"/>
      <path id="Path_226" data-name="Path 226" d="M241.5,123.94a3.7,3.7,0,0,1,1.416,2.629.8.8,0,0,0-1.133-.449c-.031,0,0,.055,0,.055a.9.9,0,0,1,.905.5,4.47,4.47,0,0,1,.308.874c.031.1.2.08.185,0h0C243.446,126.28,242.818,124.334,241.5,123.94Z" transform="translate(-200.408 -113.539)" fill="#263238"/>
      <path id="Path_227" data-name="Path 227" d="M253.274,163.311s-2.081-2.74-.1-4,3.6,1.773,3.6,1.773Z" transform="translate(-204.565 -127.011)" fill="#455a64"/>
      <path id="Path_228" data-name="Path 228" d="M270.274,182.543h0l.283,3.356.1,1.108-.967-.548-2.925-1.681h0L253.76,164.385l3.5-2.235,13.017,20.4Z" transform="translate(-205.119 -128.221)" fill="#455a64"/>
      <path id="Path_229" data-name="Path 229" d="M280.5,200.72l.1,1.108-.973-.548Z" transform="translate(-215.06 -143.042)" fill="#37474f"/>
      <rect id="Rectangle_121" data-name="Rectangle 121" width="4.846" height="0.961" transform="translate(48.269 36.235) rotate(-32.54)" fill="#263238"/>
      <rect id="Rectangle_122" data-name="Rectangle 122" width="4.846" height="0.961" transform="translate(48.842 37.141) rotate(-32.54)" fill="#263238"/>
      <path id="Path_230" data-name="Path 230" d="M254.93,168.144l1.318-.844,3.984,7.845-.5.283Z" transform="translate(-205.568 -130.2)" fill="#263238"/>
      <path id="Path_231" data-name="Path 231" d="M221.2,152.981c-10.184,10.788-21.8,29.088-17.081,33.145,4.31,3.694,20.4.616,30.553-3.122,1.933-.708-5.486-17.826-7.463-16.859a54.9,54.9,0,0,1-6.434,2.734c-.554.142,2.3-6.4,5.806-14.322C230.489,145.715,227.029,146.823,221.2,152.981Z" transform="translate(-185.628 -122.839)" fill="#f7a9a0"/>
      <path id="Path_232" data-name="Path 232" d="M266.07,173.383c0,1.97-4.883,1.484-4.883,1.484a3.651,3.651,0,0,1,1.441,2.013c.332,1.459-1.81,2.629-1.81,2.629A4.5,4.5,0,0,1,262,181.874c.179,1.428-1.847,2.912-1.847,2.912a3.941,3.941,0,0,1-.271,2.734c-1.2,2.223-5.092,2.186-7.5,2.635a51.243,51.243,0,0,0-7.918,2.346L240.4,174.7s10.541-5.96,13.448-5.763C256.292,169.109,266.12,170.372,266.07,173.383Z" transform="translate(-199.985 -130.827)" fill="#f7a9a0"/>
      <path id="Path_233" data-name="Path 233" d="M269.1,177.765a32.839,32.839,0,0,0-7.962-1.145.046.046,0,1,0,0,.092c2.642.117,5.314.948,7.943,1.176a.062.062,0,1,0,.018-.123Z" transform="translate(-207.937 -133.781)" fill="#263238"/>
      <path id="Path_234" data-name="Path 234" d="M268.631,185.685a6.946,6.946,0,0,0-1.847-.142h-1.94c-1.3,0-2.6.092-3.891.2-.055,0-.062.092,0,.092,1.293-.031,2.586-.043,3.879,0l1.946.049a8.257,8.257,0,0,0,1.847,0,.1.1,0,1,0,.006-.2Z" transform="translate(-207.866 -137.206)" fill="#263238"/>
      <path id="Path_235" data-name="Path 235" d="M268.065,194.625a4.926,4.926,0,0,0-1.644-.037l-1.773.074c-1.182.037-2.364.08-3.547.08a.046.046,0,0,0,0,.092h5.375a4.519,4.519,0,0,0,1.6-.154.037.037,0,0,0-.012-.055Z" transform="translate(-207.922 -140.666)" fill="#263238"/>
      <path id="Path_236" data-name="Path 236" d="M225.855,148.024c-7.3,4.181-26.526,29.556-23.4,36.8s26.477.129,26.477.129l-1.416-19.464s-6.157,3.22-6.367,2.906,3.627-9.058,5.185-12.617S229.753,145.795,225.855,148.024Z" transform="translate(-185.274 -122.617)" fill="#ebebeb"/>
      <path id="Path_237" data-name="Path 237" d="M240.1,196.615c-.345-2.58-1.367-13.171-1.435-15.474,0-.16.092-.2.123-.037A129.73,129.73,0,0,1,240.2,196.6C240.222,196.658,240.1,196.676,240.1,196.615Z" transform="translate(-199.32 -135.464)" fill="#263238"/>
      <path id="Path_238" data-name="Path 238" d="M233.993,176.71a13.631,13.631,0,0,0-1.983.831c-.579.265-1.158.536-1.73.813l-3.694,1.847c-1.232.616-2.463,1.287-3.694,1.952s-2.383,1.4-3.6,2.075c-.055.031,0,.111.049.08,1.231-.616,2.506-1.231,3.756-1.847l3.664-1.816c1.231-.616,2.463-1.231,3.664-1.81l1.786-.9a14.686,14.686,0,0,0,1.89-1.016.135.135,0,0,0-.111-.209Z" transform="translate(-191.867 -133.816)" fill="#263238"/>
      <path id="Path_239" data-name="Path 239" d="M237.194,166.447c-.388.468-.77.93-1.133,1.416-.068.086-.129.179-.191.271l.308-.751a24.664,24.664,0,0,0,1.047-2.666c0-.037-.049-.062-.068,0a27.085,27.085,0,0,0-1.305,2.691q-.61,1.321-1.232,2.648c-.413.887-.794,1.773-1.17,2.672a20.159,20.159,0,0,0-1.01,2.685.05.05,0,0,0,.092.031,21.131,21.131,0,0,0,1.336-2.666c.4-.887.782-1.779,1.17-2.672l.474-1.127.191-.252c.185-.228.357-.468.523-.708.339-.5.659-1.01.979-1.527C237.23,166.453,237.206,166.435,237.194,166.447Z" transform="translate(-196.926 -129.193)" fill="#263238"/>
      <path id="Path_240" data-name="Path 240" d="M234.418,207.534c0-.129-.074-.154-.1,0s0,.216-.043.289c-.794.185-3.694.973-4.4,1.158q-2.235.585-4.495,1.01c-1.515.283-3.029.517-4.563.708s-3.079.388-4.587.437a.049.049,0,0,0,0,.1c1.564-.031,3.116-.031,4.673-.154a41.319,41.319,0,0,0,4.55-.616c1.472-.283,3.079-.616,4.563-1.022.757-.2,1.5-.425,2.247-.659a11.594,11.594,0,0,0,2.1-.77.16.16,0,0,0,.074-.142Z" transform="translate(-190.678 -145.619)" fill="#263238"/>
      <path id="Path_241" data-name="Path 241" d="M246.189,163.018l-.517.246-4.169-5.646-.092-.123.062-.135,1.533-3.307-4.31-.209h-.215l.08-.191c.887-2.112,1.749-4.236,2.648-6.342-.751,2.094-1.533,4.169-2.3,6.25l4.439.111h.308l-.129.283-1.509,3.479Z" transform="translate(-199.247 -122.519)" fill="#dbdbdb"/>
      <path id="Path_242" data-name="Path 242" d="M238.77,157.43h.2l-.074.2Z" transform="translate(-199.359 -126.407)" fill="#dbdbdb"/>
      <path id="Path_243" data-name="Path 243" d="M244.01,163.55l.086.117-.055.142Z" transform="translate(-201.372 -128.759)" fill="#dbdbdb"/>
      <path id="Path_244" data-name="Path 244" d="M245.909,157.81l.185.3-.314-.018Z" transform="translate(-202.052 -126.553)" fill="#dbdbdb"/>
      <path id="Path_245" data-name="Path 245" d="M285.19,195.06l-20.4-1.256,11.139-25.584,20.4,1.256Z" transform="translate(-209.357 -130.554)" fill="#fff"/>
      <path id="Path_246" data-name="Path 246" d="M287.459,195.2l-20.4-1.256L278.2,168.36l20.4,1.256Z" transform="translate(-210.229 -130.607)" fill="#455a64"/>
      <path id="Path_247" data-name="Path 247" d="M287.809,167.961a1.847,1.847,0,0,1-.942,1.01c-.2.092-.24-.166-.037-.252a1.336,1.336,0,0,0,.616-.616c0-.049.043-.1.062-.142a1.022,1.022,0,0,0,.062-.5.345.345,0,0,0-.1-.185h-.037a.3.3,0,0,0-.148,0,.524.524,0,0,0-.24.135,2.149,2.149,0,0,0-.32.406h0a.152.152,0,0,0,0,.049v.037h-.289a2.045,2.045,0,0,1,.3-.486,1.133,1.133,0,0,1,.819-.449.456.456,0,0,1,.431.443,1.232,1.232,0,0,1-.172.548Z" transform="translate(-217.673 -130.073)" fill="#60b0aa"/>
      <path id="Path_248" data-name="Path 248" d="M290.376,168.121a1.81,1.81,0,0,1-.942,1.01c-.2.092-.234-.166-.037-.252a1.373,1.373,0,0,0,.616-.616c0-.049.043-.1.055-.142a1.023,1.023,0,0,0,.062-.5.314.314,0,0,0-.1-.185h-.037a.277.277,0,0,0-.142,0,.548.548,0,0,0-.246.135,1.232,1.232,0,0,0-.222.259c-.037.043-.062.1-.1.148h0a.348.348,0,0,1-.031.049s0,0,0,.037h-.289a1.9,1.9,0,0,1,.308-.486,1.108,1.108,0,0,1,.813-.449.449.449,0,0,1,.431.443,1.182,1.182,0,0,1-.135.548Z" transform="translate(-218.645 -130.135)" fill="#60b0aa"/>
      <path id="Path_249" data-name="Path 249" d="M292.985,168.281a1.8,1.8,0,0,1-.936,1.01c-.2.092-.24-.166-.043-.252a1.373,1.373,0,0,0,.616-.616c0-.049.043-.1.055-.142a.955.955,0,0,0,.062-.5.314.314,0,0,0-.1-.185h-.043a.283.283,0,0,0-.142,0,.579.579,0,0,0-.246.135,1.418,1.418,0,0,0-.216.259,1.237,1.237,0,0,0-.1.148h0a.369.369,0,0,0,0,.049v.037H291.6a2.076,2.076,0,0,1,.308-.486,1.121,1.121,0,0,1,.813-.449.45.45,0,0,1,.431.443A1.183,1.183,0,0,1,292.985,168.281Z" transform="translate(-219.659 -130.196)" fill="#60b0aa"/>
      <path id="Path_250" data-name="Path 250" d="M295.57,168.461a1.847,1.847,0,0,1-.942,1.01c-.2.092-.24-.166-.037-.252a1.336,1.336,0,0,0,.616-.616c0-.049.043-.1.062-.142a1.022,1.022,0,0,0,.062-.5.344.344,0,0,0-.1-.185h-.037a.3.3,0,0,0-.148,0,.523.523,0,0,0-.24.135,2.148,2.148,0,0,0-.32.406v.031a.154.154,0,0,0-.031.049v.037h-.289a2.045,2.045,0,0,1,.3-.486,1.133,1.133,0,0,1,.819-.449.456.456,0,0,1,.431.443,1.231,1.231,0,0,1-.142.517Z" transform="translate(-220.643 -130.277)" fill="#60b0aa"/>
      <path id="Path_251" data-name="Path 251" d="M298.135,168.621a1.811,1.811,0,0,1-.942,1.01c-.2.092-.234-.166-.037-.252a1.373,1.373,0,0,0,.616-.616c0-.049.043-.1.055-.142a.955.955,0,0,0,.062-.5.314.314,0,0,0-.1-.185h-.037a.277.277,0,0,0-.142,0,.548.548,0,0,0-.246.135,1.232,1.232,0,0,0-.222.259c-.037.043-.062.1-.1.148v.031a.34.34,0,0,1,0,.049v.037h-.289a1.9,1.9,0,0,1,.308-.486,1.108,1.108,0,0,1,.813-.449.449.449,0,0,1,.431.443,1.182,1.182,0,0,1-.166.517Z" transform="translate(-221.638 -130.338)" fill="#60b0aa"/>
      <path id="Path_252" data-name="Path 252" d="M300.765,168.781a1.8,1.8,0,0,1-.936,1.01c-.2.092-.24-.166-.043-.252a1.373,1.373,0,0,0,.616-.616c0-.049.043-.1.055-.142a.954.954,0,0,0,.062-.5.314.314,0,0,0-.1-.185h-.043a.283.283,0,0,0-.142,0,.579.579,0,0,0-.246.135,1.415,1.415,0,0,0-.215.259.88.88,0,0,0-.1.148v.031a.369.369,0,0,0,0,.049v.037h-.289a2.075,2.075,0,0,1,.308-.486,1.121,1.121,0,0,1,.813-.449.449.449,0,0,1,.431.443A1.182,1.182,0,0,1,300.765,168.781Z" transform="translate(-222.649 -130.4)" fill="#60b0aa"/>
      <path id="Path_253" data-name="Path 253" d="M303.369,168.941a1.847,1.847,0,0,1-.942,1.01c-.2.092-.24-.166-.037-.252a1.336,1.336,0,0,0,.616-.616c0-.049.043-.1.062-.142a1.022,1.022,0,0,0,.062-.5.345.345,0,0,0-.1-.185h-.037a.246.246,0,0,0-.148,0,.523.523,0,0,0-.24.135,1.231,1.231,0,0,0-.222.259.882.882,0,0,0-.1.148v.031a.155.155,0,0,0,0,.049v.037h-.289a2.045,2.045,0,0,1,.3-.486,1.133,1.133,0,0,1,.819-.449.456.456,0,0,1,.431.443A1.231,1.231,0,0,1,303.369,168.941Z" transform="translate(-223.652 -130.461)" fill="#60b0aa"/>
      <path id="Path_254" data-name="Path 254" d="M305.936,169.1a1.81,1.81,0,0,1-.942,1.01c-.2.092-.234-.166-.037-.252a1.373,1.373,0,0,0,.616-.616c0-.049.043-.1.055-.142a.955.955,0,0,0,.062-.5.314.314,0,0,0-.1-.185h-.037a.222.222,0,0,0-.142,0,.548.548,0,0,0-.246.135,1.231,1.231,0,0,0-.222.259,1.541,1.541,0,0,0-.1.148v.031a.34.34,0,0,1-.031.049s0,0,0,.037h-.289a2.076,2.076,0,0,1,.308-.486,1.108,1.108,0,0,1,.813-.449.449.449,0,0,1,.431.443,1.181,1.181,0,0,1-.135.517Z" transform="translate(-224.624 -130.523)" fill="#60b0aa"/>
      <path id="Path_255" data-name="Path 255" d="M308.545,169.241a1.8,1.8,0,0,1-.936,1.01c-.2.092-.24-.166-.043-.252a1.373,1.373,0,0,0,.616-.616c0-.049.043-.1.055-.142a.954.954,0,0,0,.062-.5.314.314,0,0,0-.1-.185h-.043a.228.228,0,0,0-.142,0,.578.578,0,0,0-.246.135,1.416,1.416,0,0,0-.216.259.883.883,0,0,0-.1.148h0v.086h-.289a2.073,2.073,0,0,1,.308-.486,1.12,1.12,0,0,1,.813-.449.45.45,0,0,1,.431.443,1.182,1.182,0,0,1-.166.548Z" transform="translate(-225.638 -130.565)" fill="#60b0aa"/>
      <path id="Path_256" data-name="Path 256" d="M311.12,169.381a1.847,1.847,0,0,1-.942,1.01c-.2.092-.24-.166-.037-.252a1.336,1.336,0,0,0,.616-.616c0-.049.043-.1.062-.142a1.022,1.022,0,0,0,.062-.5.344.344,0,0,0-.1-.185h-.037a.246.246,0,0,0-.148,0,.523.523,0,0,0-.24.135,1.231,1.231,0,0,0-.222.259.88.88,0,0,0-.1.148h0a.154.154,0,0,0-.031.049v.037h-.289a2.044,2.044,0,0,1,.3-.486,1.133,1.133,0,0,1,.819-.449.456.456,0,0,1,.431.443A1.232,1.232,0,0,1,311.12,169.381Z" transform="translate(-226.618 -130.619)" fill="#60b0aa"/>
      <path id="Path_257" data-name="Path 257" d="M313.735,169.561a1.81,1.81,0,0,1-.942,1.01c-.2.092-.234-.166-.037-.252a1.373,1.373,0,0,0,.616-.616c0-.049.043-.1.055-.142a.955.955,0,0,0,.062-.5.314.314,0,0,0-.1-.185h-.037a.222.222,0,0,0-.142,0,.548.548,0,0,0-.246.135,1.23,1.23,0,0,0-.222.259,1.537,1.537,0,0,0-.1.148h0a.34.34,0,0,1,0,.049v.037h-.289a2.075,2.075,0,0,1,.308-.486,1.108,1.108,0,0,1,.813-.449.449.449,0,0,1,.431.443A1.182,1.182,0,0,1,313.735,169.561Z" transform="translate(-227.633 -130.688)" fill="#60b0aa"/>
      <path id="Path_258" data-name="Path 258" d="M316.325,169.741a1.8,1.8,0,0,1-.936,1.01c-.2.092-.24-.166-.043-.252a1.373,1.373,0,0,0,.616-.616c0-.049.043-.1.055-.142a.955.955,0,0,0,.062-.5.314.314,0,0,0-.1-.185h-.043a.228.228,0,0,0-.142,0,.579.579,0,0,0-.246.135,1.417,1.417,0,0,0-.215.259.879.879,0,0,0-.1.148v.031a.368.368,0,0,0,0,.049v.037h-.289a2.075,2.075,0,0,1,.308-.486,1.12,1.12,0,0,1,.813-.449.449.449,0,0,1,.431.443A1.181,1.181,0,0,1,316.325,169.741Z" transform="translate(-228.628 -130.769)" fill="#60b0aa"/>
      <path id="Path_259" data-name="Path 259" d="M307.243,179.9c.77,2.327,3.079,5.388,3.079,7.216a2.087,2.087,0,0,1-1.453,2.081,3.114,3.114,0,0,1,1.41,2.771c-.148.856-1.632,1.373-1.632,1.373a2.5,2.5,0,0,1,.973,2.414c-.271,1.164-1.718,1.509-1.718,1.509a2.992,2.992,0,0,1,.179,2.6c-1.33,2.217-11.484.967-12.592-2.968-.517-1.847,1.946-1.392,1.946-1.392s-3.393-1.49-3.19-3.59,3.374-1.336,3.374-1.336-3.276-1.472-2.845-3.627c.45-2.247,3.485-.936,3.485-.936s-2.069-1.81-1.361-3.387c1.17-2.6,5.031,1.324,7.327,1.071l1.681-3.528Z" transform="translate(-220.672 -135.042)" fill="#f7a9a0"/>
      <path id="Path_260" data-name="Path 260" d="M315.9,180.373c-.542-2.272,2.463-4.624,2.278-6.872-.277-3.036-3.965-.548-5.24,3.664l-.406,3.436Z" transform="translate(-227.702 -132.066)" fill="#f7a9a0"/>
      <path id="Path_261" data-name="Path 261" d="M309.576,206.9v.055a17.776,17.776,0,0,1-10.381-1.909c-.1-.055-.055-.246.068-.2a36.193,36.193,0,0,0,10.314,2.057Z" transform="translate(-222.555 -144.625)" fill="#263238"/>
      <path id="Path_262" data-name="Path 262" d="M310.681,199.906c.043,0,.043.068,0,.074a16.625,16.625,0,0,1-11.2-2.789c-.117-.086-.135-.271,0-.185C301.778,198.422,307.381,199.783,310.681,199.906Z" transform="translate(-222.651 -141.606)" fill="#263238"/>
      <path id="Path_263" data-name="Path 263" d="M300.438,189.364a22.63,22.63,0,0,0,10.652,3.46c.049,0,.037.074,0,.08a14.775,14.775,0,0,1-6.157-.745,10.234,10.234,0,0,1-4.538-2.679C300.315,189.432,300.371,189.321,300.438,189.364Z" transform="translate(-223.024 -138.675)" fill="#263238"/>
    </g>
    <g id="freepik--Counter--inject-5" transform="translate(48.987 168.061)">
      <rect id="Rectangle_123" data-name="Rectangle 123" width="236.032" height="16.902" transform="translate(0)" fill="#37474f"/>
      <rect id="Rectangle_124" data-name="Rectangle 124" width="226.734" height="98.1" transform="translate(4.643 16.902)" fill="#37474f"/>
      <rect id="Rectangle_125" data-name="Rectangle 125" width="226.734" height="10.363" transform="translate(4.643 16.902)" fill="#263238"/>
      <path id="Path_264" data-name="Path 264" d="M164.05,359.273a.449.449,0,0,1,.443-.443h3.658a3.694,3.694,0,0,1,0,7.389l-3.2.037v5.08a.456.456,0,0,1-.905,0Zm4.1,6.059a2.8,2.8,0,0,0,0-5.6h-3.2v5.6Z" transform="translate(-98.96 -291.819)" fill="#fff"/>
      <path id="Path_265" data-name="Path 265" d="M192.091,365.764h-6.656v5.579a.456.456,0,0,1-.905,0V359.3a.456.456,0,0,1,.905,0v5.579h6.65V359.3a.456.456,0,0,1,.905,0v12.044a.456.456,0,0,1-.905,0Z" transform="translate(-106.83 -291.844)" fill="#fff"/>
      <path id="Path_266" data-name="Path 266" d="M213.406,368.467h-5.893l-1.145,3.079a.456.456,0,0,1-.425.3h-.166a.474.474,0,0,1-.259-.616l4.489-11.988a.493.493,0,0,1,.443-.277.456.456,0,0,1,.443.277l4.489,11.988a.462.462,0,0,1-.24.616h-.166a.474.474,0,0,1-.425-.3Zm-5.542-.905h5.228l-2.6-6.946Z" transform="translate(-114.881 -291.869)" fill="#fff"/>
      <path id="Path_267" data-name="Path 267" d="M235.507,368.842a2.334,2.334,0,0,0-1.053-1.958,4.132,4.132,0,0,0-1.5-.646c-.055,0-.074-.037-.092-.037h-3.14v5.117a.456.456,0,0,1-.905,0V359.273a.456.456,0,0,1,.406-.443h3.694a3.694,3.694,0,0,1,1.552,7.038,1.7,1.7,0,0,0,.185.092,3.27,3.27,0,0,1,1.736,2.882,4.963,4.963,0,0,0,.166,1.5.677.677,0,0,0,.185.314.486.486,0,0,1,.5.3.5.5,0,0,1-.3.616,1.946,1.946,0,0,1-.222,0h-.037a1.028,1.028,0,0,1-.831-.616,4.569,4.569,0,0,1-.351-2.106Zm-2.586-9.107h-3.2v5.579h3.27a2.79,2.79,0,0,0-.074-5.579Z" transform="translate(-123.849 -291.819)" fill="#fff"/>
      <path id="Path_268" data-name="Path 268" d="M260.965,360.713l-4.138,5.745a.431.431,0,0,1-.369.2h-.037a.418.418,0,0,1-.388-.2l-4.138-5.726v10.622a.456.456,0,0,1-.905,0v-11.97a.419.419,0,0,1,.185-.351l.037-.037a.468.468,0,0,1,.616.111l4.6,6.373,4.581-6.373a.462.462,0,0,1,.616-.111.928.928,0,0,1,.129.148.616.616,0,0,1,.074.24v11.97a.449.449,0,0,1-.443.443.437.437,0,0,1-.443-.443Z" transform="translate(-132.368 -291.855)" fill="#fff"/>
      <path id="Path_269" data-name="Path 269" d="M283.906,368.467h-5.893l-1.145,3.079a.456.456,0,0,1-.425.3h-.166a.474.474,0,0,1-.259-.616l4.489-11.988a.493.493,0,0,1,.443-.277.456.456,0,0,1,.443.277l4.489,11.988a.462.462,0,0,1-.24.616h-.166a.474.474,0,0,1-.425-.3Zm-5.542-.905h5.228l-2.6-6.946Z" transform="translate(-141.972 -291.868)" fill="#fff"/>
      <path id="Path_270" data-name="Path 270" d="M304.426,358.53a6.86,6.86,0,0,1,4.175,1.422.456.456,0,0,1,.074.647.431.431,0,0,1-.616.092,5.893,5.893,0,0,0-3.621-1.231,5.652,5.652,0,1,0,0,11.3,5.5,5.5,0,0,0,3.584-1.231.449.449,0,0,1,.616.111.437.437,0,0,1-.055.646,6.841,6.841,0,0,1-4.175,1.4,6.558,6.558,0,1,1,0-13.115Z" transform="translate(-150.374 -291.704)" fill="#fff"/>
      <path id="Path_271" data-name="Path 271" d="M327.076,365.6l-4.341-5.93a.48.48,0,0,1,.092-.616.425.425,0,0,1,.616.074l4.045,5.542,4.064-5.542a.425.425,0,0,1,.616-.074.443.443,0,0,1,.092.616l-4.31,5.893v5.8a.437.437,0,0,1-.443.443.45.45,0,0,1-.443-.443Z" transform="translate(-159.908 -291.868)" fill="#fff"/>
      <rect id="Rectangle_126" data-name="Rectangle 126" width="226.734" height="0.616" transform="translate(4.643 61.328)" fill="#fff"/>
      <rect id="Rectangle_127" data-name="Rectangle 127" width="226.734" height="0.616" transform="translate(4.643 59.554)" fill="#fff"/>
      <rect id="Rectangle_128" data-name="Rectangle 128" width="226.734" height="0.616" transform="translate(4.643 86.758)" fill="#fff"/>
      <rect id="Rectangle_129" data-name="Rectangle 129" width="226.734" height="0.616" transform="translate(4.643 84.978)" fill="#fff"/>
      <rect id="Rectangle_130" data-name="Rectangle 130" width="3.768" height="16.12" transform="translate(116.129 35.873)" fill="#ebebeb"/>
      <rect id="Rectangle_131" data-name="Rectangle 131" width="3.768" height="16.12" transform="translate(126.073 42.049) rotate(90)" fill="#ebebeb"/>
    </g>
    <g id="freepik--Plant--inject-5" transform="translate(243.438 197.77)">
      <path id="Path_272" data-name="Path 272" d="M427.82,365.27s9.784-2.223,15.147-7.161,8.362-13.8,8.362-13.8A85.017,85.017,0,0,0,440.35,347.2a18.473,18.473,0,0,0-3.319,4.7,22.242,22.242,0,0,1,0-3.356,14.9,14.9,0,0,0-3.485,2.112C429.076,354.537,427.82,365.27,427.82,365.27Z" transform="translate(-394.767 -315.949)" fill="#ffc727"/>
      <path id="Path_273" data-name="Path 273" d="M441.6,349.5c1.33-.924,2.691-1.81,4.015-2.746a.076.076,0,0,0-.08-.129c-2.518,1.509-5.006,3.116-7.389,4.8q-1.256.877-2.463,1.847l.172-.289c.3-.493.616-.973.911-1.453a20.8,20.8,0,0,1,2.081-2.777c0-.031,0-.08-.049-.043-.764.874-1.521,1.749-2.217,2.678-.332.443-.616.905-.93,1.373q-.228.357-.443.739c-.043.08-.1.166-.148.252-1.231.991-2.463,2.026-3.694,3.122q-1.09,1.016-2.106,2.106c.382-1.188.708-2.383,1.151-3.553,0-.037-.049-.055-.068,0-.425,1.231-.893,2.463-1.231,3.694q-1.127,1.231-2.143,2.525l.037-.16c.111-.462.222-.924.345-1.379.24-.887.5-1.767.8-2.635a15.161,15.161,0,0,1,2.629-4.963s0-.08-.049-.049a19.162,19.162,0,0,0-3.75,7.826q-.154.616-.3,1.231c-.049.222-.111.449-.148.677-.3.4-.585.807-.862,1.231a42.533,42.533,0,0,0-4.144,8.115,94.071,94.071,0,0,0-3.134,9.79.049.049,0,0,0,.1,0c1.915-5.726,3.867-11.533,7.149-16.625a37.36,37.36,0,0,1,2.229-3.128,18.392,18.392,0,0,0,4.76-.948,21.066,21.066,0,0,0,4.772-2.3,29.538,29.538,0,0,0,2.463-1.847.033.033,0,1,0-.043-.049,19.568,19.568,0,0,1-4.483,2.715,25.034,25.034,0,0,1-4.926,1.656c-.72.154-1.453.271-2.186.369a40.4,40.4,0,0,1,2.851-3.239c.332-.333.671-.616,1.016-.967a23.058,23.058,0,0,1,3.614-2.069c1.6-.776,3.183-1.595,4.772-2.4.893-.456,1.78-.924,2.685-1.367.037,0,0-.074-.037-.055-1.607.776-3.239,1.5-4.864,2.247-1.527.7-3.079,1.4-4.538,2.229-.068,0-.123.074-.185.1,1.324-1.151,2.7-2.254,4.1-3.313C438.947,351.383,440.259,350.422,441.6,349.5Z" transform="translate(-391.147 -316.833)" fill="#263238"/>
      <path id="Path_274" data-name="Path 274" d="M452.2,359.49c-.794.351-1.607.659-2.4,1.028s-1.576.825-2.346,1.281c-.031,0,0,.068,0,.049.782-.376,1.57-.72,2.346-1.115s1.576-.819,2.383-1.176a.037.037,0,0,0,.012-.068Z" transform="translate(-402.309 -321.782)" fill="#263238"/>
      <path id="Path_275" data-name="Path 275" d="M376.19,298.25a14,14,0,0,1,2.925,8.128c.031.88-.111,2.1-.209,3.54a23.238,23.238,0,0,1,6.4,5.455,11.594,11.594,0,0,0-6.453-1.546,18.934,18.934,0,0,0,.376,2.925,11.083,11.083,0,0,1,4.15.825,9.31,9.31,0,0,0-3.744.739c1.743,5.542,6.927,11.256,21.249,13.676a30.061,30.061,0,0,0-2.537-20.147C394.04,303.4,376.19,298.25,376.19,298.25Z" transform="translate(-374.928 -298.25)" fill="#ffc727"/>
      <path id="Path_276" data-name="Path 276" d="M408.2,358.1q-.376-3.559-.93-7.093a140.982,140.982,0,0,0-2.888-14.014,55.151,55.151,0,0,0-2.069-6.367,9.014,9.014,0,0,0,.055-1.151V328.1c0-.917-.049-1.847-.129-2.746a32.987,32.987,0,0,0-.88-5.369c-.265-1.022-.566-2.026-.868-3.036,0-.037-.074,0-.062,0a39.7,39.7,0,0,1,1.059,5.363,50.692,50.692,0,0,1,.48,5.369v2.094a46.548,46.548,0,0,0-2.414-4.994,61.074,61.074,0,0,0-4.926-7.333,3.226,3.226,0,0,0-.117-.8c-.068-.32-.136-.616-.209-.961-.148-.653-.314-1.3-.486-1.952-.357-1.293-.825-2.549-1.232-3.83a.037.037,0,0,0-.068,0c.382,1.268.616,2.586.924,3.873.142.616.283,1.281.419,1.921.074.314.142.616.209.954a.312.312,0,0,0,0,.074q-.868-1.1-1.773-2.161c-2.734-3.2-5.733-6.157-8.75-9.1-.369-.357-.751-.714-1.127-1.065-.031-.031-.074,0-.049.049,2.888,3,5.726,6.047,8.411,9.236.616.751,1.268,1.521,1.89,2.3l-.979-.616c-.831-.548-1.675-1.078-2.543-1.564s-1.749-.961-2.642-1.4-1.9-.825-2.783-1.342c-.037,0-.074.043-.031.062a19.66,19.66,0,0,1,2.611,1.447q1.312.763,2.6,1.576c.844.536,1.687,1.059,2.525,1.607.7.45,1.379.942,2.106,1.361a68.614,68.614,0,0,1,4.618,6.687,50.482,50.482,0,0,1,2.371,4.495l-.517-.222-1.312-.616c-.837-.376-1.687-.739-2.531-1.1-1.607-.7-3.239-1.342-4.815-2.112a21.751,21.751,0,0,1-2.568-1.422c-.037,0-.068.031-.031.055a57.214,57.214,0,0,0,9.476,4.889l1.41.616c.382.172.77.363,1.17.511a49.939,49.939,0,0,1,2.444,6.662,133.219,133.219,0,0,1,3.116,13.854c.825,4.673,1.379,9.384,1.81,14.113.049.616.1,1.176.172,1.767a.191.191,0,0,0,.376,0C408.688,362.892,408.442,360.484,408.2,358.1Z" transform="translate(-377.298 -300.609)" fill="#263238"/>
      <path id="Path_277" data-name="Path 277" d="M409.478,324.7c-.265-1.459-.653-2.882-1.041-4.31,0-.043-.074,0-.068,0,.363,1.4.616,2.826.887,4.242s.5,2.9.708,4.359H410A37.556,37.556,0,0,0,409.478,324.7Z" transform="translate(-387.293 -306.749)" fill="#263238"/>
      <path id="Path_278" data-name="Path 278" d="M396.163,331.758A26.227,26.227,0,0,0,393.048,330c-.523-.271-1.053-.523-1.576-.782s-1.115-.48-1.656-.751c-.037,0-.068.037,0,.055.523.265,1.022.579,1.533.862s1.059.616,1.589.868c1.053.56,2.081,1.188,3.177,1.644a.08.08,0,0,0,.049-.142Z" transform="translate(-380.148 -309.862)" fill="#263238"/>
      <path id="Path_279" data-name="Path 279" d="M428.11,335.342s9.051-2.167,13.214-8.239c3.965-5.806,5.252-15.7,5.351-16.563-.16.8-2.032,9.439-8.2,13.466C433.763,327.091,429.2,329.628,428.11,335.342Z" transform="translate(-394.878 -302.973)" fill="#263238" opacity="0.1"/>
      <path id="Path_280" data-name="Path 280" d="M439.6,325.4a11.527,11.527,0,0,0-3.337,5.5h0a13.547,13.547,0,0,1,3.356-5.455C439.671,325.422,439.628,325.373,439.6,325.4Z" transform="translate(-398.01 -308.68)" fill="#263238"/>
      <path id="Path_281" data-name="Path 281" d="M428,335.3s9.051-2.167,13.214-8.239c3.965-5.806,5.252-15.7,5.351-16.563a.217.217,0,0,0,0-.062s-4.31,6.157-8.91,7.752S426.7,325.212,428,335.3Z" transform="translate(-394.771 -302.934)" fill="#ffc727"/>
      <path id="Path_282" data-name="Path 282" d="M442.669,315.986a36.849,36.849,0,0,1-2.8,4.79,19.262,19.262,0,0,1-3.725,3.83c-1.232.979-2.531,1.847-3.775,2.82v-.043c.234-.351.486-.683.745-1.016.517-.659,1.084-1.287,1.65-1.9,1.127-1.232,2.278-2.42,3.288-3.744a13.842,13.842,0,0,0,1.447-2.34c0-.037-.043-.055-.062,0-1.466,3.079-4.4,5.018-6.5,7.6a13.994,13.994,0,0,0-.837,1.145,4.769,4.769,0,0,0-.517.917,19.256,19.256,0,0,0-3.079,3.122,11.986,11.986,0,0,1,.363-1.755,8.854,8.854,0,0,1,.961-2.3c0-.037-.037-.074-.055-.037a10.786,10.786,0,0,0-1.059,2.278,8.191,8.191,0,0,0-.326,1.958h0a17.565,17.565,0,0,0-1.232,1.9c.037-.191.074-.388.117-.579.179-.905.376-1.8.616-2.691a16.009,16.009,0,0,1,2.18-5.1.033.033,0,0,0-.055-.037,19.494,19.494,0,0,0-2.414,4.994c-.289.887-.523,1.792-.727,2.7-.1.443-.185.893-.271,1.342-.043.228-.092.468-.129.7a32.683,32.683,0,0,0-2.094,6.157,90.184,90.184,0,0,0-1.927,11.453,95.432,95.432,0,0,0-.616,12.155c0,.511.037,1.022.068,1.527a.1.1,0,1,0,.209,0c.092-2.007.142-4.021.259-6.028s.3-4.015.511-6.016a108.736,108.736,0,0,1,1.884-11.7,30.217,30.217,0,0,1,3.5-9.544,17.962,17.962,0,0,1,3.27-3.885c1.268-1.139,2.654-2.137,4-3.2a21.811,21.811,0,0,0,3.664-3.522,29.168,29.168,0,0,0,2.882-4.673l.653-1.232C442.749,315.986,442.694,315.93,442.669,315.986Z" transform="translate(-392.468 -305.056)" fill="#263238"/>
      <path id="Path_283" data-name="Path 283" d="M451.88,318.116a31.268,31.268,0,0,1-2.02,3.528s0,.049.043,0a24.5,24.5,0,0,0,2.038-3.534C451.96,318.1,451.9,318.079,451.88,318.116Z" transform="translate(-403.236 -305.875)" fill="#263238"/>
      <path id="Path_284" data-name="Path 284" d="M374.14,344.31s-.148,12.869,7.549,16.582,11.822.616,17.05,1.847h0c-.2-.308-3.935-5.671-9.852-7.149C382.754,354.082,375.987,349.661,374.14,344.31Z" transform="translate(-374.14 -315.949)" fill="#ffc727"/>
      <path id="Path_285" data-name="Path 285" d="M374.14,344.31s-.148,12.869,7.549,16.582,11.822.616,17.05,1.847h0a29.149,29.149,0,0,0-8.75-2.58C385.137,359.587,375.858,356.434,374.14,344.31Z" transform="translate(-374.14 -315.949)" opacity="0.1"/>
      <path id="Path_286" data-name="Path 286" d="M401.358,367.9a12.894,12.894,0,0,0-3.079-2.075c-.166-.08-.332-.142-.5-.215s-.166-.2-.259-.3c-.228-.24-.468-.468-.72-.69a11.133,11.133,0,0,0-1.552-1.115c-1.275-.751-2.666-1.275-3.971-1.97a.037.037,0,0,0-.031.062c.616.333,1.268.7,1.89,1.065s1.232.7,1.847,1.078a12.592,12.592,0,0,1,1.521,1.145c.136.117.265.246.4.376a21.062,21.062,0,0,0-2.6-.69c-1.41-.283-2.832-.486-4.236-.788a19.636,19.636,0,0,1-2.044-.548c-.616-.517-1.275-1.028-1.878-1.582a14.994,14.994,0,0,1-1.989-2.2c0-.037-.086,0-.055.031a23.47,23.47,0,0,0,3.153,3.485c-.333-.129-.659-.265-.985-.413a15.862,15.862,0,0,1-6.558-5.449c0-.037-.08,0-.055.031a18.015,18.015,0,0,0,5.3,5.092,15.794,15.794,0,0,0,3.356,1.589,31.948,31.948,0,0,0,4.162.985,28.843,28.843,0,0,1,4.076.967,12.385,12.385,0,0,1,3.423,1.8,16.01,16.01,0,0,1,4.612,5.72,28.844,28.844,0,0,1,2.537,9.409c0,.142.228.142.222,0C406.955,377.288,405.527,371.66,401.358,367.9Z" transform="translate(-376.254 -320.862)" fill="#263238"/>
      <path id="Path_287" data-name="Path 287" d="M398.209,365.955a4.427,4.427,0,0,0-1.582-1.435,5.837,5.837,0,0,1-1.884-1.558c0-.031-.08,0-.055.037a6.4,6.4,0,0,0,1.663,1.49,5.751,5.751,0,0,1,1.81,1.5C398.178,366.016,398.228,365.985,398.209,365.955Z" transform="translate(-382.033 -323.111)" fill="#263238"/>
      <path id="Path_288" data-name="Path 288" d="M407.04,390.07l.351,7.075,1.071,21.625h16.145l1.071-21.625.351-7.075Z" transform="translate(-386.782 -333.533)" fill="#455a64"/>
      <path id="Path_289" data-name="Path 289" d="M407.04,390.07l.351,7.075h18.288l.351-7.075Z" transform="translate(-386.782 -333.533)" fill="#263238"/>
      <rect id="Rectangle_132" data-name="Rectangle 132" width="21.249" height="6.749" transform="translate(40.38 60.336) rotate(180)" fill="#455a64"/>
    </g>
    <g id="freepik--Device--inject-5" transform="translate(184.629 123.813)">
      <path id="Path_290" data-name="Path 290" d="M308.019,247.983H278.63V245.7l29.389-.948Z" transform="translate(-278.63 -203.736)" fill="#455a64"/>
      <path id="Path_291" data-name="Path 291" d="M351.452,245.676h-19.39c-1.65,0,.745-4.71,6.773-6.521S353.38,243.908,351.452,245.676Z" transform="translate(-298.967 -201.465)" fill="#37474f"/>
      <path id="Path_292" data-name="Path 292" d="M351.5,246.739a4.68,4.68,0,0,1,.148-1.626,5.836,5.836,0,0,1,.616-1.521,4.809,4.809,0,0,1,1.084-1.231,3.812,3.812,0,0,1,1.453-.751,12.638,12.638,0,0,0-1.121,1.1,8.666,8.666,0,0,0-.887,1.231A17.246,17.246,0,0,0,351.5,246.739Z" transform="translate(-306.624 -202.529)" fill="#263238"/>
      <path id="Path_293" data-name="Path 293" d="M355.25,242.66a7.7,7.7,0,0,1,1.73.566,9.94,9.94,0,0,1,1.595.905,6.157,6.157,0,0,1,1.348,1.281,2.611,2.611,0,0,1,.616,1.73,3.768,3.768,0,0,0-1-1.416,10.467,10.467,0,0,0-1.342-1.09C357.27,243.953,356.254,243.35,355.25,242.66Z" transform="translate(-308.072 -202.932)" fill="#263238"/>
      <path id="Path_294" data-name="Path 294" d="M357.055,213.231H309.92l7.5-35.091h47.129Z" transform="translate(-290.654 -178.14)" fill="#455a64"/>
      <path id="Path_295" data-name="Path 295" d="M359.885,213.231H312.75l7.5-35.091h47.129Z" transform="translate(-291.741 -178.14)" fill="#37474f"/>
      <path id="Path_296" data-name="Path 296" d="M347.322,209.785h-1.1l1.675-7.875H349Z" transform="translate(-304.602 -187.274)" fill="#263238"/>
      <path id="Path_297" data-name="Path 297" d="M350.868,209.785H349.76l1.681-7.875h1.1Z" transform="translate(-305.962 -187.274)" fill="#263238"/>
      <path id="Path_298" data-name="Path 298" d="M354.408,209.785H353.3l1.681-7.875h1.1Z" transform="translate(-307.323 -187.274)" fill="#263238"/>
      <path id="Path_299" data-name="Path 299" d="M357.948,209.785H356.84l1.681-7.875h1.1Z" transform="translate(-308.683 -187.274)" fill="#263238"/>
      <path id="Path_300" data-name="Path 300" d="M361.492,209.785h-1.1l1.675-7.875h1.108Z" transform="translate(-310.047 -187.274)" fill="#263238"/>
      <path id="Path_301" data-name="Path 301" d="M365.032,209.785h-1.1l1.675-7.875h1.108Z" transform="translate(-311.407 -187.274)" fill="#263238"/>
      <path id="Path_302" data-name="Path 302" d="M368.572,209.785h-1.1l1.675-7.875h1.108Z" transform="translate(-312.768 -187.274)" fill="#263238"/>
      <path id="Path_303" data-name="Path 303" d="M353.183,248.419H330v-1.8l23.183-.751Z" transform="translate(-298.369 -204.166)" fill="#455a64"/>
      <path id="Path_304" data-name="Path 304" d="M365.438,237.741H352.994L345.5,218.08h12.444Z" transform="translate(-304.325 -193.487)" fill="#455a64"/>
      <path id="Path_305" data-name="Path 305" d="M368.768,237.741H356.324L348.83,218.08h12.444Z" transform="translate(-305.605 -193.487)" fill="#263238"/>
    </g>
  </g>
</svg>
